<svg xmlns="http://www.w3.org/2000/svg" width="160mm" height="264mm" viewBox="0 0 160 264" font-family="DejaVu Sans, Arial, sans-serif" role="img" aria-label="Lageplan Szenario mittig">
<title>Lageplan Szenario mittig</title>
<rect width="160" height="264" fill="#ffffff"/>
<defs><pattern id="m-strasse" patternUnits="userSpaceOnUse" width="3" height="3" patternTransform="rotate(45)"><rect width="3" height="3" fill="#ececec"/><line x1="0" y1="0" x2="0" y2="3" stroke="#bdbdbd" stroke-width="0.3"/></pattern></defs>
<polygon points="30,200 30,180 130,180 130,200 30,200" fill="url(#m-strasse)" stroke="#898781" stroke-width="0.25" stroke-dasharray="2 1.2"><title>öffentliche Verkehrsfläche (bis Mitte anrechenbar)</title></polygon>
<polygon points="30,180 130,180 130,30 30,30 30,180" fill="none" stroke="#0b0b0b" stroke-width="0.7"><title>Grundstücksgrenze</title></polygon>
<polygon points="38.67,135 55,135 55,75 38.67,75 38.67,135" fill="#0ca30c" stroke="#0ca30c" stroke-width="0.35" fill-opacity="0.28"><title>West (Traufe)</title></polygon>
<polygon points="105,135 121.33,135 121.33,75 105,75 105,135" fill="#0ca30c" stroke="#0ca30c" stroke-width="0.35" fill-opacity="0.28"><title>Ost (Traufe)</title></polygon>
<polygon points="55,135 55,150 60,150 80,158 100,150 105,150 105,135 55,135" fill="#0ca30c" stroke="#0ca30c" stroke-width="0.35" fill-opacity="0.28"><title>Süd (Giebel)</title></polygon>
<polygon points="105,75 105,60 100,60 80,52 60,60 55,60 55,75 105,75" fill="#0ca30c" stroke="#0ca30c" stroke-width="0.35" fill-opacity="0.28"><title>Nord (Giebel)</title></polygon>
<polygon points="105,135 105,75 55,75 55,135 105,135" fill="#8d6e63" stroke="#3e2723" stroke-width="0.5"><title>geplantes Gebäude</title></polygon>
<line x1="55" y1="98.5" x2="55" y2="102" stroke="#0b0b0b" stroke-width="0.18"/>
<line x1="38.67" y1="98.5" x2="38.67" y2="102" stroke="#0b0b0b" stroke-width="0.18"/>
<line x1="56.5" y1="100.5" x2="37.17" y2="100.5" stroke="#0b0b0b" stroke-width="0.25"/>
<line x1="56.1" y1="99.4" x2="53.9" y2="101.6" stroke="#0b0b0b" stroke-width="0.5"/>
<line x1="39.77" y1="99.4" x2="37.57" y2="101.6" stroke="#0b0b0b" stroke-width="0.5"/>
<text x="46.83" y="99.7" font-size="2.5" text-anchor="middle" fill="#0b0b0b">T = 3,27</text>
<line x1="105" y1="98.5" x2="105" y2="102" stroke="#0b0b0b" stroke-width="0.18"/>
<line x1="121.33" y1="98.5" x2="121.33" y2="102" stroke="#0b0b0b" stroke-width="0.18"/>
<line x1="103.5" y1="100.5" x2="122.83" y2="100.5" stroke="#0b0b0b" stroke-width="0.25"/>
<line x1="103.9" y1="101.6" x2="106.1" y2="99.4" stroke="#0b0b0b" stroke-width="0.5"/>
<line x1="120.23" y1="101.6" x2="122.43" y2="99.4" stroke="#0b0b0b" stroke-width="0.5"/>
<text x="113.17" y="99.7" font-size="2.5" text-anchor="middle" fill="#0b0b0b">T = 3,27</text>
<line x1="83" y1="135" x2="79.5" y2="135" stroke="#0b0b0b" stroke-width="0.18"/>
<line x1="83" y1="158" x2="79.5" y2="158" stroke="#0b0b0b" stroke-width="0.18"/>
<line x1="81" y1="133.5" x2="81" y2="159.5" stroke="#0b0b0b" stroke-width="0.25"/>
<line x1="79.9" y1="133.9" x2="82.1" y2="136.1" stroke="#0b0b0b" stroke-width="0.5"/>
<line x1="79.9" y1="156.9" x2="82.1" y2="159.1" stroke="#0b0b0b" stroke-width="0.5"/>
<text x="81.8" y="146.5" font-size="2.5" text-anchor="middle" fill="#0b0b0b" transform="rotate(90 81.8 146.5)">T = 4,60</text>
<line x1="83" y1="75" x2="79.5" y2="75" stroke="#0b0b0b" stroke-width="0.18"/>
<line x1="83" y1="52" x2="79.5" y2="52" stroke="#0b0b0b" stroke-width="0.18"/>
<line x1="81" y1="76.5" x2="81" y2="50.5" stroke="#0b0b0b" stroke-width="0.25"/>
<line x1="82.1" y1="76.1" x2="79.9" y2="73.9" stroke="#0b0b0b" stroke-width="0.5"/>
<line x1="82.1" y1="53.1" x2="79.9" y2="50.9" stroke="#0b0b0b" stroke-width="0.5"/>
<text x="81.8" y="63.5" font-size="2.5" text-anchor="middle" fill="#0b0b0b" transform="rotate(90 81.8 63.5)">T = 4,60</text>
<line x1="30" y1="81.5" x2="30" y2="78" stroke="#0b0b0b" stroke-width="0.18"/>
<line x1="55" y1="81.5" x2="55" y2="78" stroke="#0b0b0b" stroke-width="0.18"/>
<line x1="28.5" y1="79.5" x2="56.5" y2="79.5" stroke="#0b0b0b" stroke-width="0.25"/>
<line x1="28.9" y1="80.6" x2="31.1" y2="78.4" stroke="#0b0b0b" stroke-width="0.5"/>
<line x1="53.9" y1="80.6" x2="56.1" y2="78.4" stroke="#0b0b0b" stroke-width="0.5"/>
<text x="42.5" y="78.7" font-size="2.5" text-anchor="middle" fill="#0b0b0b">5,00</text>
<line x1="105" y1="81.5" x2="105" y2="78" stroke="#0b0b0b" stroke-width="0.18"/>
<line x1="130" y1="81.5" x2="130" y2="78" stroke="#0b0b0b" stroke-width="0.18"/>
<line x1="103.5" y1="79.5" x2="131.5" y2="79.5" stroke="#0b0b0b" stroke-width="0.25"/>
<line x1="103.9" y1="80.6" x2="106.1" y2="78.4" stroke="#0b0b0b" stroke-width="0.5"/>
<line x1="128.9" y1="80.6" x2="131.1" y2="78.4" stroke="#0b0b0b" stroke-width="0.5"/>
<text x="117.5" y="78.7" font-size="2.5" text-anchor="middle" fill="#0b0b0b">5,00</text>
<line x1="61" y1="180" x2="64.5" y2="180" stroke="#0b0b0b" stroke-width="0.18"/>
<line x1="61" y1="135" x2="64.5" y2="135" stroke="#0b0b0b" stroke-width="0.18"/>
<line x1="63" y1="181.5" x2="63" y2="133.5" stroke="#0b0b0b" stroke-width="0.25"/>
<line x1="64.1" y1="181.1" x2="61.9" y2="178.9" stroke="#0b0b0b" stroke-width="0.5"/>
<line x1="64.1" y1="136.1" x2="61.9" y2="133.9" stroke="#0b0b0b" stroke-width="0.5"/>
<text x="63.8" y="157.5" font-size="2.5" text-anchor="middle" fill="#0b0b0b" transform="rotate(90 63.8 157.5)">9,00</text>
<line x1="61" y1="75" x2="64.5" y2="75" stroke="#0b0b0b" stroke-width="0.18"/>
<line x1="61" y1="30" x2="64.5" y2="30" stroke="#0b0b0b" stroke-width="0.18"/>
<line x1="63" y1="76.5" x2="63" y2="28.5" stroke="#0b0b0b" stroke-width="0.25"/>
<line x1="64.1" y1="76.1" x2="61.9" y2="73.9" stroke="#0b0b0b" stroke-width="0.5"/>
<line x1="64.1" y1="31.1" x2="61.9" y2="28.9" stroke="#0b0b0b" stroke-width="0.5"/>
<text x="63.8" y="52.5" font-size="2.5" text-anchor="middle" fill="#0b0b0b" transform="rotate(90 63.8 52.5)">9,00</text>
<line x1="55" y1="134" x2="55" y2="130.5" stroke="#0b0b0b" stroke-width="0.18"/>
<line x1="105" y1="134" x2="105" y2="130.5" stroke="#0b0b0b" stroke-width="0.18"/>
<line x1="53.5" y1="132" x2="106.5" y2="132" stroke="#0b0b0b" stroke-width="0.25"/>
<line x1="53.9" y1="133.1" x2="56.1" y2="130.9" stroke="#0b0b0b" stroke-width="0.5"/>
<line x1="103.9" y1="133.1" x2="106.1" y2="130.9" stroke="#0b0b0b" stroke-width="0.5"/>
<text x="80" y="131.2" font-size="2.5" text-anchor="middle" fill="#0b0b0b">10,00</text>
<line x1="104" y1="135" x2="100.5" y2="135" stroke="#0b0b0b" stroke-width="0.18"/>
<line x1="104" y1="75" x2="100.5" y2="75" stroke="#0b0b0b" stroke-width="0.18"/>
<line x1="102" y1="136.5" x2="102" y2="73.5" stroke="#0b0b0b" stroke-width="0.25"/>
<line x1="103.1" y1="136.1" x2="100.9" y2="133.9" stroke="#0b0b0b" stroke-width="0.5"/>
<line x1="103.1" y1="76.1" x2="100.9" y2="73.9" stroke="#0b0b0b" stroke-width="0.5"/>
<text x="102.8" y="105" font-size="2.5" text-anchor="middle" fill="#0b0b0b" transform="rotate(90 102.8 105)">12,00</text>
<g transform="rotate(0 148 16)"><circle cx="148" cy="16" r="5" fill="none" stroke="#0b0b0b" stroke-width="0.25"/><polygon points="148,11 149.75,19 148,17.5" fill="#0b0b0b"/><polygon points="148,11 146.25,19 148,17.5" fill="#ffffff" stroke="#0b0b0b" stroke-width="0.25"/><text x="148" y="9.8" font-size="3.5" text-anchor="middle" font-weight="bold">N</text></g>
<rect x="10" y="232" width="25" height="1.5" fill="#0b0b0b" stroke="#0b0b0b" stroke-width="0.25"/>
<rect x="35" y="232" width="25" height="1.5" fill="#ffffff" stroke="#0b0b0b" stroke-width="0.25"/>
<text x="10" y="236.5" font-size="2.2" text-anchor="middle" fill="#0b0b0b">0</text>
<text x="35" y="236.5" font-size="2.2" text-anchor="middle" fill="#0b0b0b">5</text>
<text x="60" y="236.5" font-size="2.2" text-anchor="middle" fill="#0b0b0b">10</text>
<text x="62.5" y="233.5" font-size="2.5" text-anchor="start" fill="#0b0b0b">m   M 1:200</text>
<rect x="10" y="241" width="6" height="3" fill="none" fill-opacity="1" stroke="#0b0b0b" stroke-width="0.25"/>
<text x="18" y="243.6" font-size="2.5" text-anchor="start" fill="#0b0b0b">Grundstücksgrenze</text>
<rect x="10" y="246" width="6" height="3" fill="#8d6e63" fill-opacity="1" stroke="#3e2723" stroke-width="0.25"/>
<text x="18" y="248.6" font-size="2.5" text-anchor="start" fill="#0b0b0b">geplantes Gebäude</text>
<rect x="10" y="251" width="6" height="3" fill="#0ca30c" fill-opacity="0.28" stroke="#0ca30c" stroke-width="0.25"/>
<text x="18" y="253.6" font-size="2.5" text-anchor="start" fill="#0b0b0b">Abstandsfläche zulässig</text>
<rect x="58" y="241" width="6" height="3" fill="#d03b3b" fill-opacity="0.28" stroke="#d03b3b" stroke-width="0.25"/>
<text x="66" y="243.6" font-size="2.5" text-anchor="start" fill="#0b0b0b">Abstandsfläche außerhalb</text>
<rect x="58" y="246" width="6" height="3" fill="url(#m-strasse)" fill-opacity="1" stroke="#898781" stroke-width="0.25"/>
<text x="66" y="248.6" font-size="2.5" text-anchor="start" fill="#0b0b0b">öffentl. Verkehrsfläche</text>
<rect x="90" y="235.5" width="60" height="24.5" fill="#ffffff" stroke="#0b0b0b" stroke-width="0.5"/>
<text x="92" y="240" font-size="3" text-anchor="start" fill="#0b0b0b" font-weight="bold">Abstandsflächen – mittig</text>
<text x="92" y="244.5" font-size="2.5" text-anchor="start" fill="#0b0b0b">BayBO Art. 6, Giebel: voll</text>
<text x="92" y="249" font-size="2.5" text-anchor="start" fill="#0b0b0b">M 1:200, Maße in m</text>
<text x="92" y="253.5" font-size="2.5" text-anchor="start" fill="#0b0b0b">Nachweis N-B4-mittig-voll</text>
<text x="92" y="258" font-size="2.5" text-anchor="start" fill="#0b0b0b">Ergebnis: zulässig</text>
</svg>
