<svg xmlns="http://www.w3.org/2000/svg" width="560" height="840" viewBox="0 0 560 840" font-family="sans-serif" font-size="11">
<rect width="560" height="840" fill="#ffffff"/>
<polygon points="80.0,760.0 80.0,680.0 480.0,680.0 480.0,760.0 80.0,760.0" fill="#e6e6e6" stroke="#999999" stroke-dasharray="4 3"/>
<polygon points="80.0,680.0 480.0,680.0 480.0,80.0 80.0,80.0" fill="none" stroke="#000000" stroke-width="2"/>
<polygon points="114.7,500.0 180.0,500.0 180.0,260.0 114.7,260.0 114.7,500.0" fill="#4c9a2a" fill-opacity="0.35" stroke="#4c9a2a"/>
<polygon points="380.0,500.0 445.3,500.0 445.3,260.0 380.0,260.0 380.0,500.0" fill="#4c9a2a" fill-opacity="0.35" stroke="#4c9a2a"/>
<polygon points="180.0,500.0 180.0,560.0 200.0,560.0 280.0,592.0 360.0,560.0 380.0,560.0 380.0,500.0 180.0,500.0" fill="#4c9a2a" fill-opacity="0.35" stroke="#4c9a2a"/>
<polygon points="380.0,260.0 380.0,200.0 360.0,200.0 280.0,168.0 200.0,200.0 180.0,200.0 180.0,260.0 380.0,260.0" fill="#4c9a2a" fill-opacity="0.35" stroke="#4c9a2a"/>
<polygon points="180.0,500.0 380.0,500.0 380.0,260.0 180.0,260.0" fill="#8d6e63" stroke="#3e2723" stroke-width="1.5"/>
<line x1="280.0" y1="500.0" x2="280.0" y2="260.0" stroke="#ffffff" stroke-dasharray="6 3"/>
<text x="10.0" y="24.0">Szenario mittig (voll): zulässig</text>
</svg>
