<svg xmlns="http://www.w3.org/2000/svg" width="560" height="840" viewBox="0 0 560 840" font-family="sans-serif" font-size="11">
<rect width="560" height="840" fill="#ffffff"/>
<polygon points="80.0,760.0 80.0,680.0 480.0,680.0 480.0,760.0 80.0,760.0" fill="#e6e6e6" stroke="#999999" stroke-dasharray="4 3"/>
<polygon points="80.0,680.0 480.0,680.0 480.0,80.0 80.0,80.0" fill="none" stroke="#000000" stroke-width="2"/>
<polygon points="54.7,500.0 120.0,500.0 120.0,260.0 54.7,260.0 54.7,500.0" fill="#c0392b" fill-opacity="0.35" stroke="#c0392b"/>
<polygon points="320.0,500.0 385.3,500.0 385.3,260.0 320.0,260.0 320.0,500.0" fill="#4c9a2a" fill-opacity="0.35" stroke="#4c9a2a"/>
<polygon points="120.0,500.0 120.0,560.0 180.0,560.0 220.0,565.3 260.0,560.0 320.0,560.0 320.0,500.0 120.0,500.0" fill="#4c9a2a" fill-opacity="0.35" stroke="#4c9a2a"/>
<polygon points="320.0,260.0 320.0,200.0 260.0,200.0 220.0,194.7 180.0,200.0 120.0,200.0 120.0,260.0 320.0,260.0" fill="#4c9a2a" fill-opacity="0.35" stroke="#4c9a2a"/>
<polygon points="120.0,500.0 320.0,500.0 320.0,260.0 120.0,260.0" fill="#8d6e63" stroke="#3e2723" stroke-width="1.5"/>
<line x1="220.0" y1="500.0" x2="220.0" y2="260.0" stroke="#ffffff" stroke-dasharray="6 3"/>
<text x="10.0" y="24.0">Szenario zu_nah (drittel): NICHT zulässig</text>
</svg>
