ISO-10303-21;
HEADER;
FILE_DESCRIPTION(('ViewDefinition [NotAssigned]'),'2;1');
FILE_NAME('b16_gerade_60x60__punkt_aggregiert.ifc','2026-01-01T00:00:00',('Entwurfsgenerator (Beispiel)'),('Arbeit Holzrahmenbau'),'IfcOpenShell 0.8.5-1c5b825','IfcOpenShell 0.8.5-1c5b825','keine');
FILE_SCHEMA(('IFC4X3_ADD2'));
ENDSEC;
DATA;
#1=IFCPROJECT('0_NQc15qDORxCpDVH4bTYC',$,'B16 Duschraum achteckig (Beispiel)',$,$,$,$,(#10),#5);
#2=IFCSIUNIT(*,.LENGTHUNIT.,.MILLI.,.METRE.);
#3=IFCSIUNIT(*,.AREAUNIT.,$,.SQUARE_METRE.);
#4=IFCSIUNIT(*,.PLANEANGLEUNIT.,$,.RADIAN.);
#5=IFCUNITASSIGNMENT((#2,#3,#4));
#6=IFCCARTESIANPOINT((0.,0.,0.));
#7=IFCDIRECTION((0.,0.,1.));
#8=IFCDIRECTION((1.,0.,0.));
#9=IFCAXIS2PLACEMENT3D(#6,#7,#8);
#10=IFCGEOMETRICREPRESENTATIONCONTEXT($,'Model',3,1.0000000000000001E-05,#9,$);
#11=IFCGEOMETRICREPRESENTATIONSUBCONTEXT('Body','Model',*,*,*,*,#10,$,.MODEL_VIEW.,$);
#12=IFCCARTESIANPOINT((0.,0.,0.));
#13=IFCAXIS2PLACEMENT3D(#12,$,$);
#14=IFCLOCALPLACEMENT($,#13);
#15=IFCSITE('1ElNV_A1XQpB_NyKMldGI9',$,'Grundst\X2\00FC\X0\ck',$,$,#14,$,$,$,$,$,$,$,$);
#16=IFCCARTESIANPOINT((0.,0.,0.));
#17=IFCAXIS2PLACEMENT3D(#16,$,$);
#18=IFCLOCALPLACEMENT(#14,#17);
#19=IFCBUILDING('2O082_xsXMZBi$UG$reI4e',$,'Fertighaus Beispiel',$,$,#18,$,$,$,$,$,$);
#20=IFCCARTESIANPOINT((0.,0.,0.));
#21=IFCAXIS2PLACEMENT3D(#20,$,$);
#22=IFCLOCALPLACEMENT(#18,#21);
#23=IFCBUILDINGSTOREY('2lTc$66$TI_APjtaWhZHSD',$,'EG',$,$,#22,$,$,$,0.);
#24=IFCCARTESIANPOINT((0.,0.,0.));
#25=IFCAXIS2PLACEMENT3D(#24,$,$);
#26=IFCLOCALPLACEMENT(#22,#25);
#27=IFCSPACE('09M7fRJY9JoxkE07wXh79K',$,'EG-Dusche-achteckig',$,$,#26,$,$,$,$,$);
#28=IFCRELAGGREGATES('22fDGb7XjJVgVi1Or1jpPS',$,$,$,#1,(#15));
#29=IFCRELAGGREGATES('3CR3RQJXbRQAVswdF5ctVY',$,$,$,#15,(#19));
#30=IFCRELAGGREGATES('1$xjPU12TV3Qe08uvxFgoB',$,$,$,#19,(#23));
#31=IFCRELAGGREGATES('2TVYMtCg5UQAHV8qAbuypW',$,$,$,#23,(#27));
#32=IFCCOVERINGTYPE('2UqETe9qnPQuuTUu7CoORf',$,'F60x60',$,$,(#36),(#51),$,$,.FLOORING.);
#33=IFCPROPERTYSINGLEVALUE('GlobalTradeItemNumber',$,IFCLABEL('BEISPIEL-GTIN-F6060'),$);
#34=IFCPROPERTYSINGLEVALUE('ArticleNumber',$,IFCLABEL('F60x60'),$);
#35=IFCPROPERTYSINGLEVALUE('Manufacturer',$,IFCLABEL('Beispiel'),$);
#36=IFCPROPERTYSET('0R__MGzjLPyvzzlr_awS66',$,'Pset_ManufacturerTypeInformation',$,(#33,#34,#35));
#37=IFCCARTESIANPOINT((600.,0.));
#38=IFCCARTESIANPOINT((600.,600.));
#39=IFCCARTESIANPOINT((0.,600.));
#40=IFCCARTESIANPOINT((0.,0.));
#41=IFCCARTESIANPOINT((600.,0.));
#42=IFCPOLYLINE((#37,#38,#39,#40,#41));
#43=IFCARBITRARYCLOSEDPROFILEDEF(.AREA.,$,#42);
#44=IFCCARTESIANPOINT((0.,0.,-10.));
#45=IFCAXIS2PLACEMENT3D(#44,$,$);
#46=IFCDIRECTION((0.,0.,1.));
#47=IFCEXTRUDEDAREASOLID(#43,#45,#46,10.);
#48=IFCCARTESIANPOINT((0.,0.,0.));
#49=IFCAXIS2PLACEMENT3D(#48,$,$);
#50=IFCSHAPEREPRESENTATION(#11,'Body','SweptSolid',(#47));
#51=IFCREPRESENTATIONMAP(#49,#50);
#52=IFCCARTESIANPOINT((0.,0.,0.));
#53=IFCAXIS2PLACEMENT3D(#52,$,$);
#54=IFCLOCALPLACEMENT(#26,#53);
#55=IFCCOVERING('205rHcRDLU3eRzFSAxH1Xz',$,'Duschboden gerade_60x60',$,$,#54,#439,$,.FLOORING.);
#56=IFCRELCONTAINEDINSPATIALSTRUCTURE('0Kl4w3UwrOWe4OJTjTlC3A',$,$,$,(#55),#27);
#57=IFCRELCOVERSSPACES('3I5n79uE1S9foiIe4dH99g',$,$,$,#27,(#55));
#58=IFCPROPERTYSINGLEVALUE('Muster',$,IFCLABEL('gerade'),$);
#59=IFCPROPERTYSINGLEVALUE('Rasterursprung_u',$,IFCREAL(0.),$);
#60=IFCPROPERTYSINGLEVALUE('Rasterursprung_v',$,IFCREAL(0.),$);
#61=IFCPROPERTYSINGLEVALUE('Fugenbreite',$,IFCREAL(3.),$);
#62=IFCPROPERTYSINGLEVALUE('Gefaelle_Prozent',$,IFCREAL(1.5),$);
#63=IFCPROPERTYSINGLEVALUE('Entwaesserung',$,IFCLABEL('punkt'),$);
#64=IFCPROPERTYSINGLEVALUE('Verschnitt',$,IFCREAL(0.076399999999999996),$);
#65=IFCPROPERTYSINGLEVALUE('RohlingeBedarf',$,IFCINTEGER(14),$);
#66=IFCPROPERTYSINGLEVALUE('Pakete',$,IFCINTEGER(5),$);
#67=IFCPROPERTYSINGLEVALUE('Kaliber',$,IFCLABEL('W1'),$);
#68=IFCPROPERTYSET('2qSbeDoL9KyeKMVEdgo3pR',$,'HP_Verlegung',$,(#58,#59,#60,#61,#62,#63,#64,#65,#66,#67));
#69=IFCRELDEFINESBYPROPERTIES('0bWYhJmgLR0By3io7Pxtsa',$,$,$,(#55),#68);
#70=IFCPROPERTYSINGLEVALUE('BatchReference',$,IFCLABEL('BEISPIEL-CHARGE-A1'),$);
#71=IFCPROPERTYSET('2Q5j$43WHMpBx23WkqxiJH',$,'Pset_ManufacturerOccurrence',$,(#70));
#72=IFCRELDEFINESBYPROPERTIES('1ps70E_HfRvfVRBBod4WPt',$,$,$,(#55),#71);
#73=IFCQUANTITYLENGTH('Width',$,$,10.,$);
#74=IFCQUANTITYAREA('GrossArea',$,$,4.7717000000000001,$);
#75=IFCQUANTITYAREA('NetArea',$,$,4.6551,$);
#76=IFCELEMENTQUANTITY('2EDYjGOjDSc9CWkzftVOIU',$,'Qto_CoveringBaseQuantities',$,$,(#73,#74,#75));
#77=IFCRELDEFINESBYPROPERTIES('02YghGOqfJoxGXIJn4VDPF',$,$,$,(#55),#76);
#78=IFCCARTESIANPOINT((0.,0.,0.));
#79=IFCAXIS2PLACEMENT3D(#78,$,$);
#80=IFCCARTESIANPOINT((0.,0.,0.));
#81=IFCCARTESIANTRANSFORMATIONOPERATOR3D($,$,#80,$,$);
#82=IFCCARTESIANPOINTLIST3D(((-603.,-3.,9.0449999999999999),(-78.,-3.,1.1699999999999999),(-78.,-30.690000000000001,1.1699999999999999),(-603.,-248.15000000000001,9.0449999999999999),(-603.,-3.,-0.95500000000000007),(-78.,-3.,-8.8300000000000001),(-78.,-30.690000000000001,-8.8300000000000001),(-603.,-248.15000000000001,-0.95500000000000007)),$);
#83=IFCINDEXEDPOLYGONALFACE((1,2,3,4));
#84=IFCINDEXEDPOLYGONALFACE((8,7,6,5));
#85=IFCINDEXEDPOLYGONALFACE((1,5,6,2));
#86=IFCINDEXEDPOLYGONALFACE((2,6,7,3));
#87=IFCINDEXEDPOLYGONALFACE((3,7,8,4));
#88=IFCINDEXEDPOLYGONALFACE((4,8,5,1));
#89=IFCPOLYGONALFACESET(#82,.T.,(#83,#84,#85,#86,#87,#88),$);
#90=IFCSHAPEREPRESENTATION(#11,'Body','Tessellation',(#89));
#91=IFCREPRESENTATIONMAP(#79,#90);
#92=IFCMAPPEDITEM(#91,#81);
#93=IFCCARTESIANPOINTLIST3D(((-603.,-603.,12.792),(-603.,-251.38999999999999,9.0619999999999994),(-78.,-33.93,1.1870000000000001),(-78.,-78.,1.655),(-33.93,-78.,1.1870000000000001),(-251.38999999999999,-603.,9.0619999999999994),(-603.,-603.,2.7919999999999998),(-603.,-251.38999999999999,-0.93800000000000061),(-78.,-33.93,-8.8130000000000006),(-78.,-78.,-8.3450000000000006),(-33.93,-78.,-8.8130000000000006),(-251.38999999999999,-603.,-0.93800000000000061)),$);
#94=IFCINDEXEDPOLYGONALFACE((1,2,3,4,5,6));
#95=IFCINDEXEDPOLYGONALFACE((12,11,10,9,8,7));
#96=IFCINDEXEDPOLYGONALFACE((1,7,8,2));
#97=IFCINDEXEDPOLYGONALFACE((2,8,9,3));
#98=IFCINDEXEDPOLYGONALFACE((3,9,10,4));
#99=IFCINDEXEDPOLYGONALFACE((4,10,11,5));
#100=IFCINDEXEDPOLYGONALFACE((5,11,12,6));
#101=IFCINDEXEDPOLYGONALFACE((6,12,7,1));
#102=IFCPOLYGONALFACESET(#93,.T.,(#94,#95,#96,#97,#98,#99,#100,#101),$);
#103=IFCSHAPEREPRESENTATION(#11,'Body','Tessellation',(#102));
#104=IFCREPRESENTATIONMAP(#79,#103);
#105=IFCMAPPEDITEM(#104,#81);
#106=IFCCARTESIANPOINTLIST3D(((-3.,-603.,9.0449999999999999),(-248.15000000000001,-603.,9.0449999999999999),(-30.690000000000001,-78.,1.1699999999999999),(-3.,-78.,1.1699999999999999),(-3.,-603.,-0.95500000000000007),(-248.15000000000001,-603.,-0.95500000000000007),(-30.690000000000001,-78.,-8.8300000000000001),(-3.,-78.,-8.8300000000000001)),$);
#107=IFCINDEXEDPOLYGONALFACE((1,2,3,4));
#108=IFCINDEXEDPOLYGONALFACE((8,7,6,5));
#109=IFCINDEXEDPOLYGONALFACE((1,5,6,2));
#110=IFCINDEXEDPOLYGONALFACE((2,6,7,3));
#111=IFCINDEXEDPOLYGONALFACE((3,7,8,4));
#112=IFCINDEXEDPOLYGONALFACE((4,8,5,1));
#113=IFCPOLYGONALFACESET(#106,.T.,(#107,#108,#109,#110,#111,#112),$);
#114=IFCSHAPEREPRESENTATION(#11,'Body','Tessellation',(#113));
#115=IFCREPRESENTATIONMAP(#79,#114);
#116=IFCMAPPEDITEM(#115,#81);
#117=IFCCARTESIANPOINTLIST3D(((-603.,-606.,12.823),(-252.63999999999999,-606.,9.1069999999999993),(-496.95999999999998,-1195.8499999999999,17.954999999999998),(-603.,-1089.8099999999999,17.954999999999998),(-603.,-606.,2.8230000000000004),(-252.63999999999999,-606.,-0.89300000000000068),(-496.95999999999998,-1195.8499999999999,7.9549999999999983),(-603.,-1089.8099999999999,7.9549999999999983)),$);
#118=IFCINDEXEDPOLYGONALFACE((1,2,3,4));
#119=IFCINDEXEDPOLYGONALFACE((8,7,6,5));
#120=IFCINDEXEDPOLYGONALFACE((1,5,6,2));
#121=IFCINDEXEDPOLYGONALFACE((2,6,7,3));
#122=IFCINDEXEDPOLYGONALFACE((3,7,8,4));
#123=IFCINDEXEDPOLYGONALFACE((4,8,5,1));
#124=IFCPOLYGONALFACESET(#117,.T.,(#118,#119,#120,#121,#122,#123),$);
#125=IFCSHAPEREPRESENTATION(#11,'Body','Tessellation',(#124));
#126=IFCREPRESENTATIONMAP(#79,#125);
#127=IFCMAPPEDITEM(#126,#81);
#128=IFCCARTESIANPOINTLIST3D(((-3.,-606.,9.0899999999999999),(-3.,-1197.,17.954999999999998),(-494.19,-1197.,17.954999999999998),(-249.38999999999999,-606.,9.0899999999999999),(-3.,-606.,-0.91000000000000014),(-3.,-1197.,7.9549999999999983),(-494.19,-1197.,7.9549999999999983),(-249.38999999999999,-606.,-0.91000000000000014)),$);
#129=IFCINDEXEDPOLYGONALFACE((1,2,3,4));
#130=IFCINDEXEDPOLYGONALFACE((8,7,6,5));
#131=IFCINDEXEDPOLYGONALFACE((1,5,6,2));
#132=IFCINDEXEDPOLYGONALFACE((2,6,7,3));
#133=IFCINDEXEDPOLYGONALFACE((3,7,8,4));
#134=IFCINDEXEDPOLYGONALFACE((4,8,5,1));
#135=IFCPOLYGONALFACESET(#128,.T.,(#129,#130,#131,#132,#133,#134),$);
#136=IFCSHAPEREPRESENTATION(#11,'Body','Tessellation',(#135));
#137=IFCREPRESENTATIONMAP(#79,#136);
#138=IFCMAPPEDITEM(#137,#81);
#139=IFCCARTESIANPOINTLIST3D(((-3.,600.,9.),(-3.,78.,1.1699999999999999),(-30.690000000000001,78.,1.1699999999999999),(-246.90000000000001,600.,9.),(-3.,600.,-1.),(-3.,78.,-8.8300000000000001),(-30.690000000000001,78.,-8.8300000000000001),(-246.90000000000001,600.,-1.)),$);
#140=IFCINDEXEDPOLYGONALFACE((1,2,3,4));
#141=IFCINDEXEDPOLYGONALFACE((8,7,6,5));
#142=IFCINDEXEDPOLYGONALFACE((1,5,6,2));
#143=IFCINDEXEDPOLYGONALFACE((2,6,7,3));
#144=IFCINDEXEDPOLYGONALFACE((3,7,8,4));
#145=IFCINDEXEDPOLYGONALFACE((4,8,5,1));
#146=IFCPOLYGONALFACESET(#139,.T.,(#140,#141,#142,#143,#144,#145),$);
#147=IFCSHAPEREPRESENTATION(#11,'Body','Tessellation',(#146));
#148=IFCREPRESENTATIONMAP(#79,#147);
#149=IFCMAPPEDITEM(#148,#81);
#150=IFCCARTESIANPOINTLIST3D(((-603.,600.,12.76),(-250.15000000000001,600.,9.0169999999999995),(-33.93,78.,1.1870000000000001),(-78.,78.,1.655),(-78.,33.93,1.1870000000000001),(-603.,251.38999999999999,9.0619999999999994),(-603.,600.,2.7599999999999998),(-250.15000000000001,600.,-0.98300000000000054),(-33.93,78.,-8.8130000000000006),(-78.,78.,-8.3450000000000006),(-78.,33.93,-8.8130000000000006),(-603.,251.38999999999999,-0.93800000000000061)),$);
#151=IFCINDEXEDPOLYGONALFACE((1,2,3,4,5,6));
#152=IFCINDEXEDPOLYGONALFACE((12,11,10,9,8,7));
#153=IFCINDEXEDPOLYGONALFACE((1,7,8,2));
#154=IFCINDEXEDPOLYGONALFACE((2,8,9,3));
#155=IFCINDEXEDPOLYGONALFACE((3,9,10,4));
#156=IFCINDEXEDPOLYGONALFACE((4,10,11,5));
#157=IFCINDEXEDPOLYGONALFACE((5,11,12,6));
#158=IFCINDEXEDPOLYGONALFACE((6,12,7,1));
#159=IFCPOLYGONALFACESET(#150,.T.,(#151,#152,#153,#154,#155,#156,#157,#158),$);
#160=IFCSHAPEREPRESENTATION(#11,'Body','Tessellation',(#159));
#161=IFCREPRESENTATIONMAP(#79,#160);
#162=IFCMAPPEDITEM(#161,#81);
#163=IFCCARTESIANPOINTLIST3D(((-603.,0.,9.0449999999999999),(-603.,248.15000000000001,9.0449999999999999),(-78.,30.690000000000001,1.1699999999999999),(-78.,0.,1.1699999999999999),(-603.,0.,-0.95500000000000007),(-603.,248.15000000000001,-0.95500000000000007),(-78.,30.690000000000001,-8.8300000000000001),(-78.,0.,-8.8300000000000001)),$);
#164=IFCINDEXEDPOLYGONALFACE((1,2,3,4));
#165=IFCINDEXEDPOLYGONALFACE((8,7,6,5));
#166=IFCINDEXEDPOLYGONALFACE((1,5,6,2));
#167=IFCINDEXEDPOLYGONALFACE((2,6,7,3));
#168=IFCINDEXEDPOLYGONALFACE((3,7,8,4));
#169=IFCINDEXEDPOLYGONALFACE((4,8,5,1));
#170=IFCPOLYGONALFACESET(#163,.T.,(#164,#165,#166,#167,#168,#169),$);
#171=IFCSHAPEREPRESENTATION(#11,'Body','Tessellation',(#170));
#172=IFCREPRESENTATIONMAP(#79,#171);
#173=IFCMAPPEDITEM(#172,#81);
#174=IFCCARTESIANPOINTLIST3D(((-3.,603.,9.0449999999999999),(-248.15000000000001,603.,9.0449999999999999),(-494.19,1197.,17.954999999999998),(-3.,1197.,17.954999999999998),(-3.,603.,-0.95500000000000007),(-248.15000000000001,603.,-0.95500000000000007),(-494.19,1197.,7.9549999999999983),(-3.,1197.,7.9549999999999983)),$);
#175=IFCINDEXEDPOLYGONALFACE((1,2,3,4));
#176=IFCINDEXEDPOLYGONALFACE((8,7,6,5));
#177=IFCINDEXEDPOLYGONALFACE((1,5,6,2));
#178=IFCINDEXEDPOLYGONALFACE((2,6,7,3));
#179=IFCINDEXEDPOLYGONALFACE((3,7,8,4));
#180=IFCINDEXEDPOLYGONALFACE((4,8,5,1));
#181=IFCPOLYGONALFACESET(#174,.T.,(#175,#176,#177,#178,#179,#180),$);
#182=IFCSHAPEREPRESENTATION(#11,'Body','Tessellation',(#181));
#183=IFCREPRESENTATIONMAP(#79,#182);
#184=IFCMAPPEDITEM(#183,#81);
#185=IFCCARTESIANPOINTLIST3D(((-603.,603.,12.792),(-603.,1089.8099999999999,17.954999999999998),(-496.95999999999998,1195.8499999999999,17.954999999999998),(-251.38999999999999,603.,9.0619999999999994),(-603.,603.,2.7919999999999998),(-603.,1089.8099999999999,7.9549999999999983),(-496.95999999999998,1195.8499999999999,7.9549999999999983),(-251.38999999999999,603.,-0.93800000000000061)),$);
#186=IFCINDEXEDPOLYGONALFACE((1,2,3,4));
#187=IFCINDEXEDPOLYGONALFACE((8,7,6,5));
#188=IFCINDEXEDPOLYGONALFACE((1,5,6,2));
#189=IFCINDEXEDPOLYGONALFACE((2,6,7,3));
#190=IFCINDEXEDPOLYGONALFACE((3,7,8,4));
#191=IFCINDEXEDPOLYGONALFACE((4,8,5,1));
#192=IFCPOLYGONALFACESET(#185,.T.,(#186,#187,#188,#189,#190,#191),$);
#193=IFCSHAPEREPRESENTATION(#11,'Body','Tessellation',(#192));
#194=IFCREPRESENTATIONMAP(#79,#193);
#195=IFCMAPPEDITEM(#194,#81);
#196=IFCCARTESIANPOINTLIST3D(((-606.,-3.,9.0899999999999999),(-606.,-249.38999999999999,9.0899999999999999),(-1197.,-494.19,17.954999999999998),(-1197.,-3.,17.954999999999998),(-606.,-3.,-0.91000000000000014),(-606.,-249.38999999999999,-0.91000000000000014),(-1197.,-494.19,7.9549999999999983),(-1197.,-3.,7.9549999999999983)),$);
#197=IFCINDEXEDPOLYGONALFACE((1,2,3,4));
#198=IFCINDEXEDPOLYGONALFACE((8,7,6,5));
#199=IFCINDEXEDPOLYGONALFACE((1,5,6,2));
#200=IFCINDEXEDPOLYGONALFACE((2,6,7,3));
#201=IFCINDEXEDPOLYGONALFACE((3,7,8,4));
#202=IFCINDEXEDPOLYGONALFACE((4,8,5,1));
#203=IFCPOLYGONALFACESET(#196,.T.,(#197,#198,#199,#200,#201,#202),$);
#204=IFCSHAPEREPRESENTATION(#11,'Body','Tessellation',(#203));
#205=IFCREPRESENTATIONMAP(#79,#204);
#206=IFCMAPPEDITEM(#205,#81);
#207=IFCCARTESIANPOINTLIST3D(((-606.,-603.,12.823),(-1089.8099999999999,-603.,17.954999999999998),(-1195.8499999999999,-496.95999999999998,17.954999999999998),(-606.,-252.63999999999999,9.1069999999999993),(-606.,-603.,2.8230000000000004),(-1089.8099999999999,-603.,7.9549999999999983),(-1195.8499999999999,-496.95999999999998,7.9549999999999983),(-606.,-252.63999999999999,-0.89300000000000068)),$);
#208=IFCINDEXEDPOLYGONALFACE((1,2,3,4));
#209=IFCINDEXEDPOLYGONALFACE((8,7,6,5));
#210=IFCINDEXEDPOLYGONALFACE((1,5,6,2));
#211=IFCINDEXEDPOLYGONALFACE((2,6,7,3));
#212=IFCINDEXEDPOLYGONALFACE((3,7,8,4));
#213=IFCINDEXEDPOLYGONALFACE((4,8,5,1));
#214=IFCPOLYGONALFACESET(#207,.T.,(#208,#209,#210,#211,#212,#213),$);
#215=IFCSHAPEREPRESENTATION(#11,'Body','Tessellation',(#214));
#216=IFCREPRESENTATIONMAP(#79,#215);
#217=IFCMAPPEDITEM(#216,#81);
#218=IFCCARTESIANPOINTLIST3D(((-606.,-606.,12.855),(-606.,-1086.8099999999999,17.954999999999998),(-1086.8099999999999,-606.,17.954999999999998),(-606.,-606.,2.8550000000000004),(-606.,-1086.8099999999999,7.9549999999999983),(-1086.8099999999999,-606.,7.9549999999999983)),$);
#219=IFCINDEXEDPOLYGONALFACE((1,2,3));
#220=IFCINDEXEDPOLYGONALFACE((6,5,4));
#221=IFCINDEXEDPOLYGONALFACE((1,4,5,2));
#222=IFCINDEXEDPOLYGONALFACE((2,5,6,3));
#223=IFCINDEXEDPOLYGONALFACE((3,6,4,1));
#224=IFCPOLYGONALFACESET(#218,.T.,(#219,#220,#221,#222,#223),$);
#225=IFCSHAPEREPRESENTATION(#11,'Body','Tessellation',(#224));
#226=IFCREPRESENTATIONMAP(#79,#225);
#227=IFCMAPPEDITEM(#226,#81);
#228=IFCCARTESIANPOINTLIST3D(((-606.,600.,12.792),(-606.,252.63999999999999,9.1069999999999993),(-1195.8499999999999,496.95999999999998,17.954999999999998),(-1092.8099999999999,600.,17.954999999999998),(-606.,600.,2.7919999999999998),(-606.,252.63999999999999,-0.89300000000000068),(-1195.8499999999999,496.95999999999998,7.9549999999999983),(-1092.8099999999999,600.,7.9549999999999983)),$);
#229=IFCINDEXEDPOLYGONALFACE((1,2,3,4));
#230=IFCINDEXEDPOLYGONALFACE((8,7,6,5));
#231=IFCINDEXEDPOLYGONALFACE((1,5,6,2));
#232=IFCINDEXEDPOLYGONALFACE((2,6,7,3));
#233=IFCINDEXEDPOLYGONALFACE((3,7,8,4));
#234=IFCINDEXEDPOLYGONALFACE((4,8,5,1));
#235=IFCPOLYGONALFACESET(#228,.T.,(#229,#230,#231,#232,#233,#234),$);
#236=IFCSHAPEREPRESENTATION(#11,'Body','Tessellation',(#235));
#237=IFCREPRESENTATIONMAP(#79,#236);
#238=IFCMAPPEDITEM(#237,#81);
#239=IFCCARTESIANPOINTLIST3D(((-606.,0.,9.0899999999999999),(-1197.,0.,17.954999999999998),(-1197.,494.19,17.954999999999998),(-606.,249.38999999999999,9.0899999999999999),(-606.,0.,-0.91000000000000014),(-1197.,0.,7.9549999999999983),(-1197.,494.19,7.9549999999999983),(-606.,249.38999999999999,-0.91000000000000014)),$);
#240=IFCINDEXEDPOLYGONALFACE((1,2,3,4));
#241=IFCINDEXEDPOLYGONALFACE((8,7,6,5));
#242=IFCINDEXEDPOLYGONALFACE((1,5,6,2));
#243=IFCINDEXEDPOLYGONALFACE((2,6,7,3));
#244=IFCINDEXEDPOLYGONALFACE((3,7,8,4));
#245=IFCINDEXEDPOLYGONALFACE((4,8,5,1));
#246=IFCPOLYGONALFACESET(#239,.T.,(#240,#241,#242,#243,#244,#245),$);
#247=IFCSHAPEREPRESENTATION(#11,'Body','Tessellation',(#246));
#248=IFCREPRESENTATIONMAP(#79,#247);
#249=IFCMAPPEDITEM(#248,#81);
#250=IFCCARTESIANPOINTLIST3D(((-606.,603.,12.823),(-1089.8099999999999,603.,17.954999999999998),(-606.,1086.8099999999999,17.954999999999998),(-606.,603.,2.8230000000000004),(-1089.8099999999999,603.,7.9549999999999983),(-606.,1086.8099999999999,7.9549999999999983)),$);
#251=IFCINDEXEDPOLYGONALFACE((1,2,3));
#252=IFCINDEXEDPOLYGONALFACE((6,5,4));
#253=IFCINDEXEDPOLYGONALFACE((1,4,5,2));
#254=IFCINDEXEDPOLYGONALFACE((2,5,6,3));
#255=IFCINDEXEDPOLYGONALFACE((3,6,4,1));
#256=IFCPOLYGONALFACESET(#250,.T.,(#251,#252,#253,#254,#255),$);
#257=IFCSHAPEREPRESENTATION(#11,'Body','Tessellation',(#256));
#258=IFCREPRESENTATIONMAP(#79,#257);
#259=IFCMAPPEDITEM(#258,#81);
#260=IFCCARTESIANPOINTLIST3D(((600.,-3.,9.),(600.,-246.90000000000001,9.),(78.,-30.690000000000001,1.1699999999999999),(78.,-3.,1.1699999999999999),(600.,-3.,-1.),(600.,-246.90000000000001,-1.),(78.,-30.690000000000001,-8.8300000000000001),(78.,-3.,-8.8300000000000001)),$);
#261=IFCINDEXEDPOLYGONALFACE((1,2,3,4));
#262=IFCINDEXEDPOLYGONALFACE((8,7,6,5));
#263=IFCINDEXEDPOLYGONALFACE((1,5,6,2));
#264=IFCINDEXEDPOLYGONALFACE((2,6,7,3));
#265=IFCINDEXEDPOLYGONALFACE((3,7,8,4));
#266=IFCINDEXEDPOLYGONALFACE((4,8,5,1));
#267=IFCPOLYGONALFACESET(#260,.T.,(#261,#262,#263,#264,#265,#266),$);
#268=IFCSHAPEREPRESENTATION(#11,'Body','Tessellation',(#267));
#269=IFCREPRESENTATIONMAP(#79,#268);
#270=IFCMAPPEDITEM(#269,#81);
#271=IFCCARTESIANPOINTLIST3D(((0.,-603.,9.0449999999999999),(0.,-78.,1.1699999999999999),(30.690000000000001,-78.,1.1699999999999999),(248.15000000000001,-603.,9.0449999999999999),(0.,-603.,-0.95500000000000007),(0.,-78.,-8.8300000000000001),(30.690000000000001,-78.,-8.8300000000000001),(248.15000000000001,-603.,-0.95500000000000007)),$);
#272=IFCINDEXEDPOLYGONALFACE((1,2,3,4));
#273=IFCINDEXEDPOLYGONALFACE((8,7,6,5));
#274=IFCINDEXEDPOLYGONALFACE((1,5,6,2));
#275=IFCINDEXEDPOLYGONALFACE((2,6,7,3));
#276=IFCINDEXEDPOLYGONALFACE((3,7,8,4));
#277=IFCINDEXEDPOLYGONALFACE((4,8,5,1));
#278=IFCPOLYGONALFACESET(#271,.T.,(#272,#273,#274,#275,#276,#277),$);
#279=IFCSHAPEREPRESENTATION(#11,'Body','Tessellation',(#278));
#280=IFCREPRESENTATIONMAP(#79,#279);
#281=IFCMAPPEDITEM(#280,#81);
#282=IFCCARTESIANPOINTLIST3D(((600.,-603.,12.76),(251.38999999999999,-603.,9.0619999999999994),(33.93,-78.,1.1870000000000001),(78.,-78.,1.655),(78.,-33.93,1.1870000000000001),(600.,-250.15000000000001,9.0169999999999995),(600.,-603.,2.7599999999999998),(251.38999999999999,-603.,-0.93800000000000061),(33.93,-78.,-8.8130000000000006),(78.,-78.,-8.3450000000000006),(78.,-33.93,-8.8130000000000006),(600.,-250.15000000000001,-0.98300000000000054)),$);
#283=IFCINDEXEDPOLYGONALFACE((1,2,3,4,5,6));
#284=IFCINDEXEDPOLYGONALFACE((12,11,10,9,8,7));
#285=IFCINDEXEDPOLYGONALFACE((1,7,8,2));
#286=IFCINDEXEDPOLYGONALFACE((2,8,9,3));
#287=IFCINDEXEDPOLYGONALFACE((3,9,10,4));
#288=IFCINDEXEDPOLYGONALFACE((4,10,11,5));
#289=IFCINDEXEDPOLYGONALFACE((5,11,12,6));
#290=IFCINDEXEDPOLYGONALFACE((6,12,7,1));
#291=IFCPOLYGONALFACESET(#282,.T.,(#283,#284,#285,#286,#287,#288,#289,#290),$);
#292=IFCSHAPEREPRESENTATION(#11,'Body','Tessellation',(#291));
#293=IFCREPRESENTATIONMAP(#79,#292);
#294=IFCMAPPEDITEM(#293,#81);
#295=IFCCARTESIANPOINTLIST3D(((0.,-606.,9.0899999999999999),(249.38999999999999,-606.,9.0899999999999999),(494.19,-1197.,17.954999999999998),(0.,-1197.,17.954999999999998),(0.,-606.,-0.91000000000000014),(249.38999999999999,-606.,-0.91000000000000014),(494.19,-1197.,7.9549999999999983),(0.,-1197.,7.9549999999999983)),$);
#296=IFCINDEXEDPOLYGONALFACE((1,2,3,4));
#297=IFCINDEXEDPOLYGONALFACE((8,7,6,5));
#298=IFCINDEXEDPOLYGONALFACE((1,5,6,2));
#299=IFCINDEXEDPOLYGONALFACE((2,6,7,3));
#300=IFCINDEXEDPOLYGONALFACE((3,7,8,4));
#301=IFCINDEXEDPOLYGONALFACE((4,8,5,1));
#302=IFCPOLYGONALFACESET(#295,.T.,(#296,#297,#298,#299,#300,#301),$);
#303=IFCSHAPEREPRESENTATION(#11,'Body','Tessellation',(#302));
#304=IFCREPRESENTATIONMAP(#79,#303);
#305=IFCMAPPEDITEM(#304,#81);
#306=IFCCARTESIANPOINTLIST3D(((600.,-606.,12.792),(600.,-1092.8099999999999,17.954999999999998),(496.95999999999998,-1195.8499999999999,17.954999999999998),(252.63999999999999,-606.,9.1069999999999993),(600.,-606.,2.7919999999999998),(600.,-1092.8099999999999,7.9549999999999983),(496.95999999999998,-1195.8499999999999,7.9549999999999983),(252.63999999999999,-606.,-0.89300000000000068)),$);
#307=IFCINDEXEDPOLYGONALFACE((1,2,3,4));
#308=IFCINDEXEDPOLYGONALFACE((8,7,6,5));
#309=IFCINDEXEDPOLYGONALFACE((1,5,6,2));
#310=IFCINDEXEDPOLYGONALFACE((2,6,7,3));
#311=IFCINDEXEDPOLYGONALFACE((3,7,8,4));
#312=IFCINDEXEDPOLYGONALFACE((4,8,5,1));
#313=IFCPOLYGONALFACESET(#306,.T.,(#307,#308,#309,#310,#311,#312),$);
#314=IFCSHAPEREPRESENTATION(#11,'Body','Tessellation',(#313));
#315=IFCREPRESENTATIONMAP(#79,#314);
#316=IFCMAPPEDITEM(#315,#81);
#317=IFCCARTESIANPOINTLIST3D(((600.,0.,9.),(78.,0.,1.1699999999999999),(78.,30.690000000000001,1.1699999999999999),(600.,246.90000000000001,9.),(600.,0.,-1.),(78.,0.,-8.8300000000000001),(78.,30.690000000000001,-8.8300000000000001),(600.,246.90000000000001,-1.)),$);
#318=IFCINDEXEDPOLYGONALFACE((1,2,3,4));
#319=IFCINDEXEDPOLYGONALFACE((8,7,6,5));
#320=IFCINDEXEDPOLYGONALFACE((1,5,6,2));
#321=IFCINDEXEDPOLYGONALFACE((2,6,7,3));
#322=IFCINDEXEDPOLYGONALFACE((3,7,8,4));
#323=IFCINDEXEDPOLYGONALFACE((4,8,5,1));
#324=IFCPOLYGONALFACESET(#317,.T.,(#318,#319,#320,#321,#322,#323),$);
#325=IFCSHAPEREPRESENTATION(#11,'Body','Tessellation',(#324));
#326=IFCREPRESENTATIONMAP(#79,#325);
#327=IFCMAPPEDITEM(#326,#81);
#328=IFCCARTESIANPOINTLIST3D(((600.,600.,12.728),(600.,250.15000000000001,9.0169999999999995),(78.,33.93,1.1870000000000001),(78.,78.,1.655),(33.93,78.,1.1870000000000001),(250.15000000000001,600.,9.0169999999999995),(600.,600.,2.7279999999999998),(600.,250.15000000000001,-0.98300000000000054),(78.,33.93,-8.8130000000000006),(78.,78.,-8.3450000000000006),(33.93,78.,-8.8130000000000006),(250.15000000000001,600.,-0.98300000000000054)),$);
#329=IFCINDEXEDPOLYGONALFACE((1,2,3,4,5,6));
#330=IFCINDEXEDPOLYGONALFACE((12,11,10,9,8,7));
#331=IFCINDEXEDPOLYGONALFACE((1,7,8,2));
#332=IFCINDEXEDPOLYGONALFACE((2,8,9,3));
#333=IFCINDEXEDPOLYGONALFACE((3,9,10,4));
#334=IFCINDEXEDPOLYGONALFACE((4,10,11,5));
#335=IFCINDEXEDPOLYGONALFACE((5,11,12,6));
#336=IFCINDEXEDPOLYGONALFACE((6,12,7,1));
#337=IFCPOLYGONALFACESET(#328,.T.,(#329,#330,#331,#332,#333,#334,#335,#336),$);
#338=IFCSHAPEREPRESENTATION(#11,'Body','Tessellation',(#337));
#339=IFCREPRESENTATIONMAP(#79,#338);
#340=IFCMAPPEDITEM(#339,#81);
#341=IFCCARTESIANPOINTLIST3D(((0.,600.,9.),(246.90000000000001,600.,9.),(30.690000000000001,78.,1.1699999999999999),(0.,78.,1.1699999999999999),(0.,600.,-1.),(246.90000000000001,600.,-1.),(30.690000000000001,78.,-8.8300000000000001),(0.,78.,-8.8300000000000001)),$);
#342=IFCINDEXEDPOLYGONALFACE((1,2,3,4));
#343=IFCINDEXEDPOLYGONALFACE((8,7,6,5));
#344=IFCINDEXEDPOLYGONALFACE((1,5,6,2));
#345=IFCINDEXEDPOLYGONALFACE((2,6,7,3));
#346=IFCINDEXEDPOLYGONALFACE((3,7,8,4));
#347=IFCINDEXEDPOLYGONALFACE((4,8,5,1));
#348=IFCPOLYGONALFACESET(#341,.T.,(#342,#343,#344,#345,#346,#347),$);
#349=IFCSHAPEREPRESENTATION(#11,'Body','Tessellation',(#348));
#350=IFCREPRESENTATIONMAP(#79,#349);
#351=IFCMAPPEDITEM(#350,#81);
#352=IFCCARTESIANPOINTLIST3D(((600.,603.,12.76),(251.38999999999999,603.,9.0619999999999994),(496.95999999999998,1195.8499999999999,17.954999999999998),(600.,1092.8099999999999,17.954999999999998),(600.,603.,2.7599999999999998),(251.38999999999999,603.,-0.93800000000000061),(496.95999999999998,1195.8499999999999,7.9549999999999983),(600.,1092.8099999999999,7.9549999999999983)),$);
#353=IFCINDEXEDPOLYGONALFACE((1,2,3,4));
#354=IFCINDEXEDPOLYGONALFACE((8,7,6,5));
#355=IFCINDEXEDPOLYGONALFACE((1,5,6,2));
#356=IFCINDEXEDPOLYGONALFACE((2,6,7,3));
#357=IFCINDEXEDPOLYGONALFACE((3,7,8,4));
#358=IFCINDEXEDPOLYGONALFACE((4,8,5,1));
#359=IFCPOLYGONALFACESET(#352,.T.,(#353,#354,#355,#356,#357,#358),$);
#360=IFCSHAPEREPRESENTATION(#11,'Body','Tessellation',(#359));
#361=IFCREPRESENTATIONMAP(#79,#360);
#362=IFCMAPPEDITEM(#361,#81);
#363=IFCCARTESIANPOINTLIST3D(((0.,603.,9.0449999999999999),(0.,1197.,17.954999999999998),(494.19,1197.,17.954999999999998),(248.15000000000001,603.,9.0449999999999999),(0.,603.,-0.95500000000000007),(0.,1197.,7.9549999999999983),(494.19,1197.,7.9549999999999983),(248.15000000000001,603.,-0.95500000000000007)),$);
#364=IFCINDEXEDPOLYGONALFACE((1,2,3,4));
#365=IFCINDEXEDPOLYGONALFACE((8,7,6,5));
#366=IFCINDEXEDPOLYGONALFACE((1,5,6,2));
#367=IFCINDEXEDPOLYGONALFACE((2,6,7,3));
#368=IFCINDEXEDPOLYGONALFACE((3,7,8,4));
#369=IFCINDEXEDPOLYGONALFACE((4,8,5,1));
#370=IFCPOLYGONALFACESET(#363,.T.,(#364,#365,#366,#367,#368,#369),$);
#371=IFCSHAPEREPRESENTATION(#11,'Body','Tessellation',(#370));
#372=IFCREPRESENTATIONMAP(#79,#371);
#373=IFCMAPPEDITEM(#372,#81);
#374=IFCCARTESIANPOINTLIST3D(((603.,-3.,9.0449999999999999),(1197.,-3.,17.954999999999998),(1197.,-494.19,17.954999999999998),(603.,-248.15000000000001,9.0449999999999999),(603.,-3.,-0.95500000000000007),(1197.,-3.,7.9549999999999983),(1197.,-494.19,7.9549999999999983),(603.,-248.15000000000001,-0.95500000000000007)),$);
#375=IFCINDEXEDPOLYGONALFACE((1,2,3,4));
#376=IFCINDEXEDPOLYGONALFACE((8,7,6,5));
#377=IFCINDEXEDPOLYGONALFACE((1,5,6,2));
#378=IFCINDEXEDPOLYGONALFACE((2,6,7,3));
#379=IFCINDEXEDPOLYGONALFACE((3,7,8,4));
#380=IFCINDEXEDPOLYGONALFACE((4,8,5,1));
#381=IFCPOLYGONALFACESET(#374,.T.,(#375,#376,#377,#378,#379,#380),$);
#382=IFCSHAPEREPRESENTATION(#11,'Body','Tessellation',(#381));
#383=IFCREPRESENTATIONMAP(#79,#382);
#384=IFCMAPPEDITEM(#383,#81);
#385=IFCCARTESIANPOINTLIST3D(((603.,-603.,12.792),(603.,-251.38999999999999,9.0619999999999994),(1195.8499999999999,-496.95999999999998,17.954999999999998),(1089.8099999999999,-603.,17.954999999999998),(603.,-603.,2.7919999999999998),(603.,-251.38999999999999,-0.93800000000000061),(1195.8499999999999,-496.95999999999998,7.9549999999999983),(1089.8099999999999,-603.,7.9549999999999983)),$);
#386=IFCINDEXEDPOLYGONALFACE((1,2,3,4));
#387=IFCINDEXEDPOLYGONALFACE((8,7,6,5));
#388=IFCINDEXEDPOLYGONALFACE((1,5,6,2));
#389=IFCINDEXEDPOLYGONALFACE((2,6,7,3));
#390=IFCINDEXEDPOLYGONALFACE((3,7,8,4));
#391=IFCINDEXEDPOLYGONALFACE((4,8,5,1));
#392=IFCPOLYGONALFACESET(#385,.T.,(#386,#387,#388,#389,#390,#391),$);
#393=IFCSHAPEREPRESENTATION(#11,'Body','Tessellation',(#392));
#394=IFCREPRESENTATIONMAP(#79,#393);
#395=IFCMAPPEDITEM(#394,#81);
#396=IFCCARTESIANPOINTLIST3D(((603.,-606.,12.823),(1086.8099999999999,-606.,17.954999999999998),(603.,-1089.8099999999999,17.954999999999998),(603.,-606.,2.8230000000000004),(1086.8099999999999,-606.,7.9549999999999983),(603.,-1089.8099999999999,7.9549999999999983)),$);
#397=IFCINDEXEDPOLYGONALFACE((1,2,3));
#398=IFCINDEXEDPOLYGONALFACE((6,5,4));
#399=IFCINDEXEDPOLYGONALFACE((1,4,5,2));
#400=IFCINDEXEDPOLYGONALFACE((2,5,6,3));
#401=IFCINDEXEDPOLYGONALFACE((3,6,4,1));
#402=IFCPOLYGONALFACESET(#396,.T.,(#397,#398,#399,#400,#401),$);
#403=IFCSHAPEREPRESENTATION(#11,'Body','Tessellation',(#402));
#404=IFCREPRESENTATIONMAP(#79,#403);
#405=IFCMAPPEDITEM(#404,#81);
#406=IFCCARTESIANPOINTLIST3D(((603.,0.,9.0449999999999999),(603.,248.15000000000001,9.0449999999999999),(1197.,494.19,17.954999999999998),(1197.,0.,17.954999999999998),(603.,0.,-0.95500000000000007),(603.,248.15000000000001,-0.95500000000000007),(1197.,494.19,7.9549999999999983),(1197.,0.,7.9549999999999983)),$);
#407=IFCINDEXEDPOLYGONALFACE((1,2,3,4));
#408=IFCINDEXEDPOLYGONALFACE((8,7,6,5));
#409=IFCINDEXEDPOLYGONALFACE((1,5,6,2));
#410=IFCINDEXEDPOLYGONALFACE((2,6,7,3));
#411=IFCINDEXEDPOLYGONALFACE((3,7,8,4));
#412=IFCINDEXEDPOLYGONALFACE((4,8,5,1));
#413=IFCPOLYGONALFACESET(#406,.T.,(#407,#408,#409,#410,#411,#412),$);
#414=IFCSHAPEREPRESENTATION(#11,'Body','Tessellation',(#413));
#415=IFCREPRESENTATIONMAP(#79,#414);
#416=IFCMAPPEDITEM(#415,#81);
#417=IFCCARTESIANPOINTLIST3D(((603.,600.,12.76),(1092.8099999999999,600.,17.954999999999998),(1195.8499999999999,496.95999999999998,17.954999999999998),(603.,251.38999999999999,9.0619999999999994),(603.,600.,2.7599999999999998),(1092.8099999999999,600.,7.9549999999999983),(1195.8499999999999,496.95999999999998,7.9549999999999983),(603.,251.38999999999999,-0.93800000000000061)),$);
#418=IFCINDEXEDPOLYGONALFACE((1,2,3,4));
#419=IFCINDEXEDPOLYGONALFACE((8,7,6,5));
#420=IFCINDEXEDPOLYGONALFACE((1,5,6,2));
#421=IFCINDEXEDPOLYGONALFACE((2,6,7,3));
#422=IFCINDEXEDPOLYGONALFACE((3,7,8,4));
#423=IFCINDEXEDPOLYGONALFACE((4,8,5,1));
#424=IFCPOLYGONALFACESET(#417,.T.,(#418,#419,#420,#421,#422,#423),$);
#425=IFCSHAPEREPRESENTATION(#11,'Body','Tessellation',(#424));
#426=IFCREPRESENTATIONMAP(#79,#425);
#427=IFCMAPPEDITEM(#426,#81);
#428=IFCCARTESIANPOINTLIST3D(((603.,603.,12.792),(603.,1089.8099999999999,17.954999999999998),(1089.8099999999999,603.,17.954999999999998),(603.,603.,2.7919999999999998),(603.,1089.8099999999999,7.9549999999999983),(1089.8099999999999,603.,7.9549999999999983)),$);
#429=IFCINDEXEDPOLYGONALFACE((1,2,3));
#430=IFCINDEXEDPOLYGONALFACE((6,5,4));
#431=IFCINDEXEDPOLYGONALFACE((1,4,5,2));
#432=IFCINDEXEDPOLYGONALFACE((2,5,6,3));
#433=IFCINDEXEDPOLYGONALFACE((3,6,4,1));
#434=IFCPOLYGONALFACESET(#428,.T.,(#429,#430,#431,#432,#433),$);
#435=IFCSHAPEREPRESENTATION(#11,'Body','Tessellation',(#434));
#436=IFCREPRESENTATIONMAP(#79,#435);
#437=IFCMAPPEDITEM(#436,#81);
#438=IFCSHAPEREPRESENTATION(#11,'Body','MappedRepresentation',(#92,#105,#116,#127,#138,#149,#162,#173,#184,#195,#206,#217,#227,#238,#249,#259,#270,#281,#294,#305,#316,#327,#340,#351,#362,#373,#384,#395,#405,#416,#427,#437));
#439=IFCPRODUCTDEFINITIONSHAPE($,$,(#438));
#440=IFCRELDEFINESBYTYPE('2dvFdEcufTGvjbRtaiDDX9',$,$,$,(#55),#32);
ENDSEC;
END-ISO-10303-21;
