ISO-10303-21;
HEADER;
FILE_DESCRIPTION(('ViewDefinition [NotAssigned]'),'2;1');
FILE_NAME('b16_gerade_60x60__punkt_einzeln.ifc','2026-01-01T00:00:00',('Entwurfsgenerator (Beispiel)'),('Arbeit Holzrahmenbau'),'IfcOpenShell 0.8.5-1c5b825','IfcOpenShell 0.8.5-1c5b825','keine');
FILE_SCHEMA(('IFC4X3_ADD2'));
ENDSEC;
DATA;
#1=IFCPROJECT('0_NQc15qDORxCpDVH4bTYC',$,'B16 Duschraum achteckig (Beispiel)',$,$,$,$,(#10),#5);
#2=IFCSIUNIT(*,.LENGTHUNIT.,.MILLI.,.METRE.);
#3=IFCSIUNIT(*,.AREAUNIT.,$,.SQUARE_METRE.);
#4=IFCSIUNIT(*,.PLANEANGLEUNIT.,$,.RADIAN.);
#5=IFCUNITASSIGNMENT((#2,#3,#4));
#6=IFCCARTESIANPOINT((0.,0.,0.));
#7=IFCDIRECTION((0.,0.,1.));
#8=IFCDIRECTION((1.,0.,0.));
#9=IFCAXIS2PLACEMENT3D(#6,#7,#8);
#10=IFCGEOMETRICREPRESENTATIONCONTEXT($,'Model',3,1.0000000000000001E-05,#9,$);
#11=IFCGEOMETRICREPRESENTATIONSUBCONTEXT('Body','Model',*,*,*,*,#10,$,.MODEL_VIEW.,$);
#12=IFCCARTESIANPOINT((0.,0.,0.));
#13=IFCAXIS2PLACEMENT3D(#12,$,$);
#14=IFCLOCALPLACEMENT($,#13);
#15=IFCSITE('1ElNV_A1XQpB_NyKMldGI9',$,'Grundst\X2\00FC\X0\ck',$,$,#14,$,$,$,$,$,$,$,$);
#16=IFCCARTESIANPOINT((0.,0.,0.));
#17=IFCAXIS2PLACEMENT3D(#16,$,$);
#18=IFCLOCALPLACEMENT(#14,#17);
#19=IFCBUILDING('2O082_xsXMZBi$UG$reI4e',$,'Fertighaus Beispiel',$,$,#18,$,$,$,$,$,$);
#20=IFCCARTESIANPOINT((0.,0.,0.));
#21=IFCAXIS2PLACEMENT3D(#20,$,$);
#22=IFCLOCALPLACEMENT(#18,#21);
#23=IFCBUILDINGSTOREY('2lTc$66$TI_APjtaWhZHSD',$,'EG',$,$,#22,$,$,$,0.);
#24=IFCCARTESIANPOINT((0.,0.,0.));
#25=IFCAXIS2PLACEMENT3D(#24,$,$);
#26=IFCLOCALPLACEMENT(#22,#25);
#27=IFCSPACE('09M7fRJY9JoxkE07wXh79K',$,'EG-Dusche-achteckig',$,$,#26,$,$,$,$,$);
#28=IFCRELAGGREGATES('22fDGb7XjJVgVi1Or1jpPS',$,$,$,#1,(#15));
#29=IFCRELAGGREGATES('3CR3RQJXbRQAVswdF5ctVY',$,$,$,#15,(#19));
#30=IFCRELAGGREGATES('1$xjPU12TV3Qe08uvxFgoB',$,$,$,#19,(#23));
#31=IFCRELAGGREGATES('2TVYMtCg5UQAHV8qAbuypW',$,$,$,#23,(#27));
#32=IFCCOVERINGTYPE('2UqETe9qnPQuuTUu7CoORf',$,'F60x60',$,$,(#36),(#51),$,$,.FLOORING.);
#33=IFCPROPERTYSINGLEVALUE('GlobalTradeItemNumber',$,IFCLABEL('BEISPIEL-GTIN-F6060'),$);
#34=IFCPROPERTYSINGLEVALUE('ArticleNumber',$,IFCLABEL('F60x60'),$);
#35=IFCPROPERTYSINGLEVALUE('Manufacturer',$,IFCLABEL('Beispiel'),$);
#36=IFCPROPERTYSET('0R__MGzjLPyvzzlr_awS66',$,'Pset_ManufacturerTypeInformation',$,(#33,#34,#35));
#37=IFCCARTESIANPOINT((600.,0.));
#38=IFCCARTESIANPOINT((600.,600.));
#39=IFCCARTESIANPOINT((0.,600.));
#40=IFCCARTESIANPOINT((0.,0.));
#41=IFCCARTESIANPOINT((600.,0.));
#42=IFCPOLYLINE((#37,#38,#39,#40,#41));
#43=IFCARBITRARYCLOSEDPROFILEDEF(.AREA.,$,#42);
#44=IFCCARTESIANPOINT((0.,0.,-10.));
#45=IFCAXIS2PLACEMENT3D(#44,$,$);
#46=IFCDIRECTION((0.,0.,1.));
#47=IFCEXTRUDEDAREASOLID(#43,#45,#46,10.);
#48=IFCCARTESIANPOINT((0.,0.,0.));
#49=IFCAXIS2PLACEMENT3D(#48,$,$);
#50=IFCSHAPEREPRESENTATION(#11,'Body','SweptSolid',(#47));
#51=IFCREPRESENTATIONMAP(#49,#50);
#52=IFCCARTESIANPOINT((0.,0.,0.));
#53=IFCAXIS2PLACEMENT3D(#52,$,$);
#54=IFCLOCALPLACEMENT(#26,#53);
#55=IFCCOVERING('205rHcRDLU3eRzFSAxH1Xz',$,'Duschboden gerade_60x60',$,$,#54,$,$,.FLOORING.);
#56=IFCRELCONTAINEDINSPATIALSTRUCTURE('0Kl4w3UwrOWe4OJTjTlC3A',$,$,$,(#55),#27);
#57=IFCRELCOVERSSPACES('3I5n79uE1S9foiIe4dH99g',$,$,$,#27,(#55));
#58=IFCPROPERTYSINGLEVALUE('Muster',$,IFCLABEL('gerade'),$);
#59=IFCPROPERTYSINGLEVALUE('Rasterursprung_u',$,IFCREAL(0.),$);
#60=IFCPROPERTYSINGLEVALUE('Rasterursprung_v',$,IFCREAL(0.),$);
#61=IFCPROPERTYSINGLEVALUE('Fugenbreite',$,IFCREAL(3.),$);
#62=IFCPROPERTYSINGLEVALUE('Gefaelle_Prozent',$,IFCREAL(1.5),$);
#63=IFCPROPERTYSINGLEVALUE('Entwaesserung',$,IFCLABEL('punkt'),$);
#64=IFCPROPERTYSINGLEVALUE('Verschnitt',$,IFCREAL(0.076399999999999996),$);
#65=IFCPROPERTYSINGLEVALUE('RohlingeBedarf',$,IFCINTEGER(14),$);
#66=IFCPROPERTYSINGLEVALUE('Pakete',$,IFCINTEGER(5),$);
#67=IFCPROPERTYSINGLEVALUE('Kaliber',$,IFCLABEL('W1'),$);
#68=IFCPROPERTYSET('2qSbeDoL9KyeKMVEdgo3pR',$,'HP_Verlegung',$,(#58,#59,#60,#61,#62,#63,#64,#65,#66,#67));
#69=IFCRELDEFINESBYPROPERTIES('0bWYhJmgLR0By3io7Pxtsa',$,$,$,(#55),#68);
#70=IFCPROPERTYSINGLEVALUE('BatchReference',$,IFCLABEL('BEISPIEL-CHARGE-A1'),$);
#71=IFCPROPERTYSET('2Q5j$43WHMpBx23WkqxiJH',$,'Pset_ManufacturerOccurrence',$,(#70));
#72=IFCRELDEFINESBYPROPERTIES('1ps70E_HfRvfVRBBod4WPt',$,$,$,(#55),#71);
#73=IFCQUANTITYLENGTH('Width',$,$,10.,$);
#74=IFCQUANTITYAREA('GrossArea',$,$,4.7717000000000001,$);
#75=IFCQUANTITYAREA('NetArea',$,$,4.6551,$);
#76=IFCELEMENTQUANTITY('2EDYjGOjDSc9CWkzftVOIU',$,'Qto_CoveringBaseQuantities',$,$,(#73,#74,#75));
#77=IFCRELDEFINESBYPROPERTIES('02YghGOqfJoxGXIJn4VDPF',$,$,$,(#55),#76);
#78=IFCCARTESIANPOINTLIST3D(((-603.,-3.,9.0449999999999999),(-78.,-3.,1.1699999999999999),(-78.,-30.690000000000001,1.1699999999999999),(-603.,-248.15000000000001,9.0449999999999999),(-603.,-3.,-0.95500000000000007),(-78.,-3.,-8.8300000000000001),(-78.,-30.690000000000001,-8.8300000000000001),(-603.,-248.15000000000001,-0.95500000000000007)),$);
#79=IFCINDEXEDPOLYGONALFACE((1,2,3,4));
#80=IFCINDEXEDPOLYGONALFACE((8,7,6,5));
#81=IFCINDEXEDPOLYGONALFACE((1,5,6,2));
#82=IFCINDEXEDPOLYGONALFACE((2,6,7,3));
#83=IFCINDEXEDPOLYGONALFACE((3,7,8,4));
#84=IFCINDEXEDPOLYGONALFACE((4,8,5,1));
#85=IFCPOLYGONALFACESET(#78,.T.,(#79,#80,#81,#82,#83,#84),$);
#86=IFCSHAPEREPRESENTATION(#11,'Body','Tessellation',(#85));
#87=IFCPRODUCTDEFINITIONSHAPE($,$,(#86));
#88=IFCCARTESIANPOINT((0.,0.,0.));
#89=IFCAXIS2PLACEMENT3D(#88,$,$);
#90=IFCLOCALPLACEMENT(#54,#89);
#91=IFCCOVERING('159OB4hZTQ8Oufqbz1o6M4',$,'Q/-1/-1#4',$,'gratschnitt',#90,#87,$,$);
#92=IFCPROPERTYSINGLEVALUE('Stueckart',$,IFCLABEL('gratschnitt'),$);
#93=IFCPROPERTYSINGLEVALUE('Motiv',$,IFCLABEL('Q'),$);
#94=IFCPROPERTYSINGLEVALUE('Rasterposition',$,IFCLABEL('Q/-1/-1'),$);
#95=IFCPROPERTYSINGLEVALUE('Gefaelleflaeche',$,IFCLABEL('F4'),$);
#96=IFCPROPERTYSINGLEVALUE('Rohling',$,IFCLABEL('F60x60#10'),$);
#97=IFCPROPERTYSINGLEVALUE('Herkunft',$,IFCLABEL('reststueck'),$);
#98=IFCPROPERTYSINGLEVALUE('Schnitte',$,IFCINTEGER(2),$);
#99=IFCPROPERTYSINGLEVALUE('Schnittlaenge',$,IFCREAL(595.89999999999998),$);
#100=IFCPROPERTYSINGLEVALUE('Schnittarten',$,IFCLABEL('gratschnitt,ablauf'),$);
#101=IFCPROPERTYSET('2r7nZ73DXKRux20pMXG0FJ',$,'HP_Fliesenstueck',$,(#92,#93,#94,#95,#96,#97,#98,#99,#100));
#102=IFCRELDEFINESBYPROPERTIES('3D$atrNFLRm9UdSwaLrm_Y',$,$,$,(#91),#101);
#103=IFCQUANTITYLENGTH('Width',$,$,10.,$);
#104=IFCQUANTITYAREA('NetArea',$,$,0.071618000000000001,$);
#105=IFCELEMENTQUANTITY('2NQ1sgFfLTyRZY5ovon_6p',$,'Qto_CoveringBaseQuantities',$,$,(#103,#104));
#106=IFCRELDEFINESBYPROPERTIES('2iHVHNTlXRjx0Eym_412S3',$,$,$,(#91),#105);
#107=IFCCARTESIANPOINTLIST3D(((-603.,-603.,12.792),(-603.,-251.38999999999999,9.0619999999999994),(-78.,-33.93,1.1870000000000001),(-78.,-78.,1.655),(-33.93,-78.,1.1870000000000001),(-251.38999999999999,-603.,9.0619999999999994),(-603.,-603.,2.7919999999999998),(-603.,-251.38999999999999,-0.93800000000000061),(-78.,-33.93,-8.8130000000000006),(-78.,-78.,-8.3450000000000006),(-33.93,-78.,-8.8130000000000006),(-251.38999999999999,-603.,-0.93800000000000061)),$);
#108=IFCINDEXEDPOLYGONALFACE((1,2,3,4,5,6));
#109=IFCINDEXEDPOLYGONALFACE((12,11,10,9,8,7));
#110=IFCINDEXEDPOLYGONALFACE((1,7,8,2));
#111=IFCINDEXEDPOLYGONALFACE((2,8,9,3));
#112=IFCINDEXEDPOLYGONALFACE((3,9,10,4));
#113=IFCINDEXEDPOLYGONALFACE((4,10,11,5));
#114=IFCINDEXEDPOLYGONALFACE((5,11,12,6));
#115=IFCINDEXEDPOLYGONALFACE((6,12,7,1));
#116=IFCPOLYGONALFACESET(#107,.T.,(#108,#109,#110,#111,#112,#113,#114,#115),$);
#117=IFCSHAPEREPRESENTATION(#11,'Body','Tessellation',(#116));
#118=IFCPRODUCTDEFINITIONSHAPE($,$,(#117));
#119=IFCCARTESIANPOINT((0.,0.,0.));
#120=IFCAXIS2PLACEMENT3D(#119,$,$);
#121=IFCLOCALPLACEMENT(#54,#120);
#122=IFCCOVERING('2P1zS$SX1M5wGCx7caB2fu',$,'Q/-1/-1#5',$,'gratschnitt',#121,#118,$,$);
#123=IFCPROPERTYSINGLEVALUE('Stueckart',$,IFCLABEL('gratschnitt'),$);
#124=IFCPROPERTYSINGLEVALUE('Motiv',$,IFCLABEL('Q'),$);
#125=IFCPROPERTYSINGLEVALUE('Rasterposition',$,IFCLABEL('Q/-1/-1'),$);
#126=IFCPROPERTYSINGLEVALUE('Gefaelleflaeche',$,IFCLABEL('F5'),$);
#127=IFCPROPERTYSINGLEVALUE('Rohling',$,IFCLABEL('F60x60#9'),$);
#128=IFCPROPERTYSINGLEVALUE('Herkunft',$,IFCLABEL('neu'),$);
#129=IFCPROPERTYSINGLEVALUE('Schnitte',$,IFCINTEGER(4),$);
#130=IFCPROPERTYSINGLEVALUE('Schnittlaenge',$,IFCREAL(1224.5999999999999),$);
#131=IFCPROPERTYSINGLEVALUE('Schnittarten',$,IFCLABEL('gratschnitt,ablauf'),$);
#132=IFCPROPERTYSET('3UoXuZpvDI5wBhWmOxBPh5',$,'HP_Fliesenstueck',$,(#123,#124,#125,#126,#127,#128,#129,#130,#131));
#133=IFCRELDEFINESBYPROPERTIES('0VCzWZDVLV4fyFRVi0fbyR',$,$,$,(#122),#132);
#134=IFCQUANTITYLENGTH('Width',$,$,10.,$);
#135=IFCQUANTITYAREA('NetArea',$,$,0.207729,$);
#136=IFCELEMENTQUANTITY('0BhZ8w8InJUON_Flt_dBzB',$,'Qto_CoveringBaseQuantities',$,$,(#134,#135));
#137=IFCRELDEFINESBYPROPERTIES('0Y5x$$Bu1GvwGsblj7N0pk',$,$,$,(#122),#136);
#138=IFCCARTESIANPOINTLIST3D(((-3.,-603.,9.0449999999999999),(-248.15000000000001,-603.,9.0449999999999999),(-30.690000000000001,-78.,1.1699999999999999),(-3.,-78.,1.1699999999999999),(-3.,-603.,-0.95500000000000007),(-248.15000000000001,-603.,-0.95500000000000007),(-30.690000000000001,-78.,-8.8300000000000001),(-3.,-78.,-8.8300000000000001)),$);
#139=IFCINDEXEDPOLYGONALFACE((1,2,3,4));
#140=IFCINDEXEDPOLYGONALFACE((8,7,6,5));
#141=IFCINDEXEDPOLYGONALFACE((1,5,6,2));
#142=IFCINDEXEDPOLYGONALFACE((2,6,7,3));
#143=IFCINDEXEDPOLYGONALFACE((3,7,8,4));
#144=IFCINDEXEDPOLYGONALFACE((4,8,5,1));
#145=IFCPOLYGONALFACESET(#138,.T.,(#139,#140,#141,#142,#143,#144),$);
#146=IFCSHAPEREPRESENTATION(#11,'Body','Tessellation',(#145));
#147=IFCPRODUCTDEFINITIONSHAPE($,$,(#146));
#148=IFCCARTESIANPOINT((0.,0.,0.));
#149=IFCAXIS2PLACEMENT3D(#148,$,$);
#150=IFCLOCALPLACEMENT(#54,#149);
#151=IFCCOVERING('11ysfyqtjMneudbR9fR2iP',$,'Q/-1/-1#6',$,'gratschnitt',#150,#147,$,$);
#152=IFCPROPERTYSINGLEVALUE('Stueckart',$,IFCLABEL('gratschnitt'),$);
#153=IFCPROPERTYSINGLEVALUE('Motiv',$,IFCLABEL('Q'),$);
#154=IFCPROPERTYSINGLEVALUE('Rasterposition',$,IFCLABEL('Q/-1/-1'),$);
#155=IFCPROPERTYSINGLEVALUE('Gefaelleflaeche',$,IFCLABEL('F6'),$);
#156=IFCPROPERTYSINGLEVALUE('Rohling',$,IFCLABEL('F60x60#11'),$);
#157=IFCPROPERTYSINGLEVALUE('Herkunft',$,IFCLABEL('reststueck'),$);
#158=IFCPROPERTYSINGLEVALUE('Schnitte',$,IFCINTEGER(2),$);
#159=IFCPROPERTYSINGLEVALUE('Schnittlaenge',$,IFCREAL(595.89999999999998),$);
#160=IFCPROPERTYSINGLEVALUE('Schnittarten',$,IFCLABEL('gratschnitt,ablauf'),$);
#161=IFCPROPERTYSET('2dWhp8MBXNKBL8_tC5sG$L',$,'HP_Fliesenstueck',$,(#152,#153,#154,#155,#156,#157,#158,#159,#160));
#162=IFCRELDEFINESBYPROPERTIES('1tftLK9VzH6elepMnYWaVO',$,$,$,(#151),#161);
#163=IFCQUANTITYLENGTH('Width',$,$,10.,$);
#164=IFCQUANTITYAREA('NetArea',$,$,0.071618000000000001,$);
#165=IFCELEMENTQUANTITY('1qubnE5jfMNBpjlVdzxRbA',$,'Qto_CoveringBaseQuantities',$,$,(#163,#164));
#166=IFCRELDEFINESBYPROPERTIES('03kfD2D0rTugutzAXamxRi',$,$,$,(#151),#165);
#167=IFCCARTESIANPOINTLIST3D(((-603.,-606.,12.823),(-252.63999999999999,-606.,9.1069999999999993),(-496.95999999999998,-1195.8499999999999,17.954999999999998),(-603.,-1089.8099999999999,17.954999999999998),(-603.,-606.,2.8230000000000004),(-252.63999999999999,-606.,-0.89300000000000068),(-496.95999999999998,-1195.8499999999999,7.9549999999999983),(-603.,-1089.8099999999999,7.9549999999999983)),$);
#168=IFCINDEXEDPOLYGONALFACE((1,2,3,4));
#169=IFCINDEXEDPOLYGONALFACE((8,7,6,5));
#170=IFCINDEXEDPOLYGONALFACE((1,5,6,2));
#171=IFCINDEXEDPOLYGONALFACE((2,6,7,3));
#172=IFCINDEXEDPOLYGONALFACE((3,7,8,4));
#173=IFCINDEXEDPOLYGONALFACE((4,8,5,1));
#174=IFCPOLYGONALFACESET(#167,.T.,(#168,#169,#170,#171,#172,#173),$);
#175=IFCSHAPEREPRESENTATION(#11,'Body','Tessellation',(#174));
#176=IFCPRODUCTDEFINITIONSHAPE($,$,(#175));
#177=IFCCARTESIANPOINT((0.,0.,0.));
#178=IFCAXIS2PLACEMENT3D(#177,$,$);
#179=IFCLOCALPLACEMENT(#54,#178);
#180=IFCCOVERING('05XG3Msl5QwxNGwx4kjvnb',$,'Q/-1/-2#5',$,'gratschnitt',#179,#176,$,$);
#181=IFCPROPERTYSINGLEVALUE('Stueckart',$,IFCLABEL('gratschnitt'),$);
#182=IFCPROPERTYSINGLEVALUE('Motiv',$,IFCLABEL('Q'),$);
#183=IFCPROPERTYSINGLEVALUE('Rasterposition',$,IFCLABEL('Q/-1/-2'),$);
#184=IFCPROPERTYSINGLEVALUE('Gefaelleflaeche',$,IFCLABEL('F5'),$);
#185=IFCPROPERTYSINGLEVALUE('Rohling',$,IFCLABEL('F60x60#1'),$);
#186=IFCPROPERTYSINGLEVALUE('Herkunft',$,IFCLABEL('reststueck'),$);
#187=IFCPROPERTYSINGLEVALUE('Schnitte',$,IFCINTEGER(2),$);
#188=IFCPROPERTYSINGLEVALUE('Schnittlaenge',$,IFCREAL(788.39999999999998),$);
#189=IFCPROPERTYSINGLEVALUE('Schnittarten',$,IFCLABEL('schraeg,gratschnitt'),$);
#190=IFCPROPERTYSET('2vcVwyW25MRQ1dDZsVMilh',$,'HP_Fliesenstueck',$,(#181,#182,#183,#184,#185,#186,#187,#188,#189));
#191=IFCRELDEFINESBYPROPERTIES('3K0XHq$hrMIQCk8O2UiEdW',$,$,$,(#180),#190);
#192=IFCQUANTITYLENGTH('Width',$,$,10.,$);
#193=IFCQUANTITYAREA('NetArea',$,$,0.12898299999999999,$);
#194=IFCELEMENTQUANTITY('3lC3UYie1SO8Rs3adUYWX5',$,'Qto_CoveringBaseQuantities',$,$,(#192,#193));
#195=IFCRELDEFINESBYPROPERTIES('2VH26JcEnRphJhkAxF7D9m',$,$,$,(#180),#194);
#196=IFCCARTESIANPOINTLIST3D(((-3.,-606.,9.0899999999999999),(-3.,-1197.,17.954999999999998),(-494.19,-1197.,17.954999999999998),(-249.38999999999999,-606.,9.0899999999999999),(-3.,-606.,-0.91000000000000014),(-3.,-1197.,7.9549999999999983),(-494.19,-1197.,7.9549999999999983),(-249.38999999999999,-606.,-0.91000000000000014)),$);
#197=IFCINDEXEDPOLYGONALFACE((1,2,3,4));
#198=IFCINDEXEDPOLYGONALFACE((8,7,6,5));
#199=IFCINDEXEDPOLYGONALFACE((1,5,6,2));
#200=IFCINDEXEDPOLYGONALFACE((2,6,7,3));
#201=IFCINDEXEDPOLYGONALFACE((3,7,8,4));
#202=IFCINDEXEDPOLYGONALFACE((4,8,5,1));
#203=IFCPOLYGONALFACESET(#196,.T.,(#197,#198,#199,#200,#201,#202),$);
#204=IFCSHAPEREPRESENTATION(#11,'Body','Tessellation',(#203));
#205=IFCPRODUCTDEFINITIONSHAPE($,$,(#204));
#206=IFCCARTESIANPOINT((0.,0.,0.));
#207=IFCAXIS2PLACEMENT3D(#206,$,$);
#208=IFCLOCALPLACEMENT(#54,#207);
#209=IFCCOVERING('05AG4nDZnOYBpjxnsNA2xa',$,'Q/-1/-2#6',$,'gratschnitt',#208,#205,$,$);
#210=IFCPROPERTYSINGLEVALUE('Stueckart',$,IFCLABEL('gratschnitt'),$);
#211=IFCPROPERTYSINGLEVALUE('Motiv',$,IFCLABEL('Q'),$);
#212=IFCPROPERTYSINGLEVALUE('Rasterposition',$,IFCLABEL('Q/-1/-2'),$);
#213=IFCPROPERTYSINGLEVALUE('Gefaelleflaeche',$,IFCLABEL('F6'),$);
#214=IFCPROPERTYSINGLEVALUE('Rohling',$,IFCLABEL('F60x60#7'),$);
#215=IFCPROPERTYSINGLEVALUE('Herkunft',$,IFCLABEL('neu'),$);
#216=IFCPROPERTYSINGLEVALUE('Schnitte',$,IFCINTEGER(2),$);
#217=IFCPROPERTYSINGLEVALUE('Schnittlaenge',$,IFCREAL(1130.9000000000001),$);
#218=IFCPROPERTYSINGLEVALUE('Schnittarten',$,IFCLABEL('gerade,gratschnitt'),$);
#219=IFCPROPERTYSET('1az$sYHbXJsf1v8wMwY7Ij',$,'HP_Fliesenstueck',$,(#210,#211,#212,#213,#214,#215,#216,#217,#218));
#220=IFCRELDEFINESBYPROPERTIES('0sE7bo8I5QPAds5yAgHXqU',$,$,$,(#209),#219);
#221=IFCQUANTITYLENGTH('Width',$,$,10.,$);
#222=IFCQUANTITYAREA('NetArea',$,$,0.21795500000000001,$);
#223=IFCELEMENTQUANTITY('00HzzzyvDRWB$JUcVTALXo',$,'Qto_CoveringBaseQuantities',$,$,(#221,#222));
#224=IFCRELDEFINESBYPROPERTIES('3IwbYE49HQoRtogf$F6k81',$,$,$,(#209),#223);
#225=IFCCARTESIANPOINTLIST3D(((-3.,600.,9.),(-3.,78.,1.1699999999999999),(-30.690000000000001,78.,1.1699999999999999),(-246.90000000000001,600.,9.),(-3.,600.,-1.),(-3.,78.,-8.8300000000000001),(-30.690000000000001,78.,-8.8300000000000001),(-246.90000000000001,600.,-1.)),$);
#226=IFCINDEXEDPOLYGONALFACE((1,2,3,4));
#227=IFCINDEXEDPOLYGONALFACE((8,7,6,5));
#228=IFCINDEXEDPOLYGONALFACE((1,5,6,2));
#229=IFCINDEXEDPOLYGONALFACE((2,6,7,3));
#230=IFCINDEXEDPOLYGONALFACE((3,7,8,4));
#231=IFCINDEXEDPOLYGONALFACE((4,8,5,1));
#232=IFCPOLYGONALFACESET(#225,.T.,(#226,#227,#228,#229,#230,#231),$);
#233=IFCSHAPEREPRESENTATION(#11,'Body','Tessellation',(#232));
#234=IFCPRODUCTDEFINITIONSHAPE($,$,(#233));
#235=IFCCARTESIANPOINT((0.,0.,0.));
#236=IFCAXIS2PLACEMENT3D(#235,$,$);
#237=IFCLOCALPLACEMENT(#54,#236);
#238=IFCCOVERING('1CWy5Z1m9LqeHVYfDKvWty',$,'Q/-1/0#2',$,'gratschnitt',#237,#234,$,$);
#239=IFCPROPERTYSINGLEVALUE('Stueckart',$,IFCLABEL('gratschnitt'),$);
#240=IFCPROPERTYSINGLEVALUE('Motiv',$,IFCLABEL('Q'),$);
#241=IFCPROPERTYSINGLEVALUE('Rasterposition',$,IFCLABEL('Q/-1/0'),$);
#242=IFCPROPERTYSINGLEVALUE('Gefaelleflaeche',$,IFCLABEL('F2'),$);
#243=IFCPROPERTYSINGLEVALUE('Rohling',$,IFCLABEL('F60x60#12'),$);
#244=IFCPROPERTYSINGLEVALUE('Herkunft',$,IFCLABEL('reststueck'),$);
#245=IFCPROPERTYSINGLEVALUE('Schnitte',$,IFCINTEGER(2),$);
#246=IFCPROPERTYSINGLEVALUE('Schnittlaenge',$,IFCREAL(592.70000000000005),$);
#247=IFCPROPERTYSINGLEVALUE('Schnittarten',$,IFCLABEL('gratschnitt,ablauf'),$);
#248=IFCPROPERTYSET('1NG1iiiIDRm9nUUOnWQcqZ',$,'HP_Fliesenstueck',$,(#239,#240,#241,#242,#243,#244,#245,#246,#247));
#249=IFCRELDEFINESBYPROPERTIES('3StyODKQnINvTxvHFfrxK6',$,$,$,(#238),#248);
#250=IFCQUANTITYLENGTH('Width',$,$,10.,$);
#251=IFCQUANTITYAREA('NetArea',$,$,0.070885000000000004,$);
#252=IFCELEMENTQUANTITY('0qqP63z4DNlBjMp4sM5b5P',$,'Qto_CoveringBaseQuantities',$,$,(#250,#251));
#253=IFCRELDEFINESBYPROPERTIES('0TZrwYJRHVFR4FxHl7d1Bg',$,$,$,(#238),#252);
#254=IFCCARTESIANPOINTLIST3D(((-603.,600.,12.76),(-250.15000000000001,600.,9.0169999999999995),(-33.93,78.,1.1870000000000001),(-78.,78.,1.655),(-78.,33.93,1.1870000000000001),(-603.,251.38999999999999,9.0619999999999994),(-603.,600.,2.7599999999999998),(-250.15000000000001,600.,-0.98300000000000054),(-33.93,78.,-8.8130000000000006),(-78.,78.,-8.3450000000000006),(-78.,33.93,-8.8130000000000006),(-603.,251.38999999999999,-0.93800000000000061)),$);
#255=IFCINDEXEDPOLYGONALFACE((1,2,3,4,5,6));
#256=IFCINDEXEDPOLYGONALFACE((12,11,10,9,8,7));
#257=IFCINDEXEDPOLYGONALFACE((1,7,8,2));
#258=IFCINDEXEDPOLYGONALFACE((2,8,9,3));
#259=IFCINDEXEDPOLYGONALFACE((3,9,10,4));
#260=IFCINDEXEDPOLYGONALFACE((4,10,11,5));
#261=IFCINDEXEDPOLYGONALFACE((5,11,12,6));
#262=IFCINDEXEDPOLYGONALFACE((6,12,7,1));
#263=IFCPOLYGONALFACESET(#254,.T.,(#255,#256,#257,#258,#259,#260,#261,#262),$);
#264=IFCSHAPEREPRESENTATION(#11,'Body','Tessellation',(#263));
#265=IFCPRODUCTDEFINITIONSHAPE($,$,(#264));
#266=IFCCARTESIANPOINT((0.,0.,0.));
#267=IFCAXIS2PLACEMENT3D(#266,$,$);
#268=IFCLOCALPLACEMENT(#54,#267);
#269=IFCCOVERING('0NkXCfr$1SAArcccYLRGXT',$,'Q/-1/0#3',$,'gratschnitt',#268,#265,$,$);
#270=IFCPROPERTYSINGLEVALUE('Stueckart',$,IFCLABEL('gratschnitt'),$);
#271=IFCPROPERTYSINGLEVALUE('Motiv',$,IFCLABEL('Q'),$);
#272=IFCPROPERTYSINGLEVALUE('Rasterposition',$,IFCLABEL('Q/-1/0'),$);
#273=IFCPROPERTYSINGLEVALUE('Gefaelleflaeche',$,IFCLABEL('F3'),$);
#274=IFCPROPERTYSINGLEVALUE('Rohling',$,IFCLABEL('F60x60#10'),$);
#275=IFCPROPERTYSINGLEVALUE('Herkunft',$,IFCLABEL('neu'),$);
#276=IFCPROPERTYSINGLEVALUE('Schnitte',$,IFCINTEGER(4),$);
#277=IFCPROPERTYSINGLEVALUE('Schnittlaenge',$,IFCREAL(1221.4000000000001),$);
#278=IFCPROPERTYSINGLEVALUE('Schnittarten',$,IFCLABEL('gratschnitt,ablauf'),$);
#279=IFCPROPERTYSET('1HKH6Tod1NRQooanaAvGTv',$,'HP_Fliesenstueck',$,(#270,#271,#272,#273,#274,#275,#276,#277,#278));
#280=IFCRELDEFINESBYPROPERTIES('2r3FMp_mnLR9QBKlahlqXt',$,$,$,(#269),#279);
#281=IFCQUANTITYLENGTH('Width',$,$,10.,$);
#282=IFCQUANTITYAREA('NetArea',$,$,0.20667199999999999,$);
#283=IFCELEMENTQUANTITY('3IrqnIppjT4xmvrrQHz$AU',$,'Qto_CoveringBaseQuantities',$,$,(#281,#282));
#284=IFCRELDEFINESBYPROPERTIES('3r9H4cCnTOmwTexGnOXwxY',$,$,$,(#269),#283);
#285=IFCCARTESIANPOINTLIST3D(((-603.,0.,9.0449999999999999),(-603.,248.15000000000001,9.0449999999999999),(-78.,30.690000000000001,1.1699999999999999),(-78.,0.,1.1699999999999999),(-603.,0.,-0.95500000000000007),(-603.,248.15000000000001,-0.95500000000000007),(-78.,30.690000000000001,-8.8300000000000001),(-78.,0.,-8.8300000000000001)),$);
#286=IFCINDEXEDPOLYGONALFACE((1,2,3,4));
#287=IFCINDEXEDPOLYGONALFACE((8,7,6,5));
#288=IFCINDEXEDPOLYGONALFACE((1,5,6,2));
#289=IFCINDEXEDPOLYGONALFACE((2,6,7,3));
#290=IFCINDEXEDPOLYGONALFACE((3,7,8,4));
#291=IFCINDEXEDPOLYGONALFACE((4,8,5,1));
#292=IFCPOLYGONALFACESET(#285,.T.,(#286,#287,#288,#289,#290,#291),$);
#293=IFCSHAPEREPRESENTATION(#11,'Body','Tessellation',(#292));
#294=IFCPRODUCTDEFINITIONSHAPE($,$,(#293));
#295=IFCCARTESIANPOINT((0.,0.,0.));
#296=IFCAXIS2PLACEMENT3D(#295,$,$);
#297=IFCLOCALPLACEMENT(#54,#296);
#298=IFCCOVERING('0CoybnPFPQoA4hK2TOeiCV',$,'Q/-1/0#4',$,'gratschnitt',#297,#294,$,$);
#299=IFCPROPERTYSINGLEVALUE('Stueckart',$,IFCLABEL('gratschnitt'),$);
#300=IFCPROPERTYSINGLEVALUE('Motiv',$,IFCLABEL('Q'),$);
#301=IFCPROPERTYSINGLEVALUE('Rasterposition',$,IFCLABEL('Q/-1/0'),$);
#302=IFCPROPERTYSINGLEVALUE('Gefaelleflaeche',$,IFCLABEL('F4'),$);
#303=IFCPROPERTYSINGLEVALUE('Rohling',$,IFCLABEL('F60x60#10'),$);
#304=IFCPROPERTYSINGLEVALUE('Herkunft',$,IFCLABEL('reststueck'),$);
#305=IFCPROPERTYSINGLEVALUE('Schnitte',$,IFCINTEGER(2),$);
#306=IFCPROPERTYSINGLEVALUE('Schnittlaenge',$,IFCREAL(598.89999999999998),$);
#307=IFCPROPERTYSINGLEVALUE('Schnittarten',$,IFCLABEL('gratschnitt,ablauf'),$);
#308=IFCPROPERTYSET('2$iEYnKU5IofL5MnlvC_YZ',$,'HP_Fliesenstueck',$,(#299,#300,#301,#302,#303,#304,#305,#306,#307));
#309=IFCRELDEFINESBYPROPERTIES('0XsPaqYODRUfiXZlK03sHP',$,$,$,(#298),#308);
#310=IFCQUANTITYLENGTH('Width',$,$,10.,$);
#311=IFCQUANTITYAREA('NetArea',$,$,0.073192999999999994,$);
#312=IFCELEMENTQUANTITY('24KiB$3KfUVRTNAfy4z47G',$,'Qto_CoveringBaseQuantities',$,$,(#310,#311));
#313=IFCRELDEFINESBYPROPERTIES('1_GeoW5A9T1hbFQRcv3Tvs',$,$,$,(#298),#312);
#314=IFCCARTESIANPOINTLIST3D(((-3.,603.,9.0449999999999999),(-248.15000000000001,603.,9.0449999999999999),(-494.19,1197.,17.954999999999998),(-3.,1197.,17.954999999999998),(-3.,603.,-0.95500000000000007),(-248.15000000000001,603.,-0.95500000000000007),(-494.19,1197.,7.9549999999999983),(-3.,1197.,7.9549999999999983)),$);
#315=IFCINDEXEDPOLYGONALFACE((1,2,3,4));
#316=IFCINDEXEDPOLYGONALFACE((8,7,6,5));
#317=IFCINDEXEDPOLYGONALFACE((1,5,6,2));
#318=IFCINDEXEDPOLYGONALFACE((2,6,7,3));
#319=IFCINDEXEDPOLYGONALFACE((3,7,8,4));
#320=IFCINDEXEDPOLYGONALFACE((4,8,5,1));
#321=IFCPOLYGONALFACESET(#314,.T.,(#315,#316,#317,#318,#319,#320),$);
#322=IFCSHAPEREPRESENTATION(#11,'Body','Tessellation',(#321));
#323=IFCPRODUCTDEFINITIONSHAPE($,$,(#322));
#324=IFCCARTESIANPOINT((0.,0.,0.));
#325=IFCAXIS2PLACEMENT3D(#324,$,$);
#326=IFCLOCALPLACEMENT(#54,#325);
#327=IFCCOVERING('1pct$iUa9P_ReVCpIrqmDq',$,'Q/-1/1#2',$,'gratschnitt',#326,#323,$,$);
#328=IFCPROPERTYSINGLEVALUE('Stueckart',$,IFCLABEL('gratschnitt'),$);
#329=IFCPROPERTYSINGLEVALUE('Motiv',$,IFCLABEL('Q'),$);
#330=IFCPROPERTYSINGLEVALUE('Rasterposition',$,IFCLABEL('Q/-1/1'),$);
#331=IFCPROPERTYSINGLEVALUE('Gefaelleflaeche',$,IFCLABEL('F2'),$);
#332=IFCPROPERTYSINGLEVALUE('Rohling',$,IFCLABEL('F60x60#5'),$);
#333=IFCPROPERTYSINGLEVALUE('Herkunft',$,IFCLABEL('neu'),$);
#334=IFCPROPERTYSINGLEVALUE('Schnitte',$,IFCINTEGER(2),$);
#335=IFCPROPERTYSINGLEVALUE('Schnittlaenge',$,IFCREAL(1134.0999999999999),$);
#336=IFCPROPERTYSINGLEVALUE('Schnittarten',$,IFCLABEL('gerade,gratschnitt'),$);
#337=IFCPROPERTYSET('3hTOfU2rPGvQHpSMOkLxcU',$,'HP_Fliesenstueck',$,(#328,#329,#330,#331,#332,#333,#334,#335,#336));
#338=IFCRELDEFINESBYPROPERTIES('1x7SJEGHjSmQNNKvy5II5f',$,$,$,(#327),#337);
#339=IFCQUANTITYLENGTH('Width',$,$,10.,$);
#340=IFCQUANTITYAREA('NetArea',$,$,0.218692,$);
#341=IFCELEMENTQUANTITY('3LcuAWCDXNVg3E4Yk9KDv2',$,'Qto_CoveringBaseQuantities',$,$,(#339,#340));
#342=IFCRELDEFINESBYPROPERTIES('370jU2_8jNf9xV8btqgJTH',$,$,$,(#327),#341);
#343=IFCCARTESIANPOINTLIST3D(((-603.,603.,12.792),(-603.,1089.8099999999999,17.954999999999998),(-496.95999999999998,1195.8499999999999,17.954999999999998),(-251.38999999999999,603.,9.0619999999999994),(-603.,603.,2.7919999999999998),(-603.,1089.8099999999999,7.9549999999999983),(-496.95999999999998,1195.8499999999999,7.9549999999999983),(-251.38999999999999,603.,-0.93800000000000061)),$);
#344=IFCINDEXEDPOLYGONALFACE((1,2,3,4));
#345=IFCINDEXEDPOLYGONALFACE((8,7,6,5));
#346=IFCINDEXEDPOLYGONALFACE((1,5,6,2));
#347=IFCINDEXEDPOLYGONALFACE((2,6,7,3));
#348=IFCINDEXEDPOLYGONALFACE((3,7,8,4));
#349=IFCINDEXEDPOLYGONALFACE((4,8,5,1));
#350=IFCPOLYGONALFACESET(#343,.T.,(#344,#345,#346,#347,#348,#349),$);
#351=IFCSHAPEREPRESENTATION(#11,'Body','Tessellation',(#350));
#352=IFCPRODUCTDEFINITIONSHAPE($,$,(#351));
#353=IFCCARTESIANPOINT((0.,0.,0.));
#354=IFCAXIS2PLACEMENT3D(#353,$,$);
#355=IFCLOCALPLACEMENT(#54,#354);
#356=IFCCOVERING('3SCOlVY6nToxRFjNx9SJNV',$,'Q/-1/1#3',$,'gratschnitt',#355,#352,$,$);
#357=IFCPROPERTYSINGLEVALUE('Stueckart',$,IFCLABEL('gratschnitt'),$);
#358=IFCPROPERTYSINGLEVALUE('Motiv',$,IFCLABEL('Q'),$);
#359=IFCPROPERTYSINGLEVALUE('Rasterposition',$,IFCLABEL('Q/-1/1'),$);
#360=IFCPROPERTYSINGLEVALUE('Gefaelleflaeche',$,IFCLABEL('F3'),$);
#361=IFCPROPERTYSINGLEVALUE('Rohling',$,IFCLABEL('F60x60#5'),$);
#362=IFCPROPERTYSINGLEVALUE('Herkunft',$,IFCLABEL('reststueck'),$);
#363=IFCPROPERTYSINGLEVALUE('Schnitte',$,IFCINTEGER(2),$);
#364=IFCPROPERTYSINGLEVALUE('Schnittlaenge',$,IFCREAL(791.70000000000005),$);
#365=IFCPROPERTYSINGLEVALUE('Schnittarten',$,IFCLABEL('schraeg,gratschnitt'),$);
#366=IFCPROPERTYSET('1v5NV11JfJ3wIN0SHInQi_',$,'HP_Fliesenstueck',$,(#357,#358,#359,#360,#361,#362,#363,#364,#365));
#367=IFCRELDEFINESBYPROPERTIES('0QBIKB9IvHgBN_ZvU5jQu4',$,$,$,(#356),#366);
#368=IFCQUANTITYLENGTH('Width',$,$,10.,$);
#369=IFCQUANTITYAREA('NetArea',$,$,0.13003500000000001,$);
#370=IFCELEMENTQUANTITY('0i3AXoDmzG$vwez0rFNx41',$,'Qto_CoveringBaseQuantities',$,$,(#368,#369));
#371=IFCRELDEFINESBYPROPERTIES('0q8lw_FSnM$P1HI3b$8Bs2',$,$,$,(#356),#370);
#372=IFCCARTESIANPOINTLIST3D(((-606.,-3.,9.0899999999999999),(-606.,-249.38999999999999,9.0899999999999999),(-1197.,-494.19,17.954999999999998),(-1197.,-3.,17.954999999999998),(-606.,-3.,-0.91000000000000014),(-606.,-249.38999999999999,-0.91000000000000014),(-1197.,-494.19,7.9549999999999983),(-1197.,-3.,7.9549999999999983)),$);
#373=IFCINDEXEDPOLYGONALFACE((1,2,3,4));
#374=IFCINDEXEDPOLYGONALFACE((8,7,6,5));
#375=IFCINDEXEDPOLYGONALFACE((1,5,6,2));
#376=IFCINDEXEDPOLYGONALFACE((2,6,7,3));
#377=IFCINDEXEDPOLYGONALFACE((3,7,8,4));
#378=IFCINDEXEDPOLYGONALFACE((4,8,5,1));
#379=IFCPOLYGONALFACESET(#372,.T.,(#373,#374,#375,#376,#377,#378),$);
#380=IFCSHAPEREPRESENTATION(#11,'Body','Tessellation',(#379));
#381=IFCPRODUCTDEFINITIONSHAPE($,$,(#380));
#382=IFCCARTESIANPOINT((0.,0.,0.));
#383=IFCAXIS2PLACEMENT3D(#382,$,$);
#384=IFCLOCALPLACEMENT(#54,#383);
#385=IFCCOVERING('1y5JYz7arUBOBzYyOfugxx',$,'Q/-2/-1#4',$,'gratschnitt',#384,#381,$,$);
#386=IFCPROPERTYSINGLEVALUE('Stueckart',$,IFCLABEL('gratschnitt'),$);
#387=IFCPROPERTYSINGLEVALUE('Motiv',$,IFCLABEL('Q'),$);
#388=IFCPROPERTYSINGLEVALUE('Rasterposition',$,IFCLABEL('Q/-2/-1'),$);
#389=IFCPROPERTYSINGLEVALUE('Gefaelleflaeche',$,IFCLABEL('F4'),$);
#390=IFCPROPERTYSINGLEVALUE('Rohling',$,IFCLABEL('F60x60#8'),$);
#391=IFCPROPERTYSINGLEVALUE('Herkunft',$,IFCLABEL('neu'),$);
#392=IFCPROPERTYSINGLEVALUE('Schnitte',$,IFCINTEGER(2),$);
#393=IFCPROPERTYSINGLEVALUE('Schnittlaenge',$,IFCREAL(1130.9000000000001),$);
#394=IFCPROPERTYSINGLEVALUE('Schnittarten',$,IFCLABEL('gerade,gratschnitt'),$);
#395=IFCPROPERTYSET('2bsdPbKxDKVRAHhMhQKwP0',$,'HP_Fliesenstueck',$,(#386,#387,#388,#389,#390,#391,#392,#393,#394));
#396=IFCRELDEFINESBYPROPERTIES('0SmJKs0LjVnAFxalBw3mR4',$,$,$,(#385),#395);
#397=IFCQUANTITYLENGTH('Width',$,$,10.,$);
#398=IFCQUANTITYAREA('NetArea',$,$,0.21795500000000001,$);
#399=IFCELEMENTQUANTITY('3_D1tnMerUnvWzL6ebq24R',$,'Qto_CoveringBaseQuantities',$,$,(#397,#398));
#400=IFCRELDEFINESBYPROPERTIES('2xGkPamb9UIeqzh8Lt7TtT',$,$,$,(#385),#399);
#401=IFCCARTESIANPOINTLIST3D(((-606.,-603.,12.823),(-1089.8099999999999,-603.,17.954999999999998),(-1195.8499999999999,-496.95999999999998,17.954999999999998),(-606.,-252.63999999999999,9.1069999999999993),(-606.,-603.,2.8230000000000004),(-1089.8099999999999,-603.,7.9549999999999983),(-1195.8499999999999,-496.95999999999998,7.9549999999999983),(-606.,-252.63999999999999,-0.89300000000000068)),$);
#402=IFCINDEXEDPOLYGONALFACE((1,2,3,4));
#403=IFCINDEXEDPOLYGONALFACE((8,7,6,5));
#404=IFCINDEXEDPOLYGONALFACE((1,5,6,2));
#405=IFCINDEXEDPOLYGONALFACE((2,6,7,3));
#406=IFCINDEXEDPOLYGONALFACE((3,7,8,4));
#407=IFCINDEXEDPOLYGONALFACE((4,8,5,1));
#408=IFCPOLYGONALFACESET(#401,.T.,(#402,#403,#404,#405,#406,#407),$);
#409=IFCSHAPEREPRESENTATION(#11,'Body','Tessellation',(#408));
#410=IFCPRODUCTDEFINITIONSHAPE($,$,(#409));
#411=IFCCARTESIANPOINT((0.,0.,0.));
#412=IFCAXIS2PLACEMENT3D(#411,$,$);
#413=IFCLOCALPLACEMENT(#54,#412);
#414=IFCCOVERING('3rCmlO0hLQ4OJyl9duQVED',$,'Q/-2/-1#5',$,'gratschnitt',#413,#410,$,$);
#415=IFCPROPERTYSINGLEVALUE('Stueckart',$,IFCLABEL('gratschnitt'),$);
#416=IFCPROPERTYSINGLEVALUE('Motiv',$,IFCLABEL('Q'),$);
#417=IFCPROPERTYSINGLEVALUE('Rasterposition',$,IFCLABEL('Q/-2/-1'),$);
#418=IFCPROPERTYSINGLEVALUE('Gefaelleflaeche',$,IFCLABEL('F5'),$);
#419=IFCPROPERTYSINGLEVALUE('Rohling',$,IFCLABEL('F60x60#2'),$);
#420=IFCPROPERTYSINGLEVALUE('Herkunft',$,IFCLABEL('reststueck'),$);
#421=IFCPROPERTYSINGLEVALUE('Schnitte',$,IFCINTEGER(2),$);
#422=IFCPROPERTYSINGLEVALUE('Schnittlaenge',$,IFCREAL(788.39999999999998),$);
#423=IFCPROPERTYSINGLEVALUE('Schnittarten',$,IFCLABEL('schraeg,gratschnitt'),$);
#424=IFCPROPERTYSET('1fZWc51RzR1BgXv6$ApWnS',$,'HP_Fliesenstueck',$,(#415,#416,#417,#418,#419,#420,#421,#422,#423));
#425=IFCRELDEFINESBYPROPERTIES('0nW00WacDROOowouoiF83a',$,$,$,(#414),#424);
#426=IFCQUANTITYLENGTH('Width',$,$,10.,$);
#427=IFCQUANTITYAREA('NetArea',$,$,0.12898299999999999,$);
#428=IFCELEMENTQUANTITY('2IQ7KUhSbKBfBXJcXfWcS5',$,'Qto_CoveringBaseQuantities',$,$,(#426,#427));
#429=IFCRELDEFINESBYPROPERTIES('3mV3wCS8DKs8ZA5_FuQFmb',$,$,$,(#414),#428);
#430=IFCCARTESIANPOINTLIST3D(((-606.,-606.,12.855),(-606.,-1086.8099999999999,17.954999999999998),(-1086.8099999999999,-606.,17.954999999999998),(-606.,-606.,2.8550000000000004),(-606.,-1086.8099999999999,7.9549999999999983),(-1086.8099999999999,-606.,7.9549999999999983)),$);
#431=IFCINDEXEDPOLYGONALFACE((1,2,3));
#432=IFCINDEXEDPOLYGONALFACE((6,5,4));
#433=IFCINDEXEDPOLYGONALFACE((1,4,5,2));
#434=IFCINDEXEDPOLYGONALFACE((2,5,6,3));
#435=IFCINDEXEDPOLYGONALFACE((3,6,4,1));
#436=IFCPOLYGONALFACESET(#430,.T.,(#431,#432,#433,#434,#435),$);
#437=IFCSHAPEREPRESENTATION(#11,'Body','Tessellation',(#436));
#438=IFCPRODUCTDEFINITIONSHAPE($,$,(#437));
#439=IFCCARTESIANPOINT((0.,0.,0.));
#440=IFCAXIS2PLACEMENT3D(#439,$,$);
#441=IFCLOCALPLACEMENT(#54,#440);
#442=IFCCOVERING('1MDZHvg_TVhhtpV4W1v9qp',$,'Q/-2/-2#5',$,'schraeg',#441,#438,$,$);
#443=IFCPROPERTYSINGLEVALUE('Stueckart',$,IFCLABEL('schraeg'),$);
#444=IFCPROPERTYSINGLEVALUE('Motiv',$,IFCLABEL('Q'),$);
#445=IFCPROPERTYSINGLEVALUE('Rasterposition',$,IFCLABEL('Q/-2/-2'),$);
#446=IFCPROPERTYSINGLEVALUE('Gefaelleflaeche',$,IFCLABEL('F5'),$);
#447=IFCPROPERTYSINGLEVALUE('Rohling',$,IFCLABEL('F60x60#14'),$);
#448=IFCPROPERTYSINGLEVALUE('Herkunft',$,IFCLABEL('reststueck'),$);
#449=IFCPROPERTYSINGLEVALUE('Schnitte',$,IFCINTEGER(1),$);
#450=IFCPROPERTYSINGLEVALUE('Schnittlaenge',$,IFCREAL(680.),$);
#451=IFCPROPERTYSINGLEVALUE('Schnittarten',$,IFCLABEL('schraeg'),$);
#452=IFCPROPERTYSET('3KJwk4bjLLXhA39oAP7WYl',$,'HP_Fliesenstueck',$,(#443,#444,#445,#446,#447,#448,#449,#450,#451));
#453=IFCRELDEFINESBYPROPERTIES('0KRJZ0Fs5PhuTGvslfdNqg',$,$,$,(#442),#452);
#454=IFCQUANTITYLENGTH('Width',$,$,10.,$);
#455=IFCQUANTITYAREA('NetArea',$,$,0.115591,$);
#456=IFCELEMENTQUANTITY('1fzi37TsLHMRfbMdgZlKo7',$,'Qto_CoveringBaseQuantities',$,$,(#454,#455));
#457=IFCRELDEFINESBYPROPERTIES('2S0vRLJCjLmejFQrUukf$V',$,$,$,(#442),#456);
#458=IFCCARTESIANPOINTLIST3D(((-606.,600.,12.792),(-606.,252.63999999999999,9.1069999999999993),(-1195.8499999999999,496.95999999999998,17.954999999999998),(-1092.8099999999999,600.,17.954999999999998),(-606.,600.,2.7919999999999998),(-606.,252.63999999999999,-0.89300000000000068),(-1195.8499999999999,496.95999999999998,7.9549999999999983),(-1092.8099999999999,600.,7.9549999999999983)),$);
#459=IFCINDEXEDPOLYGONALFACE((1,2,3,4));
#460=IFCINDEXEDPOLYGONALFACE((8,7,6,5));
#461=IFCINDEXEDPOLYGONALFACE((1,5,6,2));
#462=IFCINDEXEDPOLYGONALFACE((2,6,7,3));
#463=IFCINDEXEDPOLYGONALFACE((3,7,8,4));
#464=IFCINDEXEDPOLYGONALFACE((4,8,5,1));
#465=IFCPOLYGONALFACESET(#458,.T.,(#459,#460,#461,#462,#463,#464),$);
#466=IFCSHAPEREPRESENTATION(#11,'Body','Tessellation',(#465));
#467=IFCPRODUCTDEFINITIONSHAPE($,$,(#466));
#468=IFCCARTESIANPOINT((0.,0.,0.));
#469=IFCAXIS2PLACEMENT3D(#468,$,$);
#470=IFCLOCALPLACEMENT(#54,#469);
#471=IFCCOVERING('21pnasujXUL81jcN1F0cMO',$,'Q/-2/0#3',$,'gratschnitt',#470,#467,$,$);
#472=IFCPROPERTYSINGLEVALUE('Stueckart',$,IFCLABEL('gratschnitt'),$);
#473=IFCPROPERTYSINGLEVALUE('Motiv',$,IFCLABEL('Q'),$);
#474=IFCPROPERTYSINGLEVALUE('Rasterposition',$,IFCLABEL('Q/-2/0'),$);
#475=IFCPROPERTYSINGLEVALUE('Gefaelleflaeche',$,IFCLABEL('F3'),$);
#476=IFCPROPERTYSINGLEVALUE('Rohling',$,IFCLABEL('F60x60#7'),$);
#477=IFCPROPERTYSINGLEVALUE('Herkunft',$,IFCLABEL('reststueck'),$);
#478=IFCPROPERTYSINGLEVALUE('Schnitte',$,IFCINTEGER(2),$);
#479=IFCPROPERTYSINGLEVALUE('Schnittlaenge',$,IFCREAL(784.20000000000005),$);
#480=IFCPROPERTYSINGLEVALUE('Schnittarten',$,IFCLABEL('schraeg,gratschnitt'),$);
#481=IFCPROPERTYSET('3XXL8SaCbKePVjZ3K9LFoT',$,'HP_Fliesenstueck',$,(#472,#473,#474,#475,#476,#477,#478,#479,#480));
#482=IFCRELDEFINESBYPROPERTIES('11GrJ4jRzUcwh4W2Q_ao1D',$,$,$,(#471),#481);
#483=IFCQUANTITYLENGTH('Width',$,$,10.,$);
#484=IFCQUANTITYAREA('NetArea',$,$,0.127527,$);
#485=IFCELEMENTQUANTITY('0mBbdyoCzVOBaypwxgeOsD',$,'Qto_CoveringBaseQuantities',$,$,(#483,#484));
#486=IFCRELDEFINESBYPROPERTIES('0LQ_4E_vHNteqJ9noYSNuF',$,$,$,(#471),#485);
#487=IFCCARTESIANPOINTLIST3D(((-606.,0.,9.0899999999999999),(-1197.,0.,17.954999999999998),(-1197.,494.19,17.954999999999998),(-606.,249.38999999999999,9.0899999999999999),(-606.,0.,-0.91000000000000014),(-1197.,0.,7.9549999999999983),(-1197.,494.19,7.9549999999999983),(-606.,249.38999999999999,-0.91000000000000014)),$);
#488=IFCINDEXEDPOLYGONALFACE((1,2,3,4));
#489=IFCINDEXEDPOLYGONALFACE((8,7,6,5));
#490=IFCINDEXEDPOLYGONALFACE((1,5,6,2));
#491=IFCINDEXEDPOLYGONALFACE((2,6,7,3));
#492=IFCINDEXEDPOLYGONALFACE((3,7,8,4));
#493=IFCINDEXEDPOLYGONALFACE((4,8,5,1));
#494=IFCPOLYGONALFACESET(#487,.T.,(#488,#489,#490,#491,#492,#493),$);
#495=IFCSHAPEREPRESENTATION(#11,'Body','Tessellation',(#494));
#496=IFCPRODUCTDEFINITIONSHAPE($,$,(#495));
#497=IFCCARTESIANPOINT((0.,0.,0.));
#498=IFCAXIS2PLACEMENT3D(#497,$,$);
#499=IFCLOCALPLACEMENT(#54,#498);
#500=IFCCOVERING('2o6sZNXvrV_9pbZLHgnSaU',$,'Q/-2/0#4',$,'gratschnitt',#499,#496,$,$);
#501=IFCPROPERTYSINGLEVALUE('Stueckart',$,IFCLABEL('gratschnitt'),$);
#502=IFCPROPERTYSINGLEVALUE('Motiv',$,IFCLABEL('Q'),$);
#503=IFCPROPERTYSINGLEVALUE('Rasterposition',$,IFCLABEL('Q/-2/0'),$);
#504=IFCPROPERTYSINGLEVALUE('Gefaelleflaeche',$,IFCLABEL('F4'),$);
#505=IFCPROPERTYSINGLEVALUE('Rohling',$,IFCLABEL('F60x60#3'),$);
#506=IFCPROPERTYSINGLEVALUE('Herkunft',$,IFCLABEL('neu'),$);
#507=IFCPROPERTYSINGLEVALUE('Schnitte',$,IFCINTEGER(2),$);
#508=IFCPROPERTYSINGLEVALUE('Schnittlaenge',$,IFCREAL(1133.9000000000001),$);
#509=IFCPROPERTYSINGLEVALUE('Schnittarten',$,IFCLABEL('gerade,gratschnitt'),$);
#510=IFCPROPERTYSET('1LhIHrN9fP086aNLqVfb$2',$,'HP_Fliesenstueck',$,(#501,#502,#503,#504,#505,#506,#507,#508,#509));
#511=IFCRELDEFINESBYPROPERTIES('30JkFMWQvLwwj6MFcA8weB',$,$,$,(#500),#510);
#512=IFCQUANTITYLENGTH('Width',$,$,10.,$);
#513=IFCQUANTITYAREA('NetArea',$,$,0.21972800000000001,$);
#514=IFCELEMENTQUANTITY('0uNd2UVFfSv9kVFhlAqeDp',$,'Qto_CoveringBaseQuantities',$,$,(#512,#513));
#515=IFCRELDEFINESBYPROPERTIES('3mg3fN5w5M5hYVxUMlJA_K',$,$,$,(#500),#514);
#516=IFCCARTESIANPOINTLIST3D(((-606.,603.,12.823),(-1089.8099999999999,603.,17.954999999999998),(-606.,1086.8099999999999,17.954999999999998),(-606.,603.,2.8230000000000004),(-1089.8099999999999,603.,7.9549999999999983),(-606.,1086.8099999999999,7.9549999999999983)),$);
#517=IFCINDEXEDPOLYGONALFACE((1,2,3));
#518=IFCINDEXEDPOLYGONALFACE((6,5,4));
#519=IFCINDEXEDPOLYGONALFACE((1,4,5,2));
#520=IFCINDEXEDPOLYGONALFACE((2,5,6,3));
#521=IFCINDEXEDPOLYGONALFACE((3,6,4,1));
#522=IFCPOLYGONALFACESET(#516,.T.,(#517,#518,#519,#520,#521),$);
#523=IFCSHAPEREPRESENTATION(#11,'Body','Tessellation',(#522));
#524=IFCPRODUCTDEFINITIONSHAPE($,$,(#523));
#525=IFCCARTESIANPOINT((0.,0.,0.));
#526=IFCAXIS2PLACEMENT3D(#525,$,$);
#527=IFCLOCALPLACEMENT(#54,#526);
#528=IFCCOVERING('3UVMpDoEDONOxMHjoR87Al',$,'Q/-2/1#3',$,'schraeg',#527,#524,$,$);
#529=IFCPROPERTYSINGLEVALUE('Stueckart',$,IFCLABEL('schraeg'),$);
#530=IFCPROPERTYSINGLEVALUE('Motiv',$,IFCLABEL('Q'),$);
#531=IFCPROPERTYSINGLEVALUE('Rasterposition',$,IFCLABEL('Q/-2/1'),$);
#532=IFCPROPERTYSINGLEVALUE('Gefaelleflaeche',$,IFCLABEL('F3'),$);
#533=IFCPROPERTYSINGLEVALUE('Rohling',$,IFCLABEL('F60x60#13'),$);
#534=IFCPROPERTYSINGLEVALUE('Herkunft',$,IFCLABEL('reststueck'),$);
#535=IFCPROPERTYSINGLEVALUE('Schnitte',$,IFCINTEGER(1),$);
#536=IFCPROPERTYSINGLEVALUE('Schnittlaenge',$,IFCREAL(684.20000000000005),$);
#537=IFCPROPERTYSINGLEVALUE('Schnittarten',$,IFCLABEL('schraeg'),$);
#538=IFCPROPERTYSET('2dQfTKBMzIcgz3kNM0tHPk',$,'HP_Fliesenstueck',$,(#529,#530,#531,#532,#533,#534,#535,#536,#537));
#539=IFCRELDEFINESBYPROPERTIES('0HazIPwEjHagLiw2XoyIvW',$,$,$,(#528),#538);
#540=IFCQUANTITYLENGTH('Width',$,$,10.,$);
#541=IFCQUANTITYAREA('NetArea',$,$,0.117038,$);
#542=IFCELEMENTQUANTITY('1TcTvcBK1N8eD2dHYa6MjK',$,'Qto_CoveringBaseQuantities',$,$,(#540,#541));
#543=IFCRELDEFINESBYPROPERTIES('2rhG5BoRrHVAzjnRjs0NBP',$,$,$,(#528),#542);
#544=IFCCARTESIANPOINTLIST3D(((600.,-3.,9.),(600.,-246.90000000000001,9.),(78.,-30.690000000000001,1.1699999999999999),(78.,-3.,1.1699999999999999),(600.,-3.,-1.),(600.,-246.90000000000001,-1.),(78.,-30.690000000000001,-8.8300000000000001),(78.,-3.,-8.8300000000000001)),$);
#545=IFCINDEXEDPOLYGONALFACE((1,2,3,4));
#546=IFCINDEXEDPOLYGONALFACE((8,7,6,5));
#547=IFCINDEXEDPOLYGONALFACE((1,5,6,2));
#548=IFCINDEXEDPOLYGONALFACE((2,6,7,3));
#549=IFCINDEXEDPOLYGONALFACE((3,7,8,4));
#550=IFCINDEXEDPOLYGONALFACE((4,8,5,1));
#551=IFCPOLYGONALFACESET(#544,.T.,(#545,#546,#547,#548,#549,#550),$);
#552=IFCSHAPEREPRESENTATION(#11,'Body','Tessellation',(#551));
#553=IFCPRODUCTDEFINITIONSHAPE($,$,(#552));
#554=IFCCARTESIANPOINT((0.,0.,0.));
#555=IFCAXIS2PLACEMENT3D(#554,$,$);
#556=IFCLOCALPLACEMENT(#54,#555);
#557=IFCCOVERING('0TXZYk6VzHIBGP05no5Haj',$,'Q/0/-1#0',$,'gratschnitt',#556,#553,$,$);
#558=IFCPROPERTYSINGLEVALUE('Stueckart',$,IFCLABEL('gratschnitt'),$);
#559=IFCPROPERTYSINGLEVALUE('Motiv',$,IFCLABEL('Q'),$);
#560=IFCPROPERTYSINGLEVALUE('Rasterposition',$,IFCLABEL('Q/0/-1'),$);
#561=IFCPROPERTYSINGLEVALUE('Gefaelleflaeche',$,IFCLABEL('F0'),$);
#562=IFCPROPERTYSINGLEVALUE('Rohling',$,IFCLABEL('F60x60#12'),$);
#563=IFCPROPERTYSINGLEVALUE('Herkunft',$,IFCLABEL('reststueck'),$);
#564=IFCPROPERTYSINGLEVALUE('Schnitte',$,IFCINTEGER(2),$);
#565=IFCPROPERTYSINGLEVALUE('Schnittlaenge',$,IFCREAL(592.70000000000005),$);
#566=IFCPROPERTYSINGLEVALUE('Schnittarten',$,IFCLABEL('gratschnitt,ablauf'),$);
#567=IFCPROPERTYSET('3$nPoXSlDQ08_NYXmUdHRs',$,'HP_Fliesenstueck',$,(#558,#559,#560,#561,#562,#563,#564,#565,#566));
#568=IFCRELDEFINESBYPROPERTIES('3RzzIEGY9TERifYKAZhP6b',$,$,$,(#557),#567);
#569=IFCQUANTITYLENGTH('Width',$,$,10.,$);
#570=IFCQUANTITYAREA('NetArea',$,$,0.070885000000000004,$);
#571=IFCELEMENTQUANTITY('3XYqcKGiPJXxduKE8KWczw',$,'Qto_CoveringBaseQuantities',$,$,(#569,#570));
#572=IFCRELDEFINESBYPROPERTIES('2JUz9ZjIbNzOo6f0DBerU6',$,$,$,(#557),#571);
#573=IFCCARTESIANPOINTLIST3D(((0.,-603.,9.0449999999999999),(0.,-78.,1.1699999999999999),(30.690000000000001,-78.,1.1699999999999999),(248.15000000000001,-603.,9.0449999999999999),(0.,-603.,-0.95500000000000007),(0.,-78.,-8.8300000000000001),(30.690000000000001,-78.,-8.8300000000000001),(248.15000000000001,-603.,-0.95500000000000007)),$);
#574=IFCINDEXEDPOLYGONALFACE((1,2,3,4));
#575=IFCINDEXEDPOLYGONALFACE((8,7,6,5));
#576=IFCINDEXEDPOLYGONALFACE((1,5,6,2));
#577=IFCINDEXEDPOLYGONALFACE((2,6,7,3));
#578=IFCINDEXEDPOLYGONALFACE((3,7,8,4));
#579=IFCINDEXEDPOLYGONALFACE((4,8,5,1));
#580=IFCPOLYGONALFACESET(#573,.T.,(#574,#575,#576,#577,#578,#579),$);
#581=IFCSHAPEREPRESENTATION(#11,'Body','Tessellation',(#580));
#582=IFCPRODUCTDEFINITIONSHAPE($,$,(#581));
#583=IFCCARTESIANPOINT((0.,0.,0.));
#584=IFCAXIS2PLACEMENT3D(#583,$,$);
#585=IFCLOCALPLACEMENT(#54,#584);
#586=IFCCOVERING('1GxChdf9nI$uI_AYUo1Rpy',$,'Q/0/-1#6',$,'gratschnitt',#585,#582,$,$);
#587=IFCPROPERTYSINGLEVALUE('Stueckart',$,IFCLABEL('gratschnitt'),$);
#588=IFCPROPERTYSINGLEVALUE('Motiv',$,IFCLABEL('Q'),$);
#589=IFCPROPERTYSINGLEVALUE('Rasterposition',$,IFCLABEL('Q/0/-1'),$);
#590=IFCPROPERTYSINGLEVALUE('Gefaelleflaeche',$,IFCLABEL('F6'),$);
#591=IFCPROPERTYSINGLEVALUE('Rohling',$,IFCLABEL('F60x60#11'),$);
#592=IFCPROPERTYSINGLEVALUE('Herkunft',$,IFCLABEL('reststueck'),$);
#593=IFCPROPERTYSINGLEVALUE('Schnitte',$,IFCINTEGER(2),$);
#594=IFCPROPERTYSINGLEVALUE('Schnittlaenge',$,IFCREAL(598.89999999999998),$);
#595=IFCPROPERTYSINGLEVALUE('Schnittarten',$,IFCLABEL('gratschnitt,ablauf'),$);
#596=IFCPROPERTYSET('1gIBZSXDfQfPkSHrpsSbrj',$,'HP_Fliesenstueck',$,(#587,#588,#589,#590,#591,#592,#593,#594,#595));
#597=IFCRELDEFINESBYPROPERTIES('03LsxJz1rJNuA1GfTv9rHf',$,$,$,(#586),#596);
#598=IFCQUANTITYLENGTH('Width',$,$,10.,$);
#599=IFCQUANTITYAREA('NetArea',$,$,0.073192999999999994,$);
#600=IFCELEMENTQUANTITY('0MQtI6LgbIdRAtRv3qBoW5',$,'Qto_CoveringBaseQuantities',$,$,(#598,#599));
#601=IFCRELDEFINESBYPROPERTIES('1yXIGDK95IShQo2P_srm1O',$,$,$,(#586),#600);
#602=IFCCARTESIANPOINTLIST3D(((600.,-603.,12.76),(251.38999999999999,-603.,9.0619999999999994),(33.93,-78.,1.1870000000000001),(78.,-78.,1.655),(78.,-33.93,1.1870000000000001),(600.,-250.15000000000001,9.0169999999999995),(600.,-603.,2.7599999999999998),(251.38999999999999,-603.,-0.93800000000000061),(33.93,-78.,-8.8130000000000006),(78.,-78.,-8.3450000000000006),(78.,-33.93,-8.8130000000000006),(600.,-250.15000000000001,-0.98300000000000054)),$);
#603=IFCINDEXEDPOLYGONALFACE((1,2,3,4,5,6));
#604=IFCINDEXEDPOLYGONALFACE((12,11,10,9,8,7));
#605=IFCINDEXEDPOLYGONALFACE((1,7,8,2));
#606=IFCINDEXEDPOLYGONALFACE((2,8,9,3));
#607=IFCINDEXEDPOLYGONALFACE((3,9,10,4));
#608=IFCINDEXEDPOLYGONALFACE((4,10,11,5));
#609=IFCINDEXEDPOLYGONALFACE((5,11,12,6));
#610=IFCINDEXEDPOLYGONALFACE((6,12,7,1));
#611=IFCPOLYGONALFACESET(#602,.T.,(#603,#604,#605,#606,#607,#608,#609,#610),$);
#612=IFCSHAPEREPRESENTATION(#11,'Body','Tessellation',(#611));
#613=IFCPRODUCTDEFINITIONSHAPE($,$,(#612));
#614=IFCCARTESIANPOINT((0.,0.,0.));
#615=IFCAXIS2PLACEMENT3D(#614,$,$);
#616=IFCLOCALPLACEMENT(#54,#615);
#617=IFCCOVERING('0qxX46K4zJyw3Z1bWRvuK2',$,'Q/0/-1#7',$,'gratschnitt',#616,#613,$,$);
#618=IFCPROPERTYSINGLEVALUE('Stueckart',$,IFCLABEL('gratschnitt'),$);
#619=IFCPROPERTYSINGLEVALUE('Motiv',$,IFCLABEL('Q'),$);
#620=IFCPROPERTYSINGLEVALUE('Rasterposition',$,IFCLABEL('Q/0/-1'),$);
#621=IFCPROPERTYSINGLEVALUE('Gefaelleflaeche',$,IFCLABEL('F7'),$);
#622=IFCPROPERTYSINGLEVALUE('Rohling',$,IFCLABEL('F60x60#11'),$);
#623=IFCPROPERTYSINGLEVALUE('Herkunft',$,IFCLABEL('neu'),$);
#624=IFCPROPERTYSINGLEVALUE('Schnitte',$,IFCINTEGER(4),$);
#625=IFCPROPERTYSINGLEVALUE('Schnittlaenge',$,IFCREAL(1221.4000000000001),$);
#626=IFCPROPERTYSINGLEVALUE('Schnittarten',$,IFCLABEL('gratschnitt,ablauf'),$);
#627=IFCPROPERTYSET('2PTiqDcEvM2B$i$xFiG14g',$,'HP_Fliesenstueck',$,(#618,#619,#620,#621,#622,#623,#624,#625,#626));
#628=IFCRELDEFINESBYPROPERTIES('3cXZsueXnUPf4PQjBFn92V',$,$,$,(#617),#627);
#629=IFCQUANTITYLENGTH('Width',$,$,10.,$);
#630=IFCQUANTITYAREA('NetArea',$,$,0.20667199999999999,$);
#631=IFCELEMENTQUANTITY('07v$1oFLXOlOgQXqv6bVA_',$,'Qto_CoveringBaseQuantities',$,$,(#629,#630));
#632=IFCRELDEFINESBYPROPERTIES('1O7ZISxuHV2eajqB7v3EDX',$,$,$,(#617),#631);
#633=IFCCARTESIANPOINTLIST3D(((0.,-606.,9.0899999999999999),(249.38999999999999,-606.,9.0899999999999999),(494.19,-1197.,17.954999999999998),(0.,-1197.,17.954999999999998),(0.,-606.,-0.91000000000000014),(249.38999999999999,-606.,-0.91000000000000014),(494.19,-1197.,7.9549999999999983),(0.,-1197.,7.9549999999999983)),$);
#634=IFCINDEXEDPOLYGONALFACE((1,2,3,4));
#635=IFCINDEXEDPOLYGONALFACE((8,7,6,5));
#636=IFCINDEXEDPOLYGONALFACE((1,5,6,2));
#637=IFCINDEXEDPOLYGONALFACE((2,6,7,3));
#638=IFCINDEXEDPOLYGONALFACE((3,7,8,4));
#639=IFCINDEXEDPOLYGONALFACE((4,8,5,1));
#640=IFCPOLYGONALFACESET(#633,.T.,(#634,#635,#636,#637,#638,#639),$);
#641=IFCSHAPEREPRESENTATION(#11,'Body','Tessellation',(#640));
#642=IFCPRODUCTDEFINITIONSHAPE($,$,(#641));
#643=IFCCARTESIANPOINT((0.,0.,0.));
#644=IFCAXIS2PLACEMENT3D(#643,$,$);
#645=IFCLOCALPLACEMENT(#54,#644);
#646=IFCCOVERING('1vn9vO8RvSnO9q$TmpgHv9',$,'Q/0/-2#6',$,'gratschnitt',#645,#642,$,$);
#647=IFCPROPERTYSINGLEVALUE('Stueckart',$,IFCLABEL('gratschnitt'),$);
#648=IFCPROPERTYSINGLEVALUE('Motiv',$,IFCLABEL('Q'),$);
#649=IFCPROPERTYSINGLEVALUE('Rasterposition',$,IFCLABEL('Q/0/-2'),$);
#650=IFCPROPERTYSINGLEVALUE('Gefaelleflaeche',$,IFCLABEL('F6'),$);
#651=IFCPROPERTYSINGLEVALUE('Rohling',$,IFCLABEL('F60x60#4'),$);
#652=IFCPROPERTYSINGLEVALUE('Herkunft',$,IFCLABEL('neu'),$);
#653=IFCPROPERTYSINGLEVALUE('Schnitte',$,IFCINTEGER(2),$);
#654=IFCPROPERTYSINGLEVALUE('Schnittlaenge',$,IFCREAL(1133.9000000000001),$);
#655=IFCPROPERTYSINGLEVALUE('Schnittarten',$,IFCLABEL('gerade,gratschnitt'),$);
#656=IFCPROPERTYSET('0tBllxQu1NNQ3CGmBjpqbf',$,'HP_Fliesenstueck',$,(#647,#648,#649,#650,#651,#652,#653,#654,#655));
#657=IFCRELDEFINESBYPROPERTIES('2UlUS4PBHTT9csa79IEun8',$,$,$,(#646),#656);
#658=IFCQUANTITYLENGTH('Width',$,$,10.,$);
#659=IFCQUANTITYAREA('NetArea',$,$,0.21972800000000001,$);
#660=IFCELEMENTQUANTITY('0GTbZ2HM9GKuejlVp8Cx7s',$,'Qto_CoveringBaseQuantities',$,$,(#658,#659));
#661=IFCRELDEFINESBYPROPERTIES('1_EEK77G5GLBQs3h0fezIX',$,$,$,(#646),#660);
#662=IFCCARTESIANPOINTLIST3D(((600.,-606.,12.792),(600.,-1092.8099999999999,17.954999999999998),(496.95999999999998,-1195.8499999999999,17.954999999999998),(252.63999999999999,-606.,9.1069999999999993),(600.,-606.,2.7919999999999998),(600.,-1092.8099999999999,7.9549999999999983),(496.95999999999998,-1195.8499999999999,7.9549999999999983),(252.63999999999999,-606.,-0.89300000000000068)),$);
#663=IFCINDEXEDPOLYGONALFACE((1,2,3,4));
#664=IFCINDEXEDPOLYGONALFACE((8,7,6,5));
#665=IFCINDEXEDPOLYGONALFACE((1,5,6,2));
#666=IFCINDEXEDPOLYGONALFACE((2,6,7,3));
#667=IFCINDEXEDPOLYGONALFACE((3,7,8,4));
#668=IFCINDEXEDPOLYGONALFACE((4,8,5,1));
#669=IFCPOLYGONALFACESET(#662,.T.,(#663,#664,#665,#666,#667,#668),$);
#670=IFCSHAPEREPRESENTATION(#11,'Body','Tessellation',(#669));
#671=IFCPRODUCTDEFINITIONSHAPE($,$,(#670));
#672=IFCCARTESIANPOINT((0.,0.,0.));
#673=IFCAXIS2PLACEMENT3D(#672,$,$);
#674=IFCLOCALPLACEMENT(#54,#673);
#675=IFCCOVERING('1jkKyGZCjUsewsv1sLb7QE',$,'Q/0/-2#7',$,'gratschnitt',#674,#671,$,$);
#676=IFCPROPERTYSINGLEVALUE('Stueckart',$,IFCLABEL('gratschnitt'),$);
#677=IFCPROPERTYSINGLEVALUE('Motiv',$,IFCLABEL('Q'),$);
#678=IFCPROPERTYSINGLEVALUE('Rasterposition',$,IFCLABEL('Q/0/-2'),$);
#679=IFCPROPERTYSINGLEVALUE('Gefaelleflaeche',$,IFCLABEL('F7'),$);
#680=IFCPROPERTYSINGLEVALUE('Rohling',$,IFCLABEL('F60x60#8'),$);
#681=IFCPROPERTYSINGLEVALUE('Herkunft',$,IFCLABEL('reststueck'),$);
#682=IFCPROPERTYSINGLEVALUE('Schnitte',$,IFCINTEGER(2),$);
#683=IFCPROPERTYSINGLEVALUE('Schnittlaenge',$,IFCREAL(784.20000000000005),$);
#684=IFCPROPERTYSINGLEVALUE('Schnittarten',$,IFCLABEL('schraeg,gratschnitt'),$);
#685=IFCPROPERTYSET('1nx34sRovOLwtqyYzYMze2',$,'HP_Fliesenstueck',$,(#676,#677,#678,#679,#680,#681,#682,#683,#684));
#686=IFCRELDEFINESBYPROPERTIES('1IMkdXNkTJMhuNTtAuBEUH',$,$,$,(#675),#685);
#687=IFCQUANTITYLENGTH('Width',$,$,10.,$);
#688=IFCQUANTITYAREA('NetArea',$,$,0.127527,$);
#689=IFCELEMENTQUANTITY('1peLZa1wzVc9sUV9yJ27so',$,'Qto_CoveringBaseQuantities',$,$,(#687,#688));
#690=IFCRELDEFINESBYPROPERTIES('1YMWj2BZ1RuvqQK$TDt4Ug',$,$,$,(#675),#689);
#691=IFCCARTESIANPOINTLIST3D(((600.,0.,9.),(78.,0.,1.1699999999999999),(78.,30.690000000000001,1.1699999999999999),(600.,246.90000000000001,9.),(600.,0.,-1.),(78.,0.,-8.8300000000000001),(78.,30.690000000000001,-8.8300000000000001),(600.,246.90000000000001,-1.)),$);
#692=IFCINDEXEDPOLYGONALFACE((1,2,3,4));
#693=IFCINDEXEDPOLYGONALFACE((8,7,6,5));
#694=IFCINDEXEDPOLYGONALFACE((1,5,6,2));
#695=IFCINDEXEDPOLYGONALFACE((2,6,7,3));
#696=IFCINDEXEDPOLYGONALFACE((3,7,8,4));
#697=IFCINDEXEDPOLYGONALFACE((4,8,5,1));
#698=IFCPOLYGONALFACESET(#691,.T.,(#692,#693,#694,#695,#696,#697),$);
#699=IFCSHAPEREPRESENTATION(#11,'Body','Tessellation',(#698));
#700=IFCPRODUCTDEFINITIONSHAPE($,$,(#699));
#701=IFCCARTESIANPOINT((0.,0.,0.));
#702=IFCAXIS2PLACEMENT3D(#701,$,$);
#703=IFCLOCALPLACEMENT(#54,#702);
#704=IFCCOVERING('01IDXdJN5Qp88xYfJ55zav',$,'Q/0/0#0',$,'gratschnitt',#703,#700,$,$);
#705=IFCPROPERTYSINGLEVALUE('Stueckart',$,IFCLABEL('gratschnitt'),$);
#706=IFCPROPERTYSINGLEVALUE('Motiv',$,IFCLABEL('Q'),$);
#707=IFCPROPERTYSINGLEVALUE('Rasterposition',$,IFCLABEL('Q/0/0'),$);
#708=IFCPROPERTYSINGLEVALUE('Gefaelleflaeche',$,IFCLABEL('F0'),$);
#709=IFCPROPERTYSINGLEVALUE('Rohling',$,IFCLABEL('F60x60#9'),$);
#710=IFCPROPERTYSINGLEVALUE('Herkunft',$,IFCLABEL('reststueck'),$);
#711=IFCPROPERTYSINGLEVALUE('Schnitte',$,IFCINTEGER(2),$);
#712=IFCPROPERTYSINGLEVALUE('Schnittlaenge',$,IFCREAL(595.70000000000005),$);
#713=IFCPROPERTYSINGLEVALUE('Schnittarten',$,IFCLABEL('gratschnitt,ablauf'),$);
#714=IFCPROPERTYSET('39LG9SKTbPox9jSNWxKTcw',$,'HP_Fliesenstueck',$,(#705,#706,#707,#708,#709,#710,#711,#712,#713));
#715=IFCRELDEFINESBYPROPERTIES('3w80naLp5OoPaOB5Wr92wV',$,$,$,(#704),#714);
#716=IFCQUANTITYLENGTH('Width',$,$,10.,$);
#717=IFCQUANTITYAREA('NetArea',$,$,0.072451000000000002,$);
#718=IFCELEMENTQUANTITY('3NiHfRmLfQ2eIHXqcbbDGp',$,'Qto_CoveringBaseQuantities',$,$,(#716,#717));
#719=IFCRELDEFINESBYPROPERTIES('0myOp9mUPILO_P6HNliYqM',$,$,$,(#704),#718);
#720=IFCCARTESIANPOINTLIST3D(((600.,600.,12.728),(600.,250.15000000000001,9.0169999999999995),(78.,33.93,1.1870000000000001),(78.,78.,1.655),(33.93,78.,1.1870000000000001),(250.15000000000001,600.,9.0169999999999995),(600.,600.,2.7279999999999998),(600.,250.15000000000001,-0.98300000000000054),(78.,33.93,-8.8130000000000006),(78.,78.,-8.3450000000000006),(33.93,78.,-8.8130000000000006),(250.15000000000001,600.,-0.98300000000000054)),$);
#721=IFCINDEXEDPOLYGONALFACE((1,2,3,4,5,6));
#722=IFCINDEXEDPOLYGONALFACE((12,11,10,9,8,7));
#723=IFCINDEXEDPOLYGONALFACE((1,7,8,2));
#724=IFCINDEXEDPOLYGONALFACE((2,8,9,3));
#725=IFCINDEXEDPOLYGONALFACE((3,9,10,4));
#726=IFCINDEXEDPOLYGONALFACE((4,10,11,5));
#727=IFCINDEXEDPOLYGONALFACE((5,11,12,6));
#728=IFCINDEXEDPOLYGONALFACE((6,12,7,1));
#729=IFCPOLYGONALFACESET(#720,.T.,(#721,#722,#723,#724,#725,#726,#727,#728),$);
#730=IFCSHAPEREPRESENTATION(#11,'Body','Tessellation',(#729));
#731=IFCPRODUCTDEFINITIONSHAPE($,$,(#730));
#732=IFCCARTESIANPOINT((0.,0.,0.));
#733=IFCAXIS2PLACEMENT3D(#732,$,$);
#734=IFCLOCALPLACEMENT(#54,#733);
#735=IFCCOVERING('1vcT6gcILPFx$nOO_59cAN',$,'Q/0/0#1',$,'gratschnitt',#734,#731,$,$);
#736=IFCPROPERTYSINGLEVALUE('Stueckart',$,IFCLABEL('gratschnitt'),$);
#737=IFCPROPERTYSINGLEVALUE('Motiv',$,IFCLABEL('Q'),$);
#738=IFCPROPERTYSINGLEVALUE('Rasterposition',$,IFCLABEL('Q/0/0'),$);
#739=IFCPROPERTYSINGLEVALUE('Gefaelleflaeche',$,IFCLABEL('F1'),$);
#740=IFCPROPERTYSINGLEVALUE('Rohling',$,IFCLABEL('F60x60#12'),$);
#741=IFCPROPERTYSINGLEVALUE('Herkunft',$,IFCLABEL('neu'),$);
#742=IFCPROPERTYSINGLEVALUE('Schnitte',$,IFCINTEGER(4),$);
#743=IFCPROPERTYSINGLEVALUE('Schnittlaenge',$,IFCREAL(1218.2),$);
#744=IFCPROPERTYSINGLEVALUE('Schnittarten',$,IFCLABEL('gratschnitt,ablauf'),$);
#745=IFCPROPERTYSET('2bm91oIcbS9AdOeTv0qmXf',$,'HP_Fliesenstueck',$,(#736,#737,#738,#739,#740,#741,#742,#743,#744));
#746=IFCRELDEFINESBYPROPERTIES('2cAffBIxzNChfkOKHi40iX',$,$,$,(#735),#745);
#747=IFCQUANTITYLENGTH('Width',$,$,10.,$);
#748=IFCQUANTITYAREA('NetArea',$,$,0.205624,$);
#749=IFCELEMENTQUANTITY('3cVEA5IH1MKuZ5zdqX5n0J',$,'Qto_CoveringBaseQuantities',$,$,(#747,#748));
#750=IFCRELDEFINESBYPROPERTIES('0putoR$tnKBQVBgZTW4fvy',$,$,$,(#735),#749);
#751=IFCCARTESIANPOINTLIST3D(((0.,600.,9.),(246.90000000000001,600.,9.),(30.690000000000001,78.,1.1699999999999999),(0.,78.,1.1699999999999999),(0.,600.,-1.),(246.90000000000001,600.,-1.),(30.690000000000001,78.,-8.8300000000000001),(0.,78.,-8.8300000000000001)),$);
#752=IFCINDEXEDPOLYGONALFACE((1,2,3,4));
#753=IFCINDEXEDPOLYGONALFACE((8,7,6,5));
#754=IFCINDEXEDPOLYGONALFACE((1,5,6,2));
#755=IFCINDEXEDPOLYGONALFACE((2,6,7,3));
#756=IFCINDEXEDPOLYGONALFACE((3,7,8,4));
#757=IFCINDEXEDPOLYGONALFACE((4,8,5,1));
#758=IFCPOLYGONALFACESET(#751,.T.,(#752,#753,#754,#755,#756,#757),$);
#759=IFCSHAPEREPRESENTATION(#11,'Body','Tessellation',(#758));
#760=IFCPRODUCTDEFINITIONSHAPE($,$,(#759));
#761=IFCCARTESIANPOINT((0.,0.,0.));
#762=IFCAXIS2PLACEMENT3D(#761,$,$);
#763=IFCLOCALPLACEMENT(#54,#762);
#764=IFCCOVERING('3v2nBike5Gbf5oTWl_YR$L',$,'Q/0/0#2',$,'gratschnitt',#763,#760,$,$);
#765=IFCPROPERTYSINGLEVALUE('Stueckart',$,IFCLABEL('gratschnitt'),$);
#766=IFCPROPERTYSINGLEVALUE('Motiv',$,IFCLABEL('Q'),$);
#767=IFCPROPERTYSINGLEVALUE('Rasterposition',$,IFCLABEL('Q/0/0'),$);
#768=IFCPROPERTYSINGLEVALUE('Gefaelleflaeche',$,IFCLABEL('F2'),$);
#769=IFCPROPERTYSINGLEVALUE('Rohling',$,IFCLABEL('F60x60#9'),$);
#770=IFCPROPERTYSINGLEVALUE('Herkunft',$,IFCLABEL('reststueck'),$);
#771=IFCPROPERTYSINGLEVALUE('Schnitte',$,IFCINTEGER(2),$);
#772=IFCPROPERTYSINGLEVALUE('Schnittlaenge',$,IFCREAL(595.70000000000005),$);
#773=IFCPROPERTYSINGLEVALUE('Schnittarten',$,IFCLABEL('gratschnitt,ablauf'),$);
#774=IFCPROPERTYSET('3vsQEbWL5QtuFQECTxxyYW',$,'HP_Fliesenstueck',$,(#765,#766,#767,#768,#769,#770,#771,#772,#773));
#775=IFCRELDEFINESBYPROPERTIES('1r6qWzBOvHY8LWRoSuVkbc',$,$,$,(#764),#774);
#776=IFCQUANTITYLENGTH('Width',$,$,10.,$);
#777=IFCQUANTITYAREA('NetArea',$,$,0.072451000000000002,$);
#778=IFCELEMENTQUANTITY('1A0djXu1bL$RIpNuZU2f$T',$,'Qto_CoveringBaseQuantities',$,$,(#776,#777));
#779=IFCRELDEFINESBYPROPERTIES('0Fo_yK7ePJrB$ZOn63pnJ_',$,$,$,(#764),#778);
#780=IFCCARTESIANPOINTLIST3D(((600.,603.,12.76),(251.38999999999999,603.,9.0619999999999994),(496.95999999999998,1195.8499999999999,17.954999999999998),(600.,1092.8099999999999,17.954999999999998),(600.,603.,2.7599999999999998),(251.38999999999999,603.,-0.93800000000000061),(496.95999999999998,1195.8499999999999,7.9549999999999983),(600.,1092.8099999999999,7.9549999999999983)),$);
#781=IFCINDEXEDPOLYGONALFACE((1,2,3,4));
#782=IFCINDEXEDPOLYGONALFACE((8,7,6,5));
#783=IFCINDEXEDPOLYGONALFACE((1,5,6,2));
#784=IFCINDEXEDPOLYGONALFACE((2,6,7,3));
#785=IFCINDEXEDPOLYGONALFACE((3,7,8,4));
#786=IFCINDEXEDPOLYGONALFACE((4,8,5,1));
#787=IFCPOLYGONALFACESET(#780,.T.,(#781,#782,#783,#784,#785,#786),$);
#788=IFCSHAPEREPRESENTATION(#11,'Body','Tessellation',(#787));
#789=IFCPRODUCTDEFINITIONSHAPE($,$,(#788));
#790=IFCCARTESIANPOINT((0.,0.,0.));
#791=IFCAXIS2PLACEMENT3D(#790,$,$);
#792=IFCLOCALPLACEMENT(#54,#791);
#793=IFCCOVERING('3pm7n$JTTRuwkT_3PV5u8G',$,'Q/0/1#1',$,'gratschnitt',#792,#789,$,$);
#794=IFCPROPERTYSINGLEVALUE('Stueckart',$,IFCLABEL('gratschnitt'),$);
#795=IFCPROPERTYSINGLEVALUE('Motiv',$,IFCLABEL('Q'),$);
#796=IFCPROPERTYSINGLEVALUE('Rasterposition',$,IFCLABEL('Q/0/1'),$);
#797=IFCPROPERTYSINGLEVALUE('Gefaelleflaeche',$,IFCLABEL('F1'),$);
#798=IFCPROPERTYSINGLEVALUE('Rohling',$,IFCLABEL('F60x60#3'),$);
#799=IFCPROPERTYSINGLEVALUE('Herkunft',$,IFCLABEL('reststueck'),$);
#800=IFCPROPERTYSINGLEVALUE('Schnitte',$,IFCINTEGER(2),$);
#801=IFCPROPERTYSINGLEVALUE('Schnittlaenge',$,IFCREAL(787.39999999999998),$);
#802=IFCPROPERTYSINGLEVALUE('Schnittarten',$,IFCLABEL('schraeg,gratschnitt'),$);
#803=IFCPROPERTYSET('0FJwMKLhTOdPvyLZymthHC',$,'HP_Fliesenstueck',$,(#794,#795,#796,#797,#798,#799,#800,#801,#802));
#804=IFCRELDEFINESBYPROPERTIES('0HQJOweovKIAPPS9uNsjlc',$,$,$,(#793),#803);
#805=IFCQUANTITYLENGTH('Width',$,$,10.,$);
#806=IFCQUANTITYAREA('NetArea',$,$,0.12857099999999999,$);
#807=IFCELEMENTQUANTITY('19Zf1ta9PKjgmLEwE5d0OP',$,'Qto_CoveringBaseQuantities',$,$,(#805,#806));
#808=IFCRELDEFINESBYPROPERTIES('0f92Q0AZbPbR2GSj9UDahu',$,$,$,(#793),#807);
#809=IFCCARTESIANPOINTLIST3D(((0.,603.,9.0449999999999999),(0.,1197.,17.954999999999998),(494.19,1197.,17.954999999999998),(248.15000000000001,603.,9.0449999999999999),(0.,603.,-0.95500000000000007),(0.,1197.,7.9549999999999983),(494.19,1197.,7.9549999999999983),(248.15000000000001,603.,-0.95500000000000007)),$);
#810=IFCINDEXEDPOLYGONALFACE((1,2,3,4));
#811=IFCINDEXEDPOLYGONALFACE((8,7,6,5));
#812=IFCINDEXEDPOLYGONALFACE((1,5,6,2));
#813=IFCINDEXEDPOLYGONALFACE((2,6,7,3));
#814=IFCINDEXEDPOLYGONALFACE((3,7,8,4));
#815=IFCINDEXEDPOLYGONALFACE((4,8,5,1));
#816=IFCPOLYGONALFACESET(#809,.T.,(#810,#811,#812,#813,#814,#815),$);
#817=IFCSHAPEREPRESENTATION(#11,'Body','Tessellation',(#816));
#818=IFCPRODUCTDEFINITIONSHAPE($,$,(#817));
#819=IFCCARTESIANPOINT((0.,0.,0.));
#820=IFCAXIS2PLACEMENT3D(#819,$,$);
#821=IFCLOCALPLACEMENT(#54,#820);
#822=IFCCOVERING('3tk3goSCjUBuJBWznUzsyP',$,'Q/0/1#2',$,'gratschnitt',#821,#818,$,$);
#823=IFCPROPERTYSINGLEVALUE('Stueckart',$,IFCLABEL('gratschnitt'),$);
#824=IFCPROPERTYSINGLEVALUE('Motiv',$,IFCLABEL('Q'),$);
#825=IFCPROPERTYSINGLEVALUE('Rasterposition',$,IFCLABEL('Q/0/1'),$);
#826=IFCPROPERTYSINGLEVALUE('Gefaelleflaeche',$,IFCLABEL('F2'),$);
#827=IFCPROPERTYSINGLEVALUE('Rohling',$,IFCLABEL('F60x60#1'),$);
#828=IFCPROPERTYSINGLEVALUE('Herkunft',$,IFCLABEL('neu'),$);
#829=IFCPROPERTYSINGLEVALUE('Schnitte',$,IFCINTEGER(2),$);
#830=IFCPROPERTYSINGLEVALUE('Schnittlaenge',$,IFCREAL(1137.0999999999999),$);
#831=IFCPROPERTYSINGLEVALUE('Schnittarten',$,IFCLABEL('gerade,gratschnitt'),$);
#832=IFCPROPERTYSET('0fPQ24YK9PZAEs$wM3DDkA',$,'HP_Fliesenstueck',$,(#823,#824,#825,#826,#827,#828,#829,#830,#831));
#833=IFCRELDEFINESBYPROPERTIES('1hNSu8Fe9KHhroIwIqblBf',$,$,$,(#822),#832);
#834=IFCQUANTITYLENGTH('Width',$,$,10.,$);
#835=IFCQUANTITYAREA('NetArea',$,$,0.220474,$);
#836=IFCELEMENTQUANTITY('0qsBFLxp5KRwHPEytUrQA3',$,'Qto_CoveringBaseQuantities',$,$,(#834,#835));
#837=IFCRELDEFINESBYPROPERTIES('3a8peoqw1R4OTX4zsKDgWc',$,$,$,(#822),#836);
#838=IFCCARTESIANPOINTLIST3D(((603.,-3.,9.0449999999999999),(1197.,-3.,17.954999999999998),(1197.,-494.19,17.954999999999998),(603.,-248.15000000000001,9.0449999999999999),(603.,-3.,-0.95500000000000007),(1197.,-3.,7.9549999999999983),(1197.,-494.19,7.9549999999999983),(603.,-248.15000000000001,-0.95500000000000007)),$);
#839=IFCINDEXEDPOLYGONALFACE((1,2,3,4));
#840=IFCINDEXEDPOLYGONALFACE((8,7,6,5));
#841=IFCINDEXEDPOLYGONALFACE((1,5,6,2));
#842=IFCINDEXEDPOLYGONALFACE((2,6,7,3));
#843=IFCINDEXEDPOLYGONALFACE((3,7,8,4));
#844=IFCINDEXEDPOLYGONALFACE((4,8,5,1));
#845=IFCPOLYGONALFACESET(#838,.T.,(#839,#840,#841,#842,#843,#844),$);
#846=IFCSHAPEREPRESENTATION(#11,'Body','Tessellation',(#845));
#847=IFCPRODUCTDEFINITIONSHAPE($,$,(#846));
#848=IFCCARTESIANPOINT((0.,0.,0.));
#849=IFCAXIS2PLACEMENT3D(#848,$,$);
#850=IFCLOCALPLACEMENT(#54,#849);
#851=IFCCOVERING('2_hMJpAMzSNAyqWaF2pwjw',$,'Q/1/-1#0',$,'gratschnitt',#850,#847,$,$);
#852=IFCPROPERTYSINGLEVALUE('Stueckart',$,IFCLABEL('gratschnitt'),$);
#853=IFCPROPERTYSINGLEVALUE('Motiv',$,IFCLABEL('Q'),$);
#854=IFCPROPERTYSINGLEVALUE('Rasterposition',$,IFCLABEL('Q/1/-1'),$);
#855=IFCPROPERTYSINGLEVALUE('Gefaelleflaeche',$,IFCLABEL('F0'),$);
#856=IFCPROPERTYSINGLEVALUE('Rohling',$,IFCLABEL('F60x60#6'),$);
#857=IFCPROPERTYSINGLEVALUE('Herkunft',$,IFCLABEL('neu'),$);
#858=IFCPROPERTYSINGLEVALUE('Schnitte',$,IFCINTEGER(2),$);
#859=IFCPROPERTYSINGLEVALUE('Schnittlaenge',$,IFCREAL(1134.0999999999999),$);
#860=IFCPROPERTYSINGLEVALUE('Schnittarten',$,IFCLABEL('gerade,gratschnitt'),$);
#861=IFCPROPERTYSET('3WDiIet8nUy8xUCnoDhXAO',$,'HP_Fliesenstueck',$,(#852,#853,#854,#855,#856,#857,#858,#859,#860));
#862=IFCRELDEFINESBYPROPERTIES('2SMpWBB0HTSP$bbesVJtIi',$,$,$,(#851),#861);
#863=IFCQUANTITYLENGTH('Width',$,$,10.,$);
#864=IFCQUANTITYAREA('NetArea',$,$,0.218692,$);
#865=IFCELEMENTQUANTITY('3QyOyqF6TRl8DXkIaCrvkD',$,'Qto_CoveringBaseQuantities',$,$,(#863,#864));
#866=IFCRELDEFINESBYPROPERTIES('3gbjUn9cHTOREwm4yeVPO4',$,$,$,(#851),#865);
#867=IFCCARTESIANPOINTLIST3D(((603.,-603.,12.792),(603.,-251.38999999999999,9.0619999999999994),(1195.8499999999999,-496.95999999999998,17.954999999999998),(1089.8099999999999,-603.,17.954999999999998),(603.,-603.,2.7919999999999998),(603.,-251.38999999999999,-0.93800000000000061),(1195.8499999999999,-496.95999999999998,7.9549999999999983),(1089.8099999999999,-603.,7.9549999999999983)),$);
#868=IFCINDEXEDPOLYGONALFACE((1,2,3,4));
#869=IFCINDEXEDPOLYGONALFACE((8,7,6,5));
#870=IFCINDEXEDPOLYGONALFACE((1,5,6,2));
#871=IFCINDEXEDPOLYGONALFACE((2,6,7,3));
#872=IFCINDEXEDPOLYGONALFACE((3,7,8,4));
#873=IFCINDEXEDPOLYGONALFACE((4,8,5,1));
#874=IFCPOLYGONALFACESET(#867,.T.,(#868,#869,#870,#871,#872,#873),$);
#875=IFCSHAPEREPRESENTATION(#11,'Body','Tessellation',(#874));
#876=IFCPRODUCTDEFINITIONSHAPE($,$,(#875));
#877=IFCCARTESIANPOINT((0.,0.,0.));
#878=IFCAXIS2PLACEMENT3D(#877,$,$);
#879=IFCLOCALPLACEMENT(#54,#878);
#880=IFCCOVERING('0hRjt1J99GmvJrmatLn025',$,'Q/1/-1#7',$,'gratschnitt',#879,#876,$,$);
#881=IFCPROPERTYSINGLEVALUE('Stueckart',$,IFCLABEL('gratschnitt'),$);
#882=IFCPROPERTYSINGLEVALUE('Motiv',$,IFCLABEL('Q'),$);
#883=IFCPROPERTYSINGLEVALUE('Rasterposition',$,IFCLABEL('Q/1/-1'),$);
#884=IFCPROPERTYSINGLEVALUE('Gefaelleflaeche',$,IFCLABEL('F7'),$);
#885=IFCPROPERTYSINGLEVALUE('Rohling',$,IFCLABEL('F60x60#6'),$);
#886=IFCPROPERTYSINGLEVALUE('Herkunft',$,IFCLABEL('reststueck'),$);
#887=IFCPROPERTYSINGLEVALUE('Schnitte',$,IFCINTEGER(2),$);
#888=IFCPROPERTYSINGLEVALUE('Schnittlaenge',$,IFCREAL(791.70000000000005),$);
#889=IFCPROPERTYSINGLEVALUE('Schnittarten',$,IFCLABEL('schraeg,gratschnitt'),$);
#890=IFCPROPERTYSET('2QlRkeEdLI1eROEeujbI2D',$,'HP_Fliesenstueck',$,(#881,#882,#883,#884,#885,#886,#887,#888,#889));
#891=IFCRELDEFINESBYPROPERTIES('3dqaI$8FrKPOLYVz094BQA',$,$,$,(#880),#890);
#892=IFCQUANTITYLENGTH('Width',$,$,10.,$);
#893=IFCQUANTITYAREA('NetArea',$,$,0.13003500000000001,$);
#894=IFCELEMENTQUANTITY('1$3CQy7W5U8O9Tfw2tp9ON',$,'Qto_CoveringBaseQuantities',$,$,(#892,#893));
#895=IFCRELDEFINESBYPROPERTIES('1teNmRNyTUsvcFCLcc2uo8',$,$,$,(#880),#894);
#896=IFCCARTESIANPOINTLIST3D(((603.,-606.,12.823),(1086.8099999999999,-606.,17.954999999999998),(603.,-1089.8099999999999,17.954999999999998),(603.,-606.,2.8230000000000004),(1086.8099999999999,-606.,7.9549999999999983),(603.,-1089.8099999999999,7.9549999999999983)),$);
#897=IFCINDEXEDPOLYGONALFACE((1,2,3));
#898=IFCINDEXEDPOLYGONALFACE((6,5,4));
#899=IFCINDEXEDPOLYGONALFACE((1,4,5,2));
#900=IFCINDEXEDPOLYGONALFACE((2,5,6,3));
#901=IFCINDEXEDPOLYGONALFACE((3,6,4,1));
#902=IFCPOLYGONALFACESET(#896,.T.,(#897,#898,#899,#900,#901),$);
#903=IFCSHAPEREPRESENTATION(#11,'Body','Tessellation',(#902));
#904=IFCPRODUCTDEFINITIONSHAPE($,$,(#903));
#905=IFCCARTESIANPOINT((0.,0.,0.));
#906=IFCAXIS2PLACEMENT3D(#905,$,$);
#907=IFCLOCALPLACEMENT(#54,#906);
#908=IFCCOVERING('3JS161zvXV7wYB58q9ToA1',$,'Q/1/-2#7',$,'schraeg',#907,#904,$,$);
#909=IFCPROPERTYSINGLEVALUE('Stueckart',$,IFCLABEL('schraeg'),$);
#910=IFCPROPERTYSINGLEVALUE('Motiv',$,IFCLABEL('Q'),$);
#911=IFCPROPERTYSINGLEVALUE('Rasterposition',$,IFCLABEL('Q/1/-2'),$);
#912=IFCPROPERTYSINGLEVALUE('Gefaelleflaeche',$,IFCLABEL('F7'),$);
#913=IFCPROPERTYSINGLEVALUE('Rohling',$,IFCLABEL('F60x60#14'),$);
#914=IFCPROPERTYSINGLEVALUE('Herkunft',$,IFCLABEL('neu'),$);
#915=IFCPROPERTYSINGLEVALUE('Schnitte',$,IFCINTEGER(1),$);
#916=IFCPROPERTYSINGLEVALUE('Schnittlaenge',$,IFCREAL(684.20000000000005),$);
#917=IFCPROPERTYSINGLEVALUE('Schnittarten',$,IFCLABEL('schraeg'),$);
#918=IFCPROPERTYSET('242JsxRvfRGwi1_P_Njd0U',$,'HP_Fliesenstueck',$,(#909,#910,#911,#912,#913,#914,#915,#916,#917));
#919=IFCRELDEFINESBYPROPERTIES('3rOhdqp7LQhv3RFfblasQf',$,$,$,(#908),#918);
#920=IFCQUANTITYLENGTH('Width',$,$,10.,$);
#921=IFCQUANTITYAREA('NetArea',$,$,0.117038,$);
#922=IFCELEMENTQUANTITY('33uyWEqHnSjvq3xxCEd5dy',$,'Qto_CoveringBaseQuantities',$,$,(#920,#921));
#923=IFCRELDEFINESBYPROPERTIES('0g4hJGh1jNTxUmWlGMZJ1n',$,$,$,(#908),#922);
#924=IFCCARTESIANPOINTLIST3D(((603.,0.,9.0449999999999999),(603.,248.15000000000001,9.0449999999999999),(1197.,494.19,17.954999999999998),(1197.,0.,17.954999999999998),(603.,0.,-0.95500000000000007),(603.,248.15000000000001,-0.95500000000000007),(1197.,494.19,7.9549999999999983),(1197.,0.,7.9549999999999983)),$);
#925=IFCINDEXEDPOLYGONALFACE((1,2,3,4));
#926=IFCINDEXEDPOLYGONALFACE((8,7,6,5));
#927=IFCINDEXEDPOLYGONALFACE((1,5,6,2));
#928=IFCINDEXEDPOLYGONALFACE((2,6,7,3));
#929=IFCINDEXEDPOLYGONALFACE((3,7,8,4));
#930=IFCINDEXEDPOLYGONALFACE((4,8,5,1));
#931=IFCPOLYGONALFACESET(#924,.T.,(#925,#926,#927,#928,#929,#930),$);
#932=IFCSHAPEREPRESENTATION(#11,'Body','Tessellation',(#931));
#933=IFCPRODUCTDEFINITIONSHAPE($,$,(#932));
#934=IFCCARTESIANPOINT((0.,0.,0.));
#935=IFCAXIS2PLACEMENT3D(#934,$,$);
#936=IFCLOCALPLACEMENT(#54,#935);
#937=IFCCOVERING('0Ik$xWzKrO9xOzzgoNC1HI',$,'Q/1/0#0',$,'gratschnitt',#936,#933,$,$);
#938=IFCPROPERTYSINGLEVALUE('Stueckart',$,IFCLABEL('gratschnitt'),$);
#939=IFCPROPERTYSINGLEVALUE('Motiv',$,IFCLABEL('Q'),$);
#940=IFCPROPERTYSINGLEVALUE('Rasterposition',$,IFCLABEL('Q/1/0'),$);
#941=IFCPROPERTYSINGLEVALUE('Gefaelleflaeche',$,IFCLABEL('F0'),$);
#942=IFCPROPERTYSINGLEVALUE('Rohling',$,IFCLABEL('F60x60#2'),$);
#943=IFCPROPERTYSINGLEVALUE('Herkunft',$,IFCLABEL('neu'),$);
#944=IFCPROPERTYSINGLEVALUE('Schnitte',$,IFCINTEGER(2),$);
#945=IFCPROPERTYSINGLEVALUE('Schnittlaenge',$,IFCREAL(1137.0999999999999),$);
#946=IFCPROPERTYSINGLEVALUE('Schnittarten',$,IFCLABEL('gerade,gratschnitt'),$);
#947=IFCPROPERTYSET('1gvNyB5ebQTevGTOIv24xy',$,'HP_Fliesenstueck',$,(#938,#939,#940,#941,#942,#943,#944,#945,#946));
#948=IFCRELDEFINESBYPROPERTIES('1yEEZLfsbLJBgL4eMZPTat',$,$,$,(#937),#947);
#949=IFCQUANTITYLENGTH('Width',$,$,10.,$);
#950=IFCQUANTITYAREA('NetArea',$,$,0.220474,$);
#951=IFCELEMENTQUANTITY('150gHdT9bU3v4Yfllf2eyE',$,'Qto_CoveringBaseQuantities',$,$,(#949,#950));
#952=IFCRELDEFINESBYPROPERTIES('3$KKpwLN5PvwDBV_UoIIK9',$,$,$,(#937),#951);
#953=IFCCARTESIANPOINTLIST3D(((603.,600.,12.76),(1092.8099999999999,600.,17.954999999999998),(1195.8499999999999,496.95999999999998,17.954999999999998),(603.,251.38999999999999,9.0619999999999994),(603.,600.,2.7599999999999998),(1092.8099999999999,600.,7.9549999999999983),(1195.8499999999999,496.95999999999998,7.9549999999999983),(603.,251.38999999999999,-0.93800000000000061)),$);
#954=IFCINDEXEDPOLYGONALFACE((1,2,3,4));
#955=IFCINDEXEDPOLYGONALFACE((8,7,6,5));
#956=IFCINDEXEDPOLYGONALFACE((1,5,6,2));
#957=IFCINDEXEDPOLYGONALFACE((2,6,7,3));
#958=IFCINDEXEDPOLYGONALFACE((3,7,8,4));
#959=IFCINDEXEDPOLYGONALFACE((4,8,5,1));
#960=IFCPOLYGONALFACESET(#953,.T.,(#954,#955,#956,#957,#958,#959),$);
#961=IFCSHAPEREPRESENTATION(#11,'Body','Tessellation',(#960));
#962=IFCPRODUCTDEFINITIONSHAPE($,$,(#961));
#963=IFCCARTESIANPOINT((0.,0.,0.));
#964=IFCAXIS2PLACEMENT3D(#963,$,$);
#965=IFCLOCALPLACEMENT(#54,#964);
#966=IFCCOVERING('0Z3rF1CwPRVxiGXqpJlYWB',$,'Q/1/0#1',$,'gratschnitt',#965,#962,$,$);
#967=IFCPROPERTYSINGLEVALUE('Stueckart',$,IFCLABEL('gratschnitt'),$);
#968=IFCPROPERTYSINGLEVALUE('Motiv',$,IFCLABEL('Q'),$);
#969=IFCPROPERTYSINGLEVALUE('Rasterposition',$,IFCLABEL('Q/1/0'),$);
#970=IFCPROPERTYSINGLEVALUE('Gefaelleflaeche',$,IFCLABEL('F1'),$);
#971=IFCPROPERTYSINGLEVALUE('Rohling',$,IFCLABEL('F60x60#4'),$);
#972=IFCPROPERTYSINGLEVALUE('Herkunft',$,IFCLABEL('reststueck'),$);
#973=IFCPROPERTYSINGLEVALUE('Schnitte',$,IFCINTEGER(2),$);
#974=IFCPROPERTYSINGLEVALUE('Schnittlaenge',$,IFCREAL(787.39999999999998),$);
#975=IFCPROPERTYSINGLEVALUE('Schnittarten',$,IFCLABEL('schraeg,gratschnitt'),$);
#976=IFCPROPERTYSET('1o9WsyldDMEuHTWabaROFj',$,'HP_Fliesenstueck',$,(#967,#968,#969,#970,#971,#972,#973,#974,#975));
#977=IFCRELDEFINESBYPROPERTIES('3xMMkw4t1UNwvgMTaHaOv_',$,$,$,(#966),#976);
#978=IFCQUANTITYLENGTH('Width',$,$,10.,$);
#979=IFCQUANTITYAREA('NetArea',$,$,0.12857099999999999,$);
#980=IFCELEMENTQUANTITY('1yXAmB$yrMu889PMLFY6A5',$,'Qto_CoveringBaseQuantities',$,$,(#978,#979));
#981=IFCRELDEFINESBYPROPERTIES('1YrAbrkBPQbfQhyIOny17P',$,$,$,(#966),#980);
#982=IFCCARTESIANPOINTLIST3D(((603.,603.,12.792),(603.,1089.8099999999999,17.954999999999998),(1089.8099999999999,603.,17.954999999999998),(603.,603.,2.7919999999999998),(603.,1089.8099999999999,7.9549999999999983),(1089.8099999999999,603.,7.9549999999999983)),$);
#983=IFCINDEXEDPOLYGONALFACE((1,2,3));
#984=IFCINDEXEDPOLYGONALFACE((6,5,4));
#985=IFCINDEXEDPOLYGONALFACE((1,4,5,2));
#986=IFCINDEXEDPOLYGONALFACE((2,5,6,3));
#987=IFCINDEXEDPOLYGONALFACE((3,6,4,1));
#988=IFCPOLYGONALFACESET(#982,.T.,(#983,#984,#985,#986,#987),$);
#989=IFCSHAPEREPRESENTATION(#11,'Body','Tessellation',(#988));
#990=IFCPRODUCTDEFINITIONSHAPE($,$,(#989));
#991=IFCCARTESIANPOINT((0.,0.,0.));
#992=IFCAXIS2PLACEMENT3D(#991,$,$);
#993=IFCLOCALPLACEMENT(#54,#992);
#994=IFCCOVERING('0Gx7z0jLLT79BsWZ_bKIsM',$,'Q/1/1#1',$,'schraeg',#993,#990,$,$);
#995=IFCPROPERTYSINGLEVALUE('Stueckart',$,IFCLABEL('schraeg'),$);
#996=IFCPROPERTYSINGLEVALUE('Motiv',$,IFCLABEL('Q'),$);
#997=IFCPROPERTYSINGLEVALUE('Rasterposition',$,IFCLABEL('Q/1/1'),$);
#998=IFCPROPERTYSINGLEVALUE('Gefaelleflaeche',$,IFCLABEL('F1'),$);
#999=IFCPROPERTYSINGLEVALUE('Rohling',$,IFCLABEL('F60x60#13'),$);
#1000=IFCPROPERTYSINGLEVALUE('Herkunft',$,IFCLABEL('neu'),$);
#1001=IFCPROPERTYSINGLEVALUE('Schnitte',$,IFCINTEGER(1),$);
#1002=IFCPROPERTYSINGLEVALUE('Schnittlaenge',$,IFCREAL(688.5),$);
#1003=IFCPROPERTYSINGLEVALUE('Schnittarten',$,IFCLABEL('schraeg'),$);
#1004=IFCPROPERTYSET('30SnniAeHH7Qwba9MSBPjQ',$,'HP_Fliesenstueck',$,(#995,#996,#997,#998,#999,#1000,#1001,#1002,#1003));
#1005=IFCRELDEFINESBYPROPERTIES('0uGYoDn4nJLxDNmxEKSzuO',$,$,$,(#994),#1004);
#1006=IFCQUANTITYLENGTH('Width',$,$,10.,$);
#1007=IFCQUANTITYAREA('NetArea',$,$,0.118494,$);
#1008=IFCELEMENTQUANTITY('35TKLnGX1P5f$t6DjjsUT$',$,'Qto_CoveringBaseQuantities',$,$,(#1006,#1007));
#1009=IFCRELDEFINESBYPROPERTIES('1$Lmiiw$TVkPcnCcUNU4XC',$,$,$,(#994),#1008);
#1010=IFCRELAGGREGATES('0DmPUuhkzMaAag$45M1D5X',$,$,$,#55,(#91,#122,#151,#180,#209,#238,#269,#298,#327,#356,#385,#414,#442,#471,#500,#528,#557,#586,#617,#646,#675,#704,#735,#764,#793,#822,#851,#880,#908,#937,#966,#994));
#1011=IFCRELDEFINESBYTYPE('2dvFdEcufTGvjbRtaiDDX9',$,$,$,(#91,#122,#151,#180,#209,#238,#269,#298,#327,#356,#385,#414,#442,#471,#500,#528,#557,#586,#617,#646,#675,#704,#735,#764,#793,#822,#851,#880,#908,#937,#966,#994),#32);
ENDSEC;
END-ISO-10303-21;
