ISO-10303-21;
HEADER;
FILE_DESCRIPTION(('ViewDefinition [NotAssigned]'),'2;1');
FILE_NAME('b17_keller.ifc','2026-09-27T12:00:00',('Prototyp B17'),('Doktorarbeit Holzbau (Beispiel)'),'IfcOpenShell 0.8.5-1c5b825','IfcOpenShell 0.8.5-1c5b825','keine');
FILE_SCHEMA(('IFC4X3_ADD2'));
ENDSEC;
DATA;
#1=IFCPROJECT('2yRQu8F3LR1RoiOcwxWPdS',$,'B17 Grundst\X2\00FC\X0\cksentw\X2\00E4\X0\sserung (Beispiel)',$,$,$,$,(#13),#8);
#2=IFCSIUNIT(*,.LENGTHUNIT.,.MILLI.,.METRE.);
#3=IFCSIUNIT(*,.AREAUNIT.,$,.SQUARE_METRE.);
#4=IFCSIUNIT(*,.VOLUMEUNIT.,$,.CUBIC_METRE.);
#5=IFCSIUNIT(*,.PLANEANGLEUNIT.,$,.RADIAN.);
#6=IFCSIUNIT(*,.MASSUNIT.,.KILO.,.GRAM.);
#7=IFCSIUNIT(*,.THERMODYNAMICTEMPERATUREUNIT.,$,.KELVIN.);
#8=IFCUNITASSIGNMENT((#2,#3,#4,#5,#6,#7));
#9=IFCCARTESIANPOINT((0.,0.,0.));
#10=IFCDIRECTION((0.,0.,1.));
#11=IFCDIRECTION((1.,0.,0.));
#12=IFCAXIS2PLACEMENT3D(#9,#10,#11);
#13=IFCGEOMETRICREPRESENTATIONCONTEXT($,'Model',3,1.0000000000000001E-05,#12,$);
#14=IFCGEOMETRICREPRESENTATIONSUBCONTEXT('Body','Model',*,*,*,*,#13,$,.MODEL_VIEW.,$);
#15=IFCCARTESIANPOINT((0.,0.,0.));
#16=IFCAXIS2PLACEMENT3D(#15,$,$);
#17=IFCLOCALPLACEMENT($,#16);
#18=IFCSITE('3S8yvoMNLVVhWYjpEM$uIc',$,'Grundst\X2\00FC\X0\ck',$,$,#17,$,$,$,$,$,$,$,$);
#19=IFCCARTESIANPOINT((0.,0.,0.));
#20=IFCAXIS2PLACEMENT3D(#19,$,$);
#21=IFCLOCALPLACEMENT(#17,#20);
#22=IFCBUILDING('30aqNMgxPIrRimEpQkwFVl',$,'EFH Holzrahmenbau (Beispiel)',$,$,#21,$,$,$,$,$,$);
#23=IFCRELAGGREGATES('1W_yjf0JnJyeB70Jpa29iQ',$,$,$,#1,(#18));
#24=IFCRELAGGREGATES('2FIGo6QKzTUOxwoteH6We0',$,$,$,#18,(#22));
#25=IFCCARTESIANPOINT((0.,0.,0.));
#26=IFCAXIS2PLACEMENT3D(#25,$,$);
#27=IFCLOCALPLACEMENT(#21,#26);
#28=IFCBUILDINGSTOREY('3mkoeBjWbGBuBkwkf4Bb5p',$,'EG',$,$,#27,$,$,$,0.);
#29=IFCRELAGGREGATES('2k2QIpxhTRpfqPr2QizYyU',$,$,$,#22,(#28));
#30=IFCCARTESIANPOINTLIST3D(((0.,0.,520000.),(20000.,0.,519900.),(20000.,30000.,520500.),(0.,30000.,520600.)),$);
#31=IFCTRIANGULATEDFACESET(#30,$,$,((1,2,3),(1,3,4)),$);
#32=IFCCARTESIANPOINT((0.,0.,0.));
#33=IFCAXIS2PLACEMENT3D(#32,$,$);
#34=IFCLOCALPLACEMENT(#17,#33);
#35=IFCSHAPEREPRESENTATION(#14,'Body','Tessellation',(#31));
#36=IFCPRODUCTDEFINITIONSHAPE($,$,(#35));
#37=IFCGEOGRAPHICELEMENT('3XB8v7jRbVUghm7B4Wnz$$',$,'Gel\X2\00E4\X0\nde (Ebene aus DGM, Beispiel)',$,$,#34,#36,$,.TERRAIN.);
#38=IFCDISTRIBUTIONSYSTEM('1ZUC8OS7nG3BpA41VYDBZx',$,'Schmutzwasser',$,$,$,.SEWAGE.);
#39=IFCRELSERVICESBUILDINGS('1yEwClVlPSaf8PnPes2I_e',$,$,$,#38,(#22));
#40=IFCDISTRIBUTIONSYSTEM('3OlsSJL3jQ2QfxxjfSy1Hm',$,'Niederschlagswasser',$,$,$,.RAINWATER.);
#41=IFCRELSERVICESBUILDINGS('30$VrlW_zRAvrDLzE9iznA',$,$,$,#40,(#22));
#42=IFCMATERIAL('PVC-U (KG)',$,'Kunststoff');
#43=IFCCIRCLEPROFILEDEF(.AREA.,$,$,55.);
#44=IFCCARTESIANPOINT((0.,0.,55.));
#45=IFCDIRECTION((-0.27441134703421599,-0.96031486869298854,-0.049937616943895279));
#46=IFCDIRECTION((0.,1.,0.));
#47=IFCAXIS2PLACEMENT3D(#44,#45,#46);
#48=IFCDIRECTION((0.,0.,1.));
#49=IFCEXTRUDEDAREASOLID(#43,#47,#48,8009.872856044597);
#50=IFCCARTESIANPOINT((13000.,18500.,519422.592));
#51=IFCAXIS2PLACEMENT3D(#50,$,$);
#52=IFCLOCALPLACEMENT(#17,#51);
#53=IFCSHAPEREPRESENTATION(#14,'Body','SweptSolid',(#49));
#54=IFCPRODUCTDEFINITIONSHAPE($,$,(#53));
#55=IFCPIPESEGMENT('1e1$R5iWnMbhjBGkqPRlC9',$,'FL2 \X2\2192\X0\ SW-R\X2\00D6\X0\1',$,$,#52,#54,$,.RIGIDSEGMENT.);
#56=IFCPROPERTYSINGLEVALUE('NominalDiameter',$,IFCPOSITIVELENGTHMEASURE(100.),$);
#57=IFCPROPERTYSINGLEVALUE('InnerDiameter',$,IFCPOSITIVELENGTHMEASURE(96.),$);
#58=IFCPROPERTYSINGLEVALUE('Length',$,IFCPOSITIVELENGTHMEASURE(7999.8999999999996),$);
#59=IFCPROPERTYSET('3yG74mYhHMzhGjCquvZHtQ',$,'Pset_PipeSegmentTypeCommon',$,(#56,#57,#58));
#60=IFCRELDEFINESBYPROPERTIES('1hFV2O429NiOrJKzVQmPsm',$,$,$,(#55),#59);
#61=IFCPROPERTYSINGLEVALUE('Gradient',$,IFCPOSITIVERATIOMEASURE(0.050000000000000003),$);
#62=IFCPROPERTYSINGLEVALUE('InvertElevation',$,IFCLENGTHMEASURE(519422.59999999998),$);
#63=IFCPROPERTYSET('1ePK4BiaXQsg0wGHeg4da6',$,'Pset_PipeSegmentOccurrence',$,(#61,#62));
#64=IFCRELDEFINESBYPROPERTIES('2OWTFPVf5IphUACKzFsjhE',$,$,$,(#55),#63);
#65=IFCPROPERTYSINGLEVALUE('Lage',$,IFCLABEL('Geb\X2\00E4\X0\ude'),$);
#66=IFCPROPERTYSINGLEVALUE('Abfluss_l_s',$,IFCREAL(0.85099999999999998),$);
#67=IFCPROPERTYSINGLEVALUE('Sohle_unten_m',$,IFCREAL(519.02300000000002),$);
#68=IFCPROPERTYSET('1e9l57WOvQGQpS4PkdN684',$,'B17_Entwaesserung',$,(#65,#66,#67));
#69=IFCRELDEFINESBYPROPERTIES('3LUHP_8s9UbP9hO0647q0S',$,$,$,(#55),#68);
#70=IFCCARTESIANPOINT((13000.,18500.,519422.592));
#71=IFCAXIS2PLACEMENT3D(#70,$,$);
#72=IFCLOCALPLACEMENT(#17,#71);
#73=IFCDISTRIBUTIONPORT('0Y7lb_MZDNN80gHZwfzUFG',$,'Zulauf',$,$,#72,$,.SINK.,.PIPE.,.SEWAGE.);
#74=IFCCARTESIANPOINT((10802.,10808.,519022.598));
#75=IFCAXIS2PLACEMENT3D(#74,$,$);
#76=IFCLOCALPLACEMENT(#17,#75);
#77=IFCDISTRIBUTIONPORT('2BwwDFb9jQZBBQb_JUZEkC',$,'Ablauf',$,$,#76,$,.SOURCE.,.PIPE.,.SEWAGE.);
#78=IFCRELNESTS('0WA2MdbrXQU9jMS0OKHUE5',$,$,$,#55,(#73,#77));
#79=IFCCIRCLEPROFILEDEF(.AREA.,$,$,67.5);
#80=IFCCARTESIANPOINT((0.,0.,67.5));
#81=IFCDIRECTION((-0.2745888060329103,-0.96026414179400821,-0.049937616943919183));
#82=IFCDIRECTION((0.,1.,0.));
#83=IFCAXIS2PLACEMENT3D(#80,#81,#82);
#84=IFCDIRECTION((0.,0.,1.));
#85=IFCEXTRUDEDAREASOLID(#79,#83,#84,1882.8152810352926);
#86=IFCCARTESIANPOINT((10802.,10808.,519022.598));
#87=IFCAXIS2PLACEMENT3D(#86,$,$);
#88=IFCLOCALPLACEMENT(#17,#87);
#89=IFCSHAPEREPRESENTATION(#14,'Body','SweptSolid',(#85));
#90=IFCPRODUCTDEFINITIONSHAPE($,$,(#89));
#91=IFCPIPESEGMENT('2SbTEpzlLIIweZV3lKOsaA',$,'SW-R\X2\00D6\X0\1 \X2\2192\X0\ SW-W1',$,$,#88,#90,$,.RIGIDSEGMENT.);
#92=IFCPROPERTYSINGLEVALUE('NominalDiameter',$,IFCPOSITIVELENGTHMEASURE(125.),$);
#93=IFCPROPERTYSINGLEVALUE('InnerDiameter',$,IFCPOSITIVELENGTHMEASURE(113.),$);
#94=IFCPROPERTYSINGLEVALUE('Length',$,IFCPOSITIVELENGTHMEASURE(1880.5),$);
#95=IFCPROPERTYSET('2oBLiUVwzSqvIgKYl5hW2W',$,'Pset_PipeSegmentTypeCommon',$,(#92,#93,#94));
#96=IFCRELDEFINESBYPROPERTIES('2qDi3MD7LJmhStNbdJX9bn',$,$,$,(#91),#95);
#97=IFCPROPERTYSINGLEVALUE('Gradient',$,IFCPOSITIVERATIOMEASURE(0.050000000000000003),$);
#98=IFCPROPERTYSINGLEVALUE('InvertElevation',$,IFCLENGTHMEASURE(519022.59999999998),$);
#99=IFCPROPERTYSET('1hydyfGbHJf9fQUDVGSs8d',$,'Pset_PipeSegmentOccurrence',$,(#97,#98));
#100=IFCRELDEFINESBYPROPERTIES('2zXpY21hfIzvL89pcSL43M',$,$,$,(#91),#99);
#101=IFCPROPERTYSINGLEVALUE('Lage',$,IFCLABEL('Geb\X2\00E4\X0\ude'),$);
#102=IFCPROPERTYSINGLEVALUE('Abfluss_l_s',$,IFCREAL(2.),$);
#103=IFCPROPERTYSINGLEVALUE('Sohle_unten_m',$,IFCREAL(518.92899999999997),$);
#104=IFCPROPERTYSET('19n0tPxnDGR80ax5hjN9SM',$,'B17_Entwaesserung',$,(#101,#102,#103));
#105=IFCRELDEFINESBYPROPERTIES('2A3840rSXKfhtk40r9Vlt8',$,$,$,(#91),#104);
#106=IFCCARTESIANPOINT((10802.,10808.,519022.598));
#107=IFCAXIS2PLACEMENT3D(#106,$,$);
#108=IFCLOCALPLACEMENT(#17,#107);
#109=IFCDISTRIBUTIONPORT('19qdLltmzG28PeHCpXhUvf',$,'Zulauf',$,$,#108,$,.SINK.,.PIPE.,.SEWAGE.);
#110=IFCCARTESIANPOINT((10285.,9000.,518928.57500000001));
#111=IFCAXIS2PLACEMENT3D(#110,$,$);
#112=IFCLOCALPLACEMENT(#17,#111);
#113=IFCDISTRIBUTIONPORT('131tV$eb9IXR9r7NQ0wDP3',$,'Ablauf',$,$,#112,$,.SOURCE.,.PIPE.,.SEWAGE.);
#114=IFCRELNESTS('1pBgjUsKrTu9UxA5mrRTT2',$,$,$,#91,(#109,#113));
#115=IFCCIRCLEPROFILEDEF(.AREA.,$,$,67.5);
#116=IFCCARTESIANPOINT((0.,0.,67.5));
#117=IFCDIRECTION((0.95301217011802541,-0.29878761356672451,-0.049937616943878521));
#118=IFCDIRECTION((0.,1.,0.));
#119=IFCAXIS2PLACEMENT3D(#116,#117,#118);
#120=IFCDIRECTION((0.,0.,1.));
#121=IFCEXTRUDEDAREASOLID(#115,#119,#120,3989.4558739256631);
#122=IFCCARTESIANPOINT((7000.,12000.,519221.82199999999));
#123=IFCAXIS2PLACEMENT3D(#122,$,$);
#124=IFCLOCALPLACEMENT(#17,#123);
#125=IFCSHAPEREPRESENTATION(#14,'Body','SweptSolid',(#121));
#126=IFCPRODUCTDEFINITIONSHAPE($,$,(#125));
#127=IFCPIPESEGMENT('00vz$ggX9MIwkf6JoDUvKr',$,'FL1 \X2\2192\X0\ SW-R\X2\00D6\X0\1',$,$,#124,#126,$,.RIGIDSEGMENT.);
#128=IFCPROPERTYSINGLEVALUE('NominalDiameter',$,IFCPOSITIVELENGTHMEASURE(125.),$);
#129=IFCPROPERTYSINGLEVALUE('InnerDiameter',$,IFCPOSITIVELENGTHMEASURE(113.),$);
#130=IFCPROPERTYSINGLEVALUE('Length',$,IFCPOSITIVELENGTHMEASURE(3984.5),$);
#131=IFCPROPERTYSET('1aXvtNUP1LAhEK$dUJ4cHG',$,'Pset_PipeSegmentTypeCommon',$,(#128,#129,#130));
#132=IFCRELDEFINESBYPROPERTIES('1tlojfP05T0vAmErgzv4M6',$,$,$,(#127),#131);
#133=IFCPROPERTYSINGLEVALUE('Gradient',$,IFCPOSITIVERATIOMEASURE(0.050000000000000003),$);
#134=IFCPROPERTYSINGLEVALUE('InvertElevation',$,IFCLENGTHMEASURE(519221.79999999999),$);
#135=IFCPROPERTYSET('2mqU$BBa1RWeIYTMoQ8CK7',$,'Pset_PipeSegmentOccurrence',$,(#133,#134));
#136=IFCRELDEFINESBYPROPERTIES('3sl62t2_vKoBNTjvknHXlu',$,$,$,(#127),#135);
#137=IFCPROPERTYSINGLEVALUE('Lage',$,IFCLABEL('Geb\X2\00E4\X0\ude'),$);
#138=IFCPROPERTYSINGLEVALUE('Abfluss_l_s',$,IFCREAL(2.),$);
#139=IFCPROPERTYSINGLEVALUE('Sohle_unten_m',$,IFCREAL(519.02300000000002),$);
#140=IFCPROPERTYSET('1_1I4GBhrQR8VVy26af6om',$,'B17_Entwaesserung',$,(#137,#138,#139));
#141=IFCRELDEFINESBYPROPERTIES('1329SyZ1TTLgUdKr_WDfJz',$,$,$,(#127),#140);
#142=IFCCARTESIANPOINT((7000.,12000.,519221.82199999999));
#143=IFCAXIS2PLACEMENT3D(#142,$,$);
#144=IFCLOCALPLACEMENT(#17,#143);
#145=IFCDISTRIBUTIONPORT('3WoudRQOzSCgy8WF0bfw7y',$,'Zulauf',$,$,#144,$,.SINK.,.PIPE.,.SEWAGE.);
#146=IFCCARTESIANPOINT((10802.,10808.,519022.598));
#147=IFCAXIS2PLACEMENT3D(#146,$,$);
#148=IFCLOCALPLACEMENT(#17,#147);
#149=IFCDISTRIBUTIONPORT('1u7Nj8eR5L6f9LZ_YIWNYR',$,'Ablauf',$,$,#148,$,.SOURCE.,.PIPE.,.SEWAGE.);
#150=IFCRELNESTS('12aZIBGCPGQP9Ni4Zs27QW',$,$,$,#127,(#145,#149));
#151=IFCCIRCLEPROFILEDEF(.AREA.,$,$,80.);
#152=IFCCARTESIANPOINT((0.,0.,80.));
#153=IFCDIRECTION((-0.27459797308647133,-0.96139334122178133,-0.017854876958995708));
#154=IFCDIRECTION((0.,1.,0.));
#155=IFCAXIS2PLACEMENT3D(#152,#153,#154);
#156=IFCDIRECTION((0.,0.,1.));
#157=IFCEXTRUDEDAREASOLID(#151,#155,#156,8321.2558866210202);
#158=IFCCARTESIANPOINT((10285.,9000.,518928.57500000001));
#159=IFCAXIS2PLACEMENT3D(#158,$,$);
#160=IFCLOCALPLACEMENT(#17,#159);
#161=IFCSHAPEREPRESENTATION(#14,'Body','SweptSolid',(#157));
#162=IFCPRODUCTDEFINITIONSHAPE($,$,(#161));
#163=IFCPIPESEGMENT('3fmrF27gTLqRRIu8KDcUYF',$,'SW-W1 \X2\2192\X0\ SW-RS',$,$,#160,#162,$,.RIGIDSEGMENT.);
#164=IFCPROPERTYSINGLEVALUE('NominalDiameter',$,IFCPOSITIVELENGTHMEASURE(150.),$);
#165=IFCPROPERTYSINGLEVALUE('InnerDiameter',$,IFCPOSITIVELENGTHMEASURE(146.),$);
#166=IFCPROPERTYSINGLEVALUE('Length',$,IFCPOSITIVELENGTHMEASURE(8319.8999999999996),$);
#167=IFCPROPERTYSET('2gm5wthsHKSu_zY8cpKWUw',$,'Pset_PipeSegmentTypeCommon',$,(#164,#165,#166));
#168=IFCRELDEFINESBYPROPERTIES('3Or_tOP5bHRAfN2eFcPvTQ',$,$,$,(#163),#167);
#169=IFCPROPERTYSINGLEVALUE('Gradient',$,IFCPOSITIVERATIOMEASURE(0.017857999999999999),$);
#170=IFCPROPERTYSINGLEVALUE('InvertElevation',$,IFCLENGTHMEASURE(518928.59999999998),$);
#171=IFCPROPERTYSET('1NAdeZ0VjLK8Th6pP8Grwb',$,'Pset_PipeSegmentOccurrence',$,(#169,#170));
#172=IFCRELDEFINESBYPROPERTIES('2cb0OKiRDVmR3QzTw_oybS',$,$,$,(#163),#171);
#173=IFCPROPERTYSINGLEVALUE('Lage',$,IFCLABEL('Erdreich'),$);
#174=IFCPROPERTYSINGLEVALUE('Abfluss_l_s',$,IFCREAL(2.),$);
#175=IFCPROPERTYSINGLEVALUE('Sohle_unten_m',$,IFCREAL(518.77999999999997),$);
#176=IFCPROPERTYSET('3xUyH9rGTQzP1fseCfy8p0',$,'B17_Entwaesserung',$,(#173,#174,#175));
#177=IFCRELDEFINESBYPROPERTIES('01VUOiXOjRG8D54Mq4T9CI',$,$,$,(#163),#176);
#178=IFCCARTESIANPOINT((10285.,9000.,518928.57500000001));
#179=IFCAXIS2PLACEMENT3D(#178,$,$);
#180=IFCLOCALPLACEMENT(#17,#179);
#181=IFCDISTRIBUTIONPORT('3i1IQjLQ1QvOmrBJyslGxH',$,'Zulauf',$,$,#180,$,.SINK.,.PIPE.,.SEWAGE.);
#182=IFCCARTESIANPOINT((8000.,1000.,518780.));
#183=IFCAXIS2PLACEMENT3D(#182,$,$);
#184=IFCLOCALPLACEMENT(#17,#183);
#185=IFCDISTRIBUTIONPORT('2f66zgfXjJNOjIdDp4iSrD',$,'Ablauf',$,$,#184,$,.SOURCE.,.PIPE.,.SEWAGE.);
#186=IFCRELNESTS('257ZXGn5fOyQV61m_V$gQS',$,$,$,#163,(#181,#185));
#187=IFCCARTESIANPOINT((10802.,10808.,519022.598));
#188=IFCAXIS2PLACEMENT3D(#187,$,$);
#189=IFCLOCALPLACEMENT(#17,#188);
#190=IFCPIPEFITTING('1tiz1k5s1IZwHiHpui2vhT',$,'SW-R\X2\00D6\X0\1',$,$,#189,$,$,.JUNCTION.);
#191=IFCCARTESIANPOINT((10802.,10808.,519022.598));
#192=IFCAXIS2PLACEMENT3D(#191,$,$);
#193=IFCLOCALPLACEMENT(#17,#192);
#194=IFCDISTRIBUTIONPORT('3zXZ3Ta4HSwQguHhLM3VK8',$,'Zulauf 1',$,$,#193,$,.SINK.,.PIPE.,.SEWAGE.);
#195=IFCRELCONNECTSPORTS('3uI$wJm9TQlRGEOTK_NJI3',$,$,$,#77,#194,$);
#196=IFCCARTESIANPOINT((10802.,10808.,519022.598));
#197=IFCAXIS2PLACEMENT3D(#196,$,$);
#198=IFCLOCALPLACEMENT(#17,#197);
#199=IFCDISTRIBUTIONPORT('37RGz3VKLPCQRHbmRZpAyg',$,'Zulauf 2',$,$,#198,$,.SINK.,.PIPE.,.SEWAGE.);
#200=IFCRELCONNECTSPORTS('2QIADUBN9TrxYsRGCEsBGs',$,$,$,#149,#199,$);
#201=IFCCARTESIANPOINT((10802.,10808.,519022.598));
#202=IFCAXIS2PLACEMENT3D(#201,$,$);
#203=IFCLOCALPLACEMENT(#17,#202);
#204=IFCDISTRIBUTIONPORT('0D5K8o4vPHjgzcW_Ltr9U$',$,'Ablauf',$,$,#203,$,.SOURCE.,.PIPE.,.SEWAGE.);
#205=IFCRELCONNECTSPORTS('2QwqU8BC9UmRQHNg$wYXx_',$,$,$,#204,#109,$);
#206=IFCRELNESTS('2ls9Q9V9nGLPgS$uxYph_n',$,$,$,#190,(#194,#199,#204));
#207=IFCRELCONNECTSPORTS('2Zk9sPgVPLzAnYMxFdZiWw',$,$,$,#113,#181,$);
#208=IFCCIRCLEPROFILEDEF(.AREA.,$,$,560.);
#209=IFCCARTESIANPOINT((0.,0.,-150.));
#210=IFCAXIS2PLACEMENT3D(#209,$,$);
#211=IFCDIRECTION((0.,0.,1.));
#212=IFCEXTRUDEDAREASOLID(#208,#210,#211,1350.0000000000455);
#213=IFCCARTESIANPOINT((8000.,1000.,518780.));
#214=IFCAXIS2PLACEMENT3D(#213,$,$);
#215=IFCLOCALPLACEMENT(#17,#214);
#216=IFCSHAPEREPRESENTATION(#14,'Body','SweptSolid',(#212));
#217=IFCPRODUCTDEFINITIONSHAPE($,$,(#216));
#218=IFCDISTRIBUTIONCHAMBERELEMENT('1hoDUPhinMF9L5OqB5EvJj',$,'SW-RS',$,$,#215,#217,$,.MANHOLE.);
#219=IFCPROPERTYSINGLEVALUE('InvertLevel',$,IFCLENGTHMEASURE(518780.),$);
#220=IFCPROPERTYSINGLEVALUE('HasSteps',$,IFCBOOLEAN(.T.),$);
#221=IFCPROPERTYSINGLEVALUE('AccessLengthOrRadius',$,IFCPOSITIVELENGTHMEASURE(312.5),$);
#222=IFCPROPERTYSINGLEVALUE('IsShallow',$,IFCBOOLEAN(.F.),$);
#223=IFCPROPERTYSINGLEVALUE('AccessCoverLoadRating',$,IFCTEXT('B 125 (Beispiel)'),$);
#224=IFCPROPERTYSET('1lQlgJ_OnK$PwlmbVfDqJ4',$,'Pset_DistributionChamberElementTypeManhole',$,(#219,#220,#221,#222,#223));
#225=IFCRELDEFINESBYPROPERTIES('1z6gpneynHphO58Z22TEgv',$,$,$,(#218),#224);
#226=IFCCARTESIANPOINT((8000.,1000.,518780.));
#227=IFCAXIS2PLACEMENT3D(#226,$,$);
#228=IFCLOCALPLACEMENT(#17,#227);
#229=IFCDISTRIBUTIONPORT('1PI7WiW6bNCwUbbeCClcPi',$,'Zulauf 1',$,$,#228,$,.SINK.,.PIPE.,.SEWAGE.);
#230=IFCRELCONNECTSPORTS('3lUMdFZ1bPmPZpuharGAjX',$,$,$,#185,#229,$);
#231=IFCCARTESIANPOINT((8000.,1000.,518780.));
#232=IFCAXIS2PLACEMENT3D(#231,$,$);
#233=IFCLOCALPLACEMENT(#17,#232);
#234=IFCDISTRIBUTIONPORT('1ccoVlLgDUQRv0eUrh_uU9',$,'Ablauf',$,$,#233,$,.SOURCE.,.PIPE.,.SEWAGE.);
#235=IFCRELNESTS('1a9L5AtHfP3v2kWp5g4EQ6',$,$,$,#218,(#229,#234));
#236=IFCCIRCLEPROFILEDEF(.AREA.,$,$,80.);
#237=IFCCARTESIANPOINT((0.,0.,80.));
#238=IFCDIRECTION((0.,-0.91852419868033097,-0.39536476377979829));
#239=IFCDIRECTION((1.,0.,0.));
#240=IFCAXIS2PLACEMENT3D(#237,#238,#239);
#241=IFCDIRECTION((0.,0.,1.));
#242=IFCEXTRUDEDAREASOLID(#236,#240,#241,5008.0335462135308);
#243=IFCCARTESIANPOINT((8000.,1000.,518780.));
#244=IFCAXIS2PLACEMENT3D(#243,$,$);
#245=IFCLOCALPLACEMENT(#17,#244);
#246=IFCSHAPEREPRESENTATION(#14,'Body','SweptSolid',(#242));
#247=IFCPRODUCTDEFINITIONSHAPE($,$,(#246));
#248=IFCPIPESEGMENT('10o7cBQlTIwRmgAncta$sv',$,'Anschlusskanal SW-RS \X2\2192\X0\ Kanal',$,$,#245,#247,$,.RIGIDSEGMENT.);
#249=IFCPROPERTYSINGLEVALUE('NominalDiameter',$,IFCPOSITIVELENGTHMEASURE(150.),$);
#250=IFCPROPERTYSET('2$icW61OnKxPbhBfKUMgTm',$,'Pset_PipeSegmentTypeCommon',$,(#249));
#251=IFCRELDEFINESBYPROPERTIES('3pV4kBtgXSOv6MfdIUekTf',$,$,$,(#248),#250);
#252=IFCPROPERTYSINGLEVALUE('Gradient',$,IFCPOSITIVERATIOMEASURE(0.43043500000000001),$);
#253=IFCPROPERTYSET('3XgilM6T9GG9jkZa3htaDl',$,'Pset_PipeSegmentOccurrence',$,(#252));
#254=IFCRELDEFINESBYPROPERTIES('3fpgaiOQbLOeI8FCpv3Qt9',$,$,$,(#248),#253);
#255=IFCCARTESIANPOINT((8000.,1000.,518780.));
#256=IFCAXIS2PLACEMENT3D(#255,$,$);
#257=IFCLOCALPLACEMENT(#17,#256);
#258=IFCDISTRIBUTIONPORT('3d$w2oXazREeOtKwCFrV_T',$,'Zulauf',$,$,#257,$,.SINK.,.PIPE.,.SEWAGE.);
#259=IFCRELNESTS('2OFCvxyErQbwz$jjvk69Ol',$,$,$,#248,(#258));
#260=IFCRELCONNECTSPORTS('0ZFG0kHXXG0wyS3gyZV6Fs',$,$,$,#234,#258,$);
#261=IFCCIRCLEPROFILEDEF(.AREA.,$,$,55.);
#262=IFCCARTESIANPOINT((0.,0.,55.));
#263=IFCDIRECTION((-0.05126798350272576,0.9986348701435197,-0.0099995000374933848));
#264=IFCDIRECTION((0.,1.,0.));
#265=IFCAXIS2PLACEMENT3D(#262,#263,#264);
#266=IFCDIRECTION((0.,0.,1.));
#267=IFCEXTRUDEDAREASOLID(#261,#265,#266,11001.017817874852);
#268=IFCCARTESIANPOINT((4600.,9400.,519365.));
#269=IFCAXIS2PLACEMENT3D(#268,$,$);
#270=IFCLOCALPLACEMENT(#17,#269);
#271=IFCSHAPEREPRESENTATION(#14,'Body','SweptSolid',(#267));
#272=IFCPRODUCTDEFINITIONSHAPE($,$,(#271));
#273=IFCPIPESEGMENT('1WRhVq6AHIe9tcCyvd6N8w',$,'RF1 \X2\2192\X0\ NW-S1',$,$,#270,#272,$,.RIGIDSEGMENT.);
#274=IFCPROPERTYSINGLEVALUE('NominalDiameter',$,IFCPOSITIVELENGTHMEASURE(100.),$);
#275=IFCPROPERTYSINGLEVALUE('InnerDiameter',$,IFCPOSITIVELENGTHMEASURE(96.),$);
#276=IFCPROPERTYSINGLEVALUE('Length',$,IFCPOSITIVELENGTHMEASURE(11000.5),$);
#277=IFCPROPERTYSET('02$rFWjebVv8t0hmkLC$9Q',$,'Pset_PipeSegmentTypeCommon',$,(#274,#275,#276));
#278=IFCRELDEFINESBYPROPERTIES('1Aiymt675KG94$$uk8OJ7y',$,$,$,(#273),#277);
#279=IFCPROPERTYSINGLEVALUE('Gradient',$,IFCPOSITIVERATIOMEASURE(0.01),$);
#280=IFCPROPERTYSINGLEVALUE('InvertElevation',$,IFCLENGTHMEASURE(519365.),$);
#281=IFCPROPERTYSET('1HAVC6yInP3xCKoMogN7AK',$,'Pset_PipeSegmentOccurrence',$,(#279,#280));
#282=IFCRELDEFINESBYPROPERTIES('0vTQdYSnXK5QHGs5PIFXYf',$,$,$,(#273),#281);
#283=IFCPROPERTYSINGLEVALUE('Lage',$,IFCLABEL('Erdreich'),$);
#284=IFCPROPERTYSINGLEVALUE('Abfluss_l_s',$,IFCREAL(1.0369999999999999),$);
#285=IFCPROPERTYSINGLEVALUE('Sohle_unten_m',$,IFCREAL(519.255),$);
#286=IFCPROPERTYSET('2t5dBo5kfPLwDZI5RnpF9i',$,'B17_Entwaesserung',$,(#283,#284,#285));
#287=IFCRELDEFINESBYPROPERTIES('0lhnp9a6vH7QFJGjMh7Q22',$,$,$,(#273),#286);
#288=IFCCARTESIANPOINT((4600.,9400.,519365.));
#289=IFCAXIS2PLACEMENT3D(#288,$,$);
#290=IFCLOCALPLACEMENT(#17,#289);
#291=IFCDISTRIBUTIONPORT('0Wd5U82zDUDR448Z_MSsEO',$,'Zulauf',$,$,#290,$,.SINK.,.PIPE.,.RAINWATER.);
#292=IFCCARTESIANPOINT((4036.,20386.,519254.995));
#293=IFCAXIS2PLACEMENT3D(#292,$,$);
#294=IFCLOCALPLACEMENT(#17,#293);
#295=IFCDISTRIBUTIONPORT('1dGTUqti1GVw1$qv7JfTDG',$,'Ablauf',$,$,#294,$,.SOURCE.,.PIPE.,.RAINWATER.);
#296=IFCRELNESTS('32RJtkewbSIR3dvS5g3LBN',$,$,$,#273,(#291,#295));
#297=IFCCIRCLEPROFILEDEF(.AREA.,$,$,55.);
#298=IFCCARTESIANPOINT((0.,0.,55.));
#299=IFCDIRECTION((0.94685192325435819,0.32151430050391688,-0.0099995000375019145));
#300=IFCDIRECTION((0.,1.,0.));
#301=IFCAXIS2PLACEMENT3D(#298,#299,#300);
#302=IFCDIRECTION((0.,0.,1.));
#303=IFCEXTRUDEDAREASOLID(#297,#301,#302,6500.4884595313306);
#304=IFCCARTESIANPOINT((3950.,22050.,519238.33299999998));
#305=IFCAXIS2PLACEMENT3D(#304,$,$);
#306=IFCLOCALPLACEMENT(#17,#305);
#307=IFCSHAPEREPRESENTATION(#14,'Body','SweptSolid',(#303));
#308=IFCPRODUCTDEFINITIONSHAPE($,$,(#307));
#309=IFCPIPESEGMENT('3SuIc0gZTPyBWOeUaRVeVK',$,'NW-S2 \X2\2192\X0\ NW-S3',$,$,#306,#308,$,.RIGIDSEGMENT.);
#310=IFCPROPERTYSINGLEVALUE('NominalDiameter',$,IFCPOSITIVELENGTHMEASURE(100.),$);
#311=IFCPROPERTYSINGLEVALUE('InnerDiameter',$,IFCPOSITIVELENGTHMEASURE(96.),$);
#312=IFCPROPERTYSINGLEVALUE('Length',$,IFCPOSITIVELENGTHMEASURE(6500.1999999999998),$);
#313=IFCPROPERTYSET('3JVT0LA3PTiB9HgHNhI3s6',$,'Pset_PipeSegmentTypeCommon',$,(#310,#311,#312));
#314=IFCRELDEFINESBYPROPERTIES('32d9q3iBzN5Am7BgKdIF$1',$,$,$,(#309),#313);
#315=IFCPROPERTYSINGLEVALUE('Gradient',$,IFCPOSITIVERATIOMEASURE(0.01),$);
#316=IFCPROPERTYSINGLEVALUE('InvertElevation',$,IFCLENGTHMEASURE(519238.29999999999),$);
#317=IFCPROPERTYSET('2QngVIo0XGHRc5sCgbYoub',$,'Pset_PipeSegmentOccurrence',$,(#315,#316));
#318=IFCRELDEFINESBYPROPERTIES('2BXCMynQnLQ8$7za0_y7wN',$,$,$,(#309),#317);
#319=IFCPROPERTYSINGLEVALUE('Lage',$,IFCLABEL('Erdreich'),$);
#320=IFCPROPERTYSINGLEVALUE('Abfluss_l_s',$,IFCREAL(2.0739999999999998),$);
#321=IFCPROPERTYSINGLEVALUE('Sohle_unten_m',$,IFCREAL(519.173),$);
#322=IFCPROPERTYSET('07S2uQChjHBfg9BSG3Xjz9',$,'B17_Entwaesserung',$,(#319,#320,#321));
#323=IFCRELDEFINESBYPROPERTIES('2y1FDt1APNWA00VUcUoKk2',$,$,$,(#309),#322);
#324=IFCCARTESIANPOINT((3950.,22050.,519238.33299999998));
#325=IFCAXIS2PLACEMENT3D(#324,$,$);
#326=IFCLOCALPLACEMENT(#17,#325);
#327=IFCDISTRIBUTIONPORT('3_xraFc61HCPhTJGP0vlbg',$,'Zulauf',$,$,#326,$,.SINK.,.PIPE.,.RAINWATER.);
#328=IFCCARTESIANPOINT((10105.,24140.,519173.33100000001));
#329=IFCAXIS2PLACEMENT3D(#328,$,$);
#330=IFCLOCALPLACEMENT(#17,#329);
#331=IFCDISTRIBUTIONPORT('1QhznJjjXH09k3g7BZjXzb',$,'Ablauf',$,$,#330,$,.SOURCE.,.PIPE.,.RAINWATER.);
#332=IFCRELNESTS('0jgfDx0zDSuQWR9tYjkoCQ',$,$,$,#309,(#327,#331));
#333=IFCCIRCLEPROFILEDEF(.AREA.,$,$,67.5);
#334=IFCCARTESIANPOINT((0.,0.,67.5));
#335=IFCDIRECTION((0.7556649018998457,0.65490958164653157,-0.0079997440122461377));
#336=IFCDIRECTION((0.,1.,0.));
#337=IFCAXIS2PLACEMENT3D(#334,#335,#336);
#338=IFCDIRECTION((0.,0.,1.));
#339=IFCEXTRUDEDAREASOLID(#333,#337,#338,992.50342064901599);
#340=IFCCARTESIANPOINT((14850.,25750.,519123.245));
#341=IFCAXIS2PLACEMENT3D(#340,$,$);
#342=IFCLOCALPLACEMENT(#17,#341);
#343=IFCSHAPEREPRESENTATION(#14,'Body','SweptSolid',(#339));
#344=IFCPRODUCTDEFINITIONSHAPE($,$,(#343));
#345=IFCPIPESEGMENT('161PduVozN_vSygYTlpuyS',$,'NW-B1 \X2\2192\X0\ NW-FS',$,$,#342,#344,$,.RIGIDSEGMENT.);
#346=IFCPROPERTYSINGLEVALUE('NominalDiameter',$,IFCPOSITIVELENGTHMEASURE(125.),$);
#347=IFCPROPERTYSINGLEVALUE('InnerDiameter',$,IFCPOSITIVELENGTHMEASURE(113.),$);
#348=IFCPROPERTYSINGLEVALUE('Length',$,IFCPOSITIVELENGTHMEASURE(992.5),$);
#349=IFCPROPERTYSET('19watk0T1NewipJfQVhrVc',$,'Pset_PipeSegmentTypeCommon',$,(#346,#347,#348));
#350=IFCRELDEFINESBYPROPERTIES('0qqAUM9OrU2hj91H$_YTRD',$,$,$,(#345),#349);
#351=IFCPROPERTYSINGLEVALUE('Gradient',$,IFCPOSITIVERATIOMEASURE(0.0080000000000000002),$);
#352=IFCPROPERTYSINGLEVALUE('InvertElevation',$,IFCLENGTHMEASURE(519123.20000000001),$);
#353=IFCPROPERTYSET('2Z2x7ztc9J$9ieykrbNTMl',$,'Pset_PipeSegmentOccurrence',$,(#351,#352));
#354=IFCRELDEFINESBYPROPERTIES('1EcSX_$vLMBfBU$DLz52Ef',$,$,$,(#345),#353);
#355=IFCPROPERTYSINGLEVALUE('Lage',$,IFCLABEL('Erdreich'),$);
#356=IFCPROPERTYSINGLEVALUE('Abfluss_l_s',$,IFCREAL(4.774),$);
#357=IFCPROPERTYSINGLEVALUE('Sohle_unten_m',$,IFCREAL(519.11500000000001),$);
#358=IFCPROPERTYSET('3m0bWNrGvJOOEOimdsf_sY',$,'B17_Entwaesserung',$,(#355,#356,#357));
#359=IFCRELDEFINESBYPROPERTIES('0A3aCSJOzMWgF5OUDdt4QW',$,$,$,(#345),#358);
#360=IFCCARTESIANPOINT((14850.,25750.,519123.245));
#361=IFCAXIS2PLACEMENT3D(#360,$,$);
#362=IFCLOCALPLACEMENT(#17,#361);
#363=IFCDISTRIBUTIONPORT('3pQmIYpAXIs9$ik8oUzg9Z',$,'Zulauf',$,$,#362,$,.SINK.,.PIPE.,.RAINWATER.);
#364=IFCCARTESIANPOINT((15600.,26400.,519115.30599999998));
#365=IFCAXIS2PLACEMENT3D(#364,$,$);
#366=IFCLOCALPLACEMENT(#17,#365);
#367=IFCDISTRIBUTIONPORT('0Wss2qqbDJqAaS9JmUqMzH',$,'Ablauf',$,$,#366,$,.SOURCE.,.PIPE.,.RAINWATER.);
#368=IFCRELNESTS('0T02DH3f5HhPJqpNT945IH',$,$,$,#345,(#363,#367));
#369=IFCCIRCLEPROFILEDEF(.AREA.,$,$,67.5);
#370=IFCCARTESIANPOINT((0.,0.,67.5));
#371=IFCDIRECTION((0.95779563625115083,0.28733869087536229,-0.0079997440137908413));
#372=IFCDIRECTION((0.,1.,0.));
#373=IFCAXIS2PLACEMENT3D(#370,#371,#372);
#374=IFCDIRECTION((0.,0.,1.));
#375=IFCEXTRUDEDAREASOLID(#369,#373,#374,10.440640593373523);
#376=IFCCARTESIANPOINT((14840.,25747.,519123.32900000003));
#377=IFCAXIS2PLACEMENT3D(#376,$,$);
#378=IFCLOCALPLACEMENT(#17,#377);
#379=IFCSHAPEREPRESENTATION(#14,'Body','SweptSolid',(#375));
#380=IFCPRODUCTDEFINITIONSHAPE($,$,(#379));
#381=IFCPIPESEGMENT('10Snhjm5jPNeW7IR8eudbK',$,'NW-S5 \X2\2192\X0\ NW-B1',$,$,#378,#380,$,.RIGIDSEGMENT.);
#382=IFCPROPERTYSINGLEVALUE('NominalDiameter',$,IFCPOSITIVELENGTHMEASURE(125.),$);
#383=IFCPROPERTYSINGLEVALUE('InnerDiameter',$,IFCPOSITIVELENGTHMEASURE(113.),$);
#384=IFCPROPERTYSINGLEVALUE('Length',$,IFCPOSITIVELENGTHMEASURE(10.4),$);
#385=IFCPROPERTYSET('1mzBy86e9KlQa9exWwXEOd',$,'Pset_PipeSegmentTypeCommon',$,(#382,#383,#384));
#386=IFCRELDEFINESBYPROPERTIES('2jNZGYf7DVZ8rnaFAZv1_6',$,$,$,(#381),#385);
#387=IFCPROPERTYSINGLEVALUE('Gradient',$,IFCPOSITIVERATIOMEASURE(0.0080000000000000002),$);
#388=IFCPROPERTYSINGLEVALUE('InvertElevation',$,IFCLENGTHMEASURE(519123.29999999999),$);
#389=IFCPROPERTYSET('13t5LfSuHOcPHW$fgZhjCd',$,'Pset_PipeSegmentOccurrence',$,(#387,#388));
#390=IFCRELDEFINESBYPROPERTIES('2p0b5X0_DQ1xFgSjSRGl$r',$,$,$,(#381),#389);
#391=IFCPROPERTYSINGLEVALUE('Lage',$,IFCLABEL('Erdreich'),$);
#392=IFCPROPERTYSINGLEVALUE('Abfluss_l_s',$,IFCREAL(4.774),$);
#393=IFCPROPERTYSINGLEVALUE('Sohle_unten_m',$,IFCREAL(519.12300000000005),$);
#394=IFCPROPERTYSET('0g9Wx71jPR7Al9Zezy6ZRE',$,'B17_Entwaesserung',$,(#391,#392,#393));
#395=IFCRELDEFINESBYPROPERTIES('3iXWrHP9vN2uVLkw_xZyIv',$,$,$,(#381),#394);
#396=IFCCARTESIANPOINT((14840.,25747.,519123.32900000003));
#397=IFCAXIS2PLACEMENT3D(#396,$,$);
#398=IFCLOCALPLACEMENT(#17,#397);
#399=IFCDISTRIBUTIONPORT('34H6n1PRzMlOeF8CmI2c_1',$,'Zulauf',$,$,#398,$,.SINK.,.PIPE.,.RAINWATER.);
#400=IFCCARTESIANPOINT((14850.,25750.,519123.245));
#401=IFCAXIS2PLACEMENT3D(#400,$,$);
#402=IFCLOCALPLACEMENT(#17,#401);
#403=IFCDISTRIBUTIONPORT('2slBD$oJnVFwfroZxijpTQ',$,'Ablauf',$,$,#402,$,.SOURCE.,.PIPE.,.RAINWATER.);
#404=IFCRELNESTS('08lXf9e8jIqPX_tF_cYFEY',$,$,$,#381,(#399,#403));
#405=IFCCIRCLEPROFILEDEF(.AREA.,$,$,55.);
#406=IFCCARTESIANPOINT((0.,0.,55.));
#407=IFCDIRECTION((-0.034269574331374432,0.99936259999769173,-0.0099995000374933866));
#408=IFCDIRECTION((0.,1.,0.));
#409=IFCAXIS2PLACEMENT3D(#406,#407,#408);
#410=IFCDIRECTION((0.,0.,1.));
#411=IFCEXTRUDEDAREASOLID(#405,#409,#410,11001.01204510294);
#412=IFCCARTESIANPOINT((15400.,9400.,519311.));
#413=IFCAXIS2PLACEMENT3D(#412,$,$);
#414=IFCLOCALPLACEMENT(#17,#413);
#415=IFCSHAPEREPRESENTATION(#14,'Body','SweptSolid',(#411));
#416=IFCPRODUCTDEFINITIONSHAPE($,$,(#415));
#417=IFCPIPESEGMENT('2A89GKd_HVwvK8Sd07L1OE',$,'RF3 \X2\2192\X0\ NW-S4',$,$,#414,#416,$,.RIGIDSEGMENT.);
#418=IFCPROPERTYSINGLEVALUE('NominalDiameter',$,IFCPOSITIVELENGTHMEASURE(100.),$);
#419=IFCPROPERTYSINGLEVALUE('InnerDiameter',$,IFCPOSITIVELENGTHMEASURE(96.),$);
#420=IFCPROPERTYSINGLEVALUE('Length',$,IFCPOSITIVELENGTHMEASURE(11000.5),$);
#421=IFCPROPERTYSET('1qEnCAWTrI3vNfNJXfoGnW',$,'Pset_PipeSegmentTypeCommon',$,(#418,#419,#420));
#422=IFCRELDEFINESBYPROPERTIES('242A6DZ95NRh5LGTuQ7X2s',$,$,$,(#417),#421);
#423=IFCPROPERTYSINGLEVALUE('Gradient',$,IFCPOSITIVERATIOMEASURE(0.01),$);
#424=IFCPROPERTYSINGLEVALUE('InvertElevation',$,IFCLENGTHMEASURE(519311.),$);
#425=IFCPROPERTYSET('2Q9IhLGHjLTBeBKBZjkD1v',$,'Pset_PipeSegmentOccurrence',$,(#423,#424));
#426=IFCRELDEFINESBYPROPERTIES('23VfjWBYLTDfnFN0pdYm6E',$,$,$,(#417),#425);
#427=IFCPROPERTYSINGLEVALUE('Lage',$,IFCLABEL('Erdreich'),$);
#428=IFCPROPERTYSINGLEVALUE('Abfluss_l_s',$,IFCREAL(1.0369999999999999),$);
#429=IFCPROPERTYSINGLEVALUE('Sohle_unten_m',$,IFCREAL(519.20100000000002),$);
#430=IFCPROPERTYSET('06o9DSHfPVTx8QSJoj8s74',$,'B17_Entwaesserung',$,(#427,#428,#429));
#431=IFCRELDEFINESBYPROPERTIES('1ZpWNOtizQROkKmkyMdh7J',$,$,$,(#417),#430);
#432=IFCCARTESIANPOINT((15400.,9400.,519311.));
#433=IFCAXIS2PLACEMENT3D(#432,$,$);
#434=IFCLOCALPLACEMENT(#17,#433);
#435=IFCDISTRIBUTIONPORT('1MA1guLHrPGhtaH9YIrkxf',$,'Zulauf',$,$,#434,$,.SINK.,.PIPE.,.RAINWATER.);
#436=IFCCARTESIANPOINT((15023.,20394.,519200.995));
#437=IFCAXIS2PLACEMENT3D(#436,$,$);
#438=IFCLOCALPLACEMENT(#17,#437);
#439=IFCDISTRIBUTIONPORT('0nrQ$waFLRqesJ3YDYXyRN',$,'Ablauf',$,$,#438,$,.SOURCE.,.PIPE.,.RAINWATER.);
#440=IFCRELNESTS('17pDiV8_fNhQLvjxlfaPHk',$,$,$,#417,(#435,#439));
#441=IFCCIRCLEPROFILEDEF(.AREA.,$,$,55.);
#442=IFCCARTESIANPOINT((0.,0.,55.));
#443=IFCDIRECTION((-0.051611224945701341,0.99861718964706625,-0.009999500037474773));
#444=IFCDIRECTION((0.,1.,0.));
#445=IFCAXIS2PLACEMENT3D(#442,#443,#444);
#446=IFCDIRECTION((0.,0.,1.));
#447=IFCEXTRUDEDAREASOLID(#441,#445,#446,1666.3041826749411);
#448=IFCCARTESIANPOINT((4036.,20386.,519254.995));
#449=IFCAXIS2PLACEMENT3D(#448,$,$);
#450=IFCLOCALPLACEMENT(#17,#449);
#451=IFCSHAPEREPRESENTATION(#14,'Body','SweptSolid',(#447));
#452=IFCPRODUCTDEFINITIONSHAPE($,$,(#451));
#453=IFCPIPESEGMENT('18r$opzd9LTg2xwGfLCfCr',$,'NW-S1 \X2\2192\X0\ NW-S2',$,$,#450,#452,$,.RIGIDSEGMENT.);
#454=IFCPROPERTYSINGLEVALUE('NominalDiameter',$,IFCPOSITIVELENGTHMEASURE(100.),$);
#455=IFCPROPERTYSINGLEVALUE('InnerDiameter',$,IFCPOSITIVELENGTHMEASURE(96.),$);
#456=IFCPROPERTYSINGLEVALUE('Length',$,IFCPOSITIVELENGTHMEASURE(1666.2),$);
#457=IFCPROPERTYSET('2mC4k1aOvRkON9Wg29syJY',$,'Pset_PipeSegmentTypeCommon',$,(#454,#455,#456));
#458=IFCRELDEFINESBYPROPERTIES('1ZhUSegLbI_Poh9wrYIRC7',$,$,$,(#453),#457);
#459=IFCPROPERTYSINGLEVALUE('Gradient',$,IFCPOSITIVERATIOMEASURE(0.01),$);
#460=IFCPROPERTYSINGLEVALUE('InvertElevation',$,IFCLENGTHMEASURE(519255.),$);
#461=IFCPROPERTYSET('1cCqEiafvJLgzrWWVP4Myl',$,'Pset_PipeSegmentOccurrence',$,(#459,#460));
#462=IFCRELDEFINESBYPROPERTIES('0RejpPkmPMYgd5mFDK$xA2',$,$,$,(#453),#461);
#463=IFCPROPERTYSINGLEVALUE('Lage',$,IFCLABEL('Erdreich'),$);
#464=IFCPROPERTYSINGLEVALUE('Abfluss_l_s',$,IFCREAL(2.0739999999999998),$);
#465=IFCPROPERTYSINGLEVALUE('Sohle_unten_m',$,IFCREAL(519.23800000000006),$);
#466=IFCPROPERTYSET('1A2q5he5DGCxFDXMiyjyQX',$,'B17_Entwaesserung',$,(#463,#464,#465));
#467=IFCRELDEFINESBYPROPERTIES('0zeuSbRhrTI9IRfchBS7q1',$,$,$,(#453),#466);
#468=IFCCARTESIANPOINT((4036.,20386.,519254.995));
#469=IFCAXIS2PLACEMENT3D(#468,$,$);
#470=IFCLOCALPLACEMENT(#17,#469);
#471=IFCDISTRIBUTIONPORT('2drifAJsXOngQZT$yrHyrI',$,'Zulauf',$,$,#470,$,.SINK.,.PIPE.,.RAINWATER.);
#472=IFCCARTESIANPOINT((3950.,22050.,519238.33299999998));
#473=IFCAXIS2PLACEMENT3D(#472,$,$);
#474=IFCLOCALPLACEMENT(#17,#473);
#475=IFCDISTRIBUTIONPORT('0JVediEXzJF9Zw$cE8qtQi',$,'Ablauf',$,$,#474,$,.SOURCE.,.PIPE.,.RAINWATER.);
#476=IFCRELNESTS('0dOH7FGR5QBgrR7lAU0foU',$,$,$,#453,(#471,#475));
#477=IFCCIRCLEPROFILEDEF(.AREA.,$,$,55.);
#478=IFCCARTESIANPOINT((0.,0.,55.));
#479=IFCDIRECTION((-0.93379309755851014,-0.35431156538567943,-0.049937616943864407));
#480=IFCDIRECTION((0.,1.,0.));
#481=IFCAXIS2PLACEMENT3D(#478,#479,#480);
#482=IFCDIRECTION((0.,0.,1.));
#483=IFCEXTRUDEDAREASOLID(#477,#481,#482,603.98818697057311);
#484=IFCCARTESIANPOINT((4600.,20600.,519285.15700000001));
#485=IFCAXIS2PLACEMENT3D(#484,$,$);
#486=IFCLOCALPLACEMENT(#17,#485);
#487=IFCSHAPEREPRESENTATION(#14,'Body','SweptSolid',(#483));
#488=IFCPRODUCTDEFINITIONSHAPE($,$,(#487));
#489=IFCPIPESEGMENT('1rZEourR9MCg5gkGPpwggW',$,'RF2 \X2\2192\X0\ NW-S1',$,$,#486,#488,$,.RIGIDSEGMENT.);
#490=IFCPROPERTYSINGLEVALUE('NominalDiameter',$,IFCPOSITIVELENGTHMEASURE(100.),$);
#491=IFCPROPERTYSINGLEVALUE('InnerDiameter',$,IFCPOSITIVELENGTHMEASURE(96.),$);
#492=IFCPROPERTYSINGLEVALUE('Length',$,IFCPOSITIVELENGTHMEASURE(603.20000000000005),$);
#493=IFCPROPERTYSET('0v21E3EQjJzuBLOmyGqwIN',$,'Pset_PipeSegmentTypeCommon',$,(#490,#491,#492));
#494=IFCRELDEFINESBYPROPERTIES('1oO2kqmDnSshUxQnNVkAry',$,$,$,(#489),#493);
#495=IFCPROPERTYSINGLEVALUE('Gradient',$,IFCPOSITIVERATIOMEASURE(0.050000000000000003),$);
#496=IFCPROPERTYSINGLEVALUE('InvertElevation',$,IFCLENGTHMEASURE(519285.20000000001),$);
#497=IFCPROPERTYSET('13g1G2fO9OffLKC5NekovD',$,'Pset_PipeSegmentOccurrence',$,(#495,#496));
#498=IFCRELDEFINESBYPROPERTIES('1cP7LrA2rSEQJGj3BUw$JR',$,$,$,(#489),#497);
#499=IFCPROPERTYSINGLEVALUE('Lage',$,IFCLABEL('Erdreich'),$);
#500=IFCPROPERTYSINGLEVALUE('Abfluss_l_s',$,IFCREAL(1.0369999999999999),$);
#501=IFCPROPERTYSINGLEVALUE('Sohle_unten_m',$,IFCREAL(519.255),$);
#502=IFCPROPERTYSET('1fpYI$PB5MJhCc8xCwleW7',$,'B17_Entwaesserung',$,(#499,#500,#501));
#503=IFCRELDEFINESBYPROPERTIES('1BfXOfvdHOj851rz$esBFh',$,$,$,(#489),#502);
#504=IFCCARTESIANPOINT((4600.,20600.,519285.15700000001));
#505=IFCAXIS2PLACEMENT3D(#504,$,$);
#506=IFCLOCALPLACEMENT(#17,#505);
#507=IFCDISTRIBUTIONPORT('053ifJqmvU1uF6cfRLdBWA',$,'Zulauf',$,$,#506,$,.SINK.,.PIPE.,.RAINWATER.);
#508=IFCCARTESIANPOINT((4036.,20386.,519254.995));
#509=IFCAXIS2PLACEMENT3D(#508,$,$);
#510=IFCLOCALPLACEMENT(#17,#509);
#511=IFCDISTRIBUTIONPORT('3yhINOyOzLtvt3H4doi3Lz',$,'Ablauf',$,$,#510,$,.SOURCE.,.PIPE.,.RAINWATER.);
#512=IFCRELNESTS('1kS39YA1LHUO4JomyL3uKP',$,$,$,#489,(#507,#511));
#513=IFCCIRCLEPROFILEDEF(.AREA.,$,$,55.);
#514=IFCCARTESIANPOINT((0.,0.,55.));
#515=IFCDIRECTION((0.94690201458526391,0.32136674497117607,-0.0099995000374916466));
#516=IFCDIRECTION((0.,1.,0.));
#517=IFCAXIS2PLACEMENT3D(#514,#515,#516);
#518=IFCDIRECTION((0.,0.,1.));
#519=IFCEXTRUDEDAREASOLID(#513,#517,#518,5000.5173999697263);
#520=IFCCARTESIANPOINT((10105.,24140.,519173.33100000001));
#521=IFCAXIS2PLACEMENT3D(#520,$,$);
#522=IFCLOCALPLACEMENT(#17,#521);
#523=IFCSHAPEREPRESENTATION(#14,'Body','SweptSolid',(#519));
#524=IFCPRODUCTDEFINITIONSHAPE($,$,(#523));
#525=IFCPIPESEGMENT('3WIEtOwubUe8K2Sn5z7Cow',$,'NW-S3 \X2\2192\X0\ NW-S5',$,$,#522,#524,$,.RIGIDSEGMENT.);
#526=IFCPROPERTYSINGLEVALUE('NominalDiameter',$,IFCPOSITIVELENGTHMEASURE(100.),$);
#527=IFCPROPERTYSINGLEVALUE('InnerDiameter',$,IFCPOSITIVELENGTHMEASURE(96.),$);
#528=IFCPROPERTYSINGLEVALUE('Length',$,IFCPOSITIVELENGTHMEASURE(5000.3000000000002),$);
#529=IFCPROPERTYSET('3bMQJeU6rPHAD_Q4vWeSa_',$,'Pset_PipeSegmentTypeCommon',$,(#526,#527,#528));
#530=IFCRELDEFINESBYPROPERTIES('2Z1tNyYWzSdhqi$o_kUMG7',$,$,$,(#525),#529);
#531=IFCPROPERTYSINGLEVALUE('Gradient',$,IFCPOSITIVERATIOMEASURE(0.01),$);
#532=IFCPROPERTYSINGLEVALUE('InvertElevation',$,IFCLENGTHMEASURE(519173.29999999999),$);
#533=IFCPROPERTYSET('0jdY1T3tzKmP69GyVD2Zd5',$,'Pset_PipeSegmentOccurrence',$,(#531,#532));
#534=IFCRELDEFINESBYPROPERTIES('1sflz2VUPPm9kIGhbDRZ1m',$,$,$,(#525),#533);
#535=IFCPROPERTYSINGLEVALUE('Lage',$,IFCLABEL('Erdreich'),$);
#536=IFCPROPERTYSINGLEVALUE('Abfluss_l_s',$,IFCREAL(2.7000000000000002),$);
#537=IFCPROPERTYSINGLEVALUE('Sohle_unten_m',$,IFCREAL(519.12300000000005),$);
#538=IFCPROPERTYSET('3KJRKN_j1Hr97e$85K6hBR',$,'B17_Entwaesserung',$,(#535,#536,#537));
#539=IFCRELDEFINESBYPROPERTIES('285tBzZK9NuesphsKpEDOR',$,$,$,(#525),#538);
#540=IFCCARTESIANPOINT((10105.,24140.,519173.33100000001));
#541=IFCAXIS2PLACEMENT3D(#540,$,$);
#542=IFCLOCALPLACEMENT(#17,#541);
#543=IFCDISTRIBUTIONPORT('00STKzqezUSQJUQUgp_yqM',$,'Zulauf',$,$,#542,$,.SINK.,.PIPE.,.RAINWATER.);
#544=IFCCARTESIANPOINT((14840.,25747.,519123.32900000003));
#545=IFCAXIS2PLACEMENT3D(#544,$,$);
#546=IFCLOCALPLACEMENT(#17,#545);
#547=IFCDISTRIBUTIONPORT('3x1VxhzdzH3B_jI5SzPKsr',$,'Ablauf',$,$,#546,$,.SOURCE.,.PIPE.,.RAINWATER.);
#548=IFCRELNESTS('2f6BPkdevNBxBhCFMF4avg',$,$,$,#525,(#543,#547));
#549=IFCCIRCLEPROFILEDEF(.AREA.,$,$,55.);
#550=IFCCARTESIANPOINT((0.,0.,55.));
#551=IFCDIRECTION((0.54797190417535813,-0.83500480636244789,-0.049937616943974895));
#552=IFCDIRECTION((0.,1.,0.));
#553=IFCAXIS2PLACEMENT3D(#550,#551,#552);
#554=IFCDIRECTION((0.,0.,1.));
#555=IFCEXTRUDEDAREASOLID(#549,#553,#554,191.61566350379718);
#556=IFCCARTESIANPOINT((10000.,24300.,519182.90000000002));
#557=IFCAXIS2PLACEMENT3D(#556,$,$);
#558=IFCLOCALPLACEMENT(#17,#557);
#559=IFCSHAPEREPRESENTATION(#14,'Body','SweptSolid',(#555));
#560=IFCPRODUCTDEFINITIONSHAPE($,$,(#559));
#561=IFCPIPESEGMENT('3pBie_0urSqwdC4c9HxFAj',$,'HA1 \X2\2192\X0\ NW-S3',$,$,#558,#560,$,.RIGIDSEGMENT.);
#562=IFCPROPERTYSINGLEVALUE('NominalDiameter',$,IFCPOSITIVELENGTHMEASURE(100.),$);
#563=IFCPROPERTYSINGLEVALUE('InnerDiameter',$,IFCPOSITIVELENGTHMEASURE(96.),$);
#564=IFCPROPERTYSINGLEVALUE('Length',$,IFCPOSITIVELENGTHMEASURE(191.40000000000001),$);
#565=IFCPROPERTYSET('02K10f1$DUiOxfWFG6zluJ',$,'Pset_PipeSegmentTypeCommon',$,(#562,#563,#564));
#566=IFCRELDEFINESBYPROPERTIES('3KDbNtz3rQAgecsx$0Dtrc',$,$,$,(#561),#565);
#567=IFCPROPERTYSINGLEVALUE('Gradient',$,IFCPOSITIVERATIOMEASURE(0.050000000000000003),$);
#568=IFCPROPERTYSINGLEVALUE('InvertElevation',$,IFCLENGTHMEASURE(519182.90000000002),$);
#569=IFCPROPERTYSET('26qWrVyTrGnRAAc1mluaIm',$,'Pset_PipeSegmentOccurrence',$,(#567,#568));
#570=IFCRELDEFINESBYPROPERTIES('12t2D0abnKkeCsv9crUWHo',$,$,$,(#561),#569);
#571=IFCPROPERTYSINGLEVALUE('Lage',$,IFCLABEL('Erdreich'),$);
#572=IFCPROPERTYSINGLEVALUE('Abfluss_l_s',$,IFCREAL(0.626),$);
#573=IFCPROPERTYSINGLEVALUE('Sohle_unten_m',$,IFCREAL(519.173),$);
#574=IFCPROPERTYSET('3CMdKSXojUZAEuXbeHfKbK',$,'B17_Entwaesserung',$,(#571,#572,#573));
#575=IFCRELDEFINESBYPROPERTIES('0bW5tO3cHPuusrHDyjVJso',$,$,$,(#561),#574);
#576=IFCCARTESIANPOINT((10000.,24300.,519182.90000000002));
#577=IFCAXIS2PLACEMENT3D(#576,$,$);
#578=IFCLOCALPLACEMENT(#17,#577);
#579=IFCDISTRIBUTIONPORT('3pLxCqgn9SGBX7ZOzGUKAE',$,'Zulauf',$,$,#578,$,.SINK.,.PIPE.,.RAINWATER.);
#580=IFCCARTESIANPOINT((10105.,24140.,519173.33100000001));
#581=IFCAXIS2PLACEMENT3D(#580,$,$);
#582=IFCLOCALPLACEMENT(#17,#581);
#583=IFCDISTRIBUTIONPORT('2ea0cL5_1IPgcx_h5OarL1',$,'Ablauf',$,$,#582,$,.SOURCE.,.PIPE.,.RAINWATER.);
#584=IFCRELNESTS('3GSxoXB$1RBfg3mUTYp7MX',$,$,$,#561,(#579,#583));
#585=IFCCIRCLEPROFILEDEF(.AREA.,$,$,55.);
#586=IFCCARTESIANPOINT((0.,0.,55.));
#587=IFCDIRECTION((-0.034162886509344306,0.99931110100830756,-0.0144989857201766));
#588=IFCDIRECTION((0.,1.,0.));
#589=IFCAXIS2PLACEMENT3D(#586,#587,#588);
#590=IFCDIRECTION((0.,0.,1.));
#591=IFCEXTRUDEDAREASOLID(#585,#589,#590,5356.6902184903283);
#592=IFCCARTESIANPOINT((15023.,20394.,519200.995));
#593=IFCAXIS2PLACEMENT3D(#592,$,$);
#594=IFCLOCALPLACEMENT(#17,#593);
#595=IFCSHAPEREPRESENTATION(#14,'Body','SweptSolid',(#591));
#596=IFCPRODUCTDEFINITIONSHAPE($,$,(#595));
#597=IFCPIPESEGMENT('0QTzTC8aLN7xuFbMIAe88u',$,'NW-S4 \X2\2192\X0\ NW-S5',$,$,#594,#596,$,.RIGIDSEGMENT.);
#598=IFCPROPERTYSINGLEVALUE('NominalDiameter',$,IFCPOSITIVELENGTHMEASURE(100.),$);
#599=IFCPROPERTYSINGLEVALUE('InnerDiameter',$,IFCPOSITIVELENGTHMEASURE(96.),$);
#600=IFCPROPERTYSINGLEVALUE('Length',$,IFCPOSITIVELENGTHMEASURE(5356.1000000000004),$);
#601=IFCPROPERTYSET('206eXT2MnPcf1yybwMX9XK',$,'Pset_PipeSegmentTypeCommon',$,(#598,#599,#600));
#602=IFCRELDEFINESBYPROPERTIES('07rTwSw3DJ7eFyMoaNaqaV',$,$,$,(#597),#601);
#603=IFCPROPERTYSINGLEVALUE('Gradient',$,IFCPOSITIVERATIOMEASURE(0.014501),$);
#604=IFCPROPERTYSINGLEVALUE('InvertElevation',$,IFCLENGTHMEASURE(519201.),$);
#605=IFCPROPERTYSET('2WGY2EFvHRNwyYrUalzyFR',$,'Pset_PipeSegmentOccurrence',$,(#603,#604));
#606=IFCRELDEFINESBYPROPERTIES('1Y6nZZZ8XIZBDSqUI7QVc1',$,$,$,(#597),#605);
#607=IFCPROPERTYSINGLEVALUE('Lage',$,IFCLABEL('Erdreich'),$);
#608=IFCPROPERTYSINGLEVALUE('Abfluss_l_s',$,IFCREAL(2.0739999999999998),$);
#609=IFCPROPERTYSINGLEVALUE('Sohle_unten_m',$,IFCREAL(519.12300000000005),$);
#610=IFCPROPERTYSET('1VFFTefGXLru4b$cGlUtMP',$,'B17_Entwaesserung',$,(#607,#608,#609));
#611=IFCRELDEFINESBYPROPERTIES('2vXr1zHWLUTfhQeJzFCuXa',$,$,$,(#597),#610);
#612=IFCCARTESIANPOINT((15023.,20394.,519200.995));
#613=IFCAXIS2PLACEMENT3D(#612,$,$);
#614=IFCLOCALPLACEMENT(#17,#613);
#615=IFCDISTRIBUTIONPORT('2$TIffrzrHz9AhDkV0sqEO',$,'Zulauf',$,$,#614,$,.SINK.,.PIPE.,.RAINWATER.);
#616=IFCCARTESIANPOINT((14840.,25747.,519123.32900000003));
#617=IFCAXIS2PLACEMENT3D(#616,$,$);
#618=IFCLOCALPLACEMENT(#17,#617);
#619=IFCDISTRIBUTIONPORT('1BR2MGNGjLfxWsNUg42dxp',$,'Ablauf',$,$,#618,$,.SOURCE.,.PIPE.,.RAINWATER.);
#620=IFCRELNESTS('0OwAk962DMdxeQMpxFFmUH',$,$,$,#597,(#615,#619));
#621=IFCCIRCLEPROFILEDEF(.AREA.,$,$,55.);
#622=IFCCARTESIANPOINT((0.,0.,55.));
#623=IFCDIRECTION((-0.87644463324276067,-0.47890608606899487,-0.049937616943936419));
#624=IFCDIRECTION((0.,1.,0.));
#625=IFCAXIS2PLACEMENT3D(#622,#623,#624);
#626=IFCDIRECTION((0.,0.,1.));
#627=IFCEXTRUDEDAREASOLID(#621,#625,#626,430.14696616389449);
#628=IFCCARTESIANPOINT((15400.,20600.,519222.47600000002));
#629=IFCAXIS2PLACEMENT3D(#628,$,$);
#630=IFCLOCALPLACEMENT(#17,#629);
#631=IFCSHAPEREPRESENTATION(#14,'Body','SweptSolid',(#627));
#632=IFCPRODUCTDEFINITIONSHAPE($,$,(#631));
#633=IFCPIPESEGMENT('2xRiX5C5vOCxyXp0_G_EQV',$,'RF4 \X2\2192\X0\ NW-S4',$,$,#630,#632,$,.RIGIDSEGMENT.);
#634=IFCPROPERTYSINGLEVALUE('NominalDiameter',$,IFCPOSITIVELENGTHMEASURE(100.),$);
#635=IFCPROPERTYSINGLEVALUE('InnerDiameter',$,IFCPOSITIVELENGTHMEASURE(96.),$);
#636=IFCPROPERTYSINGLEVALUE('Length',$,IFCPOSITIVELENGTHMEASURE(429.60000000000002),$);
#637=IFCPROPERTYSET('036RRFCTPVsOqXiHiGBltV',$,'Pset_PipeSegmentTypeCommon',$,(#634,#635,#636));
#638=IFCRELDEFINESBYPROPERTIES('3UXmOtdxvPageZa0ngM_Js',$,$,$,(#633),#637);
#639=IFCPROPERTYSINGLEVALUE('Gradient',$,IFCPOSITIVERATIOMEASURE(0.050000000000000003),$);
#640=IFCPROPERTYSINGLEVALUE('InvertElevation',$,IFCLENGTHMEASURE(519222.5),$);
#641=IFCPROPERTYSET('14DC8IbSbQOx_WPkyes2uP',$,'Pset_PipeSegmentOccurrence',$,(#639,#640));
#642=IFCRELDEFINESBYPROPERTIES('1Whc$fAbTKrwwZinSyJBD5',$,$,$,(#633),#641);
#643=IFCPROPERTYSINGLEVALUE('Lage',$,IFCLABEL('Erdreich'),$);
#644=IFCPROPERTYSINGLEVALUE('Abfluss_l_s',$,IFCREAL(1.0369999999999999),$);
#645=IFCPROPERTYSINGLEVALUE('Sohle_unten_m',$,IFCREAL(519.20100000000002),$);
#646=IFCPROPERTYSET('2V5Kkv6YbSgucjNmWJXqcq',$,'B17_Entwaesserung',$,(#643,#644,#645));
#647=IFCRELDEFINESBYPROPERTIES('0iKbIoExTH2Rj$SX1BN5gJ',$,$,$,(#633),#646);
#648=IFCCARTESIANPOINT((15400.,20600.,519222.47600000002));
#649=IFCAXIS2PLACEMENT3D(#648,$,$);
#650=IFCLOCALPLACEMENT(#17,#649);
#651=IFCDISTRIBUTIONPORT('3WIoeXukzKQvjzfF2Zm2h_',$,'Zulauf',$,$,#650,$,.SINK.,.PIPE.,.RAINWATER.);
#652=IFCCARTESIANPOINT((15023.,20394.,519200.995));
#653=IFCAXIS2PLACEMENT3D(#652,$,$);
#654=IFCLOCALPLACEMENT(#17,#653);
#655=IFCDISTRIBUTIONPORT('2OnHItx_5Ve8uAwbNYOypz',$,'Ablauf',$,$,#654,$,.SOURCE.,.PIPE.,.RAINWATER.);
#656=IFCRELNESTS('0tCKqCjr5QGQgEfmkWyOWf',$,$,$,#633,(#651,#655));
#657=IFCCIRCLEPROFILEDEF(.AREA.,$,$,260.);
#658=IFCCARTESIANPOINT((0.,0.,-150.));
#659=IFCAXIS2PLACEMENT3D(#658,$,$);
#660=IFCDIRECTION((0.,0.,1.));
#661=IFCEXTRUDEDAREASOLID(#657,#659,#660,1282.544678082354);
#662=IFCCARTESIANPOINT((4036.,20386.,519254.995));
#663=IFCAXIS2PLACEMENT3D(#662,$,$);
#664=IFCLOCALPLACEMENT(#17,#663);
#665=IFCSHAPEREPRESENTATION(#14,'Body','SweptSolid',(#661));
#666=IFCPRODUCTDEFINITIONSHAPE($,$,(#665));
#667=IFCDISTRIBUTIONCHAMBERELEMENT('14dwHJOHPPa8tfWwsqsMCb',$,'NW-S1',$,$,#664,#666,$,.INSPECTIONCHAMBER.);
#668=IFCPROPERTYSINGLEVALUE('InspectionChamberInvertLevel',$,IFCLENGTHMEASURE(519255.),$);
#669=IFCPROPERTYSINGLEVALUE('ChamberLengthOrRadius',$,IFCPOSITIVELENGTHMEASURE(200.),$);
#670=IFCPROPERTYSINGLEVALUE('AccessCoverLoadRating',$,IFCTEXT('B 125 (Beispiel)'),$);
#671=IFCPROPERTYSET('1VhPIuxqnKKgAVCipSb8$p',$,'Pset_DistributionChamberElementTypeInspectionChamber',$,(#668,#669,#670));
#672=IFCRELDEFINESBYPROPERTIES('0C2ITFZmrLv8BHJlvxWPW$',$,$,$,(#667),#671);
#673=IFCCARTESIANPOINT((4036.,20386.,519254.995));
#674=IFCAXIS2PLACEMENT3D(#673,$,$);
#675=IFCLOCALPLACEMENT(#17,#674);
#676=IFCDISTRIBUTIONPORT('3iXlWFN21Q$fBJ5b5xNQow',$,'Zulauf 1',$,$,#675,$,.SINK.,.PIPE.,.RAINWATER.);
#677=IFCRELCONNECTSPORTS('1SFv9vhQvV0xSEvjT8VnCF',$,$,$,#295,#676,$);
#678=IFCCARTESIANPOINT((4036.,20386.,519254.995));
#679=IFCAXIS2PLACEMENT3D(#678,$,$);
#680=IFCLOCALPLACEMENT(#17,#679);
#681=IFCDISTRIBUTIONPORT('07lSj0D49NYOM7AiSrsk8t',$,'Zulauf 2',$,$,#680,$,.SINK.,.PIPE.,.RAINWATER.);
#682=IFCRELCONNECTSPORTS('3c6qse$tHVJPOf$Y$W4SdM',$,$,$,#511,#681,$);
#683=IFCCARTESIANPOINT((4036.,20386.,519254.995));
#684=IFCAXIS2PLACEMENT3D(#683,$,$);
#685=IFCLOCALPLACEMENT(#17,#684);
#686=IFCDISTRIBUTIONPORT('1niL1uaSjLIgXIk6kK_Edr',$,'Ablauf',$,$,#685,$,.SOURCE.,.PIPE.,.RAINWATER.);
#687=IFCRELCONNECTSPORTS('02PjTzhnbP4RGwX9MAMe5I',$,$,$,#686,#471,$);
#688=IFCRELNESTS('38OO8Ov$bVHw5JMaAgrRed',$,$,$,#667,(#676,#681,#686));
#689=IFCCIRCLEPROFILEDEF(.AREA.,$,$,260.);
#690=IFCCARTESIANPOINT((0.,0.,-150.));
#691=IFCAXIS2PLACEMENT3D(#690,$,$);
#692=IFCDIRECTION((0.,0.,1.));
#693=IFCEXTRUDEDAREASOLID(#689,#691,#692,1332.9168868193847);
#694=IFCCARTESIANPOINT((3950.,22050.,519238.33299999998));
#695=IFCAXIS2PLACEMENT3D(#694,$,$);
#696=IFCLOCALPLACEMENT(#17,#695);
#697=IFCSHAPEREPRESENTATION(#14,'Body','SweptSolid',(#693));
#698=IFCPRODUCTDEFINITIONSHAPE($,$,(#697));
#699=IFCDISTRIBUTIONCHAMBERELEMENT('0Cjk1ENUHGjxO9Rc0Kqamx',$,'NW-S2',$,$,#696,#698,$,.INSPECTIONCHAMBER.);
#700=IFCPROPERTYSINGLEVALUE('InspectionChamberInvertLevel',$,IFCLENGTHMEASURE(519238.29999999999),$);
#701=IFCPROPERTYSINGLEVALUE('ChamberLengthOrRadius',$,IFCPOSITIVELENGTHMEASURE(200.),$);
#702=IFCPROPERTYSINGLEVALUE('AccessCoverLoadRating',$,IFCTEXT('B 125 (Beispiel)'),$);
#703=IFCPROPERTYSET('3$2u$v4svOfgvrVxUvPvkR',$,'Pset_DistributionChamberElementTypeInspectionChamber',$,(#700,#701,#702));
#704=IFCRELDEFINESBYPROPERTIES('3cznn66o9UeBm8lh5Jv2F1',$,$,$,(#699),#703);
#705=IFCCARTESIANPOINT((3950.,22050.,519238.33299999998));
#706=IFCAXIS2PLACEMENT3D(#705,$,$);
#707=IFCLOCALPLACEMENT(#17,#706);
#708=IFCDISTRIBUTIONPORT('3R9RlWbrDUsxwP18asVpM2',$,'Zulauf 1',$,$,#707,$,.SINK.,.PIPE.,.RAINWATER.);
#709=IFCRELCONNECTSPORTS('3SkRmPKY5UM9yG_ddjHgI$',$,$,$,#475,#708,$);
#710=IFCCARTESIANPOINT((3950.,22050.,519238.33299999998));
#711=IFCAXIS2PLACEMENT3D(#710,$,$);
#712=IFCLOCALPLACEMENT(#17,#711);
#713=IFCDISTRIBUTIONPORT('0NezZFjLjUwhakZZ7uTFUf',$,'Ablauf',$,$,#712,$,.SOURCE.,.PIPE.,.RAINWATER.);
#714=IFCRELCONNECTSPORTS('3ylHYbc89VCB5xVHxXsJ6w',$,$,$,#713,#327,$);
#715=IFCRELNESTS('3tUhXn5qvIbvMgy3gxmTO9',$,$,$,#699,(#708,#713));
#716=IFCCIRCLEPROFILEDEF(.AREA.,$,$,360.);
#717=IFCCARTESIANPOINT((0.,0.,-150.));
#718=IFCAXIS2PLACEMENT3D(#717,$,$);
#719=IFCDIRECTION((0.,0.,1.));
#720=IFCEXTRUDEDAREASOLID(#716,#718,#719,1408.9435214142668);
#721=IFCCARTESIANPOINT((10105.,24140.,519173.33100000001));
#722=IFCAXIS2PLACEMENT3D(#721,$,$);
#723=IFCLOCALPLACEMENT(#17,#722);
#724=IFCSHAPEREPRESENTATION(#14,'Body','SweptSolid',(#720));
#725=IFCPRODUCTDEFINITIONSHAPE($,$,(#724));
#726=IFCDISTRIBUTIONCHAMBERELEMENT('3qmKBjCJXVgRrrMcX9X4IY',$,'NW-S3',$,$,#723,#725,$,.INSPECTIONCHAMBER.);
#727=IFCPROPERTYSINGLEVALUE('InspectionChamberInvertLevel',$,IFCLENGTHMEASURE(519173.29999999999),$);
#728=IFCPROPERTYSINGLEVALUE('ChamberLengthOrRadius',$,IFCPOSITIVELENGTHMEASURE(300.),$);
#729=IFCPROPERTYSINGLEVALUE('AccessCoverLoadRating',$,IFCTEXT('B 125 (Beispiel)'),$);
#730=IFCPROPERTYSET('1i5VRYIq9GoARQgs3jzxUl',$,'Pset_DistributionChamberElementTypeInspectionChamber',$,(#727,#728,#729));
#731=IFCRELDEFINESBYPROPERTIES('124OPUWUrHaecmOdBGzKUA',$,$,$,(#726),#730);
#732=IFCCARTESIANPOINT((10105.,24140.,519173.33100000001));
#733=IFCAXIS2PLACEMENT3D(#732,$,$);
#734=IFCLOCALPLACEMENT(#17,#733);
#735=IFCDISTRIBUTIONPORT('1ZypE9WF9VKRO4wjIzionG',$,'Zulauf 1',$,$,#734,$,.SINK.,.PIPE.,.RAINWATER.);
#736=IFCRELCONNECTSPORTS('3$gTPDw6PGCxVj33ZTQbjv',$,$,$,#331,#735,$);
#737=IFCCARTESIANPOINT((10105.,24140.,519173.33100000001));
#738=IFCAXIS2PLACEMENT3D(#737,$,$);
#739=IFCLOCALPLACEMENT(#17,#738);
#740=IFCDISTRIBUTIONPORT('0eFMxDw7bQrAMb9v8fNb7y',$,'Zulauf 2',$,$,#739,$,.SINK.,.PIPE.,.RAINWATER.);
#741=IFCRELCONNECTSPORTS('1JCU8ywJrOCBoiqLphtBoU',$,$,$,#583,#740,$);
#742=IFCCARTESIANPOINT((10105.,24140.,519173.33100000001));
#743=IFCAXIS2PLACEMENT3D(#742,$,$);
#744=IFCLOCALPLACEMENT(#17,#743);
#745=IFCDISTRIBUTIONPORT('1T19QNJUfTX9I9ITJg8MS9',$,'Ablauf',$,$,#744,$,.SOURCE.,.PIPE.,.RAINWATER.);
#746=IFCRELCONNECTSPORTS('0qv$nZZRnMF9rosMbdv2wJ',$,$,$,#745,#543,$);
#747=IFCRELNESTS('0GFxsEmzPI5AkGkVzvDB2J',$,$,$,#726,(#735,#740,#745));
#748=IFCCIRCLEPROFILEDEF(.AREA.,$,$,260.);
#749=IFCCARTESIANPOINT((0.,0.,-150.));
#750=IFCAXIS2PLACEMENT3D(#749,$,$);
#751=IFCDIRECTION((0.,0.,1.));
#752=IFCEXTRUDEDAREASOLID(#748,#750,#751,1281.7696203574314);
#753=IFCCARTESIANPOINT((15023.,20394.,519200.995));
#754=IFCAXIS2PLACEMENT3D(#753,$,$);
#755=IFCLOCALPLACEMENT(#17,#754);
#756=IFCSHAPEREPRESENTATION(#14,'Body','SweptSolid',(#752));
#757=IFCPRODUCTDEFINITIONSHAPE($,$,(#756));
#758=IFCDISTRIBUTIONCHAMBERELEMENT('01AR_dNa5L7uf6268rm5Tf',$,'NW-S4',$,$,#755,#757,$,.INSPECTIONCHAMBER.);
#759=IFCPROPERTYSINGLEVALUE('InspectionChamberInvertLevel',$,IFCLENGTHMEASURE(519201.),$);
#760=IFCPROPERTYSINGLEVALUE('ChamberLengthOrRadius',$,IFCPOSITIVELENGTHMEASURE(200.),$);
#761=IFCPROPERTYSINGLEVALUE('AccessCoverLoadRating',$,IFCTEXT('B 125 (Beispiel)'),$);
#762=IFCPROPERTYSET('0dFSR_p$zL2RyFLhIuOhXj',$,'Pset_DistributionChamberElementTypeInspectionChamber',$,(#759,#760,#761));
#763=IFCRELDEFINESBYPROPERTIES('3tw5iDPfHIWuQOk1_v7mtv',$,$,$,(#758),#762);
#764=IFCCARTESIANPOINT((15023.,20394.,519200.995));
#765=IFCAXIS2PLACEMENT3D(#764,$,$);
#766=IFCLOCALPLACEMENT(#17,#765);
#767=IFCDISTRIBUTIONPORT('05UumHHP5PuwUrqtvmhQ4B',$,'Zulauf 1',$,$,#766,$,.SINK.,.PIPE.,.RAINWATER.);
#768=IFCRELCONNECTSPORTS('0h6ayD3PnLQPj3180wIyXS',$,$,$,#439,#767,$);
#769=IFCCARTESIANPOINT((15023.,20394.,519200.995));
#770=IFCAXIS2PLACEMENT3D(#769,$,$);
#771=IFCLOCALPLACEMENT(#17,#770);
#772=IFCDISTRIBUTIONPORT('0Uybqn5MTT3wxf0P$GDklx',$,'Zulauf 2',$,$,#771,$,.SINK.,.PIPE.,.RAINWATER.);
#773=IFCRELCONNECTSPORTS('2X43SeIlXTOQwu5z67FKPt',$,$,$,#655,#772,$);
#774=IFCCARTESIANPOINT((15023.,20394.,519200.995));
#775=IFCAXIS2PLACEMENT3D(#774,$,$);
#776=IFCLOCALPLACEMENT(#17,#775);
#777=IFCDISTRIBUTIONPORT('0tDpERWSHLaejHhTzkGqe0',$,'Ablauf',$,$,#776,$,.SOURCE.,.PIPE.,.RAINWATER.);
#778=IFCRELCONNECTSPORTS('1rMRg29NvKSA6dSMyINN2M',$,$,$,#777,#615,$);
#779=IFCRELNESTS('2USJQwanPLGOZkVxpkNSFg',$,$,$,#758,(#767,#772,#777));
#780=IFCCIRCLEPROFILEDEF(.AREA.,$,$,360.);
#781=IFCCARTESIANPOINT((0.,0.,-150.));
#782=IFCAXIS2PLACEMENT3D(#781,$,$);
#783=IFCDIRECTION((0.,0.,1.));
#784=IFCEXTRUDEDAREASOLID(#780,#782,#783,1467.4111953427428);
#785=IFCCARTESIANPOINT((14840.,25747.,519123.32900000003));
#786=IFCAXIS2PLACEMENT3D(#785,$,$);
#787=IFCLOCALPLACEMENT(#17,#786);
#788=IFCSHAPEREPRESENTATION(#14,'Body','SweptSolid',(#784));
#789=IFCPRODUCTDEFINITIONSHAPE($,$,(#788));
#790=IFCDISTRIBUTIONCHAMBERELEMENT('09GK9_6ZTI69QxyQjQbXH4',$,'NW-S5',$,$,#787,#789,$,.INSPECTIONCHAMBER.);
#791=IFCPROPERTYSINGLEVALUE('InspectionChamberInvertLevel',$,IFCLENGTHMEASURE(519123.29999999999),$);
#792=IFCPROPERTYSINGLEVALUE('ChamberLengthOrRadius',$,IFCPOSITIVELENGTHMEASURE(300.),$);
#793=IFCPROPERTYSINGLEVALUE('AccessCoverLoadRating',$,IFCTEXT('B 125 (Beispiel)'),$);
#794=IFCPROPERTYSET('3RH$_0KpHSwuEVBeFVA84h',$,'Pset_DistributionChamberElementTypeInspectionChamber',$,(#791,#792,#793));
#795=IFCRELDEFINESBYPROPERTIES('3Lkd9PAdPK_xBSUQe$JN_Q',$,$,$,(#790),#794);
#796=IFCCARTESIANPOINT((14840.,25747.,519123.32900000003));
#797=IFCAXIS2PLACEMENT3D(#796,$,$);
#798=IFCLOCALPLACEMENT(#17,#797);
#799=IFCDISTRIBUTIONPORT('3SUxqYhkzUZfyZ7bNEmozB',$,'Zulauf 1',$,$,#798,$,.SINK.,.PIPE.,.RAINWATER.);
#800=IFCRELCONNECTSPORTS('3NJU2m$4HQ9hK4Ba0G_ZvX',$,$,$,#547,#799,$);
#801=IFCCARTESIANPOINT((14840.,25747.,519123.32900000003));
#802=IFCAXIS2PLACEMENT3D(#801,$,$);
#803=IFCLOCALPLACEMENT(#17,#802);
#804=IFCDISTRIBUTIONPORT('0p8GacuaDMsf$X2tDo68xO',$,'Zulauf 2',$,$,#803,$,.SINK.,.PIPE.,.RAINWATER.);
#805=IFCRELCONNECTSPORTS('3qniXBq_LMiuAjzwnMg7oL',$,$,$,#619,#804,$);
#806=IFCCARTESIANPOINT((14840.,25747.,519123.32900000003));
#807=IFCAXIS2PLACEMENT3D(#806,$,$);
#808=IFCLOCALPLACEMENT(#17,#807);
#809=IFCDISTRIBUTIONPORT('09U0r94HfOAOr74m5XQGDH',$,'Ablauf',$,$,#808,$,.SOURCE.,.PIPE.,.RAINWATER.);
#810=IFCRELCONNECTSPORTS('2voTy9n6fIHxw6VxrsAo8y',$,$,$,#809,#399,$);
#811=IFCRELNESTS('2K_J7zU69M1uUdJSvmNKNk',$,$,$,#790,(#799,#804,#809));
#812=IFCCARTESIANPOINT((14850.,25750.,519123.245));
#813=IFCAXIS2PLACEMENT3D(#812,$,$);
#814=IFCLOCALPLACEMENT(#17,#813);
#815=IFCPIPEFITTING('2BVkiSmOLLGvwwOGBUgwJG',$,'NW-B1',$,$,#814,$,$,.BEND.);
#816=IFCCARTESIANPOINT((14850.,25750.,519123.245));
#817=IFCAXIS2PLACEMENT3D(#816,$,$);
#818=IFCLOCALPLACEMENT(#17,#817);
#819=IFCDISTRIBUTIONPORT('1E9HEitwDJUwcuP7vfalGo',$,'Zulauf 1',$,$,#818,$,.SINK.,.PIPE.,.RAINWATER.);
#820=IFCRELCONNECTSPORTS('3gjB0fR6bStRxWyYN3MTsx',$,$,$,#403,#819,$);
#821=IFCCARTESIANPOINT((14850.,25750.,519123.245));
#822=IFCAXIS2PLACEMENT3D(#821,$,$);
#823=IFCLOCALPLACEMENT(#17,#822);
#824=IFCDISTRIBUTIONPORT('0$aci2D2jJPxc6qy2NhUPZ',$,'Ablauf',$,$,#823,$,.SOURCE.,.PIPE.,.RAINWATER.);
#825=IFCRELCONNECTSPORTS('2wbrnWc4zRHPi_2lRjc275',$,$,$,#824,#363,$);
#826=IFCRELNESTS('1OB$0FofjKQRh5x$gOck2b',$,$,$,#815,(#819,#824));
#827=IFCCIRCLEPROFILEDEF(.AREA.,$,$,500.);
#828=IFCCARTESIANPOINT((0.,0.,-300.));
#829=IFCAXIS2PLACEMENT3D(#828,$,$);
#830=IFCDIRECTION((0.,0.,1.));
#831=IFCEXTRUDEDAREASOLID(#827,#829,#830,1634.6944910913408);
#832=IFCCARTESIANPOINT((15600.,26400.,519115.30599999998));
#833=IFCAXIS2PLACEMENT3D(#832,$,$);
#834=IFCLOCALPLACEMENT(#17,#833);
#835=IFCSHAPEREPRESENTATION(#14,'Body','SweptSolid',(#831));
#836=IFCPRODUCTDEFINITIONSHAPE($,$,(#835));
#837=IFCINTERCEPTOR('1hO_mJr_DIRuWB7CXqn8Ce',$,'NW-FS',$,'Filterschacht Niederschlagswasser (Vorreinigung)',#834,#836,$,.USERDEFINED.);
#838=IFCPROPERTYSINGLEVALUE('NominalBodyDepth',$,IFCPOSITIVELENGTHMEASURE(1634.7),$);
#839=IFCPROPERTYSET('34oyc50PjGJBAZ5LZjCkNx',$,'Pset_InterceptorTypeCommon',$,(#838));
#840=IFCRELDEFINESBYPROPERTIES('17$HCfB_LNAAVwdYpnn6zv',$,$,$,(#837),#839);
#841=IFCCARTESIANPOINT((15600.,26400.,519115.30599999998));
#842=IFCAXIS2PLACEMENT3D(#841,$,$);
#843=IFCLOCALPLACEMENT(#17,#842);
#844=IFCDISTRIBUTIONPORT('3Iaoi4KZnVWBnPjUy9F4GR',$,'Zulauf 1',$,$,#843,$,.SINK.,.PIPE.,.RAINWATER.);
#845=IFCRELCONNECTSPORTS('0Ja4EksWnJoRxtrpF6DRTc',$,$,$,#367,#844,$);
#846=IFCCARTESIANPOINT((15600.,26400.,519115.30599999998));
#847=IFCAXIS2PLACEMENT3D(#846,$,$);
#848=IFCLOCALPLACEMENT(#17,#847);
#849=IFCDISTRIBUTIONPORT('1r2fDgg09IKuscNdxfXndq',$,'Ablauf',$,$,#848,$,.SOURCE.,.PIPE.,.RAINWATER.);
#850=IFCRELNESTS('3u4mWmPoDQ8u4cIyT6SH$l',$,$,$,#837,(#844,#849));
#851=IFCCARTESIANPOINT((4800.,400.00000000000034));
#852=IFCAXIS2PLACEMENT2D(#851,$);
#853=IFCRECTANGLEPROFILEDEF(.AREA.,$,#852,9600.,800.00000000000068);
#854=IFCCARTESIANPOINT((0.,0.,0.));
#855=IFCAXIS2PLACEMENT3D(#854,$,$);
#856=IFCDIRECTION((0.,0.,1.));
#857=IFCEXTRUDEDAREASOLID(#853,#855,#856,660.);
#858=IFCCARTESIANPOINT((5000.,26000.,518405.));
#859=IFCAXIS2PLACEMENT3D(#858,$,$);
#860=IFCLOCALPLACEMENT(#17,#859);
#861=IFCSHAPEREPRESENTATION(#14,'Body','SweptSolid',(#857));
#862=IFCPRODUCTDEFINITIONSHAPE($,$,(#861));
#863=IFCDISTRIBUTIONCHAMBERELEMENT('3$EiEUWGvQxfMehGF9TwzT',$,'Rigole (F\X2\00FC\X0\llk\X2\00F6\X0\rper)',$,'Versickerungsrigole',#860,#862,$,.USERDEFINED.);
#864=IFCPROPERTYSINGLEVALUE('Bemessung',$,IFCLABEL('DWA-A 138-1 (2024), einfaches Verfahren, T = 5 a (Beispielreihe)'),$);
#865=IFCPROPERTYSINGLEVALUE('kf_m_s',$,IFCREAL(1.0000000000000001E-05),$);
#866=IFCPROPERTYSINGLEVALUE('ki_m_s',$,IFCREAL(7.2000000000000014E-06),$);
#867=IFCPROPERTYSINGLEVALUE('Speicherkoeffizient',$,IFCREAL(0.94999999999999996),$);
#868=IFCPROPERTYSINGLEVALUE('V_erf_m3',$,IFCREAL(4.6059999999999999),$);
#869=IFCPROPERTYSINGLEVALUE('V_vorh_m3',$,IFCREAL(4.8150000000000004),$);
#870=IFCPROPERTYSINGLEVALUE('A_C_m2',$,IFCREAL(131.19999999999999),$);
#871=IFCPROPERTYSINGLEVALUE('MHGW_m',$,IFCREAL(515.),$);
#872=IFCPROPERTYSINGLEVALUE('Sickerraum_m',$,IFCREAL(3.4049999999999998),$);
#873=IFCPROPERTYSINGLEVALUE('Entleerung_h',$,IFCREAL(12.220000000000001),$);
#874=IFCPROPERTYSET('0EJUf6tyzLZvs3EnX7gG4x',$,'B17_Versickerung',$,(#864,#865,#866,#867,#868,#869,#870,#871,#872,#873));
#875=IFCRELDEFINESBYPROPERTIES('0dCntACtbOdeD2_6bymPHl',$,$,$,(#863),#874);
#876=IFCCARTESIANPOINT((14600.,26400.,519065.));
#877=IFCAXIS2PLACEMENT3D(#876,$,$);
#878=IFCLOCALPLACEMENT(#17,#877);
#879=IFCDISTRIBUTIONPORT('1AwS9YgqPS0ef3cp1LhmB1',$,'Zulauf',$,$,#878,$,.SINK.,.PIPE.,.RAINWATER.);
#880=IFCRELNESTS('0Sxyna26fSqA2TBXbw7NV4',$,$,$,#863,(#879));
#881=IFCRELCONNECTSPORTS('2rggw0OX5ONhoQojyOoaYW',$,$,$,#849,#879,$);
#882=IFCRELASSOCIATESMATERIAL('0mrwo0CxTI1xCDSZ$54SCX',$,$,$,(#55,#91,#127,#163,#248,#273,#309,#345,#381,#417,#453,#489,#525,#561,#597,#633),#42);
#883=IFCRELASSIGNSTOGROUP('1kZdjzZx5IahoK3y94NzUU',$,$,$,(#55,#91,#127,#163,#190,#218,#248),$,#38);
#884=IFCRELASSIGNSTOGROUP('3rXfsqTCfUXfaJLgBqeBiz',$,$,$,(#273,#309,#345,#381,#417,#453,#489,#525,#561,#597,#633,#667,#699,#726,#758,#790,#815,#837,#863),$,#40);
#885=IFCRELCONTAINEDINSPATIALSTRUCTURE('3xZT2doC5JsQKwgyqpLbvz',$,$,$,(#37,#55,#91,#127,#163,#190,#218,#248,#273,#309,#345,#381,#417,#453,#489,#525,#561,#597,#633,#667,#699,#726,#758,#790,#815,#837,#863),#18);
ENDSEC;
END-ISO-10303-21;
