<svg xmlns="http://www.w3.org/2000/svg" width="730" height="685" viewBox="0 0 730 685" font-family="sans-serif" font-size="9">
<rect width="730" height="685" fill="#fff"/>
<polyline points="50.0,154.5 250.0,168.8 297.0,172.1 505.0,187.0 620.0,190.0" fill="none" stroke="#3a7d2c" stroke-width="1.5"/>
<polyline points="50.0,274.5 250.0,288.8 297.0,292.1 505.0,307.0" fill="none" stroke="#6fa8dc" stroke-dasharray="4,3"/>
<polyline points="50.0,242.7 250.0,282.7 297.0,292.1 505.0,307.0 620.0,505.0" fill="none" stroke="#8b4513" stroke-width="2.5"/>
<polyline points="50.0,190.0 620.0,190.0" fill="none" stroke="#7b3294" stroke-dasharray="8,4"/>
<text x="52.0" y="187.0" fill="#7b3294">Rückstauebene 519.95</text>
<polyline points="50.0,130.0 250.0,130.0" fill="none" stroke="#333" stroke-width="1.2"/>
<text x="52.0" y="127.0" fill="#333">FFB EG 520.55</text>
<line x1="50.0" y1="242.7" x2="50.0" y2="154.5" stroke="#999" stroke-width="0.8"/>
<text x="52.0" y="253.7" fill="#8b4513">FL2 519.42</text>
<line x1="250.0" y1="282.7" x2="250.0" y2="168.8" stroke="#999" stroke-width="0.8"/>
<text x="252.0" y="304.7" fill="#8b4513">SW-RÖ1 519.02</text>
<line x1="297.0" y1="292.1" x2="297.0" y2="172.1" stroke="#999" stroke-width="0.8"/>
<text x="299.0" y="325.1" fill="#8b4513">SW-W1 518.93</text>
<line x1="505.0" y1="307.0" x2="505.0" y2="187.0" stroke="#999" stroke-width="0.8"/>
<text x="507.0" y="318.0" fill="#8b4513">SW-RS 518.78</text>
<line x1="620.0" y1="505.0" x2="620.0" y2="190.0" stroke="#999" stroke-width="0.8"/>
<text x="622.0" y="527.0" fill="#8b4513">Einlass 516.80</text>
<text x="50" y="675" font-weight="bold">B17 Abwicklung SW-Hauptstrang, Szenario „keller“ (Länge 1:40, Höhe 1:10 überhöht; grün GOK, blau Frostgrenze 1,20 m)</text>
</svg>