ISO-10303-21;
HEADER;
FILE_DESCRIPTION(('ViewDefinition [NotAssigned]'),'2;1');
FILE_NAME('b17_bodenplatte.ifc','2026-09-27T12:00:00',('Prototyp B17'),('Doktorarbeit Holzbau (Beispiel)'),'IfcOpenShell 0.8.5-1c5b825','IfcOpenShell 0.8.5-1c5b825','keine');
FILE_SCHEMA(('IFC4X3_ADD2'));
ENDSEC;
DATA;
#1=IFCPROJECT('2yRQu8F3LR1RoiOcwxWPdS',$,'B17 Grundst\X2\00FC\X0\cksentw\X2\00E4\X0\sserung (Beispiel)',$,$,$,$,(#13),#8);
#2=IFCSIUNIT(*,.LENGTHUNIT.,.MILLI.,.METRE.);
#3=IFCSIUNIT(*,.AREAUNIT.,$,.SQUARE_METRE.);
#4=IFCSIUNIT(*,.VOLUMEUNIT.,$,.CUBIC_METRE.);
#5=IFCSIUNIT(*,.PLANEANGLEUNIT.,$,.RADIAN.);
#6=IFCSIUNIT(*,.MASSUNIT.,.KILO.,.GRAM.);
#7=IFCSIUNIT(*,.THERMODYNAMICTEMPERATUREUNIT.,$,.KELVIN.);
#8=IFCUNITASSIGNMENT((#2,#3,#4,#5,#6,#7));
#9=IFCCARTESIANPOINT((0.,0.,0.));
#10=IFCDIRECTION((0.,0.,1.));
#11=IFCDIRECTION((1.,0.,0.));
#12=IFCAXIS2PLACEMENT3D(#9,#10,#11);
#13=IFCGEOMETRICREPRESENTATIONCONTEXT($,'Model',3,1.0000000000000001E-05,#12,$);
#14=IFCGEOMETRICREPRESENTATIONSUBCONTEXT('Body','Model',*,*,*,*,#13,$,.MODEL_VIEW.,$);
#15=IFCCARTESIANPOINT((0.,0.,0.));
#16=IFCAXIS2PLACEMENT3D(#15,$,$);
#17=IFCLOCALPLACEMENT($,#16);
#18=IFCSITE('3S8yvoMNLVVhWYjpEM$uIc',$,'Grundst\X2\00FC\X0\ck',$,$,#17,$,$,$,$,$,$,$,$);
#19=IFCCARTESIANPOINT((0.,0.,0.));
#20=IFCAXIS2PLACEMENT3D(#19,$,$);
#21=IFCLOCALPLACEMENT(#17,#20);
#22=IFCBUILDING('30aqNMgxPIrRimEpQkwFVl',$,'EFH Holzrahmenbau (Beispiel)',$,$,#21,$,$,$,$,$,$);
#23=IFCRELAGGREGATES('1W_yjf0JnJyeB70Jpa29iQ',$,$,$,#1,(#18));
#24=IFCRELAGGREGATES('2FIGo6QKzTUOxwoteH6We0',$,$,$,#18,(#22));
#25=IFCCARTESIANPOINT((0.,0.,0.));
#26=IFCAXIS2PLACEMENT3D(#25,$,$);
#27=IFCLOCALPLACEMENT(#21,#26);
#28=IFCBUILDINGSTOREY('3mkoeBjWbGBuBkwkf4Bb5p',$,'EG',$,$,#27,$,$,$,0.);
#29=IFCRELAGGREGATES('2k2QIpxhTRpfqPr2QizYyU',$,$,$,#22,(#28));
#30=IFCCARTESIANPOINTLIST3D(((0.,0.,520000.),(20000.,0.,519900.),(20000.,30000.,520500.),(0.,30000.,520600.)),$);
#31=IFCTRIANGULATEDFACESET(#30,$,$,((1,2,3),(1,3,4)),$);
#32=IFCCARTESIANPOINT((0.,0.,0.));
#33=IFCAXIS2PLACEMENT3D(#32,$,$);
#34=IFCLOCALPLACEMENT(#17,#33);
#35=IFCSHAPEREPRESENTATION(#14,'Body','Tessellation',(#31));
#36=IFCPRODUCTDEFINITIONSHAPE($,$,(#35));
#37=IFCGEOGRAPHICELEMENT('0TP8lJzCPUf8rU1y6QOkDK',$,'Gel\X2\00E4\X0\nde (Ebene aus DGM, Beispiel)',$,$,#34,#36,$,.TERRAIN.);
#38=IFCDISTRIBUTIONSYSTEM('0bl7qTWbjU5AyiPZhfcHw0',$,'Schmutzwasser',$,$,$,.SEWAGE.);
#39=IFCRELSERVICESBUILDINGS('2slkpLmzzSEwsScjWSYXWS',$,$,$,#38,(#22));
#40=IFCDISTRIBUTIONSYSTEM('3gd6zDOnjNjfSITY2wPcgp',$,'Niederschlagswasser',$,$,$,.RAINWATER.);
#41=IFCRELSERVICESBUILDINGS('2GP2OyRPjIweGzOleQq4gT',$,$,$,#40,(#22));
#42=IFCMATERIAL('PVC-U (KG)',$,'Kunststoff');
#43=IFCCIRCLEPROFILEDEF(.AREA.,$,$,55.);
#44=IFCCARTESIANPOINT((0.,0.,55.));
#45=IFCDIRECTION((0.9987523388778442,0.,-0.049937616943903564));
#46=IFCDIRECTION((0.,1.,0.));
#47=IFCAXIS2PLACEMENT3D(#44,#45,#46);
#48=IFCDIRECTION((0.,0.,1.));
#49=IFCEXTRUDEDAREASOLID(#43,#47,#48,2002.4984394500796);
#50=IFCCARTESIANPOINT((13000.,18500.,519195.));
#51=IFCAXIS2PLACEMENT3D(#50,$,$);
#52=IFCLOCALPLACEMENT(#17,#51);
#53=IFCSHAPEREPRESENTATION(#14,'Body','SweptSolid',(#49));
#54=IFCPRODUCTDEFINITIONSHAPE($,$,(#53));
#55=IFCPIPESEGMENT('0hccnFKeTMKPpwEg_vT47L',$,'FL2 \X2\2192\X0\ SW-W1',$,$,#52,#54,$,.RIGIDSEGMENT.);
#56=IFCPROPERTYSINGLEVALUE('NominalDiameter',$,IFCPOSITIVELENGTHMEASURE(100.),$);
#57=IFCPROPERTYSINGLEVALUE('InnerDiameter',$,IFCPOSITIVELENGTHMEASURE(96.),$);
#58=IFCPROPERTYSINGLEVALUE('Length',$,IFCPOSITIVELENGTHMEASURE(2000.),$);
#59=IFCPROPERTYSET('13y_uYYxTQdBABY6UQ6zsJ',$,'Pset_PipeSegmentTypeCommon',$,(#56,#57,#58));
#60=IFCRELDEFINESBYPROPERTIES('1B0mZpL2HHhvvNrFB$GCBW',$,$,$,(#55),#59);
#61=IFCPROPERTYSINGLEVALUE('Gradient',$,IFCPOSITIVERATIOMEASURE(0.050000000000000003),$);
#62=IFCPROPERTYSINGLEVALUE('InvertElevation',$,IFCLENGTHMEASURE(519195.),$);
#63=IFCPROPERTYSET('3Ys8VVgEDNvxCdEF1HJu6J',$,'Pset_PipeSegmentOccurrence',$,(#61,#62));
#64=IFCRELDEFINESBYPROPERTIES('2VfDoD8DjR$9Rvb76gfetP',$,$,$,(#55),#63);
#65=IFCPROPERTYSINGLEVALUE('Lage',$,IFCLABEL('Geb\X2\00E4\X0\ude'),$);
#66=IFCPROPERTYSINGLEVALUE('Abfluss_l_s',$,IFCREAL(0.85099999999999998),$);
#67=IFCPROPERTYSINGLEVALUE('Sohle_unten_m',$,IFCREAL(519.09500000000003),$);
#68=IFCPROPERTYSET('0Q7Vko8mDNxeJ8hKpwEcRq',$,'B17_Entwaesserung',$,(#65,#66,#67));
#69=IFCRELDEFINESBYPROPERTIES('1niAjGZ6fGKhrJDUnTKfGh',$,$,$,(#55),#68);
#70=IFCCARTESIANPOINT((13000.,18500.,519195.));
#71=IFCAXIS2PLACEMENT3D(#70,$,$);
#72=IFCLOCALPLACEMENT(#17,#71);
#73=IFCDISTRIBUTIONPORT('0cUCTJEAbUl96P5CY$ZAlf',$,'Zulauf',$,$,#72,$,.SINK.,.PIPE.,.SEWAGE.);
#74=IFCCARTESIANPOINT((15000.,18500.,519095.));
#75=IFCAXIS2PLACEMENT3D(#74,$,$);
#76=IFCLOCALPLACEMENT(#17,#75);
#77=IFCDISTRIBUTIONPORT('14viyHjfjG0gT1kvfahzei',$,'Ablauf',$,$,#76,$,.SOURCE.,.PIPE.,.SEWAGE.);
#78=IFCRELNESTS('3KFKOJkBXMmRwhkHvfRh99',$,$,$,#55,(#73,#77));
#79=IFCCIRCLEPROFILEDEF(.AREA.,$,$,80.);
#80=IFCCARTESIANPOINT((0.,0.,80.));
#81=IFCDIRECTION((0.,-0.99980336179307949,-0.019830223076322193));
#82=IFCDIRECTION((1.,0.,0.));
#83=IFCAXIS2PLACEMENT3D(#80,#81,#82);
#84=IFCDIRECTION((0.,0.,1.));
#85=IFCEXTRUDEDAREASOLID(#79,#83,#84,10552.074941095709);
#86=IFCCARTESIANPOINT((16050.,18500.,519088.));
#87=IFCAXIS2PLACEMENT3D(#86,$,$);
#88=IFCLOCALPLACEMENT(#17,#87);
#89=IFCSHAPEREPRESENTATION(#14,'Body','SweptSolid',(#85));
#90=IFCPRODUCTDEFINITIONSHAPE($,$,(#89));
#91=IFCPIPESEGMENT('2Fw97yCvrUywUS6jKxsrhQ',$,'SW-S1 \X2\2192\X0\ SW-S2',$,$,#88,#90,$,.RIGIDSEGMENT.);
#92=IFCPROPERTYSINGLEVALUE('NominalDiameter',$,IFCPOSITIVELENGTHMEASURE(150.),$);
#93=IFCPROPERTYSINGLEVALUE('InnerDiameter',$,IFCPOSITIVELENGTHMEASURE(146.),$);
#94=IFCPROPERTYSINGLEVALUE('Length',$,IFCPOSITIVELENGTHMEASURE(10550.),$);
#95=IFCPROPERTYSET('2ZFcS2NjjRVgZocUpi5ps4',$,'Pset_PipeSegmentTypeCommon',$,(#92,#93,#94));
#96=IFCRELDEFINESBYPROPERTIES('2N$4ZQFYbMVxQ474iQJf9C',$,$,$,(#91),#95);
#97=IFCPROPERTYSINGLEVALUE('Gradient',$,IFCPOSITIVERATIOMEASURE(0.019834000000000001),$);
#98=IFCPROPERTYSINGLEVALUE('InvertElevation',$,IFCLENGTHMEASURE(519088.),$);
#99=IFCPROPERTYSET('1WusXjynfKjAp7Z5X98G98',$,'Pset_PipeSegmentOccurrence',$,(#97,#98));
#100=IFCRELDEFINESBYPROPERTIES('32zOExgJTGvBeCE6yGYDSn',$,$,$,(#91),#99);
#101=IFCPROPERTYSINGLEVALUE('Lage',$,IFCLABEL('Erdreich'),$);
#102=IFCPROPERTYSINGLEVALUE('Abfluss_l_s',$,IFCREAL(0.85099999999999998),$);
#103=IFCPROPERTYSINGLEVALUE('Sohle_unten_m',$,IFCREAL(518.87900000000002),$);
#104=IFCPROPERTYSET('3blkr51i5GNRGD76uaOHZQ',$,'B17_Entwaesserung',$,(#101,#102,#103));
#105=IFCRELDEFINESBYPROPERTIES('2fxM_9325V09$FfhQqE8G6',$,$,$,(#91),#104);
#106=IFCCARTESIANPOINT((16050.,18500.,519088.));
#107=IFCAXIS2PLACEMENT3D(#106,$,$);
#108=IFCLOCALPLACEMENT(#17,#107);
#109=IFCDISTRIBUTIONPORT('19G8nu5THGDgqYx86Ecxxl',$,'Zulauf',$,$,#108,$,.SINK.,.PIPE.,.SEWAGE.);
#110=IFCCARTESIANPOINT((16050.,7950.,518878.75));
#111=IFCAXIS2PLACEMENT3D(#110,$,$);
#112=IFCLOCALPLACEMENT(#17,#111);
#113=IFCDISTRIBUTIONPORT('36Y7O_MOfQMe49dxU1ndW6',$,'Ablauf',$,$,#112,$,.SOURCE.,.PIPE.,.SEWAGE.);
#114=IFCRELNESTS('20TSTpBy9GrBsEP063aF4K',$,$,$,#91,(#109,#113));
#115=IFCCIRCLEPROFILEDEF(.AREA.,$,$,80.);
#116=IFCCARTESIANPOINT((0.,0.,80.));
#117=IFCDIRECTION((-0.75696060778908614,-0.65339456879171143,-0.0092830883369020047));
#118=IFCDIRECTION((0.,1.,0.));
#119=IFCAXIS2PLACEMENT3D(#116,#117,#118);
#120=IFCDIRECTION((0.,0.,1.));
#121=IFCEXTRUDEDAREASOLID(#115,#119,#120,7000.3642798232313);
#122=IFCCARTESIANPOINT((16050.,7950.,518878.75));
#123=IFCAXIS2PLACEMENT3D(#122,$,$);
#124=IFCLOCALPLACEMENT(#17,#123);
#125=IFCSHAPEREPRESENTATION(#14,'Body','SweptSolid',(#121));
#126=IFCPRODUCTDEFINITIONSHAPE($,$,(#125));
#127=IFCPIPESEGMENT('0kvYtl9rnNrRn_otQS43UE',$,'SW-S2 \X2\2192\X0\ SW-S3',$,$,#124,#126,$,.RIGIDSEGMENT.);
#128=IFCPROPERTYSINGLEVALUE('NominalDiameter',$,IFCPOSITIVELENGTHMEASURE(150.),$);
#129=IFCPROPERTYSINGLEVALUE('InnerDiameter',$,IFCPOSITIVELENGTHMEASURE(146.),$);
#130=IFCPROPERTYSINGLEVALUE('Length',$,IFCPOSITIVELENGTHMEASURE(7000.1000000000004),$);
#131=IFCPROPERTYSET('0Egkc8zZbP49qREWz2oQlJ',$,'Pset_PipeSegmentTypeCommon',$,(#128,#129,#130));
#132=IFCRELDEFINESBYPROPERTIES('2oz4bGRnvL18pYQwPMYswb',$,$,$,(#127),#131);
#133=IFCPROPERTYSINGLEVALUE('Gradient',$,IFCPOSITIVERATIOMEASURE(0.0092829999999999996),$);
#134=IFCPROPERTYSINGLEVALUE('InvertElevation',$,IFCLENGTHMEASURE(518878.70000000001),$);
#135=IFCPROPERTYSET('1sR5HoRvPR7B6lvsIaxAMY',$,'Pset_PipeSegmentOccurrence',$,(#133,#134));
#136=IFCRELDEFINESBYPROPERTIES('1o$am7epjQABhpnOvpi3nq',$,$,$,(#127),#135);
#137=IFCPROPERTYSINGLEVALUE('Lage',$,IFCLABEL('Erdreich'),$);
#138=IFCPROPERTYSINGLEVALUE('Abfluss_l_s',$,IFCREAL(0.85099999999999998),$);
#139=IFCPROPERTYSINGLEVALUE('Sohle_unten_m',$,IFCREAL(518.81399999999996),$);
#140=IFCPROPERTYSET('302PLV5lvIZQL1cbKvpV9O',$,'B17_Entwaesserung',$,(#137,#138,#139));
#141=IFCRELDEFINESBYPROPERTIES('2tLmpRkn5GDgezljZFEd_V',$,$,$,(#127),#140);
#142=IFCCARTESIANPOINT((16050.,7950.,518878.75));
#143=IFCAXIS2PLACEMENT3D(#142,$,$);
#144=IFCLOCALPLACEMENT(#17,#143);
#145=IFCDISTRIBUTIONPORT('1cVatMv5bPJf_aOt2P4JAB',$,'Zulauf',$,$,#144,$,.SINK.,.PIPE.,.SEWAGE.);
#146=IFCCARTESIANPOINT((10751.,3376.,518813.76500000001));
#147=IFCAXIS2PLACEMENT3D(#146,$,$);
#148=IFCLOCALPLACEMENT(#17,#147);
#149=IFCDISTRIBUTIONPORT('12b5vScYfKt8d1Sz3QVaMy',$,'Ablauf',$,$,#148,$,.SOURCE.,.PIPE.,.SEWAGE.);
#150=IFCRELNESTS('2RQHeII6nVbuY6aL1aCFIu',$,$,$,#127,(#145,#149));
#151=IFCCIRCLEPROFILEDEF(.AREA.,$,$,80.);
#152=IFCCARTESIANPOINT((0.,0.,80.));
#153=IFCDIRECTION((-0.7567718031670938,-0.65361316042348783,-0.0092884041926076071));
#154=IFCDIRECTION((0.,1.,0.));
#155=IFCAXIS2PLACEMENT3D(#152,#153,#154);
#156=IFCDIRECTION((0.,0.,1.));
#157=IFCEXTRUDEDAREASOLID(#151,#155,#156,3635.1777226464446);
#158=IFCCARTESIANPOINT((10751.,3376.,518813.76500000001));
#159=IFCAXIS2PLACEMENT3D(#158,$,$);
#160=IFCLOCALPLACEMENT(#17,#159);
#161=IFCSHAPEREPRESENTATION(#14,'Body','SweptSolid',(#157));
#162=IFCPRODUCTDEFINITIONSHAPE($,$,(#161));
#163=IFCPIPESEGMENT('1FN9_ssILL4vjqy4gItMLg',$,'SW-S3 \X2\2192\X0\ SW-RS',$,$,#160,#162,$,.RIGIDSEGMENT.);
#164=IFCPROPERTYSINGLEVALUE('NominalDiameter',$,IFCPOSITIVELENGTHMEASURE(150.),$);
#165=IFCPROPERTYSINGLEVALUE('InnerDiameter',$,IFCPOSITIVELENGTHMEASURE(146.),$);
#166=IFCPROPERTYSINGLEVALUE('Length',$,IFCPOSITIVELENGTHMEASURE(3635.),$);
#167=IFCPROPERTYSET('1laS5HlX1LJeGsvIT5vWeH',$,'Pset_PipeSegmentTypeCommon',$,(#164,#165,#166));
#168=IFCRELDEFINESBYPROPERTIES('2yZxpA2LjIOvbNyO6Ol8cM',$,$,$,(#163),#167);
#169=IFCPROPERTYSINGLEVALUE('Gradient',$,IFCPOSITIVERATIOMEASURE(0.0092890000000000004),$);
#170=IFCPROPERTYSINGLEVALUE('InvertElevation',$,IFCLENGTHMEASURE(518813.79999999999),$);
#171=IFCPROPERTYSET('2bGmdH6GnPBeHOV19CVQvK',$,'Pset_PipeSegmentOccurrence',$,(#169,#170));
#172=IFCRELDEFINESBYPROPERTIES('35rh6Z_0vLq95JBGpf_WUM',$,$,$,(#163),#171);
#173=IFCPROPERTYSINGLEVALUE('Lage',$,IFCLABEL('Erdreich'),$);
#174=IFCPROPERTYSINGLEVALUE('Abfluss_l_s',$,IFCREAL(2.),$);
#175=IFCPROPERTYSINGLEVALUE('Sohle_unten_m',$,IFCREAL(518.77999999999997),$);
#176=IFCPROPERTYSET('1uR5gAPVnMDPJUi2o2JF$r',$,'B17_Entwaesserung',$,(#173,#174,#175));
#177=IFCRELDEFINESBYPROPERTIES('2xsDakinTPWvTpTkzlv749',$,$,$,(#163),#176);
#178=IFCCARTESIANPOINT((10751.,3376.,518813.76500000001));
#179=IFCAXIS2PLACEMENT3D(#178,$,$);
#180=IFCLOCALPLACEMENT(#17,#179);
#181=IFCDISTRIBUTIONPORT('085ua_ALfOpwSu1yte1bkv',$,'Zulauf',$,$,#180,$,.SINK.,.PIPE.,.SEWAGE.);
#182=IFCCARTESIANPOINT((8000.,1000.,518780.));
#183=IFCAXIS2PLACEMENT3D(#182,$,$);
#184=IFCLOCALPLACEMENT(#17,#183);
#185=IFCDISTRIBUTIONPORT('3D1KtJsSzKagjQgAUkVINd',$,'Ablauf',$,$,#184,$,.SOURCE.,.PIPE.,.SEWAGE.);
#186=IFCRELNESTS('19qTKEWc1Srgoy8UNGeiPj',$,$,$,#163,(#181,#185));
#187=IFCCIRCLEPROFILEDEF(.AREA.,$,$,67.5);
#188=IFCCARTESIANPOINT((0.,0.,67.5));
#189=IFCDIRECTION((0.39839607500263413,-0.91585304598306727,-0.049937616943876731));
#190=IFCDIRECTION((0.,1.,0.));
#191=IFCAXIS2PLACEMENT3D(#188,#189,#190);
#192=IFCDIRECTION((0.,0.,1.));
#193=IFCEXTRUDEDAREASOLID(#187,#191,#192,3275.6346808672029);
#194=IFCCARTESIANPOINT((7000.,12000.,519102.05200000003));
#195=IFCAXIS2PLACEMENT3D(#194,$,$);
#196=IFCLOCALPLACEMENT(#17,#195);
#197=IFCSHAPEREPRESENTATION(#14,'Body','SweptSolid',(#193));
#198=IFCPRODUCTDEFINITIONSHAPE($,$,(#197));
#199=IFCPIPESEGMENT('16v$zCoxPUpRyaPuy0IWqW',$,'FL1 \X2\2192\X0\ SW-W2',$,$,#196,#198,$,.RIGIDSEGMENT.);
#200=IFCPROPERTYSINGLEVALUE('NominalDiameter',$,IFCPOSITIVELENGTHMEASURE(125.),$);
#201=IFCPROPERTYSINGLEVALUE('InnerDiameter',$,IFCPOSITIVELENGTHMEASURE(113.),$);
#202=IFCPROPERTYSINGLEVALUE('Length',$,IFCPOSITIVELENGTHMEASURE(3271.5),$);
#203=IFCPROPERTYSET('0zzyaik6XUthB87yqlPVtN',$,'Pset_PipeSegmentTypeCommon',$,(#200,#201,#202));
#204=IFCRELDEFINESBYPROPERTIES('3w5p1r5MXKfA7Afv8AmDh8',$,$,$,(#199),#203);
#205=IFCPROPERTYSINGLEVALUE('Gradient',$,IFCPOSITIVERATIOMEASURE(0.050000000000000003),$);
#206=IFCPROPERTYSINGLEVALUE('InvertElevation',$,IFCLENGTHMEASURE(519102.09999999998),$);
#207=IFCPROPERTYSET('0Z$U2RHjjQxhDzLSYkV90E',$,'Pset_PipeSegmentOccurrence',$,(#205,#206));
#208=IFCRELDEFINESBYPROPERTIES('2sF0mcfJHT7AiV72CVpPrd',$,$,$,(#199),#207);
#209=IFCPROPERTYSINGLEVALUE('Lage',$,IFCLABEL('Geb\X2\00E4\X0\ude'),$);
#210=IFCPROPERTYSINGLEVALUE('Abfluss_l_s',$,IFCREAL(2.),$);
#211=IFCPROPERTYSINGLEVALUE('Sohle_unten_m',$,IFCREAL(518.93799999999999),$);
#212=IFCPROPERTYSET('3NY6uqKnvUjOrCFfOZq$HT',$,'B17_Entwaesserung',$,(#209,#210,#211));
#213=IFCRELDEFINESBYPROPERTIES('0iX2ytOznMye0Ljf6XYE8M',$,$,$,(#199),#212);
#214=IFCCARTESIANPOINT((7000.,12000.,519102.05200000003));
#215=IFCAXIS2PLACEMENT3D(#214,$,$);
#216=IFCLOCALPLACEMENT(#17,#215);
#217=IFCDISTRIBUTIONPORT('3P6Lj0l$bJzfsbRtQW31_p',$,'Zulauf',$,$,#216,$,.SINK.,.PIPE.,.SEWAGE.);
#218=IFCCARTESIANPOINT((8305.,9000.,518938.47499999998));
#219=IFCAXIS2PLACEMENT3D(#218,$,$);
#220=IFCLOCALPLACEMENT(#17,#219);
#221=IFCDISTRIBUTIONPORT('2jpFjodxHMsgvCPr$u9_$k',$,'Ablauf',$,$,#220,$,.SOURCE.,.PIPE.,.SEWAGE.);
#222=IFCRELNESTS('2_euFSBnrLUvtkpZix$4_3',$,$,$,#199,(#217,#221));
#223=IFCCIRCLEPROFILEDEF(.AREA.,$,$,80.);
#224=IFCCARTESIANPOINT((0.,0.,80.));
#225=IFCDIRECTION((0.99997777851849134,0.,-0.0066665185234072331));
#226=IFCDIRECTION((0.,1.,0.));
#227=IFCAXIS2PLACEMENT3D(#224,#225,#226);
#228=IFCDIRECTION((0.,0.,1.));
#229=IFCEXTRUDEDAREASOLID(#223,#227,#228,1050.0233330740803);
#230=IFCCARTESIANPOINT((15000.,18500.,519095.));
#231=IFCAXIS2PLACEMENT3D(#230,$,$);
#232=IFCLOCALPLACEMENT(#17,#231);
#233=IFCSHAPEREPRESENTATION(#14,'Body','SweptSolid',(#229));
#234=IFCPRODUCTDEFINITIONSHAPE($,$,(#233));
#235=IFCPIPESEGMENT('3Z29qxC6XJy8qZEYr7cq0b',$,'SW-W1 \X2\2192\X0\ SW-S1',$,$,#232,#234,$,.RIGIDSEGMENT.);
#236=IFCPROPERTYSINGLEVALUE('NominalDiameter',$,IFCPOSITIVELENGTHMEASURE(150.),$);
#237=IFCPROPERTYSINGLEVALUE('InnerDiameter',$,IFCPOSITIVELENGTHMEASURE(146.),$);
#238=IFCPROPERTYSINGLEVALUE('Length',$,IFCPOSITIVELENGTHMEASURE(1050.),$);
#239=IFCPROPERTYSET('3YWfv$bK1ROwWS2mEHPdX5',$,'Pset_PipeSegmentTypeCommon',$,(#236,#237,#238));
#240=IFCRELDEFINESBYPROPERTIES('2zHqb2ACHSe9MXscGugUvJ',$,$,$,(#235),#239);
#241=IFCPROPERTYSINGLEVALUE('Gradient',$,IFCPOSITIVERATIOMEASURE(0.0066670000000000002),$);
#242=IFCPROPERTYSINGLEVALUE('InvertElevation',$,IFCLENGTHMEASURE(519095.),$);
#243=IFCPROPERTYSET('3dIMdoibnU_hs2ICDdvHJ7',$,'Pset_PipeSegmentOccurrence',$,(#241,#242));
#244=IFCRELDEFINESBYPROPERTIES('3DSxUDsk1GbfGO7zmDM6sM',$,$,$,(#235),#243);
#245=IFCPROPERTYSINGLEVALUE('Lage',$,IFCLABEL('Erdreich'),$);
#246=IFCPROPERTYSINGLEVALUE('Abfluss_l_s',$,IFCREAL(0.85099999999999998),$);
#247=IFCPROPERTYSINGLEVALUE('Sohle_unten_m',$,IFCREAL(519.08799999999997),$);
#248=IFCPROPERTYSET('35QgOgkCfRTQNLZO1bNBGh',$,'B17_Entwaesserung',$,(#245,#246,#247));
#249=IFCRELDEFINESBYPROPERTIES('1OLLm0kNDSDPPwiXo1ACn8',$,$,$,(#235),#248);
#250=IFCCARTESIANPOINT((15000.,18500.,519095.));
#251=IFCAXIS2PLACEMENT3D(#250,$,$);
#252=IFCLOCALPLACEMENT(#17,#251);
#253=IFCDISTRIBUTIONPORT('2WhK9U9fjO0AA_$KLSTxD2',$,'Zulauf',$,$,#252,$,.SINK.,.PIPE.,.SEWAGE.);
#254=IFCCARTESIANPOINT((16050.,18500.,519088.));
#255=IFCAXIS2PLACEMENT3D(#254,$,$);
#256=IFCLOCALPLACEMENT(#17,#255);
#257=IFCDISTRIBUTIONPORT('1dS2jZ3EPSfwSDqDF4w002',$,'Ablauf',$,$,#256,$,.SOURCE.,.PIPE.,.SEWAGE.);
#258=IFCRELNESTS('0AUcPYUZbRtRF_fnGK59UR',$,$,$,#235,(#253,#257));
#259=IFCCIRCLEPROFILEDEF(.AREA.,$,$,80.);
#260=IFCCARTESIANPOINT((0.,0.,80.));
#261=IFCDIRECTION((0.39875099698007527,-0.91683385405394269,-0.020330432065987388));
#262=IFCDIRECTION((0.,1.,0.));
#263=IFCAXIS2PLACEMENT3D(#260,#261,#262);
#264=IFCDIRECTION((0.,0.,1.));
#265=IFCEXTRUDEDAREASOLID(#259,#263,#264,6134.1539419955889);
#266=IFCCARTESIANPOINT((8305.,9000.,518938.47499999998));
#267=IFCAXIS2PLACEMENT3D(#266,$,$);
#268=IFCLOCALPLACEMENT(#17,#267);
#269=IFCSHAPEREPRESENTATION(#14,'Body','SweptSolid',(#265));
#270=IFCPRODUCTDEFINITIONSHAPE($,$,(#269));
#271=IFCPIPESEGMENT('1VZa2VXOLPu8inNXAJ5CQB',$,'SW-W2 \X2\2192\X0\ SW-S3',$,$,#268,#270,$,.RIGIDSEGMENT.);
#272=IFCPROPERTYSINGLEVALUE('NominalDiameter',$,IFCPOSITIVELENGTHMEASURE(150.),$);
#273=IFCPROPERTYSINGLEVALUE('InnerDiameter',$,IFCPOSITIVELENGTHMEASURE(146.),$);
#274=IFCPROPERTYSINGLEVALUE('Length',$,IFCPOSITIVELENGTHMEASURE(6132.8999999999996),$);
#275=IFCPROPERTYSET('0IbueVAo5Nj8cCUtSxGCOp',$,'Pset_PipeSegmentTypeCommon',$,(#272,#273,#274));
#276=IFCRELDEFINESBYPROPERTIES('0_Nh4vPTfGxOuy95AJdgrG',$,$,$,(#271),#275);
#277=IFCPROPERTYSINGLEVALUE('Gradient',$,IFCPOSITIVERATIOMEASURE(0.020334999999999999),$);
#278=IFCPROPERTYSINGLEVALUE('InvertElevation',$,IFCLENGTHMEASURE(518938.5),$);
#279=IFCPROPERTYSET('1xV23O3OXLwOutcRgYVd0U',$,'Pset_PipeSegmentOccurrence',$,(#277,#278));
#280=IFCRELDEFINESBYPROPERTIES('0NuwGvTXzOjgjImjpxA9YQ',$,$,$,(#271),#279);
#281=IFCPROPERTYSINGLEVALUE('Lage',$,IFCLABEL('Erdreich'),$);
#282=IFCPROPERTYSINGLEVALUE('Abfluss_l_s',$,IFCREAL(2.),$);
#283=IFCPROPERTYSINGLEVALUE('Sohle_unten_m',$,IFCREAL(518.81399999999996),$);
#284=IFCPROPERTYSET('0TEBS8bqXUhvLj1i6iLJ1X',$,'B17_Entwaesserung',$,(#281,#282,#283));
#285=IFCRELDEFINESBYPROPERTIES('0MnWaU4UPGJwTtIDhOZK1N',$,$,$,(#271),#284);
#286=IFCCARTESIANPOINT((8305.,9000.,518938.47499999998));
#287=IFCAXIS2PLACEMENT3D(#286,$,$);
#288=IFCLOCALPLACEMENT(#17,#287);
#289=IFCDISTRIBUTIONPORT('3Uqv6uGbvIsPZfso6FLQ5d',$,'Zulauf',$,$,#288,$,.SINK.,.PIPE.,.SEWAGE.);
#290=IFCCARTESIANPOINT((10751.,3376.,518813.76500000001));
#291=IFCAXIS2PLACEMENT3D(#290,$,$);
#292=IFCLOCALPLACEMENT(#17,#291);
#293=IFCDISTRIBUTIONPORT('07r_m8kPLNtAcdz9CAZb_n',$,'Ablauf',$,$,#292,$,.SOURCE.,.PIPE.,.SEWAGE.);
#294=IFCRELNESTS('2eEtZ5k6zRCOQ$EpguMibm',$,$,$,#271,(#289,#293));
#295=IFCRELCONNECTSPORTS('0tfy6Coo9RIROjgGg_UP1$',$,$,$,#77,#253,$);
#296=IFCCIRCLEPROFILEDEF(.AREA.,$,$,360.);
#297=IFCCARTESIANPOINT((0.,0.,-150.));
#298=IFCAXIS2PLACEMENT3D(#297,$,$);
#299=IFCDIRECTION((0.,0.,1.));
#300=IFCEXTRUDEDAREASOLID(#296,#298,#299,1351.7500000000609);
#301=IFCCARTESIANPOINT((16050.,18500.,519088.));
#302=IFCAXIS2PLACEMENT3D(#301,$,$);
#303=IFCLOCALPLACEMENT(#17,#302);
#304=IFCSHAPEREPRESENTATION(#14,'Body','SweptSolid',(#300));
#305=IFCPRODUCTDEFINITIONSHAPE($,$,(#304));
#306=IFCDISTRIBUTIONCHAMBERELEMENT('28smLPrOPNLwfVMP4PvQPe',$,'SW-S1',$,$,#303,#305,$,.INSPECTIONCHAMBER.);
#307=IFCPROPERTYSINGLEVALUE('InspectionChamberInvertLevel',$,IFCLENGTHMEASURE(519088.),$);
#308=IFCPROPERTYSINGLEVALUE('ChamberLengthOrRadius',$,IFCPOSITIVELENGTHMEASURE(300.),$);
#309=IFCPROPERTYSINGLEVALUE('AccessCoverLoadRating',$,IFCTEXT('B 125 (Beispiel)'),$);
#310=IFCPROPERTYSET('0NLZuWkM5OVx59XBYOR2_K',$,'Pset_DistributionChamberElementTypeInspectionChamber',$,(#307,#308,#309));
#311=IFCRELDEFINESBYPROPERTIES('3yckLQyr1GGBuKd_NbxsQg',$,$,$,(#306),#310);
#312=IFCCARTESIANPOINT((16050.,18500.,519088.));
#313=IFCAXIS2PLACEMENT3D(#312,$,$);
#314=IFCLOCALPLACEMENT(#17,#313);
#315=IFCDISTRIBUTIONPORT('1fsxniqJfVEQ_Oh54DVKGm',$,'Zulauf 1',$,$,#314,$,.SINK.,.PIPE.,.SEWAGE.);
#316=IFCRELCONNECTSPORTS('1u3_JzvnTRAeL5LAQYPo7P',$,$,$,#257,#315,$);
#317=IFCCARTESIANPOINT((16050.,18500.,519088.));
#318=IFCAXIS2PLACEMENT3D(#317,$,$);
#319=IFCLOCALPLACEMENT(#17,#318);
#320=IFCDISTRIBUTIONPORT('01RxVogzPGTxSC1NwE4c7J',$,'Ablauf',$,$,#319,$,.SOURCE.,.PIPE.,.SEWAGE.);
#321=IFCRELCONNECTSPORTS('2a7FBaW8bQjOFCachr_i2P',$,$,$,#320,#109,$);
#322=IFCRELNESTS('2CixS3K5vLQwnyZJvzdr5S',$,$,$,#306,(#315,#320));
#323=IFCCIRCLEPROFILEDEF(.AREA.,$,$,360.);
#324=IFCCARTESIANPOINT((0.,0.,-150.));
#325=IFCAXIS2PLACEMENT3D(#324,$,$);
#326=IFCDIRECTION((0.,0.,1.));
#327=IFCEXTRUDEDAREASOLID(#323,#325,#326,1350.0000000000455);
#328=IFCCARTESIANPOINT((16050.,7950.,518878.75));
#329=IFCAXIS2PLACEMENT3D(#328,$,$);
#330=IFCLOCALPLACEMENT(#17,#329);
#331=IFCSHAPEREPRESENTATION(#14,'Body','SweptSolid',(#327));
#332=IFCPRODUCTDEFINITIONSHAPE($,$,(#331));
#333=IFCDISTRIBUTIONCHAMBERELEMENT('1HJnH_E8nOIAbD2ViVHjpO',$,'SW-S2',$,$,#330,#332,$,.INSPECTIONCHAMBER.);
#334=IFCPROPERTYSINGLEVALUE('InspectionChamberInvertLevel',$,IFCLENGTHMEASURE(518878.70000000001),$);
#335=IFCPROPERTYSINGLEVALUE('ChamberLengthOrRadius',$,IFCPOSITIVELENGTHMEASURE(300.),$);
#336=IFCPROPERTYSINGLEVALUE('AccessCoverLoadRating',$,IFCTEXT('B 125 (Beispiel)'),$);
#337=IFCPROPERTYSET('293q2AsmXOW8PgLH9QJ3fY',$,'Pset_DistributionChamberElementTypeInspectionChamber',$,(#334,#335,#336));
#338=IFCRELDEFINESBYPROPERTIES('3cThyj109TahhUJYO6Uu34',$,$,$,(#333),#337);
#339=IFCCARTESIANPOINT((16050.,7950.,518878.75));
#340=IFCAXIS2PLACEMENT3D(#339,$,$);
#341=IFCLOCALPLACEMENT(#17,#340);
#342=IFCDISTRIBUTIONPORT('0dCr5SNcnLffs5$dEMi3yV',$,'Zulauf 1',$,$,#341,$,.SINK.,.PIPE.,.SEWAGE.);
#343=IFCRELCONNECTSPORTS('2Lcw95C2jI1RxLfsLFYJGP',$,$,$,#113,#342,$);
#344=IFCCARTESIANPOINT((16050.,7950.,518878.75));
#345=IFCAXIS2PLACEMENT3D(#344,$,$);
#346=IFCLOCALPLACEMENT(#17,#345);
#347=IFCDISTRIBUTIONPORT('16T3tVLZTHQOmJi$NRnol8',$,'Ablauf',$,$,#346,$,.SOURCE.,.PIPE.,.SEWAGE.);
#348=IFCRELCONNECTSPORTS('0o0NEViGnUQfvSBWqxCGMJ',$,$,$,#347,#145,$);
#349=IFCRELNESTS('1GoTQs7cbSNPporLOhAQe5',$,$,$,#333,(#342,#347));
#350=IFCRELCONNECTSPORTS('373JetyS5Q6RlvArjC6kDg',$,$,$,#221,#289,$);
#351=IFCCIRCLEPROFILEDEF(.AREA.,$,$,360.);
#352=IFCCARTESIANPOINT((0.,0.,-150.));
#353=IFCAXIS2PLACEMENT3D(#352,$,$);
#354=IFCDIRECTION((0.,0.,1.));
#355=IFCEXTRUDEDAREASOLID(#351,#353,#354,1350.0000000000455);
#356=IFCCARTESIANPOINT((10751.,3376.,518813.76500000001));
#357=IFCAXIS2PLACEMENT3D(#356,$,$);
#358=IFCLOCALPLACEMENT(#17,#357);
#359=IFCSHAPEREPRESENTATION(#14,'Body','SweptSolid',(#355));
#360=IFCPRODUCTDEFINITIONSHAPE($,$,(#359));
#361=IFCDISTRIBUTIONCHAMBERELEMENT('10$bhKEJDVLQ3AkhWBM_FZ',$,'SW-S3',$,$,#358,#360,$,.INSPECTIONCHAMBER.);
#362=IFCPROPERTYSINGLEVALUE('InspectionChamberInvertLevel',$,IFCLENGTHMEASURE(518813.79999999999),$);
#363=IFCPROPERTYSINGLEVALUE('ChamberLengthOrRadius',$,IFCPOSITIVELENGTHMEASURE(300.),$);
#364=IFCPROPERTYSINGLEVALUE('AccessCoverLoadRating',$,IFCTEXT('B 125 (Beispiel)'),$);
#365=IFCPROPERTYSET('0C10yEnZXMPQZ5$AUMpcbq',$,'Pset_DistributionChamberElementTypeInspectionChamber',$,(#362,#363,#364));
#366=IFCRELDEFINESBYPROPERTIES('0633bOUX5OCQKSug286p37',$,$,$,(#361),#365);
#367=IFCCARTESIANPOINT((10751.,3376.,518813.76500000001));
#368=IFCAXIS2PLACEMENT3D(#367,$,$);
#369=IFCLOCALPLACEMENT(#17,#368);
#370=IFCDISTRIBUTIONPORT('3stAmTDobHGAQd_D2DxmM_',$,'Zulauf 1',$,$,#369,$,.SINK.,.PIPE.,.SEWAGE.);
#371=IFCRELCONNECTSPORTS('0H$sA3U9HIAg71edNla_l4',$,$,$,#149,#370,$);
#372=IFCCARTESIANPOINT((10751.,3376.,518813.76500000001));
#373=IFCAXIS2PLACEMENT3D(#372,$,$);
#374=IFCLOCALPLACEMENT(#17,#373);
#375=IFCDISTRIBUTIONPORT('3HaZRzylPKcuuA4Bi2dBNn',$,'Zulauf 2',$,$,#374,$,.SINK.,.PIPE.,.SEWAGE.);
#376=IFCRELCONNECTSPORTS('3IGDdpd7rQZwZ5luLS6YPc',$,$,$,#293,#375,$);
#377=IFCCARTESIANPOINT((10751.,3376.,518813.76500000001));
#378=IFCAXIS2PLACEMENT3D(#377,$,$);
#379=IFCLOCALPLACEMENT(#17,#378);
#380=IFCDISTRIBUTIONPORT('0iow4XxHHN0h4YM13NHAAW',$,'Ablauf',$,$,#379,$,.SOURCE.,.PIPE.,.SEWAGE.);
#381=IFCRELCONNECTSPORTS('1CD_0$zCHJsvIjhMaHjlna',$,$,$,#380,#181,$);
#382=IFCRELNESTS('2vb8vfK9zVggKUKw0_6yMh',$,$,$,#361,(#370,#375,#380));
#383=IFCCIRCLEPROFILEDEF(.AREA.,$,$,560.);
#384=IFCCARTESIANPOINT((0.,0.,-150.));
#385=IFCAXIS2PLACEMENT3D(#384,$,$);
#386=IFCDIRECTION((0.,0.,1.));
#387=IFCEXTRUDEDAREASOLID(#383,#385,#386,1350.0000000000455);
#388=IFCCARTESIANPOINT((8000.,1000.,518780.));
#389=IFCAXIS2PLACEMENT3D(#388,$,$);
#390=IFCLOCALPLACEMENT(#17,#389);
#391=IFCSHAPEREPRESENTATION(#14,'Body','SweptSolid',(#387));
#392=IFCPRODUCTDEFINITIONSHAPE($,$,(#391));
#393=IFCDISTRIBUTIONCHAMBERELEMENT('0udElVDKbS$gXIP$ZqvPuP',$,'SW-RS',$,$,#390,#392,$,.MANHOLE.);
#394=IFCPROPERTYSINGLEVALUE('InvertLevel',$,IFCLENGTHMEASURE(518780.),$);
#395=IFCPROPERTYSINGLEVALUE('HasSteps',$,IFCBOOLEAN(.T.),$);
#396=IFCPROPERTYSINGLEVALUE('AccessLengthOrRadius',$,IFCPOSITIVELENGTHMEASURE(312.5),$);
#397=IFCPROPERTYSINGLEVALUE('IsShallow',$,IFCBOOLEAN(.F.),$);
#398=IFCPROPERTYSINGLEVALUE('AccessCoverLoadRating',$,IFCTEXT('B 125 (Beispiel)'),$);
#399=IFCPROPERTYSET('3sDdiPkwfM_QGNGyTVySvs',$,'Pset_DistributionChamberElementTypeManhole',$,(#394,#395,#396,#397,#398));
#400=IFCRELDEFINESBYPROPERTIES('3Wb0gFrY9RfeJtiZXTcz5W',$,$,$,(#393),#399);
#401=IFCCARTESIANPOINT((8000.,1000.,518780.));
#402=IFCAXIS2PLACEMENT3D(#401,$,$);
#403=IFCLOCALPLACEMENT(#17,#402);
#404=IFCDISTRIBUTIONPORT('1FcE_BQTLIHuLtzf52GAP2',$,'Zulauf 1',$,$,#403,$,.SINK.,.PIPE.,.SEWAGE.);
#405=IFCRELCONNECTSPORTS('1Ci$xaFWLUnuCF7MNAJhWr',$,$,$,#185,#404,$);
#406=IFCCARTESIANPOINT((8000.,1000.,518780.));
#407=IFCAXIS2PLACEMENT3D(#406,$,$);
#408=IFCLOCALPLACEMENT(#17,#407);
#409=IFCDISTRIBUTIONPORT('2ArBZ75j5Ljgj$4$xit8K9',$,'Ablauf',$,$,#408,$,.SOURCE.,.PIPE.,.SEWAGE.);
#410=IFCRELNESTS('1RpJHfNR5VXenHeReoq_JM',$,$,$,#393,(#404,#409));
#411=IFCCIRCLEPROFILEDEF(.AREA.,$,$,80.);
#412=IFCCARTESIANPOINT((0.,0.,80.));
#413=IFCDIRECTION((0.,-0.91852419868033097,-0.39536476377979829));
#414=IFCDIRECTION((1.,0.,0.));
#415=IFCAXIS2PLACEMENT3D(#412,#413,#414);
#416=IFCDIRECTION((0.,0.,1.));
#417=IFCEXTRUDEDAREASOLID(#411,#415,#416,5008.0335462135308);
#418=IFCCARTESIANPOINT((8000.,1000.,518780.));
#419=IFCAXIS2PLACEMENT3D(#418,$,$);
#420=IFCLOCALPLACEMENT(#17,#419);
#421=IFCSHAPEREPRESENTATION(#14,'Body','SweptSolid',(#417));
#422=IFCPRODUCTDEFINITIONSHAPE($,$,(#421));
#423=IFCPIPESEGMENT('1ET6Kmw7PPRuY737DUuawa',$,'Anschlusskanal SW-RS \X2\2192\X0\ Kanal',$,$,#420,#422,$,.RIGIDSEGMENT.);
#424=IFCPROPERTYSINGLEVALUE('NominalDiameter',$,IFCPOSITIVELENGTHMEASURE(150.),$);
#425=IFCPROPERTYSET('3_zRLNd3zN49MxP1HVNoQR',$,'Pset_PipeSegmentTypeCommon',$,(#424));
#426=IFCRELDEFINESBYPROPERTIES('1Rlg5YeRbMxeI0dSlajg7p',$,$,$,(#423),#425);
#427=IFCPROPERTYSINGLEVALUE('Gradient',$,IFCPOSITIVERATIOMEASURE(0.43043500000000001),$);
#428=IFCPROPERTYSET('1wb8IcLrvKbv37nnM79wtz',$,'Pset_PipeSegmentOccurrence',$,(#427));
#429=IFCRELDEFINESBYPROPERTIES('2q6QypZ_HK7whyiIuRdjcm',$,$,$,(#423),#428);
#430=IFCCARTESIANPOINT((8000.,1000.,518780.));
#431=IFCAXIS2PLACEMENT3D(#430,$,$);
#432=IFCLOCALPLACEMENT(#17,#431);
#433=IFCDISTRIBUTIONPORT('29g3XAXHzLmhttgH6MA2Sa',$,'Zulauf',$,$,#432,$,.SINK.,.PIPE.,.SEWAGE.);
#434=IFCRELNESTS('2psNxvq_5O6gnF060gHbj5',$,$,$,#423,(#433));
#435=IFCRELCONNECTSPORTS('2goMWMibXIr9FIKRiMWKaz',$,$,$,#409,#433,$);
#436=IFCCIRCLEPROFILEDEF(.AREA.,$,$,55.);
#437=IFCCARTESIANPOINT((0.,0.,55.));
#438=IFCDIRECTION((0.05126798350272576,0.9986348701435197,-0.0099995000374933848));
#439=IFCDIRECTION((0.,1.,0.));
#440=IFCAXIS2PLACEMENT3D(#437,#438,#439);
#441=IFCDIRECTION((0.,0.,1.));
#442=IFCEXTRUDEDAREASOLID(#436,#440,#441,11001.017817874852);
#443=IFCCARTESIANPOINT((15400.,9400.,519311.));
#444=IFCAXIS2PLACEMENT3D(#443,$,$);
#445=IFCLOCALPLACEMENT(#17,#444);
#446=IFCSHAPEREPRESENTATION(#14,'Body','SweptSolid',(#442));
#447=IFCPRODUCTDEFINITIONSHAPE($,$,(#446));
#448=IFCPIPESEGMENT('0$_MJZROzKfvBRYj8yHmWx',$,'RF3 \X2\2192\X0\ NW-S1',$,$,#445,#447,$,.RIGIDSEGMENT.);
#449=IFCPROPERTYSINGLEVALUE('NominalDiameter',$,IFCPOSITIVELENGTHMEASURE(100.),$);
#450=IFCPROPERTYSINGLEVALUE('InnerDiameter',$,IFCPOSITIVELENGTHMEASURE(96.),$);
#451=IFCPROPERTYSINGLEVALUE('Length',$,IFCPOSITIVELENGTHMEASURE(11000.5),$);
#452=IFCPROPERTYSET('3KVY8G6MXJixtE8YvyPORD',$,'Pset_PipeSegmentTypeCommon',$,(#449,#450,#451));
#453=IFCRELDEFINESBYPROPERTIES('3qWas9DAzIHQgwTcbjm1I1',$,$,$,(#448),#452);
#454=IFCPROPERTYSINGLEVALUE('Gradient',$,IFCPOSITIVERATIOMEASURE(0.01),$);
#455=IFCPROPERTYSINGLEVALUE('InvertElevation',$,IFCLENGTHMEASURE(519311.),$);
#456=IFCPROPERTYSET('0PL$YHL$bK3BYunw9f9ghD',$,'Pset_PipeSegmentOccurrence',$,(#454,#455));
#457=IFCRELDEFINESBYPROPERTIES('1dS_Rd9IXMPhkJV6HTFVBQ',$,$,$,(#448),#456);
#458=IFCPROPERTYSINGLEVALUE('Lage',$,IFCLABEL('Erdreich'),$);
#459=IFCPROPERTYSINGLEVALUE('Abfluss_l_s',$,IFCREAL(1.0369999999999999),$);
#460=IFCPROPERTYSINGLEVALUE('Sohle_unten_m',$,IFCREAL(519.20100000000002),$);
#461=IFCPROPERTYSET('2fJZUJTY1NqRE7yen2th4C',$,'B17_Entwaesserung',$,(#458,#459,#460));
#462=IFCRELDEFINESBYPROPERTIES('1YEm259nTH0w2WswlVFwti',$,$,$,(#448),#461);
#463=IFCCARTESIANPOINT((15400.,9400.,519311.));
#464=IFCAXIS2PLACEMENT3D(#463,$,$);
#465=IFCLOCALPLACEMENT(#17,#464);
#466=IFCDISTRIBUTIONPORT('3P56fX8EvKWR6bui_AfM0J',$,'Zulauf',$,$,#465,$,.SINK.,.PIPE.,.RAINWATER.);
#467=IFCCARTESIANPOINT((15964.,20386.,519200.995));
#468=IFCAXIS2PLACEMENT3D(#467,$,$);
#469=IFCLOCALPLACEMENT(#17,#468);
#470=IFCDISTRIBUTIONPORT('2YCo6KLW1InxpVZ4bd_92A',$,'Ablauf',$,$,#469,$,.SOURCE.,.PIPE.,.RAINWATER.);
#471=IFCRELNESTS('0PWhTponDKsvwNB5eplEn5',$,$,$,#448,(#466,#470));
#472=IFCCIRCLEPROFILEDEF(.AREA.,$,$,55.);
#473=IFCCARTESIANPOINT((0.,0.,55.));
#474=IFCDIRECTION((-0.99900337697428543,0.043500147045426707,-0.0099995000375013628));
#475=IFCDIRECTION((0.,1.,0.));
#476=IFCAXIS2PLACEMENT3D(#473,#474,#475);
#477=IFCDIRECTION((0.,0.,1.));
#478=IFCEXTRUDEDAREASOLID(#472,#476,#477,5999.9797179407215);
#479=IFCCARTESIANPOINT((16050.,22050.,519184.33299999998));
#480=IFCAXIS2PLACEMENT3D(#479,$,$);
#481=IFCLOCALPLACEMENT(#17,#480);
#482=IFCSHAPEREPRESENTATION(#14,'Body','SweptSolid',(#478));
#483=IFCPRODUCTDEFINITIONSHAPE($,$,(#482));
#484=IFCPIPESEGMENT('1ra6GIH8jJLff_YStOgJTM',$,'NW-S2 \X2\2192\X0\ NW-S3',$,$,#481,#483,$,.RIGIDSEGMENT.);
#485=IFCPROPERTYSINGLEVALUE('NominalDiameter',$,IFCPOSITIVELENGTHMEASURE(100.),$);
#486=IFCPROPERTYSINGLEVALUE('InnerDiameter',$,IFCPOSITIVELENGTHMEASURE(96.),$);
#487=IFCPROPERTYSINGLEVALUE('Length',$,IFCPOSITIVELENGTHMEASURE(5999.6999999999998),$);
#488=IFCPROPERTYSET('1_qovVRj1Pg9V40Zwnt6Wy',$,'Pset_PipeSegmentTypeCommon',$,(#485,#486,#487));
#489=IFCRELDEFINESBYPROPERTIES('2OrtxpeKjOWwnzLD8D6BMg',$,$,$,(#484),#488);
#490=IFCPROPERTYSINGLEVALUE('Gradient',$,IFCPOSITIVERATIOMEASURE(0.01),$);
#491=IFCPROPERTYSINGLEVALUE('InvertElevation',$,IFCLENGTHMEASURE(519184.29999999999),$);
#492=IFCPROPERTYSET('1VWYzUwdnJNB7Cls5SRewY',$,'Pset_PipeSegmentOccurrence',$,(#490,#491));
#493=IFCRELDEFINESBYPROPERTIES('27P_cuwbDG2vbOIKWGQ4J3',$,$,$,(#484),#492);
#494=IFCPROPERTYSINGLEVALUE('Lage',$,IFCLABEL('Erdreich'),$);
#495=IFCPROPERTYSINGLEVALUE('Abfluss_l_s',$,IFCREAL(2.0739999999999998),$);
#496=IFCPROPERTYSINGLEVALUE('Sohle_unten_m',$,IFCREAL(519.12400000000002),$);
#497=IFCPROPERTYSET('0Ha2tZkmHNK9HuvfHVhPJE',$,'B17_Entwaesserung',$,(#494,#495,#496));
#498=IFCRELDEFINESBYPROPERTIES('0w3zcfMUTQEe6kSrv5GwX6',$,$,$,(#484),#497);
#499=IFCCARTESIANPOINT((16050.,22050.,519184.33299999998));
#500=IFCAXIS2PLACEMENT3D(#499,$,$);
#501=IFCLOCALPLACEMENT(#17,#500);
#502=IFCDISTRIBUTIONPORT('3nv7dqNgrG9e4wvz$mGdCv',$,'Zulauf',$,$,#501,$,.SINK.,.PIPE.,.RAINWATER.);
#503=IFCCARTESIANPOINT((10056.,22311.,519124.33600000001));
#504=IFCAXIS2PLACEMENT3D(#503,$,$);
#505=IFCLOCALPLACEMENT(#17,#504);
#506=IFCDISTRIBUTIONPORT('2T2uBJkYnNj8cJ1QwNMnyn',$,'Ablauf',$,$,#505,$,.SOURCE.,.PIPE.,.RAINWATER.);
#507=IFCRELNESTS('1JG14G5nfJWexw8Eb3GTYd',$,$,$,#484,(#502,#506));
#508=IFCCIRCLEPROFILEDEF(.AREA.,$,$,55.);
#509=IFCCARTESIANPOINT((0.,0.,55.));
#510=IFCDIRECTION((-0.6185286806703495,0.78569859436503864,-0.0099995000374779146));
#511=IFCDIRECTION((0.,1.,0.));
#512=IFCAXIS2PLACEMENT3D(#509,#510,#511);
#513=IFCDIRECTION((0.,0.,1.));
#514=IFCEXTRUDEDAREASOLID(#508,#512,#513,2990.9688229735848);
#515=IFCCARTESIANPOINT((4600.,9400.,519365.));
#516=IFCAXIS2PLACEMENT3D(#515,$,$);
#517=IFCLOCALPLACEMENT(#17,#516);
#518=IFCSHAPEREPRESENTATION(#14,'Body','SweptSolid',(#514));
#519=IFCPRODUCTDEFINITIONSHAPE($,$,(#518));
#520=IFCPIPESEGMENT('2w7mhGxL9L8BbNxJ9F6JEl',$,'RF1 \X2\2192\X0\ NW-B1',$,$,#517,#519,$,.RIGIDSEGMENT.);
#521=IFCPROPERTYSINGLEVALUE('NominalDiameter',$,IFCPOSITIVELENGTHMEASURE(100.),$);
#522=IFCPROPERTYSINGLEVALUE('InnerDiameter',$,IFCPOSITIVELENGTHMEASURE(96.),$);
#523=IFCPROPERTYSINGLEVALUE('Length',$,IFCPOSITIVELENGTHMEASURE(2990.8000000000002),$);
#524=IFCPROPERTYSET('2l0Av4bdjIiRI$bxG3aWTm',$,'Pset_PipeSegmentTypeCommon',$,(#521,#522,#523));
#525=IFCRELDEFINESBYPROPERTIES('0GmYiceL1PJfNgqrMtA94o',$,$,$,(#520),#524);
#526=IFCPROPERTYSINGLEVALUE('Gradient',$,IFCPOSITIVERATIOMEASURE(0.01),$);
#527=IFCPROPERTYSINGLEVALUE('InvertElevation',$,IFCLENGTHMEASURE(519365.),$);
#528=IFCPROPERTYSET('0epJcxsBnIpOAGXEfksll1',$,'Pset_PipeSegmentOccurrence',$,(#526,#527));
#529=IFCRELDEFINESBYPROPERTIES('0KeNSehIzSeQK$lLVxsZoG',$,$,$,(#520),#528);
#530=IFCPROPERTYSINGLEVALUE('Lage',$,IFCLABEL('Erdreich'),$);
#531=IFCPROPERTYSINGLEVALUE('Abfluss_l_s',$,IFCREAL(1.0369999999999999),$);
#532=IFCPROPERTYSINGLEVALUE('Sohle_unten_m',$,IFCREAL(519.33500000000004),$);
#533=IFCPROPERTYSET('0YTrGaW21RR9NWDkxA2wW0',$,'B17_Entwaesserung',$,(#530,#531,#532));
#534=IFCRELDEFINESBYPROPERTIES('26m_rmS5fJvfzcJof2qpBg',$,$,$,(#520),#533);
#535=IFCCARTESIANPOINT((4600.,9400.,519365.));
#536=IFCAXIS2PLACEMENT3D(#535,$,$);
#537=IFCLOCALPLACEMENT(#17,#536);
#538=IFCDISTRIBUTIONPORT('1eFC1w8uLRPOrnHcMkkVA5',$,'Zulauf',$,$,#537,$,.SINK.,.PIPE.,.RAINWATER.);
#539=IFCCARTESIANPOINT((2750.,11750.,519335.092));
#540=IFCAXIS2PLACEMENT3D(#539,$,$);
#541=IFCLOCALPLACEMENT(#17,#540);
#542=IFCDISTRIBUTIONPORT('0xulBdO6nH9BnFMW_oPs9G',$,'Ablauf',$,$,#541,$,.SOURCE.,.PIPE.,.RAINWATER.);
#543=IFCRELNESTS('0fBpFc_5nSKfvgzw5KgeJa',$,$,$,#520,(#538,#542));
#544=IFCCIRCLEPROFILEDEF(.AREA.,$,$,55.);
#545=IFCCARTESIANPOINT((0.,0.,55.));
#546=IFCDIRECTION((0.,0.99974584652059195,-0.022544231298158291));
#547=IFCDIRECTION((1.,0.,0.));
#548=IFCAXIS2PLACEMENT3D(#545,#546,#547);
#549=IFCDIRECTION((0.,0.,1.));
#550=IFCEXTRUDEDAREASOLID(#544,#548,#549,10102.567602707184);
#551=IFCCARTESIANPOINT((2750.,11750.,519335.092));
#552=IFCAXIS2PLACEMENT3D(#551,$,$);
#553=IFCLOCALPLACEMENT(#17,#552);
#554=IFCSHAPEREPRESENTATION(#14,'Body','SweptSolid',(#550));
#555=IFCPRODUCTDEFINITIONSHAPE($,$,(#554));
#556=IFCPIPESEGMENT('3lsp5DLYTNmesN7HNVM_1N',$,'NW-B1 \X2\2192\X0\ NW-B2',$,$,#553,#555,$,.RIGIDSEGMENT.);
#557=IFCPROPERTYSINGLEVALUE('NominalDiameter',$,IFCPOSITIVELENGTHMEASURE(100.),$);
#558=IFCPROPERTYSINGLEVALUE('InnerDiameter',$,IFCPOSITIVELENGTHMEASURE(96.),$);
#559=IFCPROPERTYSINGLEVALUE('Length',$,IFCPOSITIVELENGTHMEASURE(10100.),$);
#560=IFCPROPERTYSET('1VsrO7CITKpRrFlD80Wh95',$,'Pset_PipeSegmentTypeCommon',$,(#557,#558,#559));
#561=IFCRELDEFINESBYPROPERTIES('0VjhZvQxbI0Qj8m3w7YOX4',$,$,$,(#556),#560);
#562=IFCPROPERTYSINGLEVALUE('Gradient',$,IFCPOSITIVERATIOMEASURE(0.022550000000000001),$);
#563=IFCPROPERTYSINGLEVALUE('InvertElevation',$,IFCLENGTHMEASURE(519335.09999999998),$);
#564=IFCPROPERTYSET('294zMctpfQO8Dw3mnAblSx',$,'Pset_PipeSegmentOccurrence',$,(#562,#563));
#565=IFCRELDEFINESBYPROPERTIES('3x2kWByQnTQAWoPt7oMXo$',$,$,$,(#556),#564);
#566=IFCPROPERTYSINGLEVALUE('Lage',$,IFCLABEL('Erdreich'),$);
#567=IFCPROPERTYSINGLEVALUE('Abfluss_l_s',$,IFCREAL(1.0369999999999999),$);
#568=IFCPROPERTYSINGLEVALUE('Sohle_unten_m',$,IFCREAL(519.10699999999997),$);
#569=IFCPROPERTYSET('3RIN347znGwvsYY6y0riQE',$,'B17_Entwaesserung',$,(#566,#567,#568));
#570=IFCRELDEFINESBYPROPERTIES('2qP67hzwzViOTRLfBwmAoD',$,$,$,(#556),#569);
#571=IFCCARTESIANPOINT((2750.,11750.,519335.092));
#572=IFCAXIS2PLACEMENT3D(#571,$,$);
#573=IFCLOCALPLACEMENT(#17,#572);
#574=IFCDISTRIBUTIONPORT('1WKQV3llTUZu0JgxaCWs_J',$,'Zulauf',$,$,#573,$,.SINK.,.PIPE.,.RAINWATER.);
#575=IFCCARTESIANPOINT((2750.,21850.,519107.337));
#576=IFCAXIS2PLACEMENT3D(#575,$,$);
#577=IFCLOCALPLACEMENT(#17,#576);
#578=IFCDISTRIBUTIONPORT('0ZhjguHt1LgOUtS5LHIbvi',$,'Ablauf',$,$,#577,$,.SOURCE.,.PIPE.,.RAINWATER.);
#579=IFCRELNESTS('29zuyy97TMRQFawRM89I3B',$,$,$,#556,(#574,#578));
#580=IFCCIRCLEPROFILEDEF(.AREA.,$,$,55.);
#581=IFCCARTESIANPOINT((0.,0.,55.));
#582=IFCDIRECTION((0.65411340704734566,0.75474623890078352,-0.049937616943892364));
#583=IFCDIRECTION((0.,1.,0.));
#584=IFCAXIS2PLACEMENT3D(#581,#582,#583);
#585=IFCDIRECTION((0.,0.,1.));
#586=IFCEXTRUDEDAREASOLID(#580,#584,#585,993.7114772407532);
#587=IFCCARTESIANPOINT((2750.,21850.,519107.337));
#588=IFCAXIS2PLACEMENT3D(#587,$,$);
#589=IFCLOCALPLACEMENT(#17,#588);
#590=IFCSHAPEREPRESENTATION(#14,'Body','SweptSolid',(#586));
#591=IFCPRODUCTDEFINITIONSHAPE($,$,(#590));
#592=IFCPIPESEGMENT('3v664lbSjQ6eOzDgWAffph',$,'NW-B2 \X2\2192\X0\ NW-FS',$,$,#589,#591,$,.RIGIDSEGMENT.);
#593=IFCPROPERTYSINGLEVALUE('NominalDiameter',$,IFCPOSITIVELENGTHMEASURE(100.),$);
#594=IFCPROPERTYSINGLEVALUE('InnerDiameter',$,IFCPOSITIVELENGTHMEASURE(96.),$);
#595=IFCPROPERTYSINGLEVALUE('Length',$,IFCPOSITIVELENGTHMEASURE(992.5),$);
#596=IFCPROPERTYSET('3oERQ8TS5NjfxwiJ8phpBw',$,'Pset_PipeSegmentTypeCommon',$,(#593,#594,#595));
#597=IFCRELDEFINESBYPROPERTIES('281pmboIfT7Pg$3WazP2SV',$,$,$,(#592),#596);
#598=IFCPROPERTYSINGLEVALUE('Gradient',$,IFCPOSITIVERATIOMEASURE(0.050000000000000003),$);
#599=IFCPROPERTYSINGLEVALUE('InvertElevation',$,IFCLENGTHMEASURE(519107.29999999999),$);
#600=IFCPROPERTYSET('0qBca8_YbRTOpxKGVZwgJU',$,'Pset_PipeSegmentOccurrence',$,(#598,#599));
#601=IFCRELDEFINESBYPROPERTIES('0zpZfMz_jOzvWPOpQ0Smbz',$,$,$,(#592),#600);
#602=IFCPROPERTYSINGLEVALUE('Lage',$,IFCLABEL('Erdreich'),$);
#603=IFCPROPERTYSINGLEVALUE('Abfluss_l_s',$,IFCREAL(1.0369999999999999),$);
#604=IFCPROPERTYSINGLEVALUE('Sohle_unten_m',$,IFCREAL(519.05799999999999),$);
#605=IFCPROPERTYSET('01I$lwOjTGuu8sJxzfXXqK',$,'B17_Entwaesserung',$,(#602,#603,#604));
#606=IFCRELDEFINESBYPROPERTIES('06qkJPYOLV$O0iqi8TZa_4',$,$,$,(#592),#605);
#607=IFCCARTESIANPOINT((2750.,21850.,519107.337));
#608=IFCAXIS2PLACEMENT3D(#607,$,$);
#609=IFCLOCALPLACEMENT(#17,#608);
#610=IFCDISTRIBUTIONPORT('1y6tnax35It8OFTplCQHuZ',$,'Zulauf',$,$,#609,$,.SINK.,.PIPE.,.RAINWATER.);
#611=IFCCARTESIANPOINT((3400.,22600.,519057.71399999998));
#612=IFCAXIS2PLACEMENT3D(#611,$,$);
#613=IFCLOCALPLACEMENT(#17,#612);
#614=IFCDISTRIBUTIONPORT('312rFHi65LSARQJsF8$d$i',$,'Ablauf',$,$,#613,$,.SOURCE.,.PIPE.,.RAINWATER.);
#615=IFCRELNESTS('1ArasTBdnTwOkpW809ibIG',$,$,$,#592,(#610,#614));
#616=IFCCIRCLEPROFILEDEF(.AREA.,$,$,55.);
#617=IFCCARTESIANPOINT((0.,0.,55.));
#618=IFCDIRECTION((0.051611224945701875,0.99861718964706625,-0.009999500037474773));
#619=IFCDIRECTION((0.,1.,0.));
#620=IFCAXIS2PLACEMENT3D(#617,#618,#619);
#621=IFCDIRECTION((0.,0.,1.));
#622=IFCEXTRUDEDAREASOLID(#616,#620,#621,1666.3041826749411);
#623=IFCCARTESIANPOINT((15964.,20386.,519200.995));
#624=IFCAXIS2PLACEMENT3D(#623,$,$);
#625=IFCLOCALPLACEMENT(#17,#624);
#626=IFCSHAPEREPRESENTATION(#14,'Body','SweptSolid',(#622));
#627=IFCPRODUCTDEFINITIONSHAPE($,$,(#626));
#628=IFCPIPESEGMENT('0A2Jtm_K5HaAe2$dU7ZJZv',$,'NW-S1 \X2\2192\X0\ NW-S2',$,$,#625,#627,$,.RIGIDSEGMENT.);
#629=IFCPROPERTYSINGLEVALUE('NominalDiameter',$,IFCPOSITIVELENGTHMEASURE(100.),$);
#630=IFCPROPERTYSINGLEVALUE('InnerDiameter',$,IFCPOSITIVELENGTHMEASURE(96.),$);
#631=IFCPROPERTYSINGLEVALUE('Length',$,IFCPOSITIVELENGTHMEASURE(1666.2),$);
#632=IFCPROPERTYSET('3OGhnhi3nJCuE6SR_wP561',$,'Pset_PipeSegmentTypeCommon',$,(#629,#630,#631));
#633=IFCRELDEFINESBYPROPERTIES('1T6ridg1jNxQFLP8jZCfBf',$,$,$,(#628),#632);
#634=IFCPROPERTYSINGLEVALUE('Gradient',$,IFCPOSITIVERATIOMEASURE(0.01),$);
#635=IFCPROPERTYSINGLEVALUE('InvertElevation',$,IFCLENGTHMEASURE(519201.),$);
#636=IFCPROPERTYSET('1Zy312kMvNMvUMnkxKRx91',$,'Pset_PipeSegmentOccurrence',$,(#634,#635));
#637=IFCRELDEFINESBYPROPERTIES('1QW7VkhprHB9NirXbbXI7D',$,$,$,(#628),#636);
#638=IFCPROPERTYSINGLEVALUE('Lage',$,IFCLABEL('Erdreich'),$);
#639=IFCPROPERTYSINGLEVALUE('Abfluss_l_s',$,IFCREAL(2.0739999999999998),$);
#640=IFCPROPERTYSINGLEVALUE('Sohle_unten_m',$,IFCREAL(519.18399999999997),$);
#641=IFCPROPERTYSET('3fkB13TqzNLv8Qqk1H6z54',$,'B17_Entwaesserung',$,(#638,#639,#640));
#642=IFCRELDEFINESBYPROPERTIES('3UimaV9I5IZfIDmlAnRn82',$,$,$,(#628),#641);
#643=IFCCARTESIANPOINT((15964.,20386.,519200.995));
#644=IFCAXIS2PLACEMENT3D(#643,$,$);
#645=IFCLOCALPLACEMENT(#17,#644);
#646=IFCDISTRIBUTIONPORT('1nYm0YsUnS2Av_OypSg5yR',$,'Zulauf',$,$,#645,$,.SINK.,.PIPE.,.RAINWATER.);
#647=IFCCARTESIANPOINT((16050.,22050.,519184.33299999998));
#648=IFCAXIS2PLACEMENT3D(#647,$,$);
#649=IFCLOCALPLACEMENT(#17,#648);
#650=IFCDISTRIBUTIONPORT('39PEeUeULVbQffwDnmQg6L',$,'Ablauf',$,$,#649,$,.SOURCE.,.PIPE.,.RAINWATER.);
#651=IFCRELNESTS('38jzzJLlzKARmRLYG4ZM8N',$,$,$,#628,(#646,#650));
#652=IFCCIRCLEPROFILEDEF(.AREA.,$,$,55.);
#653=IFCCARTESIANPOINT((0.,0.,55.));
#654=IFCDIRECTION((0.93379309755851014,-0.35431156538567943,-0.049937616943864407));
#655=IFCDIRECTION((0.,1.,0.));
#656=IFCAXIS2PLACEMENT3D(#653,#654,#655);
#657=IFCDIRECTION((0.,0.,1.));
#658=IFCEXTRUDEDAREASOLID(#652,#656,#657,603.98818697057311);
#659=IFCCARTESIANPOINT((15400.,20600.,519231.15700000001));
#660=IFCAXIS2PLACEMENT3D(#659,$,$);
#661=IFCLOCALPLACEMENT(#17,#660);
#662=IFCSHAPEREPRESENTATION(#14,'Body','SweptSolid',(#658));
#663=IFCPRODUCTDEFINITIONSHAPE($,$,(#662));
#664=IFCPIPESEGMENT('0br_$X545TSx3usOdvjPXE',$,'RF4 \X2\2192\X0\ NW-S1',$,$,#661,#663,$,.RIGIDSEGMENT.);
#665=IFCPROPERTYSINGLEVALUE('NominalDiameter',$,IFCPOSITIVELENGTHMEASURE(100.),$);
#666=IFCPROPERTYSINGLEVALUE('InnerDiameter',$,IFCPOSITIVELENGTHMEASURE(96.),$);
#667=IFCPROPERTYSINGLEVALUE('Length',$,IFCPOSITIVELENGTHMEASURE(603.20000000000005),$);
#668=IFCPROPERTYSET('3$12LdJ3XHbwxC$bBQNowy',$,'Pset_PipeSegmentTypeCommon',$,(#665,#666,#667));
#669=IFCRELDEFINESBYPROPERTIES('2oddVbNtXJqgRQsxdC_VVs',$,$,$,(#664),#668);
#670=IFCPROPERTYSINGLEVALUE('Gradient',$,IFCPOSITIVERATIOMEASURE(0.050000000000000003),$);
#671=IFCPROPERTYSINGLEVALUE('InvertElevation',$,IFCLENGTHMEASURE(519231.20000000001),$);
#672=IFCPROPERTYSET('2yJYUCv$LL3AOyZ8sB0ePO',$,'Pset_PipeSegmentOccurrence',$,(#670,#671));
#673=IFCRELDEFINESBYPROPERTIES('3GK5s$CSTNzu8nLagNKs69',$,$,$,(#664),#672);
#674=IFCPROPERTYSINGLEVALUE('Lage',$,IFCLABEL('Erdreich'),$);
#675=IFCPROPERTYSINGLEVALUE('Abfluss_l_s',$,IFCREAL(1.0369999999999999),$);
#676=IFCPROPERTYSINGLEVALUE('Sohle_unten_m',$,IFCREAL(519.20100000000002),$);
#677=IFCPROPERTYSET('1MngjFBbXTqxVYSGFV9MMC',$,'B17_Entwaesserung',$,(#674,#675,#676));
#678=IFCRELDEFINESBYPROPERTIES('1gogHoXO5UIu$yB7JDtL1R',$,$,$,(#664),#677);
#679=IFCCARTESIANPOINT((15400.,20600.,519231.15700000001));
#680=IFCAXIS2PLACEMENT3D(#679,$,$);
#681=IFCLOCALPLACEMENT(#17,#680);
#682=IFCDISTRIBUTIONPORT('1JFOLmdzLGDBjE6m1Y_XKO',$,'Zulauf',$,$,#681,$,.SINK.,.PIPE.,.RAINWATER.);
#683=IFCCARTESIANPOINT((15964.,20386.,519200.995));
#684=IFCAXIS2PLACEMENT3D(#683,$,$);
#685=IFCLOCALPLACEMENT(#17,#684);
#686=IFCDISTRIBUTIONPORT('2WoCAyMPnVSh8LXPRYPQDk',$,'Ablauf',$,$,#685,$,.SOURCE.,.PIPE.,.RAINWATER.);
#687=IFCRELNESTS('2qnP5ZzjXJ98wCQvcCxlZV',$,$,$,#664,(#682,#686));
#688=IFCCIRCLEPROFILEDEF(.AREA.,$,$,55.);
#689=IFCCARTESIANPOINT((0.,0.,55.));
#690=IFCDIRECTION((-0.99900552312096702,0.043450831669865686,-0.0099995000374980391));
#691=IFCDIRECTION((0.,1.,0.));
#692=IFCAXIS2PLACEMENT3D(#689,#690,#691);
#693=IFCDIRECTION((0.,0.,1.));
#694=IFCEXTRUDEDAREASOLID(#688,#692,#693,5500.470090328643);
#695=IFCCARTESIANPOINT((10056.,22311.,519124.33600000001));
#696=IFCAXIS2PLACEMENT3D(#695,$,$);
#697=IFCLOCALPLACEMENT(#17,#696);
#698=IFCSHAPEREPRESENTATION(#14,'Body','SweptSolid',(#694));
#699=IFCPRODUCTDEFINITIONSHAPE($,$,(#698));
#700=IFCPIPESEGMENT('32y5ErXpDIEBXKDMpHuUuX',$,'NW-S3 \X2\2192\X0\ NW-S4',$,$,#697,#699,$,.RIGIDSEGMENT.);
#701=IFCPROPERTYSINGLEVALUE('NominalDiameter',$,IFCPOSITIVELENGTHMEASURE(100.),$);
#702=IFCPROPERTYSINGLEVALUE('InnerDiameter',$,IFCPOSITIVELENGTHMEASURE(96.),$);
#703=IFCPROPERTYSINGLEVALUE('Length',$,IFCPOSITIVELENGTHMEASURE(5500.1999999999998),$);
#704=IFCPROPERTYSET('3rVbzzsEjGte6bqHMCslDN',$,'Pset_PipeSegmentTypeCommon',$,(#701,#702,#703));
#705=IFCRELDEFINESBYPROPERTIES('1tgvjxoGvVFfo0Er8mRhGA',$,$,$,(#700),#704);
#706=IFCPROPERTYSINGLEVALUE('Gradient',$,IFCPOSITIVERATIOMEASURE(0.01),$);
#707=IFCPROPERTYSINGLEVALUE('InvertElevation',$,IFCLENGTHMEASURE(519124.29999999999),$);
#708=IFCPROPERTYSET('3XtYCukd5P6fbDIxDdpo4p',$,'Pset_PipeSegmentOccurrence',$,(#706,#707));
#709=IFCRELDEFINESBYPROPERTIES('0L6l2n6nzLfPKoPKLpg5Ap',$,$,$,(#700),#708);
#710=IFCPROPERTYSINGLEVALUE('Lage',$,IFCLABEL('Erdreich'),$);
#711=IFCPROPERTYSINGLEVALUE('Abfluss_l_s',$,IFCREAL(2.7000000000000002),$);
#712=IFCPROPERTYSINGLEVALUE('Sohle_unten_m',$,IFCREAL(519.06899999999996),$);
#713=IFCPROPERTYSET('1T8w8XKafRag47Ru03c4jQ',$,'B17_Entwaesserung',$,(#710,#711,#712));
#714=IFCRELDEFINESBYPROPERTIES('1rzilKizbNWxT38HVInBcg',$,$,$,(#700),#713);
#715=IFCCARTESIANPOINT((10056.,22311.,519124.33600000001));
#716=IFCAXIS2PLACEMENT3D(#715,$,$);
#717=IFCLOCALPLACEMENT(#17,#716);
#718=IFCDISTRIBUTIONPORT('1H5pAHZIHT4AUITxcfcoVI',$,'Zulauf',$,$,#717,$,.SINK.,.PIPE.,.RAINWATER.);
#719=IFCCARTESIANPOINT((4561.,22550.,519069.33399999997));
#720=IFCAXIS2PLACEMENT3D(#719,$,$);
#721=IFCLOCALPLACEMENT(#17,#720);
#722=IFCDISTRIBUTIONPORT('0$IaG0_q9RmALiMVlUv9yl',$,'Ablauf',$,$,#721,$,.SOURCE.,.PIPE.,.RAINWATER.);
#723=IFCRELNESTS('1eZ1xEm$PUvuJ1dUo1OZgE',$,$,$,#700,(#718,#722));
#724=IFCCIRCLEPROFILEDEF(.AREA.,$,$,55.);
#725=IFCCARTESIANPOINT((0.,0.,55.));
#726=IFCDIRECTION((0.028108585400337751,-0.99835672073701154,-0.049937616943869674));
#727=IFCDIRECTION((0.,1.,0.));
#728=IFCAXIS2PLACEMENT3D(#725,#726,#727);
#729=IFCDIRECTION((0.,0.,1.));
#730=IFCEXTRUDEDAREASOLID(#724,#728,#729,1992.2738623241521);
#731=IFCCARTESIANPOINT((10000.,24300.,519223.826));
#732=IFCAXIS2PLACEMENT3D(#731,$,$);
#733=IFCLOCALPLACEMENT(#17,#732);
#734=IFCSHAPEREPRESENTATION(#14,'Body','SweptSolid',(#730));
#735=IFCPRODUCTDEFINITIONSHAPE($,$,(#734));
#736=IFCPIPESEGMENT('152_fhTS5PZu7TaFF01Qi3',$,'HA1 \X2\2192\X0\ NW-S3',$,$,#733,#735,$,.RIGIDSEGMENT.);
#737=IFCPROPERTYSINGLEVALUE('NominalDiameter',$,IFCPOSITIVELENGTHMEASURE(100.),$);
#738=IFCPROPERTYSINGLEVALUE('InnerDiameter',$,IFCPOSITIVELENGTHMEASURE(96.),$);
#739=IFCPROPERTYSINGLEVALUE('Length',$,IFCPOSITIVELENGTHMEASURE(1989.8),$);
#740=IFCPROPERTYSET('1$LTItg$1UTvB1aneYYMda',$,'Pset_PipeSegmentTypeCommon',$,(#737,#738,#739));
#741=IFCRELDEFINESBYPROPERTIES('1SSFdo_ULOkw7ZQ1cWnPr6',$,$,$,(#736),#740);
#742=IFCPROPERTYSINGLEVALUE('Gradient',$,IFCPOSITIVERATIOMEASURE(0.050000000000000003),$);
#743=IFCPROPERTYSINGLEVALUE('InvertElevation',$,IFCLENGTHMEASURE(519223.79999999999),$);
#744=IFCPROPERTYSET('0TkK2Avr1IfffvDCgYzGBq',$,'Pset_PipeSegmentOccurrence',$,(#742,#743));
#745=IFCRELDEFINESBYPROPERTIES('1INIPbKTDQbgZlejpBuqyp',$,$,$,(#736),#744);
#746=IFCPROPERTYSINGLEVALUE('Lage',$,IFCLABEL('Erdreich'),$);
#747=IFCPROPERTYSINGLEVALUE('Abfluss_l_s',$,IFCREAL(0.626),$);
#748=IFCPROPERTYSINGLEVALUE('Sohle_unten_m',$,IFCREAL(519.12400000000002),$);
#749=IFCPROPERTYSET('06NAL2ilLLcePhMzyt$5az',$,'B17_Entwaesserung',$,(#746,#747,#748));
#750=IFCRELDEFINESBYPROPERTIES('3PQEKOx5nKqPRseTUie_Fg',$,$,$,(#736),#749);
#751=IFCCARTESIANPOINT((10000.,24300.,519223.826));
#752=IFCAXIS2PLACEMENT3D(#751,$,$);
#753=IFCLOCALPLACEMENT(#17,#752);
#754=IFCDISTRIBUTIONPORT('0rXjhSIXvOeR5tQaIAVbwy',$,'Zulauf',$,$,#753,$,.SINK.,.PIPE.,.RAINWATER.);
#755=IFCCARTESIANPOINT((10056.,22311.,519124.33600000001));
#756=IFCAXIS2PLACEMENT3D(#755,$,$);
#757=IFCLOCALPLACEMENT(#17,#756);
#758=IFCDISTRIBUTIONPORT('0eTLKlAXnScBySW57qXBCf',$,'Ablauf',$,$,#757,$,.SOURCE.,.PIPE.,.RAINWATER.);
#759=IFCRELNESTS('04LdHdJ8bJyx3y4LT_Tvmy',$,$,$,#736,(#754,#758));
#760=IFCCIRCLEPROFILEDEF(.AREA.,$,$,55.);
#761=IFCCARTESIANPOINT((0.,0.,55.));
#762=IFCDIRECTION((-0.9990239839861107,0.043024288716026052,-0.0099995000374556546));
#763=IFCDIRECTION((0.,1.,0.));
#764=IFCAXIS2PLACEMENT3D(#761,#762,#763);
#765=IFCDIRECTION((0.,0.,1.));
#766=IFCEXTRUDEDAREASOLID(#760,#764,#765,1162.1342616496595);
#767=IFCCARTESIANPOINT((4561.,22550.,519069.33399999997));
#768=IFCAXIS2PLACEMENT3D(#767,$,$);
#769=IFCLOCALPLACEMENT(#17,#768);
#770=IFCSHAPEREPRESENTATION(#14,'Body','SweptSolid',(#766));
#771=IFCPRODUCTDEFINITIONSHAPE($,$,(#770));
#772=IFCPIPESEGMENT('3Gb6FlWbPUUgV9yZJ9JCAd',$,'NW-S4 \X2\2192\X0\ NW-FS',$,$,#769,#771,$,.RIGIDSEGMENT.);
#773=IFCPROPERTYSINGLEVALUE('NominalDiameter',$,IFCPOSITIVELENGTHMEASURE(100.),$);
#774=IFCPROPERTYSINGLEVALUE('InnerDiameter',$,IFCPOSITIVELENGTHMEASURE(96.),$);
#775=IFCPROPERTYSINGLEVALUE('Length',$,IFCPOSITIVELENGTHMEASURE(1162.0999999999999),$);
#776=IFCPROPERTYSET('13EJ03TCfSGA1M2XrdFfzn',$,'Pset_PipeSegmentTypeCommon',$,(#773,#774,#775));
#777=IFCRELDEFINESBYPROPERTIES('2N2JOQleTNp9AvtqRQSVIA',$,$,$,(#772),#776);
#778=IFCPROPERTYSINGLEVALUE('Gradient',$,IFCPOSITIVERATIOMEASURE(0.01),$);
#779=IFCPROPERTYSINGLEVALUE('InvertElevation',$,IFCLENGTHMEASURE(519069.29999999999),$);
#780=IFCPROPERTYSET('0bIEWLGbLKmv$7RnqA6jW6',$,'Pset_PipeSegmentOccurrence',$,(#778,#779));
#781=IFCRELDEFINESBYPROPERTIES('2W68ijn_XO9OwW10xeV8dy',$,$,$,(#772),#780);
#782=IFCPROPERTYSINGLEVALUE('Lage',$,IFCLABEL('Erdreich'),$);
#783=IFCPROPERTYSINGLEVALUE('Abfluss_l_s',$,IFCREAL(3.7370000000000001),$);
#784=IFCPROPERTYSINGLEVALUE('Sohle_unten_m',$,IFCREAL(519.05799999999999),$);
#785=IFCPROPERTYSET('0UtvOUfFrI79wNs$LLudqd',$,'B17_Entwaesserung',$,(#782,#783,#784));
#786=IFCRELDEFINESBYPROPERTIES('38iIXb6ObPpesjTi_E_fXW',$,$,$,(#772),#785);
#787=IFCCARTESIANPOINT((4561.,22550.,519069.33399999997));
#788=IFCAXIS2PLACEMENT3D(#787,$,$);
#789=IFCLOCALPLACEMENT(#17,#788);
#790=IFCDISTRIBUTIONPORT('1UK7bxgEvQXwdd0MV0mDiu',$,'Zulauf',$,$,#789,$,.SINK.,.PIPE.,.RAINWATER.);
#791=IFCCARTESIANPOINT((3400.,22600.,519057.71399999998));
#792=IFCAXIS2PLACEMENT3D(#791,$,$);
#793=IFCLOCALPLACEMENT(#17,#792);
#794=IFCDISTRIBUTIONPORT('07Um6Uf$jU$gyygpnZxySU',$,'Ablauf',$,$,#793,$,.SOURCE.,.PIPE.,.RAINWATER.);
#795=IFCRELNESTS('0PxyXnEqDUeuUC8CePyFrr',$,$,$,#772,(#790,#794));
#796=IFCCIRCLEPROFILEDEF(.AREA.,$,$,55.);
#797=IFCCARTESIANPOINT((0.,0.,55.));
#798=IFCDIRECTION((-0.019971052966304699,0.99855264831524215,-0.049937616943877085));
#799=IFCDIRECTION((0.,1.,0.));
#800=IFCAXIS2PLACEMENT3D(#797,#798,#799);
#801=IFCDIRECTION((0.,0.,1.));
#802=IFCEXTRUDEDAREASOLID(#796,#800,#801,1952.8264266186052);
#803=IFCCARTESIANPOINT((4600.,20600.,519166.85399999999));
#804=IFCAXIS2PLACEMENT3D(#803,$,$);
#805=IFCLOCALPLACEMENT(#17,#804);
#806=IFCSHAPEREPRESENTATION(#14,'Body','SweptSolid',(#802));
#807=IFCPRODUCTDEFINITIONSHAPE($,$,(#806));
#808=IFCPIPESEGMENT('1SrSfG_Y5IFBqrDaC3fMU1',$,'RF2 \X2\2192\X0\ NW-S4',$,$,#805,#807,$,.RIGIDSEGMENT.);
#809=IFCPROPERTYSINGLEVALUE('NominalDiameter',$,IFCPOSITIVELENGTHMEASURE(100.),$);
#810=IFCPROPERTYSINGLEVALUE('InnerDiameter',$,IFCPOSITIVELENGTHMEASURE(96.),$);
#811=IFCPROPERTYSINGLEVALUE('Length',$,IFCPOSITIVELENGTHMEASURE(1950.4000000000001),$);
#812=IFCPROPERTYSET('3dUb8IAtbPJh5MpHU67FGs',$,'Pset_PipeSegmentTypeCommon',$,(#809,#810,#811));
#813=IFCRELDEFINESBYPROPERTIES('3GYN_rhf9RAwSbYAht3V6I',$,$,$,(#808),#812);
#814=IFCPROPERTYSINGLEVALUE('Gradient',$,IFCPOSITIVERATIOMEASURE(0.050000000000000003),$);
#815=IFCPROPERTYSINGLEVALUE('InvertElevation',$,IFCLENGTHMEASURE(519166.90000000002),$);
#816=IFCPROPERTYSET('1kqMDduhjOlOeyyAnEOTz$',$,'Pset_PipeSegmentOccurrence',$,(#814,#815));
#817=IFCRELDEFINESBYPROPERTIES('0cNvpNK6nTSAlsIpL1aZkU',$,$,$,(#808),#816);
#818=IFCPROPERTYSINGLEVALUE('Lage',$,IFCLABEL('Erdreich'),$);
#819=IFCPROPERTYSINGLEVALUE('Abfluss_l_s',$,IFCREAL(1.0369999999999999),$);
#820=IFCPROPERTYSINGLEVALUE('Sohle_unten_m',$,IFCREAL(519.06899999999996),$);
#821=IFCPROPERTYSET('0boe96IDTSFeB8O3l2Edy7',$,'B17_Entwaesserung',$,(#818,#819,#820));
#822=IFCRELDEFINESBYPROPERTIES('0EHmZm67TKABs3myUc6FHX',$,$,$,(#808),#821);
#823=IFCCARTESIANPOINT((4600.,20600.,519166.85399999999));
#824=IFCAXIS2PLACEMENT3D(#823,$,$);
#825=IFCLOCALPLACEMENT(#17,#824);
#826=IFCDISTRIBUTIONPORT('3M2JR8j21JtPp5xv2LfXf2',$,'Zulauf',$,$,#825,$,.SINK.,.PIPE.,.RAINWATER.);
#827=IFCCARTESIANPOINT((4561.,22550.,519069.33399999997));
#828=IFCAXIS2PLACEMENT3D(#827,$,$);
#829=IFCLOCALPLACEMENT(#17,#828);
#830=IFCDISTRIBUTIONPORT('2_yckbZZjNQBSwO4L2GvdK',$,'Ablauf',$,$,#829,$,.SOURCE.,.PIPE.,.RAINWATER.);
#831=IFCRELNESTS('0Vp7T8HIvPQRubj3vI0NSj',$,$,$,#808,(#826,#830));
#832=IFCCARTESIANPOINT((2750.,11750.,519335.092));
#833=IFCAXIS2PLACEMENT3D(#832,$,$);
#834=IFCLOCALPLACEMENT(#17,#833);
#835=IFCPIPEFITTING('3CkQgTgr1TT9NuvI974cbP',$,'NW-B1',$,$,#834,$,$,.BEND.);
#836=IFCCARTESIANPOINT((2750.,11750.,519335.092));
#837=IFCAXIS2PLACEMENT3D(#836,$,$);
#838=IFCLOCALPLACEMENT(#17,#837);
#839=IFCDISTRIBUTIONPORT('0Uwmb_IS9Q_A7RffK7Kye5',$,'Zulauf 1',$,$,#838,$,.SINK.,.PIPE.,.RAINWATER.);
#840=IFCRELCONNECTSPORTS('0r6rpzBHzVTAHIeoaSrOLy',$,$,$,#542,#839,$);
#841=IFCCARTESIANPOINT((2750.,11750.,519335.092));
#842=IFCAXIS2PLACEMENT3D(#841,$,$);
#843=IFCLOCALPLACEMENT(#17,#842);
#844=IFCDISTRIBUTIONPORT('0qUBkbhnnJ9gPGgLo1_kAs',$,'Ablauf',$,$,#843,$,.SOURCE.,.PIPE.,.RAINWATER.);
#845=IFCRELCONNECTSPORTS('3LsEoLva9MEw2P0DBqkTpw',$,$,$,#844,#574,$);
#846=IFCRELNESTS('0TZMrswFLR68KRho3KWI8U',$,$,$,#835,(#839,#844));
#847=IFCCARTESIANPOINT((2750.,21850.,519107.337));
#848=IFCAXIS2PLACEMENT3D(#847,$,$);
#849=IFCLOCALPLACEMENT(#17,#848);
#850=IFCPIPEFITTING('3OZU4u9g9R49krY$H8hgHm',$,'NW-B2',$,$,#849,$,$,.BEND.);
#851=IFCCARTESIANPOINT((2750.,21850.,519107.337));
#852=IFCAXIS2PLACEMENT3D(#851,$,$);
#853=IFCLOCALPLACEMENT(#17,#852);
#854=IFCDISTRIBUTIONPORT('1P7DWyN0TKbBhugnouWEaR',$,'Zulauf 1',$,$,#853,$,.SINK.,.PIPE.,.RAINWATER.);
#855=IFCRELCONNECTSPORTS('0Pe6Rkpc1LfuiFPdIJ0dq2',$,$,$,#578,#854,$);
#856=IFCCARTESIANPOINT((2750.,21850.,519107.337));
#857=IFCAXIS2PLACEMENT3D(#856,$,$);
#858=IFCLOCALPLACEMENT(#17,#857);
#859=IFCDISTRIBUTIONPORT('25RUu6PpPS5gv_DwZskx2J',$,'Ablauf',$,$,#858,$,.SOURCE.,.PIPE.,.RAINWATER.);
#860=IFCRELCONNECTSPORTS('2nnM6kyb5UmOFKWnJ2Z8BU',$,$,$,#859,#610,$);
#861=IFCRELNESTS('0sLjHzTsTOJAB$Mzm4rSTK',$,$,$,#850,(#854,#859));
#862=IFCCIRCLEPROFILEDEF(.AREA.,$,$,260.);
#863=IFCCARTESIANPOINT((0.,0.,-150.));
#864=IFCAXIS2PLACEMENT3D(#863,$,$);
#865=IFCDIRECTION((0.,0.,1.));
#866=IFCEXTRUDEDAREASOLID(#862,#864,#865,1276.9046780822691);
#867=IFCCARTESIANPOINT((15964.,20386.,519200.995));
#868=IFCAXIS2PLACEMENT3D(#867,$,$);
#869=IFCLOCALPLACEMENT(#17,#868);
#870=IFCSHAPEREPRESENTATION(#14,'Body','SweptSolid',(#866));
#871=IFCPRODUCTDEFINITIONSHAPE($,$,(#870));
#872=IFCDISTRIBUTIONCHAMBERELEMENT('1YfhmLR3fQJvTOL0t1iL2e',$,'NW-S1',$,$,#869,#871,$,.INSPECTIONCHAMBER.);
#873=IFCPROPERTYSINGLEVALUE('InspectionChamberInvertLevel',$,IFCLENGTHMEASURE(519201.),$);
#874=IFCPROPERTYSINGLEVALUE('ChamberLengthOrRadius',$,IFCPOSITIVELENGTHMEASURE(200.),$);
#875=IFCPROPERTYSINGLEVALUE('AccessCoverLoadRating',$,IFCTEXT('B 125 (Beispiel)'),$);
#876=IFCPROPERTYSET('1UJ3P3DsPKX9ra2_ksq9W4',$,'Pset_DistributionChamberElementTypeInspectionChamber',$,(#873,#874,#875));
#877=IFCRELDEFINESBYPROPERTIES('1MM4YY3cbOyh_NxJelYagm',$,$,$,(#872),#876);
#878=IFCCARTESIANPOINT((15964.,20386.,519200.995));
#879=IFCAXIS2PLACEMENT3D(#878,$,$);
#880=IFCLOCALPLACEMENT(#17,#879);
#881=IFCDISTRIBUTIONPORT('2wG4JGjRbQhhWA1PMgM7wA',$,'Zulauf 1',$,$,#880,$,.SINK.,.PIPE.,.RAINWATER.);
#882=IFCRELCONNECTSPORTS('3uHtZ_yqLP5gz1fhBw6NPp',$,$,$,#470,#881,$);
#883=IFCCARTESIANPOINT((15964.,20386.,519200.995));
#884=IFCAXIS2PLACEMENT3D(#883,$,$);
#885=IFCLOCALPLACEMENT(#17,#884);
#886=IFCDISTRIBUTIONPORT('35zUOmhOfSIfVnPBSIG7CS',$,'Zulauf 2',$,$,#885,$,.SINK.,.PIPE.,.RAINWATER.);
#887=IFCRELCONNECTSPORTS('2x3PLSiqbMm8Mke6ZP5cD1',$,$,$,#686,#886,$);
#888=IFCCARTESIANPOINT((15964.,20386.,519200.995));
#889=IFCAXIS2PLACEMENT3D(#888,$,$);
#890=IFCLOCALPLACEMENT(#17,#889);
#891=IFCDISTRIBUTIONPORT('2vQQGyGE1N1fz7BR43kjsW',$,'Ablauf',$,$,#890,$,.SOURCE.,.PIPE.,.RAINWATER.);
#892=IFCRELCONNECTSPORTS('2rR2ubPqLM9v921pVNf$MB',$,$,$,#891,#646,$);
#893=IFCRELNESTS('3mJaspDg5JguX4wJDjrGKR',$,$,$,#872,(#881,#886,#891));
#894=IFCCIRCLEPROFILEDEF(.AREA.,$,$,260.);
#895=IFCCARTESIANPOINT((0.,0.,-150.));
#896=IFCAXIS2PLACEMENT3D(#895,$,$);
#897=IFCDIRECTION((0.,0.,1.));
#898=IFCEXTRUDEDAREASOLID(#894,#896,#897,1326.4168868194247);
#899=IFCCARTESIANPOINT((16050.,22050.,519184.33299999998));
#900=IFCAXIS2PLACEMENT3D(#899,$,$);
#901=IFCLOCALPLACEMENT(#17,#900);
#902=IFCSHAPEREPRESENTATION(#14,'Body','SweptSolid',(#898));
#903=IFCPRODUCTDEFINITIONSHAPE($,$,(#902));
#904=IFCDISTRIBUTIONCHAMBERELEMENT('2ceYNQNlrQiBgZX_bLuMED',$,'NW-S2',$,$,#901,#903,$,.INSPECTIONCHAMBER.);
#905=IFCPROPERTYSINGLEVALUE('InspectionChamberInvertLevel',$,IFCLENGTHMEASURE(519184.29999999999),$);
#906=IFCPROPERTYSINGLEVALUE('ChamberLengthOrRadius',$,IFCPOSITIVELENGTHMEASURE(200.),$);
#907=IFCPROPERTYSINGLEVALUE('AccessCoverLoadRating',$,IFCTEXT('B 125 (Beispiel)'),$);
#908=IFCPROPERTYSET('0EcWsCWZzRewRLD1cWzXqh',$,'Pset_DistributionChamberElementTypeInspectionChamber',$,(#905,#906,#907));
#909=IFCRELDEFINESBYPROPERTIES('1Vb0RBmTvPHuWtWJS9wJs6',$,$,$,(#904),#908);
#910=IFCCARTESIANPOINT((16050.,22050.,519184.33299999998));
#911=IFCAXIS2PLACEMENT3D(#910,$,$);
#912=IFCLOCALPLACEMENT(#17,#911);
#913=IFCDISTRIBUTIONPORT('3XEWc$uCzQbwpuiUIoBnyy',$,'Zulauf 1',$,$,#912,$,.SINK.,.PIPE.,.RAINWATER.);
#914=IFCRELCONNECTSPORTS('2Kc1Ia0ubGy9$p_r6s_3a2',$,$,$,#650,#913,$);
#915=IFCCARTESIANPOINT((16050.,22050.,519184.33299999998));
#916=IFCAXIS2PLACEMENT3D(#915,$,$);
#917=IFCLOCALPLACEMENT(#17,#916);
#918=IFCDISTRIBUTIONPORT('1Jop8BXU1Lu8r3Xw0la0qj',$,'Ablauf',$,$,#917,$,.SOURCE.,.PIPE.,.RAINWATER.);
#919=IFCRELCONNECTSPORTS('1harP3PWTMRBaMxW8uu$bY',$,$,$,#918,#502,$);
#920=IFCRELNESTS('1GIsp96R9SuxlJDMh8R7NE',$,$,$,#904,(#913,#918));
#921=IFCCIRCLEPROFILEDEF(.AREA.,$,$,360.);
#922=IFCCARTESIANPOINT((0.,0.,-150.));
#923=IFCAXIS2PLACEMENT3D(#922,$,$);
#924=IFCDIRECTION((0.,0.,1.));
#925=IFCEXTRUDEDAREASOLID(#921,#923,#924,1421.6036842339236);
#926=IFCCARTESIANPOINT((10056.,22311.,519124.33600000001));
#927=IFCAXIS2PLACEMENT3D(#926,$,$);
#928=IFCLOCALPLACEMENT(#17,#927);
#929=IFCSHAPEREPRESENTATION(#14,'Body','SweptSolid',(#925));
#930=IFCPRODUCTDEFINITIONSHAPE($,$,(#929));
#931=IFCDISTRIBUTIONCHAMBERELEMENT('14egOJc8bIeOWvYed7FOPj',$,'NW-S3',$,$,#928,#930,$,.INSPECTIONCHAMBER.);
#932=IFCPROPERTYSINGLEVALUE('InspectionChamberInvertLevel',$,IFCLENGTHMEASURE(519124.29999999999),$);
#933=IFCPROPERTYSINGLEVALUE('ChamberLengthOrRadius',$,IFCPOSITIVELENGTHMEASURE(300.),$);
#934=IFCPROPERTYSINGLEVALUE('AccessCoverLoadRating',$,IFCTEXT('B 125 (Beispiel)'),$);
#935=IFCPROPERTYSET('1IhwvZIrXTwQsgS$sIj1SH',$,'Pset_DistributionChamberElementTypeInspectionChamber',$,(#932,#933,#934));
#936=IFCRELDEFINESBYPROPERTIES('0nP7ic8CzPhgBYnEei6FKh',$,$,$,(#931),#935);
#937=IFCCARTESIANPOINT((10056.,22311.,519124.33600000001));
#938=IFCAXIS2PLACEMENT3D(#937,$,$);
#939=IFCLOCALPLACEMENT(#17,#938);
#940=IFCDISTRIBUTIONPORT('3p_nKxYArKgOO4f7wk_y_M',$,'Zulauf 1',$,$,#939,$,.SINK.,.PIPE.,.RAINWATER.);
#941=IFCRELCONNECTSPORTS('1xvTA1CnjNIh_QEWwxuyI6',$,$,$,#506,#940,$);
#942=IFCCARTESIANPOINT((10056.,22311.,519124.33600000001));
#943=IFCAXIS2PLACEMENT3D(#942,$,$);
#944=IFCLOCALPLACEMENT(#17,#943);
#945=IFCDISTRIBUTIONPORT('0WxiYegA5OZAqv1VHsM_ej',$,'Zulauf 2',$,$,#944,$,.SINK.,.PIPE.,.RAINWATER.);
#946=IFCRELCONNECTSPORTS('3XTH7nqsjSJvkBLPrKs6w7',$,$,$,#758,#945,$);
#947=IFCCARTESIANPOINT((10056.,22311.,519124.33600000001));
#948=IFCAXIS2PLACEMENT3D(#947,$,$);
#949=IFCLOCALPLACEMENT(#17,#948);
#950=IFCDISTRIBUTIONPORT('2Drgbti3fK2f64HPrCsEgi',$,'Ablauf',$,$,#949,$,.SOURCE.,.PIPE.,.RAINWATER.);
#951=IFCRELCONNECTSPORTS('2CIEe32vvSzRCNdcZ4HCOR',$,$,$,#950,#718,$);
#952=IFCRELNESTS('2NdERel75Q3v5dOWh$rDPI',$,$,$,#931,(#940,#945,#950));
#953=IFCCIRCLEPROFILEDEF(.AREA.,$,$,360.);
#954=IFCCARTESIANPOINT((0.,0.,-150.));
#955=IFCAXIS2PLACEMENT3D(#954,$,$);
#956=IFCDIRECTION((0.,0.,1.));
#957=IFCEXTRUDEDAREASOLID(#953,#955,#956,1508.8606351084991);
#958=IFCCARTESIANPOINT((4561.,22550.,519069.33399999997));
#959=IFCAXIS2PLACEMENT3D(#958,$,$);
#960=IFCLOCALPLACEMENT(#17,#959);
#961=IFCSHAPEREPRESENTATION(#14,'Body','SweptSolid',(#957));
#962=IFCPRODUCTDEFINITIONSHAPE($,$,(#961));
#963=IFCDISTRIBUTIONCHAMBERELEMENT('12wcZ_Dg1SyvETL7v3Xtmn',$,'NW-S4',$,$,#960,#962,$,.INSPECTIONCHAMBER.);
#964=IFCPROPERTYSINGLEVALUE('InspectionChamberInvertLevel',$,IFCLENGTHMEASURE(519069.29999999999),$);
#965=IFCPROPERTYSINGLEVALUE('ChamberLengthOrRadius',$,IFCPOSITIVELENGTHMEASURE(300.),$);
#966=IFCPROPERTYSINGLEVALUE('AccessCoverLoadRating',$,IFCTEXT('B 125 (Beispiel)'),$);
#967=IFCPROPERTYSET('0P$b2QNYbVq8kNMItx5hf$',$,'Pset_DistributionChamberElementTypeInspectionChamber',$,(#964,#965,#966));
#968=IFCRELDEFINESBYPROPERTIES('0BhU1eAxrIbhlcMo1oSAuV',$,$,$,(#963),#967);
#969=IFCCARTESIANPOINT((4561.,22550.,519069.33399999997));
#970=IFCAXIS2PLACEMENT3D(#969,$,$);
#971=IFCLOCALPLACEMENT(#17,#970);
#972=IFCDISTRIBUTIONPORT('31N0hGY1nIPfW1QJ0x3xEe',$,'Zulauf 1',$,$,#971,$,.SINK.,.PIPE.,.RAINWATER.);
#973=IFCRELCONNECTSPORTS('30cPUkZZvJhOjzUsUVhqys',$,$,$,#722,#972,$);
#974=IFCCARTESIANPOINT((4561.,22550.,519069.33399999997));
#975=IFCAXIS2PLACEMENT3D(#974,$,$);
#976=IFCLOCALPLACEMENT(#17,#975);
#977=IFCDISTRIBUTIONPORT('3QRhs3UsPPqhBsUb$hWGKJ',$,'Zulauf 2',$,$,#976,$,.SINK.,.PIPE.,.RAINWATER.);
#978=IFCRELCONNECTSPORTS('3TIpf6HxnVzuhCiOxJPxPZ',$,$,$,#830,#977,$);
#979=IFCCARTESIANPOINT((4561.,22550.,519069.33399999997));
#980=IFCAXIS2PLACEMENT3D(#979,$,$);
#981=IFCLOCALPLACEMENT(#17,#980);
#982=IFCDISTRIBUTIONPORT('0l_pvGCCfSxxx_lKZpOZ3P',$,'Ablauf',$,$,#981,$,.SOURCE.,.PIPE.,.RAINWATER.);
#983=IFCRELCONNECTSPORTS('0dfEcY0KnRJ8ewsX74rk3e',$,$,$,#982,#790,$);
#984=IFCRELNESTS('0wxRQy8FLHcANfqQN134CP',$,$,$,#963,(#972,#977,#982));
#985=IFCCIRCLEPROFILEDEF(.AREA.,$,$,500.);
#986=IFCCARTESIANPOINT((0.,0.,-300.));
#987=IFCAXIS2PLACEMENT3D(#986,$,$);
#988=IFCDIRECTION((0.,0.,1.));
#989=IFCEXTRUDEDAREASOLID(#985,#987,#988,1677.2863967012654);
#990=IFCCARTESIANPOINT((3400.,22600.,519057.71399999998));
#991=IFCAXIS2PLACEMENT3D(#990,$,$);
#992=IFCLOCALPLACEMENT(#17,#991);
#993=IFCSHAPEREPRESENTATION(#14,'Body','SweptSolid',(#989));
#994=IFCPRODUCTDEFINITIONSHAPE($,$,(#993));
#995=IFCINTERCEPTOR('3Tfk1jeNXRBPoxyW9IeaGI',$,'NW-FS',$,'Filterschacht Niederschlagswasser (Vorreinigung)',#992,#994,$,.USERDEFINED.);
#996=IFCPROPERTYSINGLEVALUE('NominalBodyDepth',$,IFCPOSITIVELENGTHMEASURE(1677.3),$);
#997=IFCPROPERTYSET('3LqdDAYJzTZfQS4rotglDX',$,'Pset_InterceptorTypeCommon',$,(#996));
#998=IFCRELDEFINESBYPROPERTIES('2CdTMlJPHS2Ai0_SPmVIIK',$,$,$,(#995),#997);
#999=IFCCARTESIANPOINT((3400.,22600.,519057.71399999998));
#1000=IFCAXIS2PLACEMENT3D(#999,$,$);
#1001=IFCLOCALPLACEMENT(#17,#1000);
#1002=IFCDISTRIBUTIONPORT('3d6ahLjSfGF8YX8j6aFq8q',$,'Zulauf 1',$,$,#1001,$,.SINK.,.PIPE.,.RAINWATER.);
#1003=IFCRELCONNECTSPORTS('1U629CI41OdhcuIu29yEht',$,$,$,#614,#1002,$);
#1004=IFCCARTESIANPOINT((3400.,22600.,519057.71399999998));
#1005=IFCAXIS2PLACEMENT3D(#1004,$,$);
#1006=IFCLOCALPLACEMENT(#17,#1005);
#1007=IFCDISTRIBUTIONPORT('19_Enr2fXLBv080S85zclt',$,'Zulauf 2',$,$,#1006,$,.SINK.,.PIPE.,.RAINWATER.);
#1008=IFCRELCONNECTSPORTS('1yYCnhc0XLVf04hmTxxzMX',$,$,$,#794,#1007,$);
#1009=IFCCARTESIANPOINT((3400.,22600.,519057.71399999998));
#1010=IFCAXIS2PLACEMENT3D(#1009,$,$);
#1011=IFCLOCALPLACEMENT(#17,#1010);
#1012=IFCDISTRIBUTIONPORT('0omjpw3K1OeBWm2QYkvJXF',$,'Ablauf',$,$,#1011,$,.SOURCE.,.PIPE.,.RAINWATER.);
#1013=IFCRELNESTS('3WdOuQrXTQi8zaJsNzVwUV',$,$,$,#995,(#1002,#1007,#1012));
#1014=IFCCARTESIANPOINT((399.99999999999989,4800.0000000000009));
#1015=IFCAXIS2PLACEMENT2D(#1014,$);
#1016=IFCRECTANGLEPROFILEDEF(.AREA.,$,#1015,799.99999999999977,9600.0000000000018);
#1017=IFCCARTESIANPOINT((0.,0.,0.));
#1018=IFCAXIS2PLACEMENT3D(#1017,$,$);
#1019=IFCDIRECTION((0.,0.,1.));
#1020=IFCEXTRUDEDAREASOLID(#1016,#1018,#1019,660.);
#1021=IFCCARTESIANPOINT((3000.,12000.,518348.));
#1022=IFCAXIS2PLACEMENT3D(#1021,$,$);
#1023=IFCLOCALPLACEMENT(#17,#1022);
#1024=IFCSHAPEREPRESENTATION(#14,'Body','SweptSolid',(#1020));
#1025=IFCPRODUCTDEFINITIONSHAPE($,$,(#1024));
#1026=IFCDISTRIBUTIONCHAMBERELEMENT('2oHDmAZtjTcvpTj3S_ocX8',$,'Rigole (F\X2\00FC\X0\llk\X2\00F6\X0\rper)',$,'Versickerungsrigole',#1023,#1025,$,.USERDEFINED.);
#1027=IFCPROPERTYSINGLEVALUE('Bemessung',$,IFCLABEL('DWA-A 138-1 (2024), einfaches Verfahren, T = 5 a (Beispielreihe)'),$);
#1028=IFCPROPERTYSINGLEVALUE('kf_m_s',$,IFCREAL(1.0000000000000001E-05),$);
#1029=IFCPROPERTYSINGLEVALUE('ki_m_s',$,IFCREAL(7.2000000000000014E-06),$);
#1030=IFCPROPERTYSINGLEVALUE('Speicherkoeffizient',$,IFCREAL(0.94999999999999996),$);
#1031=IFCPROPERTYSINGLEVALUE('V_erf_m3',$,IFCREAL(4.6059999999999999),$);
#1032=IFCPROPERTYSINGLEVALUE('V_vorh_m3',$,IFCREAL(4.8150000000000004),$);
#1033=IFCPROPERTYSINGLEVALUE('A_C_m2',$,IFCREAL(131.19999999999999),$);
#1034=IFCPROPERTYSINGLEVALUE('MHGW_m',$,IFCREAL(515.),$);
#1035=IFCPROPERTYSINGLEVALUE('Sickerraum_m',$,IFCREAL(3.3479999999999999),$);
#1036=IFCPROPERTYSINGLEVALUE('Entleerung_h',$,IFCREAL(12.220000000000001),$);
#1037=IFCPROPERTYSET('2ar7QKzBTUcB4plv0uH2Qi',$,'B17_Versickerung',$,(#1027,#1028,#1029,#1030,#1031,#1032,#1033,#1034,#1035,#1036));
#1038=IFCRELDEFINESBYPROPERTIES('3IPAlORbjMIB2hwKopsaG2',$,$,$,(#1026),#1037);
#1039=IFCCARTESIANPOINT((3400.,21600.,519008.));
#1040=IFCAXIS2PLACEMENT3D(#1039,$,$);
#1041=IFCLOCALPLACEMENT(#17,#1040);
#1042=IFCDISTRIBUTIONPORT('2wUlkjLxrGYPFZBJGWQJ37',$,'Zulauf',$,$,#1041,$,.SINK.,.PIPE.,.RAINWATER.);
#1043=IFCRELNESTS('3SB5TYiLDKnh8IcY05zhoX',$,$,$,#1026,(#1042));
#1044=IFCRELCONNECTSPORTS('1R7vTIP$zJxOkxklH8a1da',$,$,$,#1012,#1042,$);
#1045=IFCRELASSOCIATESMATERIAL('3QbEVIRFrR2w872OjsYwXf',$,$,$,(#55,#91,#127,#163,#199,#235,#271,#423,#448,#484,#520,#556,#592,#628,#664,#700,#736,#772,#808),#42);
#1046=IFCRELASSIGNSTOGROUP('2$E68yz5XPV9bm3BY6A$18',$,$,$,(#55,#91,#127,#163,#199,#235,#271,#306,#333,#361,#393,#423),$,#38);
#1047=IFCRELASSIGNSTOGROUP('2Jle2wo4LG6xbsDFwrIMLj',$,$,$,(#448,#484,#520,#556,#592,#628,#664,#700,#736,#772,#808,#835,#850,#872,#904,#931,#963,#995,#1026),$,#40);
#1048=IFCRELCONTAINEDINSPATIALSTRUCTURE('0sijr6mErKdgYcJTyywJJ5',$,$,$,(#37,#55,#91,#127,#163,#199,#235,#271,#306,#333,#361,#393,#423,#448,#484,#520,#556,#592,#628,#664,#700,#736,#772,#808,#835,#850,#872,#904,#931,#963,#995,#1026),#18);
ENDSEC;
END-ISO-10303-21;
