ISO-10303-21;
HEADER;
FILE_DESCRIPTION(('ViewDefinition [NotAssigned]'),'2;1');
FILE_NAME('b17_kanal_hoch.ifc','2026-09-27T12:00:00',('Prototyp B17'),('Doktorarbeit Holzbau (Beispiel)'),'IfcOpenShell 0.8.5-1c5b825','IfcOpenShell 0.8.5-1c5b825','keine');
FILE_SCHEMA(('IFC4X3_ADD2'));
ENDSEC;
DATA;
#1=IFCPROJECT('2yRQu8F3LR1RoiOcwxWPdS',$,'B17 Grundst\X2\00FC\X0\cksentw\X2\00E4\X0\sserung (Beispiel)',$,$,$,$,(#13),#8);
#2=IFCSIUNIT(*,.LENGTHUNIT.,.MILLI.,.METRE.);
#3=IFCSIUNIT(*,.AREAUNIT.,$,.SQUARE_METRE.);
#4=IFCSIUNIT(*,.VOLUMEUNIT.,$,.CUBIC_METRE.);
#5=IFCSIUNIT(*,.PLANEANGLEUNIT.,$,.RADIAN.);
#6=IFCSIUNIT(*,.MASSUNIT.,.KILO.,.GRAM.);
#7=IFCSIUNIT(*,.THERMODYNAMICTEMPERATUREUNIT.,$,.KELVIN.);
#8=IFCUNITASSIGNMENT((#2,#3,#4,#5,#6,#7));
#9=IFCCARTESIANPOINT((0.,0.,0.));
#10=IFCDIRECTION((0.,0.,1.));
#11=IFCDIRECTION((1.,0.,0.));
#12=IFCAXIS2PLACEMENT3D(#9,#10,#11);
#13=IFCGEOMETRICREPRESENTATIONCONTEXT($,'Model',3,1.0000000000000001E-05,#12,$);
#14=IFCGEOMETRICREPRESENTATIONSUBCONTEXT('Body','Model',*,*,*,*,#13,$,.MODEL_VIEW.,$);
#15=IFCCARTESIANPOINT((0.,0.,0.));
#16=IFCAXIS2PLACEMENT3D(#15,$,$);
#17=IFCLOCALPLACEMENT($,#16);
#18=IFCSITE('3S8yvoMNLVVhWYjpEM$uIc',$,'Grundst\X2\00FC\X0\ck',$,$,#17,$,$,$,$,$,$,$,$);
#19=IFCCARTESIANPOINT((0.,0.,0.));
#20=IFCAXIS2PLACEMENT3D(#19,$,$);
#21=IFCLOCALPLACEMENT(#17,#20);
#22=IFCBUILDING('30aqNMgxPIrRimEpQkwFVl',$,'EFH Holzrahmenbau (Beispiel)',$,$,#21,$,$,$,$,$,$);
#23=IFCRELAGGREGATES('1W_yjf0JnJyeB70Jpa29iQ',$,$,$,#1,(#18));
#24=IFCRELAGGREGATES('2FIGo6QKzTUOxwoteH6We0',$,$,$,#18,(#22));
#25=IFCCARTESIANPOINT((0.,0.,0.));
#26=IFCAXIS2PLACEMENT3D(#25,$,$);
#27=IFCLOCALPLACEMENT(#21,#26);
#28=IFCBUILDINGSTOREY('3mkoeBjWbGBuBkwkf4Bb5p',$,'EG',$,$,#27,$,$,$,0.);
#29=IFCRELAGGREGATES('2k2QIpxhTRpfqPr2QizYyU',$,$,$,#22,(#28));
#30=IFCCARTESIANPOINTLIST3D(((0.,0.,520000.),(20000.,0.,519900.),(20000.,30000.,520500.),(0.,30000.,520600.)),$);
#31=IFCTRIANGULATEDFACESET(#30,$,$,((1,2,3),(1,3,4)),$);
#32=IFCCARTESIANPOINT((0.,0.,0.));
#33=IFCAXIS2PLACEMENT3D(#32,$,$);
#34=IFCLOCALPLACEMENT(#17,#33);
#35=IFCSHAPEREPRESENTATION(#14,'Body','Tessellation',(#31));
#36=IFCPRODUCTDEFINITIONSHAPE($,$,(#35));
#37=IFCGEOGRAPHICELEMENT('3Qp9PINE5QkfU8QnmXuUW2',$,'Gel\X2\00E4\X0\nde (Ebene aus DGM, Beispiel)',$,$,#34,#36,$,.TERRAIN.);
#38=IFCDISTRIBUTIONSYSTEM('2GUtIHnTnRgR2PjMvOtaN5',$,'Schmutzwasser',$,$,$,.SEWAGE.);
#39=IFCRELSERVICESBUILDINGS('2e4dubaXfQBw7MPkcFkhx2',$,$,$,#38,(#22));
#40=IFCDISTRIBUTIONSYSTEM('0JHEM2UufJyOCZafYFR4jh',$,'Niederschlagswasser',$,$,$,.RAINWATER.);
#41=IFCRELSERVICESBUILDINGS('1N94IWlnjMNfeWfdZN5w9T',$,$,$,#40,(#22));
#42=IFCMATERIAL('PVC-U (KG)',$,'Kunststoff');
#43=IFCCIRCLEPROFILEDEF(.AREA.,$,$,55.);
#44=IFCCARTESIANPOINT((0.,0.,55.));
#45=IFCDIRECTION((0.9987523388778442,0.,-0.049937616943903564));
#46=IFCDIRECTION((0.,1.,0.));
#47=IFCAXIS2PLACEMENT3D(#44,#45,#46);
#48=IFCDIRECTION((0.,0.,1.));
#49=IFCEXTRUDEDAREASOLID(#43,#47,#48,2002.4984394500796);
#50=IFCCARTESIANPOINT((13000.,18500.,519195.));
#51=IFCAXIS2PLACEMENT3D(#50,$,$);
#52=IFCLOCALPLACEMENT(#17,#51);
#53=IFCSHAPEREPRESENTATION(#14,'Body','SweptSolid',(#49));
#54=IFCPRODUCTDEFINITIONSHAPE($,$,(#53));
#55=IFCPIPESEGMENT('1o7QFSYNjLeBoUn2eUKSld',$,'FL2 \X2\2192\X0\ SW-W1',$,$,#52,#54,$,.RIGIDSEGMENT.);
#56=IFCPROPERTYSINGLEVALUE('NominalDiameter',$,IFCPOSITIVELENGTHMEASURE(100.),$);
#57=IFCPROPERTYSINGLEVALUE('InnerDiameter',$,IFCPOSITIVELENGTHMEASURE(96.),$);
#58=IFCPROPERTYSINGLEVALUE('Length',$,IFCPOSITIVELENGTHMEASURE(2000.),$);
#59=IFCPROPERTYSET('1_hup8NkHTjgm8F4qOez3U',$,'Pset_PipeSegmentTypeCommon',$,(#56,#57,#58));
#60=IFCRELDEFINESBYPROPERTIES('0OKmLDf$jHovKZz6Wu6VX6',$,$,$,(#55),#59);
#61=IFCPROPERTYSINGLEVALUE('Gradient',$,IFCPOSITIVERATIOMEASURE(0.050000000000000003),$);
#62=IFCPROPERTYSINGLEVALUE('InvertElevation',$,IFCLENGTHMEASURE(519195.),$);
#63=IFCPROPERTYSET('3DdDKyQeHUsvb5dwx3_JT3',$,'Pset_PipeSegmentOccurrence',$,(#61,#62));
#64=IFCRELDEFINESBYPROPERTIES('0Gm1yTVNHHvuJtYhyufBYd',$,$,$,(#55),#63);
#65=IFCPROPERTYSINGLEVALUE('Lage',$,IFCLABEL('Geb\X2\00E4\X0\ude'),$);
#66=IFCPROPERTYSINGLEVALUE('Abfluss_l_s',$,IFCREAL(0.85099999999999998),$);
#67=IFCPROPERTYSINGLEVALUE('Sohle_unten_m',$,IFCREAL(519.09500000000003),$);
#68=IFCPROPERTYSET('1ptFM537bNe94j3xHoyeKF',$,'B17_Entwaesserung',$,(#65,#66,#67));
#69=IFCRELDEFINESBYPROPERTIES('36tAUI7U5V1gVSggXWvfwc',$,$,$,(#55),#68);
#70=IFCCARTESIANPOINT((13000.,18500.,519195.));
#71=IFCAXIS2PLACEMENT3D(#70,$,$);
#72=IFCLOCALPLACEMENT(#17,#71);
#73=IFCDISTRIBUTIONPORT('1dqNYlJy5RnfTLcjEGzrdD',$,'Zulauf',$,$,#72,$,.SINK.,.PIPE.,.SEWAGE.);
#74=IFCCARTESIANPOINT((15000.,18500.,519095.));
#75=IFCAXIS2PLACEMENT3D(#74,$,$);
#76=IFCLOCALPLACEMENT(#17,#75);
#77=IFCDISTRIBUTIONPORT('1aEkZcpabLQu3GgtkeyCDa',$,'Ablauf',$,$,#76,$,.SOURCE.,.PIPE.,.SEWAGE.);
#78=IFCRELNESTS('2dCy9ZzpPOy9km0JTzAa$m',$,$,$,#55,(#73,#77));
#79=IFCCIRCLEPROFILEDEF(.AREA.,$,$,80.);
#80=IFCCARTESIANPOINT((0.,0.,80.));
#81=IFCDIRECTION((0.,-0.99980336179307949,-0.019830223076322193));
#82=IFCDIRECTION((1.,0.,0.));
#83=IFCAXIS2PLACEMENT3D(#80,#81,#82);
#84=IFCDIRECTION((0.,0.,1.));
#85=IFCEXTRUDEDAREASOLID(#79,#83,#84,10552.074941095709);
#86=IFCCARTESIANPOINT((16050.,18500.,519088.));
#87=IFCAXIS2PLACEMENT3D(#86,$,$);
#88=IFCLOCALPLACEMENT(#17,#87);
#89=IFCSHAPEREPRESENTATION(#14,'Body','SweptSolid',(#85));
#90=IFCPRODUCTDEFINITIONSHAPE($,$,(#89));
#91=IFCPIPESEGMENT('2Bi5UzhQXLFB3IanWSix4R',$,'SW-S1 \X2\2192\X0\ SW-S2',$,$,#88,#90,$,.RIGIDSEGMENT.);
#92=IFCPROPERTYSINGLEVALUE('NominalDiameter',$,IFCPOSITIVELENGTHMEASURE(150.),$);
#93=IFCPROPERTYSINGLEVALUE('InnerDiameter',$,IFCPOSITIVELENGTHMEASURE(146.),$);
#94=IFCPROPERTYSINGLEVALUE('Length',$,IFCPOSITIVELENGTHMEASURE(10550.),$);
#95=IFCPROPERTYSET('33MPvZ9ofIsAto6cAleHyc',$,'Pset_PipeSegmentTypeCommon',$,(#92,#93,#94));
#96=IFCRELDEFINESBYPROPERTIES('1W_8IGHQHMSQgo7n0Nyi51',$,$,$,(#91),#95);
#97=IFCPROPERTYSINGLEVALUE('Gradient',$,IFCPOSITIVERATIOMEASURE(0.019834000000000001),$);
#98=IFCPROPERTYSINGLEVALUE('InvertElevation',$,IFCLENGTHMEASURE(519088.),$);
#99=IFCPROPERTYSET('0m7bh8I9rJfPW7cO$cPA1E',$,'Pset_PipeSegmentOccurrence',$,(#97,#98));
#100=IFCRELDEFINESBYPROPERTIES('1BAkoNpNnSVO1cmkMq1Iu6',$,$,$,(#91),#99);
#101=IFCPROPERTYSINGLEVALUE('Lage',$,IFCLABEL('Erdreich'),$);
#102=IFCPROPERTYSINGLEVALUE('Abfluss_l_s',$,IFCREAL(0.85099999999999998),$);
#103=IFCPROPERTYSINGLEVALUE('Sohle_unten_m',$,IFCREAL(518.87900000000002),$);
#104=IFCPROPERTYSET('3wP_ay$hrJBeF1NQS4VXLR',$,'B17_Entwaesserung',$,(#101,#102,#103));
#105=IFCRELDEFINESBYPROPERTIES('2Y1mIYo89MGAs7lVe24P9Y',$,$,$,(#91),#104);
#106=IFCCARTESIANPOINT((16050.,18500.,519088.));
#107=IFCAXIS2PLACEMENT3D(#106,$,$);
#108=IFCLOCALPLACEMENT(#17,#107);
#109=IFCDISTRIBUTIONPORT('0bZXbCjoPGp97t5ow28ytd',$,'Zulauf',$,$,#108,$,.SINK.,.PIPE.,.SEWAGE.);
#110=IFCCARTESIANPOINT((16050.,7950.,518878.75));
#111=IFCAXIS2PLACEMENT3D(#110,$,$);
#112=IFCLOCALPLACEMENT(#17,#111);
#113=IFCDISTRIBUTIONPORT('2yHn83BnzQIR080yXD3iRS',$,'Ablauf',$,$,#112,$,.SOURCE.,.PIPE.,.SEWAGE.);
#114=IFCRELNESTS('1pyPFpc01RC9eAJNyrvD8X',$,$,$,#91,(#109,#113));
#115=IFCCIRCLEPROFILEDEF(.AREA.,$,$,80.);
#116=IFCCARTESIANPOINT((0.,0.,80.));
#117=IFCDIRECTION((-0.75696060778908614,-0.65339456879171143,-0.0092830883369020047));
#118=IFCDIRECTION((0.,1.,0.));
#119=IFCAXIS2PLACEMENT3D(#116,#117,#118);
#120=IFCDIRECTION((0.,0.,1.));
#121=IFCEXTRUDEDAREASOLID(#115,#119,#120,7000.3642798232313);
#122=IFCCARTESIANPOINT((16050.,7950.,518878.75));
#123=IFCAXIS2PLACEMENT3D(#122,$,$);
#124=IFCLOCALPLACEMENT(#17,#123);
#125=IFCSHAPEREPRESENTATION(#14,'Body','SweptSolid',(#121));
#126=IFCPRODUCTDEFINITIONSHAPE($,$,(#125));
#127=IFCPIPESEGMENT('01xTu5CYPKtAa7HnvC8uob',$,'SW-S2 \X2\2192\X0\ SW-S3',$,$,#124,#126,$,.RIGIDSEGMENT.);
#128=IFCPROPERTYSINGLEVALUE('NominalDiameter',$,IFCPOSITIVELENGTHMEASURE(150.),$);
#129=IFCPROPERTYSINGLEVALUE('InnerDiameter',$,IFCPOSITIVELENGTHMEASURE(146.),$);
#130=IFCPROPERTYSINGLEVALUE('Length',$,IFCPOSITIVELENGTHMEASURE(7000.1000000000004),$);
#131=IFCPROPERTYSET('0KndoA2hzL3RjnBw$QEagw',$,'Pset_PipeSegmentTypeCommon',$,(#128,#129,#130));
#132=IFCRELDEFINESBYPROPERTIES('2FTwyjQZDN9wzHWhIOcHzU',$,$,$,(#127),#131);
#133=IFCPROPERTYSINGLEVALUE('Gradient',$,IFCPOSITIVERATIOMEASURE(0.0092829999999999996),$);
#134=IFCPROPERTYSINGLEVALUE('InvertElevation',$,IFCLENGTHMEASURE(518878.70000000001),$);
#135=IFCPROPERTYSET('1bh8CGJp5KDPIl$Jij$EaJ',$,'Pset_PipeSegmentOccurrence',$,(#133,#134));
#136=IFCRELDEFINESBYPROPERTIES('1amXT6qK9GF8bnhp2DKs5V',$,$,$,(#127),#135);
#137=IFCPROPERTYSINGLEVALUE('Lage',$,IFCLABEL('Erdreich'),$);
#138=IFCPROPERTYSINGLEVALUE('Abfluss_l_s',$,IFCREAL(0.85099999999999998),$);
#139=IFCPROPERTYSINGLEVALUE('Sohle_unten_m',$,IFCREAL(518.81399999999996),$);
#140=IFCPROPERTYSET('31w_Vaf6XL3RewztK3UJPf',$,'B17_Entwaesserung',$,(#137,#138,#139));
#141=IFCRELDEFINESBYPROPERTIES('2ZGhgcEwHHnwvxoXE3b$IN',$,$,$,(#127),#140);
#142=IFCCARTESIANPOINT((16050.,7950.,518878.75));
#143=IFCAXIS2PLACEMENT3D(#142,$,$);
#144=IFCLOCALPLACEMENT(#17,#143);
#145=IFCDISTRIBUTIONPORT('0Dtbrb6yvK3f$e9BIbd2bi',$,'Zulauf',$,$,#144,$,.SINK.,.PIPE.,.SEWAGE.);
#146=IFCCARTESIANPOINT((10751.,3376.,518813.76500000001));
#147=IFCAXIS2PLACEMENT3D(#146,$,$);
#148=IFCLOCALPLACEMENT(#17,#147);
#149=IFCDISTRIBUTIONPORT('0FDUrW1qrQAfI8EeIiQVGC',$,'Ablauf',$,$,#148,$,.SOURCE.,.PIPE.,.SEWAGE.);
#150=IFCRELNESTS('0zpTwktS1R9hgj$6Kh0NBw',$,$,$,#127,(#145,#149));
#151=IFCCIRCLEPROFILEDEF(.AREA.,$,$,80.);
#152=IFCCARTESIANPOINT((0.,0.,80.));
#153=IFCDIRECTION((-0.7567718031670938,-0.65361316042348783,-0.0092884041926076071));
#154=IFCDIRECTION((0.,1.,0.));
#155=IFCAXIS2PLACEMENT3D(#152,#153,#154);
#156=IFCDIRECTION((0.,0.,1.));
#157=IFCEXTRUDEDAREASOLID(#151,#155,#156,3635.1777226464446);
#158=IFCCARTESIANPOINT((10751.,3376.,518813.76500000001));
#159=IFCAXIS2PLACEMENT3D(#158,$,$);
#160=IFCLOCALPLACEMENT(#17,#159);
#161=IFCSHAPEREPRESENTATION(#14,'Body','SweptSolid',(#157));
#162=IFCPRODUCTDEFINITIONSHAPE($,$,(#161));
#163=IFCPIPESEGMENT('3RzqwkYZrV3w4fitGJ7pTS',$,'SW-S3 \X2\2192\X0\ SW-RS',$,$,#160,#162,$,.RIGIDSEGMENT.);
#164=IFCPROPERTYSINGLEVALUE('NominalDiameter',$,IFCPOSITIVELENGTHMEASURE(150.),$);
#165=IFCPROPERTYSINGLEVALUE('InnerDiameter',$,IFCPOSITIVELENGTHMEASURE(146.),$);
#166=IFCPROPERTYSINGLEVALUE('Length',$,IFCPOSITIVELENGTHMEASURE(3635.),$);
#167=IFCPROPERTYSET('1fMYN5hE1Kf8qoCOpl6ro6',$,'Pset_PipeSegmentTypeCommon',$,(#164,#165,#166));
#168=IFCRELDEFINESBYPROPERTIES('04ykP$JGbVT8QtOaFGqVFp',$,$,$,(#163),#167);
#169=IFCPROPERTYSINGLEVALUE('Gradient',$,IFCPOSITIVERATIOMEASURE(0.0092890000000000004),$);
#170=IFCPROPERTYSINGLEVALUE('InvertElevation',$,IFCLENGTHMEASURE(518813.79999999999),$);
#171=IFCPROPERTYSET('1_Uc$JvCPJeAkaqILYLCxD',$,'Pset_PipeSegmentOccurrence',$,(#169,#170));
#172=IFCRELDEFINESBYPROPERTIES('2SgROyAaPNruLVL3ZD18iV',$,$,$,(#163),#171);
#173=IFCPROPERTYSINGLEVALUE('Lage',$,IFCLABEL('Erdreich'),$);
#174=IFCPROPERTYSINGLEVALUE('Abfluss_l_s',$,IFCREAL(2.),$);
#175=IFCPROPERTYSINGLEVALUE('Sohle_unten_m',$,IFCREAL(518.77999999999997),$);
#176=IFCPROPERTYSET('3thkhx0szLig3$X4qb$7Y3',$,'B17_Entwaesserung',$,(#173,#174,#175));
#177=IFCRELDEFINESBYPROPERTIES('3ruPHJgiDJJuGGAtksEa1x',$,$,$,(#163),#176);
#178=IFCCARTESIANPOINT((10751.,3376.,518813.76500000001));
#179=IFCAXIS2PLACEMENT3D(#178,$,$);
#180=IFCLOCALPLACEMENT(#17,#179);
#181=IFCDISTRIBUTIONPORT('1UjZvF7BHPkf3_C1$2JFo_',$,'Zulauf',$,$,#180,$,.SINK.,.PIPE.,.SEWAGE.);
#182=IFCCARTESIANPOINT((8000.,1000.,518780.));
#183=IFCAXIS2PLACEMENT3D(#182,$,$);
#184=IFCLOCALPLACEMENT(#17,#183);
#185=IFCDISTRIBUTIONPORT('1xBYpVvs5KEucFbpQNVk2r',$,'Ablauf',$,$,#184,$,.SOURCE.,.PIPE.,.SEWAGE.);
#186=IFCRELNESTS('0QJejkDeDIq8BmpS4_gwo1',$,$,$,#163,(#181,#185));
#187=IFCCIRCLEPROFILEDEF(.AREA.,$,$,67.5);
#188=IFCCARTESIANPOINT((0.,0.,67.5));
#189=IFCDIRECTION((0.39839607500263413,-0.91585304598306727,-0.049937616943876731));
#190=IFCDIRECTION((0.,1.,0.));
#191=IFCAXIS2PLACEMENT3D(#188,#189,#190);
#192=IFCDIRECTION((0.,0.,1.));
#193=IFCEXTRUDEDAREASOLID(#187,#191,#192,3275.6346808672029);
#194=IFCCARTESIANPOINT((7000.,12000.,519102.05200000003));
#195=IFCAXIS2PLACEMENT3D(#194,$,$);
#196=IFCLOCALPLACEMENT(#17,#195);
#197=IFCSHAPEREPRESENTATION(#14,'Body','SweptSolid',(#193));
#198=IFCPRODUCTDEFINITIONSHAPE($,$,(#197));
#199=IFCPIPESEGMENT('3Dpo9EccXPpwc8ZV3mNVDn',$,'FL1 \X2\2192\X0\ SW-W2',$,$,#196,#198,$,.RIGIDSEGMENT.);
#200=IFCPROPERTYSINGLEVALUE('NominalDiameter',$,IFCPOSITIVELENGTHMEASURE(125.),$);
#201=IFCPROPERTYSINGLEVALUE('InnerDiameter',$,IFCPOSITIVELENGTHMEASURE(113.),$);
#202=IFCPROPERTYSINGLEVALUE('Length',$,IFCPOSITIVELENGTHMEASURE(3271.5),$);
#203=IFCPROPERTYSET('0oV889HdDJ08$SaUXOohJJ',$,'Pset_PipeSegmentTypeCommon',$,(#200,#201,#202));
#204=IFCRELDEFINESBYPROPERTIES('2TlgNysdHSk8n63WJ$vUof',$,$,$,(#199),#203);
#205=IFCPROPERTYSINGLEVALUE('Gradient',$,IFCPOSITIVERATIOMEASURE(0.050000000000000003),$);
#206=IFCPROPERTYSINGLEVALUE('InvertElevation',$,IFCLENGTHMEASURE(519102.09999999998),$);
#207=IFCPROPERTYSET('2TUcUDs7nI6ur7wr0HU0bv',$,'Pset_PipeSegmentOccurrence',$,(#205,#206));
#208=IFCRELDEFINESBYPROPERTIES('1SpMf_h5LUbhYjuf3sQ8JM',$,$,$,(#199),#207);
#209=IFCPROPERTYSINGLEVALUE('Lage',$,IFCLABEL('Geb\X2\00E4\X0\ude'),$);
#210=IFCPROPERTYSINGLEVALUE('Abfluss_l_s',$,IFCREAL(2.),$);
#211=IFCPROPERTYSINGLEVALUE('Sohle_unten_m',$,IFCREAL(518.93799999999999),$);
#212=IFCPROPERTYSET('1DxcdcAMnR2gv2EOb8WG7R',$,'B17_Entwaesserung',$,(#209,#210,#211));
#213=IFCRELDEFINESBYPROPERTIES('2zSKg9ygvMNfEYoGPKDDQ3',$,$,$,(#199),#212);
#214=IFCCARTESIANPOINT((7000.,12000.,519102.05200000003));
#215=IFCAXIS2PLACEMENT3D(#214,$,$);
#216=IFCLOCALPLACEMENT(#17,#215);
#217=IFCDISTRIBUTIONPORT('0Gz7HqH1nPWRoxV8YE4iSf',$,'Zulauf',$,$,#216,$,.SINK.,.PIPE.,.SEWAGE.);
#218=IFCCARTESIANPOINT((8305.,9000.,518938.47499999998));
#219=IFCAXIS2PLACEMENT3D(#218,$,$);
#220=IFCLOCALPLACEMENT(#17,#219);
#221=IFCDISTRIBUTIONPORT('3rYcQQEPjSkeCGVdXwFCTd',$,'Ablauf',$,$,#220,$,.SOURCE.,.PIPE.,.SEWAGE.);
#222=IFCRELNESTS('0phQr2NTPLyeUoK5aykC4L',$,$,$,#199,(#217,#221));
#223=IFCCIRCLEPROFILEDEF(.AREA.,$,$,80.);
#224=IFCCARTESIANPOINT((0.,0.,80.));
#225=IFCDIRECTION((0.99997777851849134,0.,-0.0066665185234072331));
#226=IFCDIRECTION((0.,1.,0.));
#227=IFCAXIS2PLACEMENT3D(#224,#225,#226);
#228=IFCDIRECTION((0.,0.,1.));
#229=IFCEXTRUDEDAREASOLID(#223,#227,#228,1050.0233330740803);
#230=IFCCARTESIANPOINT((15000.,18500.,519095.));
#231=IFCAXIS2PLACEMENT3D(#230,$,$);
#232=IFCLOCALPLACEMENT(#17,#231);
#233=IFCSHAPEREPRESENTATION(#14,'Body','SweptSolid',(#229));
#234=IFCPRODUCTDEFINITIONSHAPE($,$,(#233));
#235=IFCPIPESEGMENT('2WPusVX25NJO6yFO6jG$MP',$,'SW-W1 \X2\2192\X0\ SW-S1',$,$,#232,#234,$,.RIGIDSEGMENT.);
#236=IFCPROPERTYSINGLEVALUE('NominalDiameter',$,IFCPOSITIVELENGTHMEASURE(150.),$);
#237=IFCPROPERTYSINGLEVALUE('InnerDiameter',$,IFCPOSITIVELENGTHMEASURE(146.),$);
#238=IFCPROPERTYSINGLEVALUE('Length',$,IFCPOSITIVELENGTHMEASURE(1050.),$);
#239=IFCPROPERTYSET('1Vl_nAyjPTyw7UJlK0hFcE',$,'Pset_PipeSegmentTypeCommon',$,(#236,#237,#238));
#240=IFCRELDEFINESBYPROPERTIES('3H7fedqozQYgDIQTkUmNcb',$,$,$,(#235),#239);
#241=IFCPROPERTYSINGLEVALUE('Gradient',$,IFCPOSITIVERATIOMEASURE(0.0066670000000000002),$);
#242=IFCPROPERTYSINGLEVALUE('InvertElevation',$,IFCLENGTHMEASURE(519095.),$);
#243=IFCPROPERTYSET('0mBY45yfXRmviQQfQ7gGHF',$,'Pset_PipeSegmentOccurrence',$,(#241,#242));
#244=IFCRELDEFINESBYPROPERTIES('0mcP9M0S9N_9gnwGqUz2Cg',$,$,$,(#235),#243);
#245=IFCPROPERTYSINGLEVALUE('Lage',$,IFCLABEL('Erdreich'),$);
#246=IFCPROPERTYSINGLEVALUE('Abfluss_l_s',$,IFCREAL(0.85099999999999998),$);
#247=IFCPROPERTYSINGLEVALUE('Sohle_unten_m',$,IFCREAL(519.08799999999997),$);
#248=IFCPROPERTYSET('2ihZkTCYLLVByjFOMvCC2X',$,'B17_Entwaesserung',$,(#245,#246,#247));
#249=IFCRELDEFINESBYPROPERTIES('1VUCabTnfJSOG_HVy5V8Ng',$,$,$,(#235),#248);
#250=IFCCARTESIANPOINT((15000.,18500.,519095.));
#251=IFCAXIS2PLACEMENT3D(#250,$,$);
#252=IFCLOCALPLACEMENT(#17,#251);
#253=IFCDISTRIBUTIONPORT('31Pk1iuk9MAf26pbH$TgzF',$,'Zulauf',$,$,#252,$,.SINK.,.PIPE.,.SEWAGE.);
#254=IFCCARTESIANPOINT((16050.,18500.,519088.));
#255=IFCAXIS2PLACEMENT3D(#254,$,$);
#256=IFCLOCALPLACEMENT(#17,#255);
#257=IFCDISTRIBUTIONPORT('23t4cwzJHVgelfPYeaXMGG',$,'Ablauf',$,$,#256,$,.SOURCE.,.PIPE.,.SEWAGE.);
#258=IFCRELNESTS('3yPAf$bEfG1ggwy$n6Fmdv',$,$,$,#235,(#253,#257));
#259=IFCCIRCLEPROFILEDEF(.AREA.,$,$,80.);
#260=IFCCARTESIANPOINT((0.,0.,80.));
#261=IFCDIRECTION((0.39875099698007527,-0.91683385405394269,-0.020330432065987388));
#262=IFCDIRECTION((0.,1.,0.));
#263=IFCAXIS2PLACEMENT3D(#260,#261,#262);
#264=IFCDIRECTION((0.,0.,1.));
#265=IFCEXTRUDEDAREASOLID(#259,#263,#264,6134.1539419955889);
#266=IFCCARTESIANPOINT((8305.,9000.,518938.47499999998));
#267=IFCAXIS2PLACEMENT3D(#266,$,$);
#268=IFCLOCALPLACEMENT(#17,#267);
#269=IFCSHAPEREPRESENTATION(#14,'Body','SweptSolid',(#265));
#270=IFCPRODUCTDEFINITIONSHAPE($,$,(#269));
#271=IFCPIPESEGMENT('18hv7$LRXK$OEeP5xFFNsD',$,'SW-W2 \X2\2192\X0\ SW-S3',$,$,#268,#270,$,.RIGIDSEGMENT.);
#272=IFCPROPERTYSINGLEVALUE('NominalDiameter',$,IFCPOSITIVELENGTHMEASURE(150.),$);
#273=IFCPROPERTYSINGLEVALUE('InnerDiameter',$,IFCPOSITIVELENGTHMEASURE(146.),$);
#274=IFCPROPERTYSINGLEVALUE('Length',$,IFCPOSITIVELENGTHMEASURE(6132.8999999999996),$);
#275=IFCPROPERTYSET('1Yao3EXBPRw9Hy2bE8XI0M',$,'Pset_PipeSegmentTypeCommon',$,(#272,#273,#274));
#276=IFCRELDEFINESBYPROPERTIES('3ZJWp5NYbRK8Nig$9DzJYe',$,$,$,(#271),#275);
#277=IFCPROPERTYSINGLEVALUE('Gradient',$,IFCPOSITIVERATIOMEASURE(0.020334999999999999),$);
#278=IFCPROPERTYSINGLEVALUE('InvertElevation',$,IFCLENGTHMEASURE(518938.5),$);
#279=IFCPROPERTYSET('3xmyRoeZPQh8jjaIjdFpyS',$,'Pset_PipeSegmentOccurrence',$,(#277,#278));
#280=IFCRELDEFINESBYPROPERTIES('17Ahx6_qbGvgDx9VAEW2cg',$,$,$,(#271),#279);
#281=IFCPROPERTYSINGLEVALUE('Lage',$,IFCLABEL('Erdreich'),$);
#282=IFCPROPERTYSINGLEVALUE('Abfluss_l_s',$,IFCREAL(2.),$);
#283=IFCPROPERTYSINGLEVALUE('Sohle_unten_m',$,IFCREAL(518.81399999999996),$);
#284=IFCPROPERTYSET('2880Mp$XnGNh285ywR1ddt',$,'B17_Entwaesserung',$,(#281,#282,#283));
#285=IFCRELDEFINESBYPROPERTIES('3VOPQ8xW1SvBXnZ1d4syUx',$,$,$,(#271),#284);
#286=IFCCARTESIANPOINT((8305.,9000.,518938.47499999998));
#287=IFCAXIS2PLACEMENT3D(#286,$,$);
#288=IFCLOCALPLACEMENT(#17,#287);
#289=IFCDISTRIBUTIONPORT('229Th4A5vO1OXkAg7YgDHF',$,'Zulauf',$,$,#288,$,.SINK.,.PIPE.,.SEWAGE.);
#290=IFCCARTESIANPOINT((10751.,3376.,518813.76500000001));
#291=IFCAXIS2PLACEMENT3D(#290,$,$);
#292=IFCLOCALPLACEMENT(#17,#291);
#293=IFCDISTRIBUTIONPORT('1_9AREGJTGxhIYMXprslKe',$,'Ablauf',$,$,#292,$,.SOURCE.,.PIPE.,.SEWAGE.);
#294=IFCRELNESTS('2prbnZ2PzSAeRGOQrNW8MV',$,$,$,#271,(#289,#293));
#295=IFCRELCONNECTSPORTS('0Q784UddjOj91iNwHt5G$e',$,$,$,#77,#253,$);
#296=IFCCIRCLEPROFILEDEF(.AREA.,$,$,360.);
#297=IFCCARTESIANPOINT((0.,0.,-150.));
#298=IFCAXIS2PLACEMENT3D(#297,$,$);
#299=IFCDIRECTION((0.,0.,1.));
#300=IFCEXTRUDEDAREASOLID(#296,#298,#299,1351.7500000000609);
#301=IFCCARTESIANPOINT((16050.,18500.,519088.));
#302=IFCAXIS2PLACEMENT3D(#301,$,$);
#303=IFCLOCALPLACEMENT(#17,#302);
#304=IFCSHAPEREPRESENTATION(#14,'Body','SweptSolid',(#300));
#305=IFCPRODUCTDEFINITIONSHAPE($,$,(#304));
#306=IFCDISTRIBUTIONCHAMBERELEMENT('1UGJl6u6PJAAeymEarIs78',$,'SW-S1',$,$,#303,#305,$,.INSPECTIONCHAMBER.);
#307=IFCPROPERTYSINGLEVALUE('InspectionChamberInvertLevel',$,IFCLENGTHMEASURE(519088.),$);
#308=IFCPROPERTYSINGLEVALUE('ChamberLengthOrRadius',$,IFCPOSITIVELENGTHMEASURE(300.),$);
#309=IFCPROPERTYSINGLEVALUE('AccessCoverLoadRating',$,IFCTEXT('B 125 (Beispiel)'),$);
#310=IFCPROPERTYSET('1g$306DxDSNODGWSzM1sCH',$,'Pset_DistributionChamberElementTypeInspectionChamber',$,(#307,#308,#309));
#311=IFCRELDEFINESBYPROPERTIES('0oOHWMmWzQkRBDJVqyjPIs',$,$,$,(#306),#310);
#312=IFCCARTESIANPOINT((16050.,18500.,519088.));
#313=IFCAXIS2PLACEMENT3D(#312,$,$);
#314=IFCLOCALPLACEMENT(#17,#313);
#315=IFCDISTRIBUTIONPORT('0r4nb3yVnMDQXs50NcHxrr',$,'Zulauf 1',$,$,#314,$,.SINK.,.PIPE.,.SEWAGE.);
#316=IFCRELCONNECTSPORTS('2w1aVd_zPSvB$K2GKaI8q_',$,$,$,#257,#315,$);
#317=IFCCARTESIANPOINT((16050.,18500.,519088.));
#318=IFCAXIS2PLACEMENT3D(#317,$,$);
#319=IFCLOCALPLACEMENT(#17,#318);
#320=IFCDISTRIBUTIONPORT('2rUaDOUKHM$gxlLh2YRRLB',$,'Ablauf',$,$,#319,$,.SOURCE.,.PIPE.,.SEWAGE.);
#321=IFCRELCONNECTSPORTS('2AiAv5fJ5KqAPCpjfapi45',$,$,$,#320,#109,$);
#322=IFCRELNESTS('0Kpe0d38jHeu_pZLVaYT35',$,$,$,#306,(#315,#320));
#323=IFCCIRCLEPROFILEDEF(.AREA.,$,$,360.);
#324=IFCCARTESIANPOINT((0.,0.,-150.));
#325=IFCAXIS2PLACEMENT3D(#324,$,$);
#326=IFCDIRECTION((0.,0.,1.));
#327=IFCEXTRUDEDAREASOLID(#323,#325,#326,1350.0000000000455);
#328=IFCCARTESIANPOINT((16050.,7950.,518878.75));
#329=IFCAXIS2PLACEMENT3D(#328,$,$);
#330=IFCLOCALPLACEMENT(#17,#329);
#331=IFCSHAPEREPRESENTATION(#14,'Body','SweptSolid',(#327));
#332=IFCPRODUCTDEFINITIONSHAPE($,$,(#331));
#333=IFCDISTRIBUTIONCHAMBERELEMENT('24hwzaSO1H7QGA2$ENnBDe',$,'SW-S2',$,$,#330,#332,$,.INSPECTIONCHAMBER.);
#334=IFCPROPERTYSINGLEVALUE('InspectionChamberInvertLevel',$,IFCLENGTHMEASURE(518878.70000000001),$);
#335=IFCPROPERTYSINGLEVALUE('ChamberLengthOrRadius',$,IFCPOSITIVELENGTHMEASURE(300.),$);
#336=IFCPROPERTYSINGLEVALUE('AccessCoverLoadRating',$,IFCTEXT('B 125 (Beispiel)'),$);
#337=IFCPROPERTYSET('1Feo9x_s9Log4H_mq1TgbU',$,'Pset_DistributionChamberElementTypeInspectionChamber',$,(#334,#335,#336));
#338=IFCRELDEFINESBYPROPERTIES('3xTIuEN8LVtgufI85aj3_R',$,$,$,(#333),#337);
#339=IFCCARTESIANPOINT((16050.,7950.,518878.75));
#340=IFCAXIS2PLACEMENT3D(#339,$,$);
#341=IFCLOCALPLACEMENT(#17,#340);
#342=IFCDISTRIBUTIONPORT('0wIAXbe8HI$hZ9BUH1V17X',$,'Zulauf 1',$,$,#341,$,.SINK.,.PIPE.,.SEWAGE.);
#343=IFCRELCONNECTSPORTS('2KxOh4ULDLtPzWu6UzOhuw',$,$,$,#113,#342,$);
#344=IFCCARTESIANPOINT((16050.,7950.,518878.75));
#345=IFCAXIS2PLACEMENT3D(#344,$,$);
#346=IFCLOCALPLACEMENT(#17,#345);
#347=IFCDISTRIBUTIONPORT('3hWAWYMBzSNRI1fVmsfZyS',$,'Ablauf',$,$,#346,$,.SOURCE.,.PIPE.,.SEWAGE.);
#348=IFCRELCONNECTSPORTS('1qakI9MyrIxxqpo88K3sxx',$,$,$,#347,#145,$);
#349=IFCRELNESTS('22W7obF8jJF8FvT53$rqE1',$,$,$,#333,(#342,#347));
#350=IFCRELCONNECTSPORTS('2f5BaPMbPGtgGcSYdMFfKD',$,$,$,#221,#289,$);
#351=IFCCIRCLEPROFILEDEF(.AREA.,$,$,360.);
#352=IFCCARTESIANPOINT((0.,0.,-150.));
#353=IFCAXIS2PLACEMENT3D(#352,$,$);
#354=IFCDIRECTION((0.,0.,1.));
#355=IFCEXTRUDEDAREASOLID(#351,#353,#354,1350.0000000000455);
#356=IFCCARTESIANPOINT((10751.,3376.,518813.76500000001));
#357=IFCAXIS2PLACEMENT3D(#356,$,$);
#358=IFCLOCALPLACEMENT(#17,#357);
#359=IFCSHAPEREPRESENTATION(#14,'Body','SweptSolid',(#355));
#360=IFCPRODUCTDEFINITIONSHAPE($,$,(#359));
#361=IFCDISTRIBUTIONCHAMBERELEMENT('3fuetrdE1NMuk4ihOkax2c',$,'SW-S3',$,$,#358,#360,$,.INSPECTIONCHAMBER.);
#362=IFCPROPERTYSINGLEVALUE('InspectionChamberInvertLevel',$,IFCLENGTHMEASURE(518813.79999999999),$);
#363=IFCPROPERTYSINGLEVALUE('ChamberLengthOrRadius',$,IFCPOSITIVELENGTHMEASURE(300.),$);
#364=IFCPROPERTYSINGLEVALUE('AccessCoverLoadRating',$,IFCTEXT('B 125 (Beispiel)'),$);
#365=IFCPROPERTYSET('2lb2quOdnOKgo4$VV43IGo',$,'Pset_DistributionChamberElementTypeInspectionChamber',$,(#362,#363,#364));
#366=IFCRELDEFINESBYPROPERTIES('0kon3x0T5RE8tDE$BjRgpP',$,$,$,(#361),#365);
#367=IFCCARTESIANPOINT((10751.,3376.,518813.76500000001));
#368=IFCAXIS2PLACEMENT3D(#367,$,$);
#369=IFCLOCALPLACEMENT(#17,#368);
#370=IFCDISTRIBUTIONPORT('34A5t0PqXH0gwgEIpdedMG',$,'Zulauf 1',$,$,#369,$,.SINK.,.PIPE.,.SEWAGE.);
#371=IFCRELCONNECTSPORTS('2gVefZ4o5GIujtEIwRx9li',$,$,$,#149,#370,$);
#372=IFCCARTESIANPOINT((10751.,3376.,518813.76500000001));
#373=IFCAXIS2PLACEMENT3D(#372,$,$);
#374=IFCLOCALPLACEMENT(#17,#373);
#375=IFCDISTRIBUTIONPORT('3sFRbK6irLtgJP5ztZdwTJ',$,'Zulauf 2',$,$,#374,$,.SINK.,.PIPE.,.SEWAGE.);
#376=IFCRELCONNECTSPORTS('31hrQau$rTpAOD4B8qeWWN',$,$,$,#293,#375,$);
#377=IFCCARTESIANPOINT((10751.,3376.,518813.76500000001));
#378=IFCAXIS2PLACEMENT3D(#377,$,$);
#379=IFCLOCALPLACEMENT(#17,#378);
#380=IFCDISTRIBUTIONPORT('3PuXEiO7jOOgryclHvoTHv',$,'Ablauf',$,$,#379,$,.SOURCE.,.PIPE.,.SEWAGE.);
#381=IFCRELCONNECTSPORTS('15FM9xnYLLjA0xGYxTUDy7',$,$,$,#380,#181,$);
#382=IFCRELNESTS('2mUsrXNCHVkvx48YxovpU3',$,$,$,#361,(#370,#375,#380));
#383=IFCCIRCLEPROFILEDEF(.AREA.,$,$,560.);
#384=IFCCARTESIANPOINT((0.,0.,-150.));
#385=IFCAXIS2PLACEMENT3D(#384,$,$);
#386=IFCDIRECTION((0.,0.,1.));
#387=IFCEXTRUDEDAREASOLID(#383,#385,#386,1350.0000000000455);
#388=IFCCARTESIANPOINT((8000.,1000.,518780.));
#389=IFCAXIS2PLACEMENT3D(#388,$,$);
#390=IFCLOCALPLACEMENT(#17,#389);
#391=IFCSHAPEREPRESENTATION(#14,'Body','SweptSolid',(#387));
#392=IFCPRODUCTDEFINITIONSHAPE($,$,(#391));
#393=IFCDISTRIBUTIONCHAMBERELEMENT('0IfPowptTMHuu6YqWn5QBB',$,'SW-RS',$,$,#390,#392,$,.MANHOLE.);
#394=IFCPROPERTYSINGLEVALUE('InvertLevel',$,IFCLENGTHMEASURE(518780.),$);
#395=IFCPROPERTYSINGLEVALUE('HasSteps',$,IFCBOOLEAN(.T.),$);
#396=IFCPROPERTYSINGLEVALUE('AccessLengthOrRadius',$,IFCPOSITIVELENGTHMEASURE(312.5),$);
#397=IFCPROPERTYSINGLEVALUE('IsShallow',$,IFCBOOLEAN(.F.),$);
#398=IFCPROPERTYSINGLEVALUE('AccessCoverLoadRating',$,IFCTEXT('B 125 (Beispiel)'),$);
#399=IFCPROPERTYSET('08rKa6SpvTmgsC6QTrWGQA',$,'Pset_DistributionChamberElementTypeManhole',$,(#394,#395,#396,#397,#398));
#400=IFCRELDEFINESBYPROPERTIES('3vJFkf_VfLNQccAxbPrlc8',$,$,$,(#393),#399);
#401=IFCCARTESIANPOINT((8000.,1000.,518780.));
#402=IFCAXIS2PLACEMENT3D(#401,$,$);
#403=IFCLOCALPLACEMENT(#17,#402);
#404=IFCDISTRIBUTIONPORT('0ncQVqMfbQVu1ojabfFXrY',$,'Zulauf 1',$,$,#403,$,.SINK.,.PIPE.,.SEWAGE.);
#405=IFCRELCONNECTSPORTS('2FMK4_5cHKjuFwW7jbxX0G',$,$,$,#185,#404,$);
#406=IFCCARTESIANPOINT((8000.,1000.,518780.));
#407=IFCAXIS2PLACEMENT3D(#406,$,$);
#408=IFCLOCALPLACEMENT(#17,#407);
#409=IFCDISTRIBUTIONPORT('0m9MzgfyXOzhG3K1hfdBOI',$,'Ablauf',$,$,#408,$,.SOURCE.,.PIPE.,.SEWAGE.);
#410=IFCRELNESTS('2lsQasluzSCOGsUG8k2RD8',$,$,$,#393,(#404,#409));
#411=IFCCIRCLEPROFILEDEF(.AREA.,$,$,80.);
#412=IFCCARTESIANPOINT((0.,0.,80.));
#413=IFCDIRECTION((0.,-0.99965990892133372,0.026078084580557524));
#414=IFCDIRECTION((1.,0.,0.));
#415=IFCAXIS2PLACEMENT3D(#412,#413,#414);
#416=IFCDIRECTION((0.,0.,1.));
#417=IFCEXTRUDEDAREASOLID(#411,#415,#416,4601.5649511878019);
#418=IFCCARTESIANPOINT((8000.,1000.,518780.));
#419=IFCAXIS2PLACEMENT3D(#418,$,$);
#420=IFCLOCALPLACEMENT(#17,#419);
#421=IFCSHAPEREPRESENTATION(#14,'Body','SweptSolid',(#417));
#422=IFCPRODUCTDEFINITIONSHAPE($,$,(#421));
#423=IFCPIPESEGMENT('0aGkJF0RbOnh9ysgS3nK0G',$,'Anschlusskanal SW-RS \X2\2192\X0\ Kanal',$,$,#420,#422,$,.RIGIDSEGMENT.);
#424=IFCPROPERTYSINGLEVALUE('NominalDiameter',$,IFCPOSITIVELENGTHMEASURE(150.),$);
#425=IFCPROPERTYSET('2EbQamT6PSWgGlCEakk4MT',$,'Pset_PipeSegmentTypeCommon',$,(#424));
#426=IFCRELDEFINESBYPROPERTIES('1mIK6m2qLOZAJqRpp1QhJb',$,$,$,(#423),#425);
#427=IFCCARTESIANPOINT((8000.,1000.,518780.));
#428=IFCAXIS2PLACEMENT3D(#427,$,$);
#429=IFCLOCALPLACEMENT(#17,#428);
#430=IFCDISTRIBUTIONPORT('1QV4AZ7ZrPNeYsS0NdU9m7',$,'Zulauf',$,$,#429,$,.SINK.,.PIPE.,.SEWAGE.);
#431=IFCRELNESTS('3drWinTKjIzf_QDF5_awiu',$,$,$,#423,(#430));
#432=IFCRELCONNECTSPORTS('1otFUWLnDG8fvUovzLTZgB',$,$,$,#409,#430,$);
#433=IFCCIRCLEPROFILEDEF(.AREA.,$,$,55.);
#434=IFCCARTESIANPOINT((0.,0.,55.));
#435=IFCDIRECTION((0.05126798350272576,0.9986348701435197,-0.0099995000374933848));
#436=IFCDIRECTION((0.,1.,0.));
#437=IFCAXIS2PLACEMENT3D(#434,#435,#436);
#438=IFCDIRECTION((0.,0.,1.));
#439=IFCEXTRUDEDAREASOLID(#433,#437,#438,11001.017817874852);
#440=IFCCARTESIANPOINT((15400.,9400.,519311.));
#441=IFCAXIS2PLACEMENT3D(#440,$,$);
#442=IFCLOCALPLACEMENT(#17,#441);
#443=IFCSHAPEREPRESENTATION(#14,'Body','SweptSolid',(#439));
#444=IFCPRODUCTDEFINITIONSHAPE($,$,(#443));
#445=IFCPIPESEGMENT('1ST5Q5IVXSNhXLhK71bwO6',$,'RF3 \X2\2192\X0\ NW-S1',$,$,#442,#444,$,.RIGIDSEGMENT.);
#446=IFCPROPERTYSINGLEVALUE('NominalDiameter',$,IFCPOSITIVELENGTHMEASURE(100.),$);
#447=IFCPROPERTYSINGLEVALUE('InnerDiameter',$,IFCPOSITIVELENGTHMEASURE(96.),$);
#448=IFCPROPERTYSINGLEVALUE('Length',$,IFCPOSITIVELENGTHMEASURE(11000.5),$);
#449=IFCPROPERTYSET('34xPqdD9jV$95$vzTQ_I4I',$,'Pset_PipeSegmentTypeCommon',$,(#446,#447,#448));
#450=IFCRELDEFINESBYPROPERTIES('0j7cf5fEXLeRKj47E2ATbf',$,$,$,(#445),#449);
#451=IFCPROPERTYSINGLEVALUE('Gradient',$,IFCPOSITIVERATIOMEASURE(0.01),$);
#452=IFCPROPERTYSINGLEVALUE('InvertElevation',$,IFCLENGTHMEASURE(519311.),$);
#453=IFCPROPERTYSET('0kWuU5QkvR0Qr3b4NaNYLg',$,'Pset_PipeSegmentOccurrence',$,(#451,#452));
#454=IFCRELDEFINESBYPROPERTIES('3q2U6TPunQSuObtcm83Z5L',$,$,$,(#445),#453);
#455=IFCPROPERTYSINGLEVALUE('Lage',$,IFCLABEL('Erdreich'),$);
#456=IFCPROPERTYSINGLEVALUE('Abfluss_l_s',$,IFCREAL(1.0369999999999999),$);
#457=IFCPROPERTYSINGLEVALUE('Sohle_unten_m',$,IFCREAL(519.20100000000002),$);
#458=IFCPROPERTYSET('1CJXXWZPPIowr7Mto5JXRL',$,'B17_Entwaesserung',$,(#455,#456,#457));
#459=IFCRELDEFINESBYPROPERTIES('1STdZS4oDTS9H$6UscrYno',$,$,$,(#445),#458);
#460=IFCCARTESIANPOINT((15400.,9400.,519311.));
#461=IFCAXIS2PLACEMENT3D(#460,$,$);
#462=IFCLOCALPLACEMENT(#17,#461);
#463=IFCDISTRIBUTIONPORT('1PrqtbVtbGtfB3mf4N9v9r',$,'Zulauf',$,$,#462,$,.SINK.,.PIPE.,.RAINWATER.);
#464=IFCCARTESIANPOINT((15964.,20386.,519200.995));
#465=IFCAXIS2PLACEMENT3D(#464,$,$);
#466=IFCLOCALPLACEMENT(#17,#465);
#467=IFCDISTRIBUTIONPORT('3qWzAdyRbHq8WijHPcFn2A',$,'Ablauf',$,$,#466,$,.SOURCE.,.PIPE.,.RAINWATER.);
#468=IFCRELNESTS('1O8xGa_NnNG97A_3IiLvEJ',$,$,$,#445,(#463,#467));
#469=IFCCIRCLEPROFILEDEF(.AREA.,$,$,55.);
#470=IFCCARTESIANPOINT((0.,0.,55.));
#471=IFCDIRECTION((-0.99900337697428543,0.043500147045426707,-0.0099995000375013628));
#472=IFCDIRECTION((0.,1.,0.));
#473=IFCAXIS2PLACEMENT3D(#470,#471,#472);
#474=IFCDIRECTION((0.,0.,1.));
#475=IFCEXTRUDEDAREASOLID(#469,#473,#474,5999.9797179407215);
#476=IFCCARTESIANPOINT((16050.,22050.,519184.33299999998));
#477=IFCAXIS2PLACEMENT3D(#476,$,$);
#478=IFCLOCALPLACEMENT(#17,#477);
#479=IFCSHAPEREPRESENTATION(#14,'Body','SweptSolid',(#475));
#480=IFCPRODUCTDEFINITIONSHAPE($,$,(#479));
#481=IFCPIPESEGMENT('09HBtPbGPNNhl5KciYF1ge',$,'NW-S2 \X2\2192\X0\ NW-S3',$,$,#478,#480,$,.RIGIDSEGMENT.);
#482=IFCPROPERTYSINGLEVALUE('NominalDiameter',$,IFCPOSITIVELENGTHMEASURE(100.),$);
#483=IFCPROPERTYSINGLEVALUE('InnerDiameter',$,IFCPOSITIVELENGTHMEASURE(96.),$);
#484=IFCPROPERTYSINGLEVALUE('Length',$,IFCPOSITIVELENGTHMEASURE(5999.6999999999998),$);
#485=IFCPROPERTYSET('0sdWicDYHLORpmq01KwyUR',$,'Pset_PipeSegmentTypeCommon',$,(#482,#483,#484));
#486=IFCRELDEFINESBYPROPERTIES('07mAzdeNPTZQ1UxVBsouCi',$,$,$,(#481),#485);
#487=IFCPROPERTYSINGLEVALUE('Gradient',$,IFCPOSITIVERATIOMEASURE(0.01),$);
#488=IFCPROPERTYSINGLEVALUE('InvertElevation',$,IFCLENGTHMEASURE(519184.29999999999),$);
#489=IFCPROPERTYSET('1ipoZxdQnH0ur9O2WVCvT5',$,'Pset_PipeSegmentOccurrence',$,(#487,#488));
#490=IFCRELDEFINESBYPROPERTIES('321Pl3JO5KJRSht8A5pfMB',$,$,$,(#481),#489);
#491=IFCPROPERTYSINGLEVALUE('Lage',$,IFCLABEL('Erdreich'),$);
#492=IFCPROPERTYSINGLEVALUE('Abfluss_l_s',$,IFCREAL(2.0739999999999998),$);
#493=IFCPROPERTYSINGLEVALUE('Sohle_unten_m',$,IFCREAL(519.12400000000002),$);
#494=IFCPROPERTYSET('3z$s4rVyPPF8GrQRkLvXBq',$,'B17_Entwaesserung',$,(#491,#492,#493));
#495=IFCRELDEFINESBYPROPERTIES('3sklKtS3jGJxEYKowD2AOK',$,$,$,(#481),#494);
#496=IFCCARTESIANPOINT((16050.,22050.,519184.33299999998));
#497=IFCAXIS2PLACEMENT3D(#496,$,$);
#498=IFCLOCALPLACEMENT(#17,#497);
#499=IFCDISTRIBUTIONPORT('0liyCIgBTOs8aKeBeinz6A',$,'Zulauf',$,$,#498,$,.SINK.,.PIPE.,.RAINWATER.);
#500=IFCCARTESIANPOINT((10056.,22311.,519124.33600000001));
#501=IFCAXIS2PLACEMENT3D(#500,$,$);
#502=IFCLOCALPLACEMENT(#17,#501);
#503=IFCDISTRIBUTIONPORT('3k_4Jji_9MABdsufs7OoTp',$,'Ablauf',$,$,#502,$,.SOURCE.,.PIPE.,.RAINWATER.);
#504=IFCRELNESTS('2BFrwvvIvTmPEXaLeY_Y6S',$,$,$,#481,(#499,#503));
#505=IFCCIRCLEPROFILEDEF(.AREA.,$,$,55.);
#506=IFCCARTESIANPOINT((0.,0.,55.));
#507=IFCDIRECTION((-0.6185286806703495,0.78569859436503864,-0.0099995000374779146));
#508=IFCDIRECTION((0.,1.,0.));
#509=IFCAXIS2PLACEMENT3D(#506,#507,#508);
#510=IFCDIRECTION((0.,0.,1.));
#511=IFCEXTRUDEDAREASOLID(#505,#509,#510,2990.9688229735848);
#512=IFCCARTESIANPOINT((4600.,9400.,519365.));
#513=IFCAXIS2PLACEMENT3D(#512,$,$);
#514=IFCLOCALPLACEMENT(#17,#513);
#515=IFCSHAPEREPRESENTATION(#14,'Body','SweptSolid',(#511));
#516=IFCPRODUCTDEFINITIONSHAPE($,$,(#515));
#517=IFCPIPESEGMENT('0toCP7xpbK0xt9eKilpeTF',$,'RF1 \X2\2192\X0\ NW-B1',$,$,#514,#516,$,.RIGIDSEGMENT.);
#518=IFCPROPERTYSINGLEVALUE('NominalDiameter',$,IFCPOSITIVELENGTHMEASURE(100.),$);
#519=IFCPROPERTYSINGLEVALUE('InnerDiameter',$,IFCPOSITIVELENGTHMEASURE(96.),$);
#520=IFCPROPERTYSINGLEVALUE('Length',$,IFCPOSITIVELENGTHMEASURE(2990.8000000000002),$);
#521=IFCPROPERTYSET('2Gjvc8MHPIYhtZmpAMBG9x',$,'Pset_PipeSegmentTypeCommon',$,(#518,#519,#520));
#522=IFCRELDEFINESBYPROPERTIES('1cHliv6XXOl9UcTN5_IvMy',$,$,$,(#517),#521);
#523=IFCPROPERTYSINGLEVALUE('Gradient',$,IFCPOSITIVERATIOMEASURE(0.01),$);
#524=IFCPROPERTYSINGLEVALUE('InvertElevation',$,IFCLENGTHMEASURE(519365.),$);
#525=IFCPROPERTYSET('3l81ttIi1TNwsHX9U7ubKs',$,'Pset_PipeSegmentOccurrence',$,(#523,#524));
#526=IFCRELDEFINESBYPROPERTIES('3Azw5lwfbKtu2DMuHp9Dxu',$,$,$,(#517),#525);
#527=IFCPROPERTYSINGLEVALUE('Lage',$,IFCLABEL('Erdreich'),$);
#528=IFCPROPERTYSINGLEVALUE('Abfluss_l_s',$,IFCREAL(1.0369999999999999),$);
#529=IFCPROPERTYSINGLEVALUE('Sohle_unten_m',$,IFCREAL(519.33500000000004),$);
#530=IFCPROPERTYSET('07Wv$ChnrOvPkl$RZxwG3R',$,'B17_Entwaesserung',$,(#527,#528,#529));
#531=IFCRELDEFINESBYPROPERTIES('38V2yVsb5VpPLqWmuFL1oG',$,$,$,(#517),#530);
#532=IFCCARTESIANPOINT((4600.,9400.,519365.));
#533=IFCAXIS2PLACEMENT3D(#532,$,$);
#534=IFCLOCALPLACEMENT(#17,#533);
#535=IFCDISTRIBUTIONPORT('31uHACo5HNvg2iNb4c3m8M',$,'Zulauf',$,$,#534,$,.SINK.,.PIPE.,.RAINWATER.);
#536=IFCCARTESIANPOINT((2750.,11750.,519335.092));
#537=IFCAXIS2PLACEMENT3D(#536,$,$);
#538=IFCLOCALPLACEMENT(#17,#537);
#539=IFCDISTRIBUTIONPORT('1C_ivfJajRHuQ9ZdJiixlO',$,'Ablauf',$,$,#538,$,.SOURCE.,.PIPE.,.RAINWATER.);
#540=IFCRELNESTS('1nK$6OkqHNE8CwQnYaNEnX',$,$,$,#517,(#535,#539));
#541=IFCCIRCLEPROFILEDEF(.AREA.,$,$,55.);
#542=IFCCARTESIANPOINT((0.,0.,55.));
#543=IFCDIRECTION((0.,0.99974584652059195,-0.022544231298158291));
#544=IFCDIRECTION((1.,0.,0.));
#545=IFCAXIS2PLACEMENT3D(#542,#543,#544);
#546=IFCDIRECTION((0.,0.,1.));
#547=IFCEXTRUDEDAREASOLID(#541,#545,#546,10102.567602707184);
#548=IFCCARTESIANPOINT((2750.,11750.,519335.092));
#549=IFCAXIS2PLACEMENT3D(#548,$,$);
#550=IFCLOCALPLACEMENT(#17,#549);
#551=IFCSHAPEREPRESENTATION(#14,'Body','SweptSolid',(#547));
#552=IFCPRODUCTDEFINITIONSHAPE($,$,(#551));
#553=IFCPIPESEGMENT('1Z8INqq9XPh9Jj103uD4If',$,'NW-B1 \X2\2192\X0\ NW-B2',$,$,#550,#552,$,.RIGIDSEGMENT.);
#554=IFCPROPERTYSINGLEVALUE('NominalDiameter',$,IFCPOSITIVELENGTHMEASURE(100.),$);
#555=IFCPROPERTYSINGLEVALUE('InnerDiameter',$,IFCPOSITIVELENGTHMEASURE(96.),$);
#556=IFCPROPERTYSINGLEVALUE('Length',$,IFCPOSITIVELENGTHMEASURE(10100.),$);
#557=IFCPROPERTYSET('2bMlsxbi1OWhipxJqalzVh',$,'Pset_PipeSegmentTypeCommon',$,(#554,#555,#556));
#558=IFCRELDEFINESBYPROPERTIES('0oDOHL4WnLSRXYhTROMtme',$,$,$,(#553),#557);
#559=IFCPROPERTYSINGLEVALUE('Gradient',$,IFCPOSITIVERATIOMEASURE(0.022550000000000001),$);
#560=IFCPROPERTYSINGLEVALUE('InvertElevation',$,IFCLENGTHMEASURE(519335.09999999998),$);
#561=IFCPROPERTYSET('3kcZERwNfLI82HzKSQ5fet',$,'Pset_PipeSegmentOccurrence',$,(#559,#560));
#562=IFCRELDEFINESBYPROPERTIES('3WdUN9vW5L6ultCeUCgvFB',$,$,$,(#553),#561);
#563=IFCPROPERTYSINGLEVALUE('Lage',$,IFCLABEL('Erdreich'),$);
#564=IFCPROPERTYSINGLEVALUE('Abfluss_l_s',$,IFCREAL(1.0369999999999999),$);
#565=IFCPROPERTYSINGLEVALUE('Sohle_unten_m',$,IFCREAL(519.10699999999997),$);
#566=IFCPROPERTYSET('0vhW7B$FnPxBRyAVCRkNC6',$,'B17_Entwaesserung',$,(#563,#564,#565));
#567=IFCRELDEFINESBYPROPERTIES('1wJYI8QkPIp9i788ToqRYJ',$,$,$,(#553),#566);
#568=IFCCARTESIANPOINT((2750.,11750.,519335.092));
#569=IFCAXIS2PLACEMENT3D(#568,$,$);
#570=IFCLOCALPLACEMENT(#17,#569);
#571=IFCDISTRIBUTIONPORT('2VacrHmv9NJQ0Gnvv6GYt8',$,'Zulauf',$,$,#570,$,.SINK.,.PIPE.,.RAINWATER.);
#572=IFCCARTESIANPOINT((2750.,21850.,519107.337));
#573=IFCAXIS2PLACEMENT3D(#572,$,$);
#574=IFCLOCALPLACEMENT(#17,#573);
#575=IFCDISTRIBUTIONPORT('3e69AaVSvPKR6Jm_8M2YPA',$,'Ablauf',$,$,#574,$,.SOURCE.,.PIPE.,.RAINWATER.);
#576=IFCRELNESTS('3HyzlINdvGqRKW4vXjIaCs',$,$,$,#553,(#571,#575));
#577=IFCCIRCLEPROFILEDEF(.AREA.,$,$,55.);
#578=IFCCARTESIANPOINT((0.,0.,55.));
#579=IFCDIRECTION((0.65411340704734566,0.75474623890078352,-0.049937616943892364));
#580=IFCDIRECTION((0.,1.,0.));
#581=IFCAXIS2PLACEMENT3D(#578,#579,#580);
#582=IFCDIRECTION((0.,0.,1.));
#583=IFCEXTRUDEDAREASOLID(#577,#581,#582,993.7114772407532);
#584=IFCCARTESIANPOINT((2750.,21850.,519107.337));
#585=IFCAXIS2PLACEMENT3D(#584,$,$);
#586=IFCLOCALPLACEMENT(#17,#585);
#587=IFCSHAPEREPRESENTATION(#14,'Body','SweptSolid',(#583));
#588=IFCPRODUCTDEFINITIONSHAPE($,$,(#587));
#589=IFCPIPESEGMENT('18xJD8MffL$ApRczdvY5ue',$,'NW-B2 \X2\2192\X0\ NW-FS',$,$,#586,#588,$,.RIGIDSEGMENT.);
#590=IFCPROPERTYSINGLEVALUE('NominalDiameter',$,IFCPOSITIVELENGTHMEASURE(100.),$);
#591=IFCPROPERTYSINGLEVALUE('InnerDiameter',$,IFCPOSITIVELENGTHMEASURE(96.),$);
#592=IFCPROPERTYSINGLEVALUE('Length',$,IFCPOSITIVELENGTHMEASURE(992.5),$);
#593=IFCPROPERTYSET('3bn7jR4rfLoQIWnkdAnk$W',$,'Pset_PipeSegmentTypeCommon',$,(#590,#591,#592));
#594=IFCRELDEFINESBYPROPERTIES('1fLnTySWnLdgUMplsy_24q',$,$,$,(#589),#593);
#595=IFCPROPERTYSINGLEVALUE('Gradient',$,IFCPOSITIVERATIOMEASURE(0.050000000000000003),$);
#596=IFCPROPERTYSINGLEVALUE('InvertElevation',$,IFCLENGTHMEASURE(519107.29999999999),$);
#597=IFCPROPERTYSET('32TSuCLIPRyBEWBa25SF_q',$,'Pset_PipeSegmentOccurrence',$,(#595,#596));
#598=IFCRELDEFINESBYPROPERTIES('0uNJl7LvvNiPftFBi1DOcu',$,$,$,(#589),#597);
#599=IFCPROPERTYSINGLEVALUE('Lage',$,IFCLABEL('Erdreich'),$);
#600=IFCPROPERTYSINGLEVALUE('Abfluss_l_s',$,IFCREAL(1.0369999999999999),$);
#601=IFCPROPERTYSINGLEVALUE('Sohle_unten_m',$,IFCREAL(519.05799999999999),$);
#602=IFCPROPERTYSET('2Lj7SYQSjLD8l$WxdQf4_2',$,'B17_Entwaesserung',$,(#599,#600,#601));
#603=IFCRELDEFINESBYPROPERTIES('0o0A0sWH1Nvfp1B8e5_WUK',$,$,$,(#589),#602);
#604=IFCCARTESIANPOINT((2750.,21850.,519107.337));
#605=IFCAXIS2PLACEMENT3D(#604,$,$);
#606=IFCLOCALPLACEMENT(#17,#605);
#607=IFCDISTRIBUTIONPORT('1BEM5UnlXKXwAfE0iDtNwM',$,'Zulauf',$,$,#606,$,.SINK.,.PIPE.,.RAINWATER.);
#608=IFCCARTESIANPOINT((3400.,22600.,519057.71399999998));
#609=IFCAXIS2PLACEMENT3D(#608,$,$);
#610=IFCLOCALPLACEMENT(#17,#609);
#611=IFCDISTRIBUTIONPORT('0ffwpvYl9QgfHHStC0d_KF',$,'Ablauf',$,$,#610,$,.SOURCE.,.PIPE.,.RAINWATER.);
#612=IFCRELNESTS('1iWYMbw2zOce7cOIlogQDM',$,$,$,#589,(#607,#611));
#613=IFCCIRCLEPROFILEDEF(.AREA.,$,$,55.);
#614=IFCCARTESIANPOINT((0.,0.,55.));
#615=IFCDIRECTION((0.051611224945701875,0.99861718964706625,-0.009999500037474773));
#616=IFCDIRECTION((0.,1.,0.));
#617=IFCAXIS2PLACEMENT3D(#614,#615,#616);
#618=IFCDIRECTION((0.,0.,1.));
#619=IFCEXTRUDEDAREASOLID(#613,#617,#618,1666.3041826749411);
#620=IFCCARTESIANPOINT((15964.,20386.,519200.995));
#621=IFCAXIS2PLACEMENT3D(#620,$,$);
#622=IFCLOCALPLACEMENT(#17,#621);
#623=IFCSHAPEREPRESENTATION(#14,'Body','SweptSolid',(#619));
#624=IFCPRODUCTDEFINITIONSHAPE($,$,(#623));
#625=IFCPIPESEGMENT('04w2RhoofS1u0MAVX$CVOU',$,'NW-S1 \X2\2192\X0\ NW-S2',$,$,#622,#624,$,.RIGIDSEGMENT.);
#626=IFCPROPERTYSINGLEVALUE('NominalDiameter',$,IFCPOSITIVELENGTHMEASURE(100.),$);
#627=IFCPROPERTYSINGLEVALUE('InnerDiameter',$,IFCPOSITIVELENGTHMEASURE(96.),$);
#628=IFCPROPERTYSINGLEVALUE('Length',$,IFCPOSITIVELENGTHMEASURE(1666.2),$);
#629=IFCPROPERTYSET('2ysTOJ0TLN9xDVExoss2KF',$,'Pset_PipeSegmentTypeCommon',$,(#626,#627,#628));
#630=IFCRELDEFINESBYPROPERTIES('1xESxLcqfODec9p5adRhkU',$,$,$,(#625),#629);
#631=IFCPROPERTYSINGLEVALUE('Gradient',$,IFCPOSITIVERATIOMEASURE(0.01),$);
#632=IFCPROPERTYSINGLEVALUE('InvertElevation',$,IFCLENGTHMEASURE(519201.),$);
#633=IFCPROPERTYSET('2kNGfSAAzGbB0IaYXhIznr',$,'Pset_PipeSegmentOccurrence',$,(#631,#632));
#634=IFCRELDEFINESBYPROPERTIES('144n5kN0TNdhczzl0iv3VM',$,$,$,(#625),#633);
#635=IFCPROPERTYSINGLEVALUE('Lage',$,IFCLABEL('Erdreich'),$);
#636=IFCPROPERTYSINGLEVALUE('Abfluss_l_s',$,IFCREAL(2.0739999999999998),$);
#637=IFCPROPERTYSINGLEVALUE('Sohle_unten_m',$,IFCREAL(519.18399999999997),$);
#638=IFCPROPERTYSET('2oqfxqONDKHQ65yrbzonKH',$,'B17_Entwaesserung',$,(#635,#636,#637));
#639=IFCRELDEFINESBYPROPERTIES('3kNnyUH6DLphpvQRiUgowC',$,$,$,(#625),#638);
#640=IFCCARTESIANPOINT((15964.,20386.,519200.995));
#641=IFCAXIS2PLACEMENT3D(#640,$,$);
#642=IFCLOCALPLACEMENT(#17,#641);
#643=IFCDISTRIBUTIONPORT('3s18JTMNnHFvypHL6jBbjL',$,'Zulauf',$,$,#642,$,.SINK.,.PIPE.,.RAINWATER.);
#644=IFCCARTESIANPOINT((16050.,22050.,519184.33299999998));
#645=IFCAXIS2PLACEMENT3D(#644,$,$);
#646=IFCLOCALPLACEMENT(#17,#645);
#647=IFCDISTRIBUTIONPORT('1aCcjiE6fSNgVujrPK7xou',$,'Ablauf',$,$,#646,$,.SOURCE.,.PIPE.,.RAINWATER.);
#648=IFCRELNESTS('1rV6Rd96XIe8dg69QJtl5t',$,$,$,#625,(#643,#647));
#649=IFCCIRCLEPROFILEDEF(.AREA.,$,$,55.);
#650=IFCCARTESIANPOINT((0.,0.,55.));
#651=IFCDIRECTION((0.93379309755851014,-0.35431156538567943,-0.049937616943864407));
#652=IFCDIRECTION((0.,1.,0.));
#653=IFCAXIS2PLACEMENT3D(#650,#651,#652);
#654=IFCDIRECTION((0.,0.,1.));
#655=IFCEXTRUDEDAREASOLID(#649,#653,#654,603.98818697057311);
#656=IFCCARTESIANPOINT((15400.,20600.,519231.15700000001));
#657=IFCAXIS2PLACEMENT3D(#656,$,$);
#658=IFCLOCALPLACEMENT(#17,#657);
#659=IFCSHAPEREPRESENTATION(#14,'Body','SweptSolid',(#655));
#660=IFCPRODUCTDEFINITIONSHAPE($,$,(#659));
#661=IFCPIPESEGMENT('38MpwawmvRmv7sZZU1q2S0',$,'RF4 \X2\2192\X0\ NW-S1',$,$,#658,#660,$,.RIGIDSEGMENT.);
#662=IFCPROPERTYSINGLEVALUE('NominalDiameter',$,IFCPOSITIVELENGTHMEASURE(100.),$);
#663=IFCPROPERTYSINGLEVALUE('InnerDiameter',$,IFCPOSITIVELENGTHMEASURE(96.),$);
#664=IFCPROPERTYSINGLEVALUE('Length',$,IFCPOSITIVELENGTHMEASURE(603.20000000000005),$);
#665=IFCPROPERTYSET('2OHBrsM4jMZeyoPMNl3arK',$,'Pset_PipeSegmentTypeCommon',$,(#662,#663,#664));
#666=IFCRELDEFINESBYPROPERTIES('2$TaD8HXTHORPTFgw6lfoO',$,$,$,(#661),#665);
#667=IFCPROPERTYSINGLEVALUE('Gradient',$,IFCPOSITIVERATIOMEASURE(0.050000000000000003),$);
#668=IFCPROPERTYSINGLEVALUE('InvertElevation',$,IFCLENGTHMEASURE(519231.20000000001),$);
#669=IFCPROPERTYSET('3h$_IjgqrJhxyfueDkz_vV',$,'Pset_PipeSegmentOccurrence',$,(#667,#668));
#670=IFCRELDEFINESBYPROPERTIES('1dSiBecfvPf9wpVoTWKMWo',$,$,$,(#661),#669);
#671=IFCPROPERTYSINGLEVALUE('Lage',$,IFCLABEL('Erdreich'),$);
#672=IFCPROPERTYSINGLEVALUE('Abfluss_l_s',$,IFCREAL(1.0369999999999999),$);
#673=IFCPROPERTYSINGLEVALUE('Sohle_unten_m',$,IFCREAL(519.20100000000002),$);
#674=IFCPROPERTYSET('1uihM2m1nNlee2tLuJvsuu',$,'B17_Entwaesserung',$,(#671,#672,#673));
#675=IFCRELDEFINESBYPROPERTIES('1tIvaZdV5I9fvYT3Mh$ZLx',$,$,$,(#661),#674);
#676=IFCCARTESIANPOINT((15400.,20600.,519231.15700000001));
#677=IFCAXIS2PLACEMENT3D(#676,$,$);
#678=IFCLOCALPLACEMENT(#17,#677);
#679=IFCDISTRIBUTIONPORT('0scEHlI9TJggxZTbqtMr3u',$,'Zulauf',$,$,#678,$,.SINK.,.PIPE.,.RAINWATER.);
#680=IFCCARTESIANPOINT((15964.,20386.,519200.995));
#681=IFCAXIS2PLACEMENT3D(#680,$,$);
#682=IFCLOCALPLACEMENT(#17,#681);
#683=IFCDISTRIBUTIONPORT('0Sp_5mou5GVuXI$UhQlgQu',$,'Ablauf',$,$,#682,$,.SOURCE.,.PIPE.,.RAINWATER.);
#684=IFCRELNESTS('34XQRKpEvPWBoKNFRpbZGd',$,$,$,#661,(#679,#683));
#685=IFCCIRCLEPROFILEDEF(.AREA.,$,$,55.);
#686=IFCCARTESIANPOINT((0.,0.,55.));
#687=IFCDIRECTION((-0.99900552312096702,0.043450831669865686,-0.0099995000374980391));
#688=IFCDIRECTION((0.,1.,0.));
#689=IFCAXIS2PLACEMENT3D(#686,#687,#688);
#690=IFCDIRECTION((0.,0.,1.));
#691=IFCEXTRUDEDAREASOLID(#685,#689,#690,5500.470090328643);
#692=IFCCARTESIANPOINT((10056.,22311.,519124.33600000001));
#693=IFCAXIS2PLACEMENT3D(#692,$,$);
#694=IFCLOCALPLACEMENT(#17,#693);
#695=IFCSHAPEREPRESENTATION(#14,'Body','SweptSolid',(#691));
#696=IFCPRODUCTDEFINITIONSHAPE($,$,(#695));
#697=IFCPIPESEGMENT('3FHjH2kYrKPwBRoaIvVoWU',$,'NW-S3 \X2\2192\X0\ NW-S4',$,$,#694,#696,$,.RIGIDSEGMENT.);
#698=IFCPROPERTYSINGLEVALUE('NominalDiameter',$,IFCPOSITIVELENGTHMEASURE(100.),$);
#699=IFCPROPERTYSINGLEVALUE('InnerDiameter',$,IFCPOSITIVELENGTHMEASURE(96.),$);
#700=IFCPROPERTYSINGLEVALUE('Length',$,IFCPOSITIVELENGTHMEASURE(5500.1999999999998),$);
#701=IFCPROPERTYSET('0aB$lPO9XIhQBV2yTzZRz2',$,'Pset_PipeSegmentTypeCommon',$,(#698,#699,#700));
#702=IFCRELDEFINESBYPROPERTIES('3sXYj9U9rQEhLrA4_j2RKL',$,$,$,(#697),#701);
#703=IFCPROPERTYSINGLEVALUE('Gradient',$,IFCPOSITIVERATIOMEASURE(0.01),$);
#704=IFCPROPERTYSINGLEVALUE('InvertElevation',$,IFCLENGTHMEASURE(519124.29999999999),$);
#705=IFCPROPERTYSET('17gg5I20bIrwUmmK5vB0WF',$,'Pset_PipeSegmentOccurrence',$,(#703,#704));
#706=IFCRELDEFINESBYPROPERTIES('1Afedj_jDKJfTI1Bs9dIZf',$,$,$,(#697),#705);
#707=IFCPROPERTYSINGLEVALUE('Lage',$,IFCLABEL('Erdreich'),$);
#708=IFCPROPERTYSINGLEVALUE('Abfluss_l_s',$,IFCREAL(2.7000000000000002),$);
#709=IFCPROPERTYSINGLEVALUE('Sohle_unten_m',$,IFCREAL(519.06899999999996),$);
#710=IFCPROPERTYSET('2Y4wThC9jSTfn3ZhzPc2C_',$,'B17_Entwaesserung',$,(#707,#708,#709));
#711=IFCRELDEFINESBYPROPERTIES('2afFDaCh5VjQ45$hue9U0l',$,$,$,(#697),#710);
#712=IFCCARTESIANPOINT((10056.,22311.,519124.33600000001));
#713=IFCAXIS2PLACEMENT3D(#712,$,$);
#714=IFCLOCALPLACEMENT(#17,#713);
#715=IFCDISTRIBUTIONPORT('3qwnCSs8bHPRyRuGQVC48x',$,'Zulauf',$,$,#714,$,.SINK.,.PIPE.,.RAINWATER.);
#716=IFCCARTESIANPOINT((4561.,22550.,519069.33399999997));
#717=IFCAXIS2PLACEMENT3D(#716,$,$);
#718=IFCLOCALPLACEMENT(#17,#717);
#719=IFCDISTRIBUTIONPORT('1ShnUrUvTQAAlHLvPSbSFJ',$,'Ablauf',$,$,#718,$,.SOURCE.,.PIPE.,.RAINWATER.);
#720=IFCRELNESTS('3x6qyAaQjPkh_XkMnA3Q7A',$,$,$,#697,(#715,#719));
#721=IFCCIRCLEPROFILEDEF(.AREA.,$,$,55.);
#722=IFCCARTESIANPOINT((0.,0.,55.));
#723=IFCDIRECTION((0.028108585400337751,-0.99835672073701154,-0.049937616943869674));
#724=IFCDIRECTION((0.,1.,0.));
#725=IFCAXIS2PLACEMENT3D(#722,#723,#724);
#726=IFCDIRECTION((0.,0.,1.));
#727=IFCEXTRUDEDAREASOLID(#721,#725,#726,1992.2738623241521);
#728=IFCCARTESIANPOINT((10000.,24300.,519223.826));
#729=IFCAXIS2PLACEMENT3D(#728,$,$);
#730=IFCLOCALPLACEMENT(#17,#729);
#731=IFCSHAPEREPRESENTATION(#14,'Body','SweptSolid',(#727));
#732=IFCPRODUCTDEFINITIONSHAPE($,$,(#731));
#733=IFCPIPESEGMENT('3qMmhH00zQjO8vWC954tSd',$,'HA1 \X2\2192\X0\ NW-S3',$,$,#730,#732,$,.RIGIDSEGMENT.);
#734=IFCPROPERTYSINGLEVALUE('NominalDiameter',$,IFCPOSITIVELENGTHMEASURE(100.),$);
#735=IFCPROPERTYSINGLEVALUE('InnerDiameter',$,IFCPOSITIVELENGTHMEASURE(96.),$);
#736=IFCPROPERTYSINGLEVALUE('Length',$,IFCPOSITIVELENGTHMEASURE(1989.8),$);
#737=IFCPROPERTYSET('1WxOdwjf5UyhiypnnCsvev',$,'Pset_PipeSegmentTypeCommon',$,(#734,#735,#736));
#738=IFCRELDEFINESBYPROPERTIES('1jRFpYJJvIuhhq0nIoj6Yb',$,$,$,(#733),#737);
#739=IFCPROPERTYSINGLEVALUE('Gradient',$,IFCPOSITIVERATIOMEASURE(0.050000000000000003),$);
#740=IFCPROPERTYSINGLEVALUE('InvertElevation',$,IFCLENGTHMEASURE(519223.79999999999),$);
#741=IFCPROPERTYSET('1CVAZTCMLTFPAhNh_MYPJM',$,'Pset_PipeSegmentOccurrence',$,(#739,#740));
#742=IFCRELDEFINESBYPROPERTIES('0GnVOJ4MHGwfu_HzM4Pn4w',$,$,$,(#733),#741);
#743=IFCPROPERTYSINGLEVALUE('Lage',$,IFCLABEL('Erdreich'),$);
#744=IFCPROPERTYSINGLEVALUE('Abfluss_l_s',$,IFCREAL(0.626),$);
#745=IFCPROPERTYSINGLEVALUE('Sohle_unten_m',$,IFCREAL(519.12400000000002),$);
#746=IFCPROPERTYSET('0ylUqS7KDOJA2U9S4tazS2',$,'B17_Entwaesserung',$,(#743,#744,#745));
#747=IFCRELDEFINESBYPROPERTIES('0OsI4KaQHOc9pODN_nHNu_',$,$,$,(#733),#746);
#748=IFCCARTESIANPOINT((10000.,24300.,519223.826));
#749=IFCAXIS2PLACEMENT3D(#748,$,$);
#750=IFCLOCALPLACEMENT(#17,#749);
#751=IFCDISTRIBUTIONPORT('0Dwnk2CcXJru0R_GNzIgCT',$,'Zulauf',$,$,#750,$,.SINK.,.PIPE.,.RAINWATER.);
#752=IFCCARTESIANPOINT((10056.,22311.,519124.33600000001));
#753=IFCAXIS2PLACEMENT3D(#752,$,$);
#754=IFCLOCALPLACEMENT(#17,#753);
#755=IFCDISTRIBUTIONPORT('02W8KK3lrMHwobNoKqT3gx',$,'Ablauf',$,$,#754,$,.SOURCE.,.PIPE.,.RAINWATER.);
#756=IFCRELNESTS('2_NO3BM85VoxxNptWZdDIv',$,$,$,#733,(#751,#755));
#757=IFCCIRCLEPROFILEDEF(.AREA.,$,$,55.);
#758=IFCCARTESIANPOINT((0.,0.,55.));
#759=IFCDIRECTION((-0.9990239839861107,0.043024288716026052,-0.0099995000374556546));
#760=IFCDIRECTION((0.,1.,0.));
#761=IFCAXIS2PLACEMENT3D(#758,#759,#760);
#762=IFCDIRECTION((0.,0.,1.));
#763=IFCEXTRUDEDAREASOLID(#757,#761,#762,1162.1342616496595);
#764=IFCCARTESIANPOINT((4561.,22550.,519069.33399999997));
#765=IFCAXIS2PLACEMENT3D(#764,$,$);
#766=IFCLOCALPLACEMENT(#17,#765);
#767=IFCSHAPEREPRESENTATION(#14,'Body','SweptSolid',(#763));
#768=IFCPRODUCTDEFINITIONSHAPE($,$,(#767));
#769=IFCPIPESEGMENT('2mbo2j1xjQJPlnyX6Y8npV',$,'NW-S4 \X2\2192\X0\ NW-FS',$,$,#766,#768,$,.RIGIDSEGMENT.);
#770=IFCPROPERTYSINGLEVALUE('NominalDiameter',$,IFCPOSITIVELENGTHMEASURE(100.),$);
#771=IFCPROPERTYSINGLEVALUE('InnerDiameter',$,IFCPOSITIVELENGTHMEASURE(96.),$);
#772=IFCPROPERTYSINGLEVALUE('Length',$,IFCPOSITIVELENGTHMEASURE(1162.0999999999999),$);
#773=IFCPROPERTYSET('1dvZ7WxmDUOQSoJZQfZ7C3',$,'Pset_PipeSegmentTypeCommon',$,(#770,#771,#772));
#774=IFCRELDEFINESBYPROPERTIES('1WZ98OVKbVvuFjbriaAJIs',$,$,$,(#769),#773);
#775=IFCPROPERTYSINGLEVALUE('Gradient',$,IFCPOSITIVERATIOMEASURE(0.01),$);
#776=IFCPROPERTYSINGLEVALUE('InvertElevation',$,IFCLENGTHMEASURE(519069.29999999999),$);
#777=IFCPROPERTYSET('0Sc82LOAfGQQk8X69NGDOe',$,'Pset_PipeSegmentOccurrence',$,(#775,#776));
#778=IFCRELDEFINESBYPROPERTIES('18o2wTuV9S3R_pIUyfcyIE',$,$,$,(#769),#777);
#779=IFCPROPERTYSINGLEVALUE('Lage',$,IFCLABEL('Erdreich'),$);
#780=IFCPROPERTYSINGLEVALUE('Abfluss_l_s',$,IFCREAL(3.7370000000000001),$);
#781=IFCPROPERTYSINGLEVALUE('Sohle_unten_m',$,IFCREAL(519.05799999999999),$);
#782=IFCPROPERTYSET('1G761ZylPMwg0h0NbRCrxb',$,'B17_Entwaesserung',$,(#779,#780,#781));
#783=IFCRELDEFINESBYPROPERTIES('0zp26fmEnRTRjBgp8omoqS',$,$,$,(#769),#782);
#784=IFCCARTESIANPOINT((4561.,22550.,519069.33399999997));
#785=IFCAXIS2PLACEMENT3D(#784,$,$);
#786=IFCLOCALPLACEMENT(#17,#785);
#787=IFCDISTRIBUTIONPORT('19V_HrccPSc8ZC54MMdN4p',$,'Zulauf',$,$,#786,$,.SINK.,.PIPE.,.RAINWATER.);
#788=IFCCARTESIANPOINT((3400.,22600.,519057.71399999998));
#789=IFCAXIS2PLACEMENT3D(#788,$,$);
#790=IFCLOCALPLACEMENT(#17,#789);
#791=IFCDISTRIBUTIONPORT('3GI0qwOnzTFx_MuUMG4HBS',$,'Ablauf',$,$,#790,$,.SOURCE.,.PIPE.,.RAINWATER.);
#792=IFCRELNESTS('3_9k$6YEDPigZoz1EvtJUJ',$,$,$,#769,(#787,#791));
#793=IFCCIRCLEPROFILEDEF(.AREA.,$,$,55.);
#794=IFCCARTESIANPOINT((0.,0.,55.));
#795=IFCDIRECTION((-0.019971052966304699,0.99855264831524215,-0.049937616943877085));
#796=IFCDIRECTION((0.,1.,0.));
#797=IFCAXIS2PLACEMENT3D(#794,#795,#796);
#798=IFCDIRECTION((0.,0.,1.));
#799=IFCEXTRUDEDAREASOLID(#793,#797,#798,1952.8264266186052);
#800=IFCCARTESIANPOINT((4600.,20600.,519166.85399999999));
#801=IFCAXIS2PLACEMENT3D(#800,$,$);
#802=IFCLOCALPLACEMENT(#17,#801);
#803=IFCSHAPEREPRESENTATION(#14,'Body','SweptSolid',(#799));
#804=IFCPRODUCTDEFINITIONSHAPE($,$,(#803));
#805=IFCPIPESEGMENT('0mCkmPgOnKzx51n7yC5BKE',$,'RF2 \X2\2192\X0\ NW-S4',$,$,#802,#804,$,.RIGIDSEGMENT.);
#806=IFCPROPERTYSINGLEVALUE('NominalDiameter',$,IFCPOSITIVELENGTHMEASURE(100.),$);
#807=IFCPROPERTYSINGLEVALUE('InnerDiameter',$,IFCPOSITIVELENGTHMEASURE(96.),$);
#808=IFCPROPERTYSINGLEVALUE('Length',$,IFCPOSITIVELENGTHMEASURE(1950.4000000000001),$);
#809=IFCPROPERTYSET('3RW5oWRlPLLxVxrBNu_pMX',$,'Pset_PipeSegmentTypeCommon',$,(#806,#807,#808));
#810=IFCRELDEFINESBYPROPERTIES('2BMUY$ruPOLQ6qckoUV3Ug',$,$,$,(#805),#809);
#811=IFCPROPERTYSINGLEVALUE('Gradient',$,IFCPOSITIVERATIOMEASURE(0.050000000000000003),$);
#812=IFCPROPERTYSINGLEVALUE('InvertElevation',$,IFCLENGTHMEASURE(519166.90000000002),$);
#813=IFCPROPERTYSET('0cRBlj0NjNZfndgPkHov9k',$,'Pset_PipeSegmentOccurrence',$,(#811,#812));
#814=IFCRELDEFINESBYPROPERTIES('2DHz9S5XLQ$xQE5tdSQ_Nt',$,$,$,(#805),#813);
#815=IFCPROPERTYSINGLEVALUE('Lage',$,IFCLABEL('Erdreich'),$);
#816=IFCPROPERTYSINGLEVALUE('Abfluss_l_s',$,IFCREAL(1.0369999999999999),$);
#817=IFCPROPERTYSINGLEVALUE('Sohle_unten_m',$,IFCREAL(519.06899999999996),$);
#818=IFCPROPERTYSET('3sXmP29AzV7xv9uB0l$FlY',$,'B17_Entwaesserung',$,(#815,#816,#817));
#819=IFCRELDEFINESBYPROPERTIES('23EElr15TScQRpqBeXKepG',$,$,$,(#805),#818);
#820=IFCCARTESIANPOINT((4600.,20600.,519166.85399999999));
#821=IFCAXIS2PLACEMENT3D(#820,$,$);
#822=IFCLOCALPLACEMENT(#17,#821);
#823=IFCDISTRIBUTIONPORT('0I210UWHrT_vFavKZ4yIqJ',$,'Zulauf',$,$,#822,$,.SINK.,.PIPE.,.RAINWATER.);
#824=IFCCARTESIANPOINT((4561.,22550.,519069.33399999997));
#825=IFCAXIS2PLACEMENT3D(#824,$,$);
#826=IFCLOCALPLACEMENT(#17,#825);
#827=IFCDISTRIBUTIONPORT('3UHz8YA65G4AllhYyyEfyT',$,'Ablauf',$,$,#826,$,.SOURCE.,.PIPE.,.RAINWATER.);
#828=IFCRELNESTS('1mgZIeT1HU$BrMkPBB$E5W',$,$,$,#805,(#823,#827));
#829=IFCCARTESIANPOINT((2750.,11750.,519335.092));
#830=IFCAXIS2PLACEMENT3D(#829,$,$);
#831=IFCLOCALPLACEMENT(#17,#830);
#832=IFCPIPEFITTING('385Wkg59jUpgl42OiZ4DFI',$,'NW-B1',$,$,#831,$,$,.BEND.);
#833=IFCCARTESIANPOINT((2750.,11750.,519335.092));
#834=IFCAXIS2PLACEMENT3D(#833,$,$);
#835=IFCLOCALPLACEMENT(#17,#834);
#836=IFCDISTRIBUTIONPORT('0UFIFgF2PIdQaLXVmVCXqA',$,'Zulauf 1',$,$,#835,$,.SINK.,.PIPE.,.RAINWATER.);
#837=IFCRELCONNECTSPORTS('1Uj8Gy62vSY8VblMP0cu0r',$,$,$,#539,#836,$);
#838=IFCCARTESIANPOINT((2750.,11750.,519335.092));
#839=IFCAXIS2PLACEMENT3D(#838,$,$);
#840=IFCLOCALPLACEMENT(#17,#839);
#841=IFCDISTRIBUTIONPORT('2Pz6BR531N88MAXNYfgeyx',$,'Ablauf',$,$,#840,$,.SOURCE.,.PIPE.,.RAINWATER.);
#842=IFCRELCONNECTSPORTS('0IjRo8s5PVtg_iEWuObsqk',$,$,$,#841,#571,$);
#843=IFCRELNESTS('0_2wkPQ59HphY$pPm2n0N1',$,$,$,#832,(#836,#841));
#844=IFCCARTESIANPOINT((2750.,21850.,519107.337));
#845=IFCAXIS2PLACEMENT3D(#844,$,$);
#846=IFCLOCALPLACEMENT(#17,#845);
#847=IFCPIPEFITTING('1o0dH76GHOEu2WY3ZCm1l5',$,'NW-B2',$,$,#846,$,$,.BEND.);
#848=IFCCARTESIANPOINT((2750.,21850.,519107.337));
#849=IFCAXIS2PLACEMENT3D(#848,$,$);
#850=IFCLOCALPLACEMENT(#17,#849);
#851=IFCDISTRIBUTIONPORT('00apm3UQfK7Bi2BmTTwXCZ',$,'Zulauf 1',$,$,#850,$,.SINK.,.PIPE.,.RAINWATER.);
#852=IFCRELCONNECTSPORTS('2mUC0oTzPOWBMbm61MlNEy',$,$,$,#575,#851,$);
#853=IFCCARTESIANPOINT((2750.,21850.,519107.337));
#854=IFCAXIS2PLACEMENT3D(#853,$,$);
#855=IFCLOCALPLACEMENT(#17,#854);
#856=IFCDISTRIBUTIONPORT('3D8XBJhXfMSP5jhlPQPeqJ',$,'Ablauf',$,$,#855,$,.SOURCE.,.PIPE.,.RAINWATER.);
#857=IFCRELCONNECTSPORTS('3S75823H5NYhwF8DtpuUdx',$,$,$,#856,#607,$);
#858=IFCRELNESTS('0qvGG1a3bIy9FcYL0lspX9',$,$,$,#847,(#851,#856));
#859=IFCCIRCLEPROFILEDEF(.AREA.,$,$,260.);
#860=IFCCARTESIANPOINT((0.,0.,-150.));
#861=IFCAXIS2PLACEMENT3D(#860,$,$);
#862=IFCDIRECTION((0.,0.,1.));
#863=IFCEXTRUDEDAREASOLID(#859,#861,#862,1276.9046780822691);
#864=IFCCARTESIANPOINT((15964.,20386.,519200.995));
#865=IFCAXIS2PLACEMENT3D(#864,$,$);
#866=IFCLOCALPLACEMENT(#17,#865);
#867=IFCSHAPEREPRESENTATION(#14,'Body','SweptSolid',(#863));
#868=IFCPRODUCTDEFINITIONSHAPE($,$,(#867));
#869=IFCDISTRIBUTIONCHAMBERELEMENT('14$xANe9zKVAlngq38ZQH0',$,'NW-S1',$,$,#866,#868,$,.INSPECTIONCHAMBER.);
#870=IFCPROPERTYSINGLEVALUE('InspectionChamberInvertLevel',$,IFCLENGTHMEASURE(519201.),$);
#871=IFCPROPERTYSINGLEVALUE('ChamberLengthOrRadius',$,IFCPOSITIVELENGTHMEASURE(200.),$);
#872=IFCPROPERTYSINGLEVALUE('AccessCoverLoadRating',$,IFCTEXT('B 125 (Beispiel)'),$);
#873=IFCPROPERTYSET('0Pn1D88wnRtvC3L4oCsY1p',$,'Pset_DistributionChamberElementTypeInspectionChamber',$,(#870,#871,#872));
#874=IFCRELDEFINESBYPROPERTIES('0q47x_i6bGsQHcH22qB1SU',$,$,$,(#869),#873);
#875=IFCCARTESIANPOINT((15964.,20386.,519200.995));
#876=IFCAXIS2PLACEMENT3D(#875,$,$);
#877=IFCLOCALPLACEMENT(#17,#876);
#878=IFCDISTRIBUTIONPORT('3vzXoCsSbUmOPD6TjD7lUD',$,'Zulauf 1',$,$,#877,$,.SINK.,.PIPE.,.RAINWATER.);
#879=IFCRELCONNECTSPORTS('2J2mCbc85HehedYLBFt3p1',$,$,$,#467,#878,$);
#880=IFCCARTESIANPOINT((15964.,20386.,519200.995));
#881=IFCAXIS2PLACEMENT3D(#880,$,$);
#882=IFCLOCALPLACEMENT(#17,#881);
#883=IFCDISTRIBUTIONPORT('27oX1vO_5KPxlE9ffZl2SJ',$,'Zulauf 2',$,$,#882,$,.SINK.,.PIPE.,.RAINWATER.);
#884=IFCRELCONNECTSPORTS('25GQ9Z7x1VlhyJyl0ka0G3',$,$,$,#683,#883,$);
#885=IFCCARTESIANPOINT((15964.,20386.,519200.995));
#886=IFCAXIS2PLACEMENT3D(#885,$,$);
#887=IFCLOCALPLACEMENT(#17,#886);
#888=IFCDISTRIBUTIONPORT('1Vegto7gPHJe_$jkG2NGRP',$,'Ablauf',$,$,#887,$,.SOURCE.,.PIPE.,.RAINWATER.);
#889=IFCRELCONNECTSPORTS('1mGmFOXv5JCR4fSIG2M7S2',$,$,$,#888,#643,$);
#890=IFCRELNESTS('2L3s9lam5JDQRV$TI3igCo',$,$,$,#869,(#878,#883,#888));
#891=IFCCIRCLEPROFILEDEF(.AREA.,$,$,260.);
#892=IFCCARTESIANPOINT((0.,0.,-150.));
#893=IFCAXIS2PLACEMENT3D(#892,$,$);
#894=IFCDIRECTION((0.,0.,1.));
#895=IFCEXTRUDEDAREASOLID(#891,#893,#894,1326.4168868194247);
#896=IFCCARTESIANPOINT((16050.,22050.,519184.33299999998));
#897=IFCAXIS2PLACEMENT3D(#896,$,$);
#898=IFCLOCALPLACEMENT(#17,#897);
#899=IFCSHAPEREPRESENTATION(#14,'Body','SweptSolid',(#895));
#900=IFCPRODUCTDEFINITIONSHAPE($,$,(#899));
#901=IFCDISTRIBUTIONCHAMBERELEMENT('0P72QJQW1GrfdM2RQFLpRA',$,'NW-S2',$,$,#898,#900,$,.INSPECTIONCHAMBER.);
#902=IFCPROPERTYSINGLEVALUE('InspectionChamberInvertLevel',$,IFCLENGTHMEASURE(519184.29999999999),$);
#903=IFCPROPERTYSINGLEVALUE('ChamberLengthOrRadius',$,IFCPOSITIVELENGTHMEASURE(200.),$);
#904=IFCPROPERTYSINGLEVALUE('AccessCoverLoadRating',$,IFCTEXT('B 125 (Beispiel)'),$);
#905=IFCPROPERTYSET('3eg$o7zY9PwhewVcKeS81e',$,'Pset_DistributionChamberElementTypeInspectionChamber',$,(#902,#903,#904));
#906=IFCRELDEFINESBYPROPERTIES('3$5$OnxOPRyBeOQ898goX9',$,$,$,(#901),#905);
#907=IFCCARTESIANPOINT((16050.,22050.,519184.33299999998));
#908=IFCAXIS2PLACEMENT3D(#907,$,$);
#909=IFCLOCALPLACEMENT(#17,#908);
#910=IFCDISTRIBUTIONPORT('1n_p02eOvVJQRtvkRLIU1j',$,'Zulauf 1',$,$,#909,$,.SINK.,.PIPE.,.RAINWATER.);
#911=IFCRELCONNECTSPORTS('2hZD9hYD1IIxLcYaNQeXGf',$,$,$,#647,#910,$);
#912=IFCCARTESIANPOINT((16050.,22050.,519184.33299999998));
#913=IFCAXIS2PLACEMENT3D(#912,$,$);
#914=IFCLOCALPLACEMENT(#17,#913);
#915=IFCDISTRIBUTIONPORT('1vDxNUiL5Ug9$NMMRi16xd',$,'Ablauf',$,$,#914,$,.SOURCE.,.PIPE.,.RAINWATER.);
#916=IFCRELCONNECTSPORTS('3cDFQK_znQB8WCHb_H8RuW',$,$,$,#915,#499,$);
#917=IFCRELNESTS('2wiQx3rO1VjwdyT305365W',$,$,$,#901,(#910,#915));
#918=IFCCIRCLEPROFILEDEF(.AREA.,$,$,360.);
#919=IFCCARTESIANPOINT((0.,0.,-150.));
#920=IFCAXIS2PLACEMENT3D(#919,$,$);
#921=IFCDIRECTION((0.,0.,1.));
#922=IFCEXTRUDEDAREASOLID(#918,#920,#921,1421.6036842339236);
#923=IFCCARTESIANPOINT((10056.,22311.,519124.33600000001));
#924=IFCAXIS2PLACEMENT3D(#923,$,$);
#925=IFCLOCALPLACEMENT(#17,#924);
#926=IFCSHAPEREPRESENTATION(#14,'Body','SweptSolid',(#922));
#927=IFCPRODUCTDEFINITIONSHAPE($,$,(#926));
#928=IFCDISTRIBUTIONCHAMBERELEMENT('3H05U2UlvQdxUTe7Y49Uay',$,'NW-S3',$,$,#925,#927,$,.INSPECTIONCHAMBER.);
#929=IFCPROPERTYSINGLEVALUE('InspectionChamberInvertLevel',$,IFCLENGTHMEASURE(519124.29999999999),$);
#930=IFCPROPERTYSINGLEVALUE('ChamberLengthOrRadius',$,IFCPOSITIVELENGTHMEASURE(300.),$);
#931=IFCPROPERTYSINGLEVALUE('AccessCoverLoadRating',$,IFCTEXT('B 125 (Beispiel)'),$);
#932=IFCPROPERTYSET('1ac9GGjVbGxgmEq80QHqSX',$,'Pset_DistributionChamberElementTypeInspectionChamber',$,(#929,#930,#931));
#933=IFCRELDEFINESBYPROPERTIES('0LtqyAe41Mh9rytTcGFGSM',$,$,$,(#928),#932);
#934=IFCCARTESIANPOINT((10056.,22311.,519124.33600000001));
#935=IFCAXIS2PLACEMENT3D(#934,$,$);
#936=IFCLOCALPLACEMENT(#17,#935);
#937=IFCDISTRIBUTIONPORT('10NSkG3ErJnA3muMKF4Drd',$,'Zulauf 1',$,$,#936,$,.SINK.,.PIPE.,.RAINWATER.);
#938=IFCRELCONNECTSPORTS('0cW1TmyCHU0AYPDros5t3h',$,$,$,#503,#937,$);
#939=IFCCARTESIANPOINT((10056.,22311.,519124.33600000001));
#940=IFCAXIS2PLACEMENT3D(#939,$,$);
#941=IFCLOCALPLACEMENT(#17,#940);
#942=IFCDISTRIBUTIONPORT('0xMkq0lz1TnBSWALPbTyUn',$,'Zulauf 2',$,$,#941,$,.SINK.,.PIPE.,.RAINWATER.);
#943=IFCRELCONNECTSPORTS('1UgULwNWbKJ8hdAM3$hBGm',$,$,$,#755,#942,$);
#944=IFCCARTESIANPOINT((10056.,22311.,519124.33600000001));
#945=IFCAXIS2PLACEMENT3D(#944,$,$);
#946=IFCLOCALPLACEMENT(#17,#945);
#947=IFCDISTRIBUTIONPORT('2jD87_IRjLJgPwGpjTChMT',$,'Ablauf',$,$,#946,$,.SOURCE.,.PIPE.,.RAINWATER.);
#948=IFCRELCONNECTSPORTS('1Zpgyllj5P8wf1fs6t4YWj',$,$,$,#947,#715,$);
#949=IFCRELNESTS('1zuzGmRQ1M2P$XSB7EWiwl',$,$,$,#928,(#937,#942,#947));
#950=IFCCIRCLEPROFILEDEF(.AREA.,$,$,360.);
#951=IFCCARTESIANPOINT((0.,0.,-150.));
#952=IFCAXIS2PLACEMENT3D(#951,$,$);
#953=IFCDIRECTION((0.,0.,1.));
#954=IFCEXTRUDEDAREASOLID(#950,#952,#953,1508.8606351084991);
#955=IFCCARTESIANPOINT((4561.,22550.,519069.33399999997));
#956=IFCAXIS2PLACEMENT3D(#955,$,$);
#957=IFCLOCALPLACEMENT(#17,#956);
#958=IFCSHAPEREPRESENTATION(#14,'Body','SweptSolid',(#954));
#959=IFCPRODUCTDEFINITIONSHAPE($,$,(#958));
#960=IFCDISTRIBUTIONCHAMBERELEMENT('1EWf7wp7HOwAi8cV9H8fKc',$,'NW-S4',$,$,#957,#959,$,.INSPECTIONCHAMBER.);
#961=IFCPROPERTYSINGLEVALUE('InspectionChamberInvertLevel',$,IFCLENGTHMEASURE(519069.29999999999),$);
#962=IFCPROPERTYSINGLEVALUE('ChamberLengthOrRadius',$,IFCPOSITIVELENGTHMEASURE(300.),$);
#963=IFCPROPERTYSINGLEVALUE('AccessCoverLoadRating',$,IFCTEXT('B 125 (Beispiel)'),$);
#964=IFCPROPERTYSET('2kobBf0BPQvgz44BUjf8lz',$,'Pset_DistributionChamberElementTypeInspectionChamber',$,(#961,#962,#963));
#965=IFCRELDEFINESBYPROPERTIES('3vRQL8EZzVlxUZCmojzzl8',$,$,$,(#960),#964);
#966=IFCCARTESIANPOINT((4561.,22550.,519069.33399999997));
#967=IFCAXIS2PLACEMENT3D(#966,$,$);
#968=IFCLOCALPLACEMENT(#17,#967);
#969=IFCDISTRIBUTIONPORT('07CM_44P1IquLV0of5lHgo',$,'Zulauf 1',$,$,#968,$,.SINK.,.PIPE.,.RAINWATER.);
#970=IFCRELCONNECTSPORTS('1Ku2FaTObNR9bbGjEyhLp5',$,$,$,#719,#969,$);
#971=IFCCARTESIANPOINT((4561.,22550.,519069.33399999997));
#972=IFCAXIS2PLACEMENT3D(#971,$,$);
#973=IFCLOCALPLACEMENT(#17,#972);
#974=IFCDISTRIBUTIONPORT('2E2$65EBTGQAFNR2FXIwzr',$,'Zulauf 2',$,$,#973,$,.SINK.,.PIPE.,.RAINWATER.);
#975=IFCRELCONNECTSPORTS('1pK55ynd5TDucaIX5$_i8s',$,$,$,#827,#974,$);
#976=IFCCARTESIANPOINT((4561.,22550.,519069.33399999997));
#977=IFCAXIS2PLACEMENT3D(#976,$,$);
#978=IFCLOCALPLACEMENT(#17,#977);
#979=IFCDISTRIBUTIONPORT('3VcgIqNdDVBeN$V9NF1DvG',$,'Ablauf',$,$,#978,$,.SOURCE.,.PIPE.,.RAINWATER.);
#980=IFCRELCONNECTSPORTS('2i4FMDs69HlRv0tX7WESSw',$,$,$,#979,#787,$);
#981=IFCRELNESTS('0PCXB8nGzR3w6nmCGuXeAp',$,$,$,#960,(#969,#974,#979));
#982=IFCCIRCLEPROFILEDEF(.AREA.,$,$,500.);
#983=IFCCARTESIANPOINT((0.,0.,-300.));
#984=IFCAXIS2PLACEMENT3D(#983,$,$);
#985=IFCDIRECTION((0.,0.,1.));
#986=IFCEXTRUDEDAREASOLID(#982,#984,#985,1677.2863967012654);
#987=IFCCARTESIANPOINT((3400.,22600.,519057.71399999998));
#988=IFCAXIS2PLACEMENT3D(#987,$,$);
#989=IFCLOCALPLACEMENT(#17,#988);
#990=IFCSHAPEREPRESENTATION(#14,'Body','SweptSolid',(#986));
#991=IFCPRODUCTDEFINITIONSHAPE($,$,(#990));
#992=IFCINTERCEPTOR('363AWgJpfKrfwJFt6MN5eA',$,'NW-FS',$,'Filterschacht Niederschlagswasser (Vorreinigung)',#989,#991,$,.USERDEFINED.);
#993=IFCPROPERTYSINGLEVALUE('NominalBodyDepth',$,IFCPOSITIVELENGTHMEASURE(1677.3),$);
#994=IFCPROPERTYSET('3zRo47q3nJKAGeRISfH6vZ',$,'Pset_InterceptorTypeCommon',$,(#993));
#995=IFCRELDEFINESBYPROPERTIES('34mYc8HQzSchWJVMcEkWkk',$,$,$,(#992),#994);
#996=IFCCARTESIANPOINT((3400.,22600.,519057.71399999998));
#997=IFCAXIS2PLACEMENT3D(#996,$,$);
#998=IFCLOCALPLACEMENT(#17,#997);
#999=IFCDISTRIBUTIONPORT('38mecWmtTJ9OGPgiXlpVDB',$,'Zulauf 1',$,$,#998,$,.SINK.,.PIPE.,.RAINWATER.);
#1000=IFCRELCONNECTSPORTS('1gHiyPgEjSFeEWMBQS4I6F',$,$,$,#611,#999,$);
#1001=IFCCARTESIANPOINT((3400.,22600.,519057.71399999998));
#1002=IFCAXIS2PLACEMENT3D(#1001,$,$);
#1003=IFCLOCALPLACEMENT(#17,#1002);
#1004=IFCDISTRIBUTIONPORT('1rypWBKMbH0gyM$_BkF08g',$,'Zulauf 2',$,$,#1003,$,.SINK.,.PIPE.,.RAINWATER.);
#1005=IFCRELCONNECTSPORTS('3zwm_FAmrOgPSilwRtmA_s',$,$,$,#791,#1004,$);
#1006=IFCCARTESIANPOINT((3400.,22600.,519057.71399999998));
#1007=IFCAXIS2PLACEMENT3D(#1006,$,$);
#1008=IFCLOCALPLACEMENT(#17,#1007);
#1009=IFCDISTRIBUTIONPORT('0$AnY$lw5Q1A0Hq$$JdGGk',$,'Ablauf',$,$,#1008,$,.SOURCE.,.PIPE.,.RAINWATER.);
#1010=IFCRELNESTS('1qgmBV6XDQLv__dmwNSawF',$,$,$,#992,(#999,#1004,#1009));
#1011=IFCCARTESIANPOINT((399.99999999999989,4800.0000000000009));
#1012=IFCAXIS2PLACEMENT2D(#1011,$);
#1013=IFCRECTANGLEPROFILEDEF(.AREA.,$,#1012,799.99999999999977,9600.0000000000018);
#1014=IFCCARTESIANPOINT((0.,0.,0.));
#1015=IFCAXIS2PLACEMENT3D(#1014,$,$);
#1016=IFCDIRECTION((0.,0.,1.));
#1017=IFCEXTRUDEDAREASOLID(#1013,#1015,#1016,660.);
#1018=IFCCARTESIANPOINT((3000.,12000.,518348.));
#1019=IFCAXIS2PLACEMENT3D(#1018,$,$);
#1020=IFCLOCALPLACEMENT(#17,#1019);
#1021=IFCSHAPEREPRESENTATION(#14,'Body','SweptSolid',(#1017));
#1022=IFCPRODUCTDEFINITIONSHAPE($,$,(#1021));
#1023=IFCDISTRIBUTIONCHAMBERELEMENT('06pflivZXSxP$jQKIRdPyU',$,'Rigole (F\X2\00FC\X0\llk\X2\00F6\X0\rper)',$,'Versickerungsrigole',#1020,#1022,$,.USERDEFINED.);
#1024=IFCPROPERTYSINGLEVALUE('Bemessung',$,IFCLABEL('DWA-A 138-1 (2024), einfaches Verfahren, T = 5 a (Beispielreihe)'),$);
#1025=IFCPROPERTYSINGLEVALUE('kf_m_s',$,IFCREAL(1.0000000000000001E-05),$);
#1026=IFCPROPERTYSINGLEVALUE('ki_m_s',$,IFCREAL(7.2000000000000014E-06),$);
#1027=IFCPROPERTYSINGLEVALUE('Speicherkoeffizient',$,IFCREAL(0.94999999999999996),$);
#1028=IFCPROPERTYSINGLEVALUE('V_erf_m3',$,IFCREAL(4.6059999999999999),$);
#1029=IFCPROPERTYSINGLEVALUE('V_vorh_m3',$,IFCREAL(4.8150000000000004),$);
#1030=IFCPROPERTYSINGLEVALUE('A_C_m2',$,IFCREAL(131.19999999999999),$);
#1031=IFCPROPERTYSINGLEVALUE('MHGW_m',$,IFCREAL(515.),$);
#1032=IFCPROPERTYSINGLEVALUE('Sickerraum_m',$,IFCREAL(3.3479999999999999),$);
#1033=IFCPROPERTYSINGLEVALUE('Entleerung_h',$,IFCREAL(12.220000000000001),$);
#1034=IFCPROPERTYSET('2kEHe3gwbIMftFLRrIlsqL',$,'B17_Versickerung',$,(#1024,#1025,#1026,#1027,#1028,#1029,#1030,#1031,#1032,#1033));
#1035=IFCRELDEFINESBYPROPERTIES('2q7L6wc_XUsAxIGe3WgkbW',$,$,$,(#1023),#1034);
#1036=IFCCARTESIANPOINT((3400.,21600.,519008.));
#1037=IFCAXIS2PLACEMENT3D(#1036,$,$);
#1038=IFCLOCALPLACEMENT(#17,#1037);
#1039=IFCDISTRIBUTIONPORT('0yoskSNHzPUhVr6buQKPb$',$,'Zulauf',$,$,#1038,$,.SINK.,.PIPE.,.RAINWATER.);
#1040=IFCRELNESTS('2drU8ubwXVNwldgErhn24k',$,$,$,#1023,(#1039));
#1041=IFCRELCONNECTSPORTS('1RZYFdyn1G6v$fMBdnjUj0',$,$,$,#1009,#1039,$);
#1042=IFCRELASSOCIATESMATERIAL('155GGHIsXJ4wXA2ghkpoRx',$,$,$,(#55,#91,#127,#163,#199,#235,#271,#423,#445,#481,#517,#553,#589,#625,#661,#697,#733,#769,#805),#42);
#1043=IFCRELASSIGNSTOGROUP('0YtskobMXGEfNV1_aJgBH2',$,$,$,(#55,#91,#127,#163,#199,#235,#271,#306,#333,#361,#393,#423),$,#38);
#1044=IFCRELASSIGNSTOGROUP('3_LrDMEzrNRgdhoE2dpj8p',$,$,$,(#445,#481,#517,#553,#589,#625,#661,#697,#733,#769,#805,#832,#847,#869,#901,#928,#960,#992,#1023),$,#40);
#1045=IFCRELCONTAINEDINSPATIALSTRUCTURE('2XmF85rK5TePP4fxpqJQv0',$,$,$,(#37,#55,#91,#127,#163,#199,#235,#271,#306,#333,#361,#393,#423,#445,#481,#517,#553,#589,#625,#661,#697,#733,#769,#805,#832,#847,#869,#901,#928,#960,#992,#1023),#18);
ENDSEC;
END-ISO-10303-21;
