ISO-10303-21;
HEADER;
FILE_DESCRIPTION(('ViewDefinition [NotAssigned]'),'2;1');
FILE_NAME('b18_montage.ifc','2026-01-01T00:00:00',('Entwurfsgenerator (Beispiel)'),('Arbeit Holzrahmenbau'),'IfcOpenShell 0.8.5','B18 Kranplanung (Beispiel)','none');
FILE_SCHEMA(('IFC4X3_ADD2'));
ENDSEC;
DATA;
#1=IFCPROJECT('1HXn$vusTJghTZVI2gzPvQ',$,'B18 Kranplanung Beispielhaus',$,$,$,$,(#13),#8);
#2=IFCSIUNIT(*,.LENGTHUNIT.,$,.METRE.);
#3=IFCSIUNIT(*,.AREAUNIT.,$,.SQUARE_METRE.);
#4=IFCSIUNIT(*,.VOLUMEUNIT.,$,.CUBIC_METRE.);
#5=IFCSIUNIT(*,.PLANEANGLEUNIT.,$,.RADIAN.);
#6=IFCSIUNIT(*,.TIMEUNIT.,$,.SECOND.);
#7=IFCSIUNIT(*,.MASSUNIT.,.KILO.,.GRAM.);
#8=IFCUNITASSIGNMENT((#2,#3,#4,#5,#6,#7));
#9=IFCCARTESIANPOINT((0.,0.,0.));
#10=IFCDIRECTION((0.,0.,1.));
#11=IFCDIRECTION((1.,0.,0.));
#12=IFCAXIS2PLACEMENT3D(#9,#10,#11);
#13=IFCGEOMETRICREPRESENTATIONCONTEXT($,'Model',3,1.0000000000000001E-05,#12,$);
#14=IFCGEOMETRICREPRESENTATIONSUBCONTEXT('Body','Model',*,*,*,*,#13,$,.MODEL_VIEW.,$);
#15=IFCCARTESIANPOINT((0.,0.,0.));
#16=IFCAXIS2PLACEMENT3D(#15,$,$);
#17=IFCLOCALPLACEMENT($,#16);
#18=IFCSITE('3HBP$Dh4bR6RZ7jCwnX0hD',$,'Baugrundst\X2\00FC\X0\ck (Beispiel)',$,$,#17,$,$,$,$,$,$,$,$);
#19=IFCCARTESIANPOINT((0.,0.,0.));
#20=IFCAXIS2PLACEMENT3D(#19,$,$);
#21=IFCLOCALPLACEMENT(#17,#20);
#22=IFCBUILDING('34AxvNcWjSlQ3R2UimQoeX',$,'Einfamilienhaus Holzrahmenbau (fiktiv)',$,$,#21,$,$,$,$,$,$);
#23=IFCRELAGGREGATES('1zUrVJ49PPfebbABhaquag',$,$,$,#1,(#18));
#24=IFCRELAGGREGATES('25d3EODf1IGfHL9CEyNvQ$',$,$,$,#18,(#22));
#25=IFCCARTESIANPOINT((0.,0.,0.));
#26=IFCAXIS2PLACEMENT3D(#25,$,$);
#27=IFCLOCALPLACEMENT(#21,#26);
#28=IFCBUILDINGSTOREY('0644NjXbLGZuubWr_jMMNR',$,'EG',$,$,#27,$,$,$,0.);
#29=IFCCARTESIANPOINT((0.,0.,3.0049999999999999));
#30=IFCAXIS2PLACEMENT3D(#29,$,$);
#31=IFCLOCALPLACEMENT(#21,#30);
#32=IFCBUILDINGSTOREY('2BJZilW2TVjxzidq728eiQ',$,'DG',$,$,#31,$,$,$,3.0049999999999999);
#33=IFCRELAGGREGATES('0tFwVxTZnGre7ZykoosPlA',$,$,$,#22,(#28,#32));
#34=IFCCARTESIANPOINT((8.,11.,0.));
#35=IFCAXIS2PLACEMENT3D(#34,$,$);
#36=IFCLOCALPLACEMENT(#27,#35);
#37=IFCWALL('0Ll0kkEGjHmvgUtp1FAUMF',$,'W-S1',$,$,#36,$,'W-S1',.ELEMENTEDWALL.);
#38=IFCQUANTITYLENGTH('Length',$,$,6.,$);
#39=IFCQUANTITYLENGTH('Height',$,$,2.75,$);
#40=IFCQUANTITYLENGTH('Width',$,$,0.28770000000000001,$);
#41=IFCQUANTITYAREA('GrossSideArea',$,$,16.5,$);
#42=IFCQUANTITYWEIGHT('GrossWeight',$,$,1228.3425,$);
#43=IFCELEMENTQUANTITY('0nHESW9uHLIfoZ3FOi7hMV',$,'Qto_WallBaseQuantities',$,$,(#38,#39,#40,#41,#42));
#44=IFCRELDEFINESBYPROPERTIES('2zk1hvhAnPnw2lpsvc7VCU',$,$,$,(#37),#43);
#45=IFCPROPERTYSINGLEVALUE('Montagenummer',$,IFCINTEGER(1),$);
#46=IFCPROPERTYSINGLEVALUE('Transportart',$,IFCLABEL('innenlader'),$);
#47=IFCPROPERTYSINGLEVALUE('LKW',$,IFCINTEGER(1),$);
#48=IFCPROPERTYSINGLEVALUE('Hubgewicht_kg',$,IFCREAL(1528.3),$);
#49=IFCPROPERTYSET('3voX4KRCzTCReQ1b5HqzCb',$,'HRB_Montage',$,(#45,#46,#47,#48));
#50=IFCRELDEFINESBYPROPERTIES('2Bk2FPqgLOuuhwzAoXE0KQ',$,$,$,(#37),#49);
#51=IFCCARTESIANPOINT((14.,11.,0.));
#52=IFCAXIS2PLACEMENT3D(#51,$,$);
#53=IFCLOCALPLACEMENT(#27,#52);
#54=IFCWALL('1WcYaPDx9Nvvdm_oIf356C',$,'W-S2',$,$,#53,$,'W-S2',.ELEMENTEDWALL.);
#55=IFCQUANTITYLENGTH('Length',$,$,6.,$);
#56=IFCQUANTITYLENGTH('Height',$,$,2.75,$);
#57=IFCQUANTITYLENGTH('Width',$,$,0.28770000000000001,$);
#58=IFCQUANTITYAREA('GrossSideArea',$,$,16.5,$);
#59=IFCQUANTITYWEIGHT('GrossWeight',$,$,1228.3425,$);
#60=IFCELEMENTQUANTITY('1ECgfDNnjNoxCrsOtso0p4',$,'Qto_WallBaseQuantities',$,$,(#55,#56,#57,#58,#59));
#61=IFCRELDEFINESBYPROPERTIES('1wNMi93$TSJxus8LCXbyo4',$,$,$,(#54),#60);
#62=IFCPROPERTYSINGLEVALUE('Montagenummer',$,IFCINTEGER(2),$);
#63=IFCPROPERTYSINGLEVALUE('Transportart',$,IFCLABEL('innenlader'),$);
#64=IFCPROPERTYSINGLEVALUE('LKW',$,IFCINTEGER(1),$);
#65=IFCPROPERTYSINGLEVALUE('Hubgewicht_kg',$,IFCREAL(1528.3),$);
#66=IFCPROPERTYSET('0L2wXirerPXhdoIOwy2DAA',$,'HRB_Montage',$,(#62,#63,#64,#65));
#67=IFCRELDEFINESBYPROPERTIES('2fmy4VXnbQxfGNNyMt0CzE',$,$,$,(#54),#66);
#68=IFCCARTESIANPOINT((17.,13.5,0.));
#69=IFCAXIS2PLACEMENT3D(#68,$,$);
#70=IFCLOCALPLACEMENT(#27,#69);
#71=IFCWALL('3XGto6J2bUXROpbOQCefCx',$,'W-O1',$,$,#70,$,'W-O1',.ELEMENTEDWALL.);
#72=IFCQUANTITYLENGTH('Length',$,$,5.,$);
#73=IFCQUANTITYLENGTH('Height',$,$,2.75,$);
#74=IFCQUANTITYLENGTH('Width',$,$,0.28770000000000001,$);
#75=IFCQUANTITYAREA('GrossSideArea',$,$,13.75,$);
#76=IFCQUANTITYWEIGHT('GrossWeight',$,$,1023.6187499999997,$);
#77=IFCELEMENTQUANTITY('2sBS9C4LXL3hSrkb0taocH',$,'Qto_WallBaseQuantities',$,$,(#72,#73,#74,#75,#76));
#78=IFCRELDEFINESBYPROPERTIES('1lTqpBzVvLyO2duOq4J9nt',$,$,$,(#71),#77);
#79=IFCPROPERTYSINGLEVALUE('Montagenummer',$,IFCINTEGER(3),$);
#80=IFCPROPERTYSINGLEVALUE('Transportart',$,IFCLABEL('innenlader'),$);
#81=IFCPROPERTYSINGLEVALUE('LKW',$,IFCINTEGER(1),$);
#82=IFCPROPERTYSINGLEVALUE('Hubgewicht_kg',$,IFCREAL(1323.5999999999999),$);
#83=IFCPROPERTYSET('3satcf40DMCfjs2eCzUpf9',$,'HRB_Montage',$,(#79,#80,#81,#82));
#84=IFCRELDEFINESBYPROPERTIES('11gkhKBtzVlBkp70Z9yPvL',$,$,$,(#71),#83);
#85=IFCCARTESIANPOINT((17.,18.5,0.));
#86=IFCAXIS2PLACEMENT3D(#85,$,$);
#87=IFCLOCALPLACEMENT(#27,#86);
#88=IFCWALL('3IIKpMoafVjBqa1C0JjXkM',$,'W-O2',$,$,#87,$,'W-O2',.ELEMENTEDWALL.);
#89=IFCQUANTITYLENGTH('Length',$,$,5.,$);
#90=IFCQUANTITYLENGTH('Height',$,$,2.75,$);
#91=IFCQUANTITYLENGTH('Width',$,$,0.28770000000000001,$);
#92=IFCQUANTITYAREA('GrossSideArea',$,$,13.75,$);
#93=IFCQUANTITYWEIGHT('GrossWeight',$,$,1023.6187499999997,$);
#94=IFCELEMENTQUANTITY('1hp3TjJgnLee4WQrdA3UzJ',$,'Qto_WallBaseQuantities',$,$,(#89,#90,#91,#92,#93));
#95=IFCRELDEFINESBYPROPERTIES('0CoWNQSbjVTPYXK5E2fAJW',$,$,$,(#88),#94);
#96=IFCPROPERTYSINGLEVALUE('Montagenummer',$,IFCINTEGER(4),$);
#97=IFCPROPERTYSINGLEVALUE('Transportart',$,IFCLABEL('innenlader'),$);
#98=IFCPROPERTYSINGLEVALUE('LKW',$,IFCINTEGER(1),$);
#99=IFCPROPERTYSINGLEVALUE('Hubgewicht_kg',$,IFCREAL(1323.5999999999999),$);
#100=IFCPROPERTYSET('0xv8eKWz9H7uhAH8oMUvGC',$,'HRB_Montage',$,(#96,#97,#98,#99));
#101=IFCRELDEFINESBYPROPERTIES('3UOEgQqVHRRepWB8_1yL8T',$,$,$,(#88),#100);
#102=IFCCARTESIANPOINT((14.,21.,0.));
#103=IFCAXIS2PLACEMENT3D(#102,$,$);
#104=IFCLOCALPLACEMENT(#27,#103);
#105=IFCWALL('3NNaCmzPDJs9dCCqMFR92T',$,'W-N1',$,$,#104,$,'W-N1',.ELEMENTEDWALL.);
#106=IFCQUANTITYLENGTH('Length',$,$,6.,$);
#107=IFCQUANTITYLENGTH('Height',$,$,2.75,$);
#108=IFCQUANTITYLENGTH('Width',$,$,0.28770000000000001,$);
#109=IFCQUANTITYAREA('GrossSideArea',$,$,16.5,$);
#110=IFCQUANTITYWEIGHT('GrossWeight',$,$,1228.3425,$);
#111=IFCELEMENTQUANTITY('37Zgf988PKsBQXAGmzq0MC',$,'Qto_WallBaseQuantities',$,$,(#106,#107,#108,#109,#110));
#112=IFCRELDEFINESBYPROPERTIES('3Y_yX6p4LNGuXYDzu8CZri',$,$,$,(#105),#111);
#113=IFCPROPERTYSINGLEVALUE('Montagenummer',$,IFCINTEGER(5),$);
#114=IFCPROPERTYSINGLEVALUE('Transportart',$,IFCLABEL('innenlader'),$);
#115=IFCPROPERTYSINGLEVALUE('LKW',$,IFCINTEGER(2),$);
#116=IFCPROPERTYSINGLEVALUE('Hubgewicht_kg',$,IFCREAL(1528.3),$);
#117=IFCPROPERTYSET('1M7n9vYyjIbPBWUf0DVgtX',$,'HRB_Montage',$,(#113,#114,#115,#116));
#118=IFCRELDEFINESBYPROPERTIES('2DfPupisjPEgs$ayG1eubh',$,$,$,(#105),#117);
#119=IFCCARTESIANPOINT((8.,21.,0.));
#120=IFCAXIS2PLACEMENT3D(#119,$,$);
#121=IFCLOCALPLACEMENT(#27,#120);
#122=IFCWALL('2bThNJdwHMu8wVGfd77wPy',$,'W-N2',$,$,#121,$,'W-N2',.ELEMENTEDWALL.);
#123=IFCQUANTITYLENGTH('Length',$,$,6.,$);
#124=IFCQUANTITYLENGTH('Height',$,$,2.75,$);
#125=IFCQUANTITYLENGTH('Width',$,$,0.28770000000000001,$);
#126=IFCQUANTITYAREA('GrossSideArea',$,$,16.5,$);
#127=IFCQUANTITYWEIGHT('GrossWeight',$,$,1228.3425,$);
#128=IFCELEMENTQUANTITY('3XmUQCjmDPKexgQPwSMv9Q',$,'Qto_WallBaseQuantities',$,$,(#123,#124,#125,#126,#127));
#129=IFCRELDEFINESBYPROPERTIES('1VGyI9RUzUvBHgFOJCMAcX',$,$,$,(#122),#128);
#130=IFCPROPERTYSINGLEVALUE('Montagenummer',$,IFCINTEGER(6),$);
#131=IFCPROPERTYSINGLEVALUE('Transportart',$,IFCLABEL('innenlader'),$);
#132=IFCPROPERTYSINGLEVALUE('LKW',$,IFCINTEGER(2),$);
#133=IFCPROPERTYSINGLEVALUE('Hubgewicht_kg',$,IFCREAL(1528.3),$);
#134=IFCPROPERTYSET('2o19g11fvR2urMizl4msmp',$,'HRB_Montage',$,(#130,#131,#132,#133));
#135=IFCRELDEFINESBYPROPERTIES('0UnLFP10HGW9WmUjY0ac7r',$,$,$,(#122),#134);
#136=IFCCARTESIANPOINT((5.,18.5,0.));
#137=IFCAXIS2PLACEMENT3D(#136,$,$);
#138=IFCLOCALPLACEMENT(#27,#137);
#139=IFCWALL('04y1yIiRTOWO0tjgrjW$v3',$,'W-W1',$,$,#138,$,'W-W1',.ELEMENTEDWALL.);
#140=IFCQUANTITYLENGTH('Length',$,$,5.,$);
#141=IFCQUANTITYLENGTH('Height',$,$,2.75,$);
#142=IFCQUANTITYLENGTH('Width',$,$,0.28770000000000001,$);
#143=IFCQUANTITYAREA('GrossSideArea',$,$,13.75,$);
#144=IFCQUANTITYWEIGHT('GrossWeight',$,$,1023.6187499999997,$);
#145=IFCELEMENTQUANTITY('30KWVtYW9Ky8cIDtQ6c$kE',$,'Qto_WallBaseQuantities',$,$,(#140,#141,#142,#143,#144));
#146=IFCRELDEFINESBYPROPERTIES('2au96HUDXKIxHDnYIgO1Jw',$,$,$,(#139),#145);
#147=IFCPROPERTYSINGLEVALUE('Montagenummer',$,IFCINTEGER(7),$);
#148=IFCPROPERTYSINGLEVALUE('Transportart',$,IFCLABEL('innenlader'),$);
#149=IFCPROPERTYSINGLEVALUE('LKW',$,IFCINTEGER(2),$);
#150=IFCPROPERTYSINGLEVALUE('Hubgewicht_kg',$,IFCREAL(1323.5999999999999),$);
#151=IFCPROPERTYSET('3a8YmGCNzJxxhYA$rolYF8',$,'HRB_Montage',$,(#147,#148,#149,#150));
#152=IFCRELDEFINESBYPROPERTIES('1fOoBjO3jQCAGRTaJtMKgQ',$,$,$,(#139),#151);
#153=IFCCARTESIANPOINT((5.,13.5,0.));
#154=IFCAXIS2PLACEMENT3D(#153,$,$);
#155=IFCLOCALPLACEMENT(#27,#154);
#156=IFCWALL('1fzIiBgWnUDvH6ScRMUh1G',$,'W-W2',$,$,#155,$,'W-W2',.ELEMENTEDWALL.);
#157=IFCQUANTITYLENGTH('Length',$,$,5.,$);
#158=IFCQUANTITYLENGTH('Height',$,$,2.75,$);
#159=IFCQUANTITYLENGTH('Width',$,$,0.28770000000000001,$);
#160=IFCQUANTITYAREA('GrossSideArea',$,$,13.75,$);
#161=IFCQUANTITYWEIGHT('GrossWeight',$,$,1023.6187499999997,$);
#162=IFCELEMENTQUANTITY('0WW0e72$jODBJWUzeqellk',$,'Qto_WallBaseQuantities',$,$,(#157,#158,#159,#160,#161));
#163=IFCRELDEFINESBYPROPERTIES('3KhkFmHYXUCQezLUZ6iqip',$,$,$,(#156),#162);
#164=IFCPROPERTYSINGLEVALUE('Montagenummer',$,IFCINTEGER(8),$);
#165=IFCPROPERTYSINGLEVALUE('Transportart',$,IFCLABEL('innenlader'),$);
#166=IFCPROPERTYSINGLEVALUE('LKW',$,IFCINTEGER(2),$);
#167=IFCPROPERTYSINGLEVALUE('Hubgewicht_kg',$,IFCREAL(1323.5999999999999),$);
#168=IFCPROPERTYSET('1ZNAyuhIHGGO0MTcoMU0Vk',$,'HRB_Montage',$,(#164,#165,#166,#167));
#169=IFCRELDEFINESBYPROPERTIES('3sLu5iikjQlv9JrljUkFlu',$,$,$,(#156),#168);
#170=IFCCARTESIANPOINT((6.,16.,0.));
#171=IFCAXIS2PLACEMENT3D(#170,$,$);
#172=IFCLOCALPLACEMENT(#27,#171);
#173=IFCSLAB('2arFxFhErH9gAq3imxVSU1',$,'D-1',$,$,#172,$,'D-1',.FLOOR.);
#174=IFCQUANTITYLENGTH('Length',$,$,10.,$);
#175=IFCQUANTITYLENGTH('Width',$,$,2.,$);
#176=IFCQUANTITYLENGTH('Depth',$,$,0.2545,$);
#177=IFCQUANTITYAREA('GrossArea',$,$,20.,$);
#178=IFCQUANTITYWEIGHT('GrossWeight',$,$,731.80799999999999,$);
#179=IFCELEMENTQUANTITY('26bJ1aMrrLZeQpsAvk75qU',$,'Qto_SlabBaseQuantities',$,$,(#174,#175,#176,#177,#178));
#180=IFCRELDEFINESBYPROPERTIES('3MUDNcxt9LEwXOqLPrhBHi',$,$,$,(#173),#179);
#181=IFCPROPERTYSINGLEVALUE('Montagenummer',$,IFCINTEGER(9),$);
#182=IFCPROPERTYSINGLEVALUE('Transportart',$,IFCLABEL('plateau'),$);
#183=IFCPROPERTYSINGLEVALUE('LKW',$,IFCINTEGER(3),$);
#184=IFCPROPERTYSINGLEVALUE('Hubgewicht_kg',$,IFCREAL(1031.8),$);
#185=IFCPROPERTYSET('0Wk0QdOObVlxOdqA8o02FB',$,'HRB_Montage',$,(#181,#182,#183,#184));
#186=IFCRELDEFINESBYPROPERTIES('1OSFRksRnTYwpH$g4YBsmi',$,$,$,(#173),#185);
#187=IFCCARTESIANPOINT((8.,16.,0.));
#188=IFCAXIS2PLACEMENT3D(#187,$,$);
#189=IFCLOCALPLACEMENT(#27,#188);
#190=IFCSLAB('2KAKuH0GXTKO6M_GD1hcDE',$,'D-2',$,$,#189,$,'D-2',.FLOOR.);
#191=IFCQUANTITYLENGTH('Length',$,$,10.,$);
#192=IFCQUANTITYLENGTH('Width',$,$,2.,$);
#193=IFCQUANTITYLENGTH('Depth',$,$,0.2545,$);
#194=IFCQUANTITYAREA('GrossArea',$,$,20.,$);
#195=IFCQUANTITYWEIGHT('GrossWeight',$,$,731.80799999999999,$);
#196=IFCELEMENTQUANTITY('2BLYYCxe9QDPYahByQ6xVJ',$,'Qto_SlabBaseQuantities',$,$,(#191,#192,#193,#194,#195));
#197=IFCRELDEFINESBYPROPERTIES('0oF4ebLq5J4hpyRsCCHekr',$,$,$,(#190),#196);
#198=IFCPROPERTYSINGLEVALUE('Montagenummer',$,IFCINTEGER(10),$);
#199=IFCPROPERTYSINGLEVALUE('Transportart',$,IFCLABEL('plateau'),$);
#200=IFCPROPERTYSINGLEVALUE('LKW',$,IFCINTEGER(3),$);
#201=IFCPROPERTYSINGLEVALUE('Hubgewicht_kg',$,IFCREAL(1031.8),$);
#202=IFCPROPERTYSET('2X9EBAFRTH2BYtmO9cGADH',$,'HRB_Montage',$,(#198,#199,#200,#201));
#203=IFCRELDEFINESBYPROPERTIES('0HElNOThzMJR2y9UpYvlgW',$,$,$,(#190),#202);
#204=IFCCARTESIANPOINT((10.,16.,0.));
#205=IFCAXIS2PLACEMENT3D(#204,$,$);
#206=IFCLOCALPLACEMENT(#27,#205);
#207=IFCSLAB('3gtEMAAUjLaP3ROqpTrmWw',$,'D-3',$,$,#206,$,'D-3',.FLOOR.);
#208=IFCQUANTITYLENGTH('Length',$,$,10.,$);
#209=IFCQUANTITYLENGTH('Width',$,$,2.,$);
#210=IFCQUANTITYLENGTH('Depth',$,$,0.2545,$);
#211=IFCQUANTITYAREA('GrossArea',$,$,20.,$);
#212=IFCQUANTITYWEIGHT('GrossWeight',$,$,731.80799999999999,$);
#213=IFCELEMENTQUANTITY('0nBIPExAjSBfuUV13VIHkZ',$,'Qto_SlabBaseQuantities',$,$,(#208,#209,#210,#211,#212));
#214=IFCRELDEFINESBYPROPERTIES('0Ef5Epo_HRpBwvEu_OUCHv',$,$,$,(#207),#213);
#215=IFCPROPERTYSINGLEVALUE('Montagenummer',$,IFCINTEGER(11),$);
#216=IFCPROPERTYSINGLEVALUE('Transportart',$,IFCLABEL('plateau'),$);
#217=IFCPROPERTYSINGLEVALUE('LKW',$,IFCINTEGER(3),$);
#218=IFCPROPERTYSINGLEVALUE('Hubgewicht_kg',$,IFCREAL(1031.8),$);
#219=IFCPROPERTYSET('3VyagbwnXU9fhLjkJz5osL',$,'HRB_Montage',$,(#215,#216,#217,#218));
#220=IFCRELDEFINESBYPROPERTIES('2Fz8yvNdHLEPcGdBXNiaWs',$,$,$,(#207),#219);
#221=IFCCARTESIANPOINT((12.,16.,0.));
#222=IFCAXIS2PLACEMENT3D(#221,$,$);
#223=IFCLOCALPLACEMENT(#27,#222);
#224=IFCSLAB('3ibqzzyu5JYwy_UNgZPlz$',$,'D-4',$,$,#223,$,'D-4',.FLOOR.);
#225=IFCQUANTITYLENGTH('Length',$,$,10.,$);
#226=IFCQUANTITYLENGTH('Width',$,$,2.,$);
#227=IFCQUANTITYLENGTH('Depth',$,$,0.2545,$);
#228=IFCQUANTITYAREA('GrossArea',$,$,20.,$);
#229=IFCQUANTITYWEIGHT('GrossWeight',$,$,731.80799999999999,$);
#230=IFCELEMENTQUANTITY('13sNXimpDJUxR3VzyVkMYp',$,'Qto_SlabBaseQuantities',$,$,(#225,#226,#227,#228,#229));
#231=IFCRELDEFINESBYPROPERTIES('1y8fjVq_nIUQGcYWZ7oX4o',$,$,$,(#224),#230);
#232=IFCPROPERTYSINGLEVALUE('Montagenummer',$,IFCINTEGER(12),$);
#233=IFCPROPERTYSINGLEVALUE('Transportart',$,IFCLABEL('plateau'),$);
#234=IFCPROPERTYSINGLEVALUE('LKW',$,IFCINTEGER(3),$);
#235=IFCPROPERTYSINGLEVALUE('Hubgewicht_kg',$,IFCREAL(1031.8),$);
#236=IFCPROPERTYSET('02bkKRJMrJIBd5LJborUN3',$,'HRB_Montage',$,(#232,#233,#234,#235));
#237=IFCRELDEFINESBYPROPERTIES('2pxL4uJgzMmeXuVUF_8syH',$,$,$,(#224),#236);
#238=IFCCARTESIANPOINT((14.,16.,0.));
#239=IFCAXIS2PLACEMENT3D(#238,$,$);
#240=IFCLOCALPLACEMENT(#27,#239);
#241=IFCSLAB('2VDjIxf_vIUfRnOAdBB8ez',$,'D-5',$,$,#240,$,'D-5',.FLOOR.);
#242=IFCQUANTITYLENGTH('Length',$,$,10.,$);
#243=IFCQUANTITYLENGTH('Width',$,$,2.,$);
#244=IFCQUANTITYLENGTH('Depth',$,$,0.2545,$);
#245=IFCQUANTITYAREA('GrossArea',$,$,20.,$);
#246=IFCQUANTITYWEIGHT('GrossWeight',$,$,731.80799999999999,$);
#247=IFCELEMENTQUANTITY('0YyYPeqTrScvPBU76Yi$lx',$,'Qto_SlabBaseQuantities',$,$,(#242,#243,#244,#245,#246));
#248=IFCRELDEFINESBYPROPERTIES('0ZkraqY05G5f2oWSbv$YX5',$,$,$,(#241),#247);
#249=IFCPROPERTYSINGLEVALUE('Montagenummer',$,IFCINTEGER(13),$);
#250=IFCPROPERTYSINGLEVALUE('Transportart',$,IFCLABEL('plateau'),$);
#251=IFCPROPERTYSINGLEVALUE('LKW',$,IFCINTEGER(3),$);
#252=IFCPROPERTYSINGLEVALUE('Hubgewicht_kg',$,IFCREAL(1031.8),$);
#253=IFCPROPERTYSET('281D56aJXHFB1kui5mWPsj',$,'HRB_Montage',$,(#249,#250,#251,#252));
#254=IFCRELDEFINESBYPROPERTIES('0StZ8ofALMZPwjUy2mZH4P',$,$,$,(#241),#253);
#255=IFCCARTESIANPOINT((16.,16.,0.));
#256=IFCAXIS2PLACEMENT3D(#255,$,$);
#257=IFCLOCALPLACEMENT(#27,#256);
#258=IFCSLAB('3yq$IqgtnVafBNpmWs5FRM',$,'D-6',$,$,#257,$,'D-6',.FLOOR.);
#259=IFCQUANTITYLENGTH('Length',$,$,10.,$);
#260=IFCQUANTITYLENGTH('Width',$,$,2.,$);
#261=IFCQUANTITYLENGTH('Depth',$,$,0.2545,$);
#262=IFCQUANTITYAREA('GrossArea',$,$,20.,$);
#263=IFCQUANTITYWEIGHT('GrossWeight',$,$,731.80799999999999,$);
#264=IFCELEMENTQUANTITY('051Eqs5RDIzPKdO1JqaO1j',$,'Qto_SlabBaseQuantities',$,$,(#259,#260,#261,#262,#263));
#265=IFCRELDEFINESBYPROPERTIES('2VO1hNW19LF9Rzi_0tOK0G',$,$,$,(#258),#264);
#266=IFCPROPERTYSINGLEVALUE('Montagenummer',$,IFCINTEGER(14),$);
#267=IFCPROPERTYSINGLEVALUE('Transportart',$,IFCLABEL('plateau'),$);
#268=IFCPROPERTYSINGLEVALUE('LKW',$,IFCINTEGER(3),$);
#269=IFCPROPERTYSINGLEVALUE('Hubgewicht_kg',$,IFCREAL(1031.8),$);
#270=IFCPROPERTYSET('3EYCYmvufLZhlh_xRndIMr',$,'HRB_Montage',$,(#266,#267,#268,#269));
#271=IFCRELDEFINESBYPROPERTIES('0rluAKVA9JYwgD$h0WlSmd',$,$,$,(#258),#270);
#272=IFCCARTESIANPOINT((5.,14.333,0.));
#273=IFCAXIS2PLACEMENT3D(#272,$,$);
#274=IFCLOCALPLACEMENT(#31,#273);
#275=IFCWALL('0KNa1kCRbQBfMqDOS42rei',$,'G-WS',$,$,#274,$,'G-WS',.ELEMENTEDWALL.);
#276=IFCQUANTITYLENGTH('Length',$,$,5.,$);
#277=IFCQUANTITYLENGTH('Height',$,$,3.5010376910485483,$);
#278=IFCQUANTITYLENGTH('Width',$,$,0.28770000000000001,$);
#279=IFCQUANTITYAREA('GrossSideArea',$,$,8.7525942276213708,$);
#280=IFCQUANTITYWEIGHT('GrossWeight',$,$,651.58687727527285,$);
#281=IFCELEMENTQUANTITY('0LDP_DtmjNIO$V4tUCr6rx',$,'Qto_WallBaseQuantities',$,$,(#276,#277,#278,#279,#280));
#282=IFCRELDEFINESBYPROPERTIES('1h19z$bczR_Aq6Ihqzl1QD',$,$,$,(#275),#281);
#283=IFCPROPERTYSINGLEVALUE('Montagenummer',$,IFCINTEGER(15),$);
#284=IFCPROPERTYSINGLEVALUE('Transportart',$,IFCLABEL('plateau_uebermass'),$);
#285=IFCPROPERTYSINGLEVALUE('LKW',$,IFCINTEGER(3),$);
#286=IFCPROPERTYSINGLEVALUE('Hubgewicht_kg',$,IFCREAL(951.60000000000002),$);
#287=IFCPROPERTYSET('113nXV1iPHiQ2sY7Pao0dY',$,'HRB_Montage',$,(#283,#284,#285,#286));
#288=IFCRELDEFINESBYPROPERTIES('2R5BcH6HfSxvaM9mczHM3y',$,$,$,(#275),#287);
#289=IFCCARTESIANPOINT((5.,17.667000000000002,0.));
#290=IFCAXIS2PLACEMENT3D(#289,$,$);
#291=IFCLOCALPLACEMENT(#31,#290);
#292=IFCWALL('0oSoYkBaPSJv4jfscXGPd8',$,'G-WN',$,$,#291,$,'G-WN',.ELEMENTEDWALL.);
#293=IFCQUANTITYLENGTH('Length',$,$,5.,$);
#294=IFCQUANTITYLENGTH('Height',$,$,3.5010376910485483,$);
#295=IFCQUANTITYLENGTH('Width',$,$,0.28770000000000001,$);
#296=IFCQUANTITYAREA('GrossSideArea',$,$,8.7525942276213708,$);
#297=IFCQUANTITYWEIGHT('GrossWeight',$,$,651.58687727527285,$);
#298=IFCELEMENTQUANTITY('2VSS56OknLkAcbzqbCRsjw',$,'Qto_WallBaseQuantities',$,$,(#293,#294,#295,#296,#297));
#299=IFCRELDEFINESBYPROPERTIES('08lxUiX8LS$BDbhMKQjRjg',$,$,$,(#292),#298);
#300=IFCPROPERTYSINGLEVALUE('Montagenummer',$,IFCINTEGER(16),$);
#301=IFCPROPERTYSINGLEVALUE('Transportart',$,IFCLABEL('plateau_uebermass'),$);
#302=IFCPROPERTYSINGLEVALUE('LKW',$,IFCINTEGER(3),$);
#303=IFCPROPERTYSINGLEVALUE('Hubgewicht_kg',$,IFCREAL(951.60000000000002),$);
#304=IFCPROPERTYSET('3sz1D4xMvHRfi5nUGcUjO3',$,'HRB_Montage',$,(#300,#301,#302,#303));
#305=IFCRELDEFINESBYPROPERTIES('0_NRn4FqHLQ9k1cuSktr5c',$,$,$,(#292),#304);
#306=IFCCARTESIANPOINT((17.,14.333,0.));
#307=IFCAXIS2PLACEMENT3D(#306,$,$);
#308=IFCLOCALPLACEMENT(#31,#307);
#309=IFCWALL('0terjRJfrMUfuGujIso8Rl',$,'G-OS',$,$,#308,$,'G-OS',.ELEMENTEDWALL.);
#310=IFCQUANTITYLENGTH('Length',$,$,5.,$);
#311=IFCQUANTITYLENGTH('Height',$,$,3.5010376910485483,$);
#312=IFCQUANTITYLENGTH('Width',$,$,0.28770000000000001,$);
#313=IFCQUANTITYAREA('GrossSideArea',$,$,8.7525942276213708,$);
#314=IFCQUANTITYWEIGHT('GrossWeight',$,$,651.58687727527285,$);
#315=IFCELEMENTQUANTITY('3Etmku3pLHTAjvAv2uaVWC',$,'Qto_WallBaseQuantities',$,$,(#310,#311,#312,#313,#314));
#316=IFCRELDEFINESBYPROPERTIES('2sFzeInNTQuP99_dDRxBT_',$,$,$,(#309),#315);
#317=IFCPROPERTYSINGLEVALUE('Montagenummer',$,IFCINTEGER(17),$);
#318=IFCPROPERTYSINGLEVALUE('Transportart',$,IFCLABEL('plateau_uebermass'),$);
#319=IFCPROPERTYSINGLEVALUE('LKW',$,IFCINTEGER(4),$);
#320=IFCPROPERTYSINGLEVALUE('Hubgewicht_kg',$,IFCREAL(951.60000000000002),$);
#321=IFCPROPERTYSET('1_CE8gGKTUgPtE53$h1wJ3',$,'HRB_Montage',$,(#317,#318,#319,#320));
#322=IFCRELDEFINESBYPROPERTIES('06Pr6_SkbK5PaAkuXw$dPy',$,$,$,(#309),#321);
#323=IFCCARTESIANPOINT((17.,17.667000000000002,0.));
#324=IFCAXIS2PLACEMENT3D(#323,$,$);
#325=IFCLOCALPLACEMENT(#31,#324);
#326=IFCWALL('0Ly1e7IpvK8AU1CcnlXT$T',$,'G-ON',$,$,#325,$,'G-ON',.ELEMENTEDWALL.);
#327=IFCQUANTITYLENGTH('Length',$,$,5.,$);
#328=IFCQUANTITYLENGTH('Height',$,$,3.5010376910485483,$);
#329=IFCQUANTITYLENGTH('Width',$,$,0.28770000000000001,$);
#330=IFCQUANTITYAREA('GrossSideArea',$,$,8.7525942276213708,$);
#331=IFCQUANTITYWEIGHT('GrossWeight',$,$,651.58687727527285,$);
#332=IFCELEMENTQUANTITY('2N6pB1NjzSigcvQSFU6RL3',$,'Qto_WallBaseQuantities',$,$,(#327,#328,#329,#330,#331));
#333=IFCRELDEFINESBYPROPERTIES('2nW5qGq7bJfBwnR16J79wS',$,$,$,(#326),#332);
#334=IFCPROPERTYSINGLEVALUE('Montagenummer',$,IFCINTEGER(18),$);
#335=IFCPROPERTYSINGLEVALUE('Transportart',$,IFCLABEL('plateau_uebermass'),$);
#336=IFCPROPERTYSINGLEVALUE('LKW',$,IFCINTEGER(4),$);
#337=IFCPROPERTYSINGLEVALUE('Hubgewicht_kg',$,IFCREAL(951.60000000000002),$);
#338=IFCPROPERTYSET('1$4_ixbyzMLv1jGxzPfWtN',$,'HRB_Montage',$,(#334,#335,#336,#337));
#339=IFCRELDEFINESBYPROPERTIES('0m9NxcYx5RYB4YQh5OBDe_',$,$,$,(#326),#338);
#340=IFCCARTESIANPOINT((6.5,13.25,0.));
#341=IFCAXIS2PLACEMENT3D(#340,$,$);
#342=IFCLOCALPLACEMENT(#31,#341);
#343=IFCSLAB('3WugTrHgXPJPwh9gNJmi0s',$,'R-S1',$,$,#342,$,'R-S1',.ROOF.);
#344=IFCQUANTITYLENGTH('Length',$,$,6.7142602381880083,$);
#345=IFCQUANTITYLENGTH('Width',$,$,3.,$);
#346=IFCQUANTITYLENGTH('Depth',$,$,0.31519999999999998,$);
#347=IFCQUANTITYAREA('GrossArea',$,$,20.142780714564026,$);
#348=IFCQUANTITYWEIGHT('GrossWeight',$,$,873.11702996577799,$);
#349=IFCELEMENTQUANTITY('0RXaXR_EfQ8gcRmDkk3HTH',$,'Qto_SlabBaseQuantities',$,$,(#344,#345,#346,#347,#348));
#350=IFCRELDEFINESBYPROPERTIES('1twsTGAhzHIgdZJ5MkUkHD',$,$,$,(#343),#349);
#351=IFCPROPERTYSINGLEVALUE('Montagenummer',$,IFCINTEGER(19),$);
#352=IFCPROPERTYSINGLEVALUE('Transportart',$,IFCLABEL('innenlader'),$);
#353=IFCPROPERTYSINGLEVALUE('LKW',$,IFCINTEGER(5),$);
#354=IFCPROPERTYSINGLEVALUE('Hubgewicht_kg',$,IFCREAL(1173.0999999999999),$);
#355=IFCPROPERTYSET('1ThYTTLp5LL8PfWONTZTFR',$,'HRB_Montage',$,(#351,#352,#353,#354));
#356=IFCRELDEFINESBYPROPERTIES('2Ch93BmeXQzRW6pr$Wd2$i',$,$,$,(#343),#355);
#357=IFCCARTESIANPOINT((9.5,13.25,0.));
#358=IFCAXIS2PLACEMENT3D(#357,$,$);
#359=IFCLOCALPLACEMENT(#31,#358);
#360=IFCSLAB('0E200bjZ1MQh7yn3p5dNuP',$,'R-S2',$,$,#359,$,'R-S2',.ROOF.);
#361=IFCQUANTITYLENGTH('Length',$,$,6.7142602381880083,$);
#362=IFCQUANTITYLENGTH('Width',$,$,3.,$);
#363=IFCQUANTITYLENGTH('Depth',$,$,0.31519999999999998,$);
#364=IFCQUANTITYAREA('GrossArea',$,$,20.142780714564026,$);
#365=IFCQUANTITYWEIGHT('GrossWeight',$,$,873.11702996577799,$);
#366=IFCELEMENTQUANTITY('38j2uvpTTUggFBqqkgcfAZ',$,'Qto_SlabBaseQuantities',$,$,(#361,#362,#363,#364,#365));
#367=IFCRELDEFINESBYPROPERTIES('0cjJADSmLVfve6Sxxzsnr8',$,$,$,(#360),#366);
#368=IFCPROPERTYSINGLEVALUE('Montagenummer',$,IFCINTEGER(20),$);
#369=IFCPROPERTYSINGLEVALUE('Transportart',$,IFCLABEL('innenlader'),$);
#370=IFCPROPERTYSINGLEVALUE('LKW',$,IFCINTEGER(5),$);
#371=IFCPROPERTYSINGLEVALUE('Hubgewicht_kg',$,IFCREAL(1173.0999999999999),$);
#372=IFCPROPERTYSET('1H9tAyt2HH583DHt4xP9lH',$,'HRB_Montage',$,(#368,#369,#370,#371));
#373=IFCRELDEFINESBYPROPERTIES('0FqclgxxzGxBXvmRYpQUBZ',$,$,$,(#360),#372);
#374=IFCCARTESIANPOINT((12.5,13.25,0.));
#375=IFCAXIS2PLACEMENT3D(#374,$,$);
#376=IFCLOCALPLACEMENT(#31,#375);
#377=IFCSLAB('14QkXR$oTRbvoOsF4ML8AM',$,'R-S3',$,$,#376,$,'R-S3',.ROOF.);
#378=IFCQUANTITYLENGTH('Length',$,$,6.7142602381880083,$);
#379=IFCQUANTITYLENGTH('Width',$,$,3.,$);
#380=IFCQUANTITYLENGTH('Depth',$,$,0.31519999999999998,$);
#381=IFCQUANTITYAREA('GrossArea',$,$,20.142780714564026,$);
#382=IFCQUANTITYWEIGHT('GrossWeight',$,$,873.11702996577799,$);
#383=IFCELEMENTQUANTITY('2h_EVA9xXRv9OiddsOR0JL',$,'Qto_SlabBaseQuantities',$,$,(#378,#379,#380,#381,#382));
#384=IFCRELDEFINESBYPROPERTIES('38pFMABcLTjhFAqF020ing',$,$,$,(#377),#383);
#385=IFCPROPERTYSINGLEVALUE('Montagenummer',$,IFCINTEGER(21),$);
#386=IFCPROPERTYSINGLEVALUE('Transportart',$,IFCLABEL('innenlader'),$);
#387=IFCPROPERTYSINGLEVALUE('LKW',$,IFCINTEGER(5),$);
#388=IFCPROPERTYSINGLEVALUE('Hubgewicht_kg',$,IFCREAL(1173.0999999999999),$);
#389=IFCPROPERTYSET('0GjRTh2T1Ry9yE_B_oZ5Hv',$,'HRB_Montage',$,(#385,#386,#387,#388));
#390=IFCRELDEFINESBYPROPERTIES('1H6ALGpQ5I1gKHGJlKtdWs',$,$,$,(#377),#389);
#391=IFCCARTESIANPOINT((15.5,13.25,0.));
#392=IFCAXIS2PLACEMENT3D(#391,$,$);
#393=IFCLOCALPLACEMENT(#31,#392);
#394=IFCSLAB('3tmAv0yuzP6u2$D4zbvEQW',$,'R-S4',$,$,#393,$,'R-S4',.ROOF.);
#395=IFCQUANTITYLENGTH('Length',$,$,6.7142602381880083,$);
#396=IFCQUANTITYLENGTH('Width',$,$,3.,$);
#397=IFCQUANTITYLENGTH('Depth',$,$,0.31519999999999998,$);
#398=IFCQUANTITYAREA('GrossArea',$,$,20.142780714564026,$);
#399=IFCQUANTITYWEIGHT('GrossWeight',$,$,873.11702996577799,$);
#400=IFCELEMENTQUANTITY('3D2jDZOVfUqfwjZsvKgsRg',$,'Qto_SlabBaseQuantities',$,$,(#395,#396,#397,#398,#399));
#401=IFCRELDEFINESBYPROPERTIES('2CA4waw$1K3gaiB429F3b6',$,$,$,(#394),#400);
#402=IFCPROPERTYSINGLEVALUE('Montagenummer',$,IFCINTEGER(22),$);
#403=IFCPROPERTYSINGLEVALUE('Transportart',$,IFCLABEL('innenlader'),$);
#404=IFCPROPERTYSINGLEVALUE('LKW',$,IFCINTEGER(5),$);
#405=IFCPROPERTYSINGLEVALUE('Hubgewicht_kg',$,IFCREAL(1173.0999999999999),$);
#406=IFCPROPERTYSET('0tHIpAfGfLbASKC4TEGYRJ',$,'HRB_Montage',$,(#402,#403,#404,#405));
#407=IFCRELDEFINESBYPROPERTIES('3CF96Mf19H6PCmuOl90mAH',$,$,$,(#394),#406);
#408=IFCCARTESIANPOINT((6.5,18.75,0.));
#409=IFCAXIS2PLACEMENT3D(#408,$,$);
#410=IFCLOCALPLACEMENT(#31,#409);
#411=IFCSLAB('3nGpI14wjIxhO$C8zTGzs1',$,'R-N1',$,$,#410,$,'R-N1',.ROOF.);
#412=IFCQUANTITYLENGTH('Length',$,$,6.7142602381880083,$);
#413=IFCQUANTITYLENGTH('Width',$,$,3.,$);
#414=IFCQUANTITYLENGTH('Depth',$,$,0.31519999999999998,$);
#415=IFCQUANTITYAREA('GrossArea',$,$,20.142780714564026,$);
#416=IFCQUANTITYWEIGHT('GrossWeight',$,$,873.11702996577799,$);
#417=IFCELEMENTQUANTITY('27qwbFn$XOmeEik7Ef384C',$,'Qto_SlabBaseQuantities',$,$,(#412,#413,#414,#415,#416));
#418=IFCRELDEFINESBYPROPERTIES('3tK9k_0o9NKfkFqelU5dlR',$,$,$,(#411),#417);
#419=IFCPROPERTYSINGLEVALUE('Montagenummer',$,IFCINTEGER(23),$);
#420=IFCPROPERTYSINGLEVALUE('Transportart',$,IFCLABEL('innenlader'),$);
#421=IFCPROPERTYSINGLEVALUE('LKW',$,IFCINTEGER(6),$);
#422=IFCPROPERTYSINGLEVALUE('Hubgewicht_kg',$,IFCREAL(1173.0999999999999),$);
#423=IFCPROPERTYSET('34lnPlKd9QY8umjsdZ9r3m',$,'HRB_Montage',$,(#419,#420,#421,#422));
#424=IFCRELDEFINESBYPROPERTIES('3_zo8F2mfMxRtsYb9SaFhO',$,$,$,(#411),#423);
#425=IFCCARTESIANPOINT((9.5,18.75,0.));
#426=IFCAXIS2PLACEMENT3D(#425,$,$);
#427=IFCLOCALPLACEMENT(#31,#426);
#428=IFCSLAB('1HbN344uTVkQJNe7bnHOHk',$,'R-N2',$,$,#427,$,'R-N2',.ROOF.);
#429=IFCQUANTITYLENGTH('Length',$,$,6.7142602381880083,$);
#430=IFCQUANTITYLENGTH('Width',$,$,3.,$);
#431=IFCQUANTITYLENGTH('Depth',$,$,0.31519999999999998,$);
#432=IFCQUANTITYAREA('GrossArea',$,$,20.142780714564026,$);
#433=IFCQUANTITYWEIGHT('GrossWeight',$,$,873.11702996577799,$);
#434=IFCELEMENTQUANTITY('1l8UfKHPbHW9MXRxpavUps',$,'Qto_SlabBaseQuantities',$,$,(#429,#430,#431,#432,#433));
#435=IFCRELDEFINESBYPROPERTIES('0ztAx3JUzVBP2XYp3SFXmP',$,$,$,(#428),#434);
#436=IFCPROPERTYSINGLEVALUE('Montagenummer',$,IFCINTEGER(24),$);
#437=IFCPROPERTYSINGLEVALUE('Transportart',$,IFCLABEL('innenlader'),$);
#438=IFCPROPERTYSINGLEVALUE('LKW',$,IFCINTEGER(6),$);
#439=IFCPROPERTYSINGLEVALUE('Hubgewicht_kg',$,IFCREAL(1173.0999999999999),$);
#440=IFCPROPERTYSET('2FvVBMWbbQy8JwCBdJp5kG',$,'HRB_Montage',$,(#436,#437,#438,#439));
#441=IFCRELDEFINESBYPROPERTIES('235XGif0nTzPaxJ28cKMwi',$,$,$,(#428),#440);
#442=IFCCARTESIANPOINT((12.5,18.75,0.));
#443=IFCAXIS2PLACEMENT3D(#442,$,$);
#444=IFCLOCALPLACEMENT(#31,#443);
#445=IFCSLAB('2PZhjHJp1Vt9CFIdylP9Vg',$,'R-N3',$,$,#444,$,'R-N3',.ROOF.);
#446=IFCQUANTITYLENGTH('Length',$,$,6.7142602381880083,$);
#447=IFCQUANTITYLENGTH('Width',$,$,3.,$);
#448=IFCQUANTITYLENGTH('Depth',$,$,0.31519999999999998,$);
#449=IFCQUANTITYAREA('GrossArea',$,$,20.142780714564026,$);
#450=IFCQUANTITYWEIGHT('GrossWeight',$,$,873.11702996577799,$);
#451=IFCELEMENTQUANTITY('2NLyCssivRk93PRCN4ivNz',$,'Qto_SlabBaseQuantities',$,$,(#446,#447,#448,#449,#450));
#452=IFCRELDEFINESBYPROPERTIES('1f0TVH8IDQlOCI1CgUoM36',$,$,$,(#445),#451);
#453=IFCPROPERTYSINGLEVALUE('Montagenummer',$,IFCINTEGER(25),$);
#454=IFCPROPERTYSINGLEVALUE('Transportart',$,IFCLABEL('innenlader'),$);
#455=IFCPROPERTYSINGLEVALUE('LKW',$,IFCINTEGER(6),$);
#456=IFCPROPERTYSINGLEVALUE('Hubgewicht_kg',$,IFCREAL(1173.0999999999999),$);
#457=IFCPROPERTYSET('3SelQoI7DVFuWQ2Zn1yZDb',$,'HRB_Montage',$,(#453,#454,#455,#456));
#458=IFCRELDEFINESBYPROPERTIES('3vf0SzKg9Q8QHo5zqmow3l',$,$,$,(#445),#457);
#459=IFCCARTESIANPOINT((15.5,18.75,0.));
#460=IFCAXIS2PLACEMENT3D(#459,$,$);
#461=IFCLOCALPLACEMENT(#31,#460);
#462=IFCSLAB('25YNKftVPPLex5ZPRRIgm7',$,'R-N4',$,$,#461,$,'R-N4',.ROOF.);
#463=IFCQUANTITYLENGTH('Length',$,$,6.7142602381880083,$);
#464=IFCQUANTITYLENGTH('Width',$,$,3.,$);
#465=IFCQUANTITYLENGTH('Depth',$,$,0.31519999999999998,$);
#466=IFCQUANTITYAREA('GrossArea',$,$,20.142780714564026,$);
#467=IFCQUANTITYWEIGHT('GrossWeight',$,$,873.11702996577799,$);
#468=IFCELEMENTQUANTITY('0q4X58XHLLSRMNpHcVNM9g',$,'Qto_SlabBaseQuantities',$,$,(#463,#464,#465,#466,#467));
#469=IFCRELDEFINESBYPROPERTIES('1oN0aVAcjP9RunsaXu_vNa',$,$,$,(#462),#468);
#470=IFCPROPERTYSINGLEVALUE('Montagenummer',$,IFCINTEGER(26),$);
#471=IFCPROPERTYSINGLEVALUE('Transportart',$,IFCLABEL('innenlader'),$);
#472=IFCPROPERTYSINGLEVALUE('LKW',$,IFCINTEGER(6),$);
#473=IFCPROPERTYSINGLEVALUE('Hubgewicht_kg',$,IFCREAL(1173.0999999999999),$);
#474=IFCPROPERTYSET('02yaVL3CXI4gBeao_Ucd1Z',$,'HRB_Montage',$,(#470,#471,#472,#473));
#475=IFCRELDEFINESBYPROPERTIES('1LEDA8L8zT4vt1JOKt_1_t',$,$,$,(#462),#474);
#476=IFCRELCONTAINEDINSPATIALSTRUCTURE('2Z$S7yRfHSRh0VYlGgpEgB',$,$,$,(#37,#54,#71,#88,#105,#122,#139,#156,#173,#190,#207,#224,#241,#258),#28);
#477=IFCRELCONTAINEDINSPATIALSTRUCTURE('1EG19gYzbK4epC5GV5jR67',$,$,$,(#275,#292,#309,#326,#343,#360,#377,#394,#411,#428,#445,#462),#32);
#478=IFCCARTESIANPOINT((0.,0.,0.));
#479=IFCAXIS2PLACEMENT3D(#478,$,$);
#480=IFCLOCALPLACEMENT(#17,#479);
#481=IFCCARTESIANPOINT((22.,0.69999999999999996));
#482=IFCCARTESIANPOINT((22.,7.2999999999999998));
#483=IFCCARTESIANPOINT((15.,7.2999999999999998));
#484=IFCCARTESIANPOINT((15.,0.69999999999999996));
#485=IFCCARTESIANPOINT((22.,0.69999999999999996));
#486=IFCPOLYLINE((#481,#482,#483,#484,#485));
#487=IFCARBITRARYCLOSEDPROFILEDEF(.AREA.,$,#486);
#488=IFCCARTESIANPOINT((0.,0.,0.));
#489=IFCAXIS2PLACEMENT3D(#488,$,$);
#490=IFCDIRECTION((0.,0.,1.));
#491=IFCEXTRUDEDAREASOLID(#487,#489,#490,0.10000000000000001);
#492=IFCSHAPEREPRESENTATION(#14,'Body','SweptSolid',(#491));
#493=IFCPRODUCTDEFINITIONSHAPE($,$,(#492));
#494=IFCSPATIALZONE('2midaiNovSbOv8wTwxS122',$,'Kranstellfl\X2\00E4\X0\che',$,$,#480,#493,$,.CONSTRUCTION.);
#495=IFCQUANTITYLENGTH('Length',$,$,7.,$);
#496=IFCQUANTITYLENGTH('Width',$,$,6.5999999999999996,$);
#497=IFCQUANTITYLENGTH('Height',$,$,0.10000000000000001,$);
#498=IFCELEMENTQUANTITY('1ij4bjV2DJvvQDJLhrFNyz',$,'Qto_SpatialZoneBaseQuantities',$,$,(#495,#496,#497));
#499=IFCRELDEFINESBYPROPERTIES('1QVxMHIVnGiAbZxDxJeJLz',$,$,$,(#494),#498);
#500=IFCCARTESIANPOINT((0.,0.,0.));
#501=IFCAXIS2PLACEMENT3D(#500,$,$);
#502=IFCLOCALPLACEMENT(#17,#501);
#503=IFCCARTESIANPOINT((2.,-4.7999999999999998));
#504=IFCCARTESIANPOINT((18.5,-4.7999999999999998));
#505=IFCCARTESIANPOINT((18.5,-1.8));
#506=IFCCARTESIANPOINT((2.,-1.8));
#507=IFCCARTESIANPOINT((2.,-4.7999999999999998));
#508=IFCPOLYLINE((#503,#504,#505,#506,#507));
#509=IFCARBITRARYCLOSEDPROFILEDEF(.AREA.,$,#508);
#510=IFCCARTESIANPOINT((0.,0.,0.));
#511=IFCAXIS2PLACEMENT3D(#510,$,$);
#512=IFCDIRECTION((0.,0.,1.));
#513=IFCEXTRUDEDAREASOLID(#509,#511,#512,0.10000000000000001);
#514=IFCSHAPEREPRESENTATION(#14,'Body','SweptSolid',(#513));
#515=IFCPRODUCTDEFINITIONSHAPE($,$,(#514));
#516=IFCSPATIALZONE('3ZtzCdo1TJDBohtBYz9RYQ',$,'Abladezone LKW',$,$,#502,#515,$,.TRANSPORT.);
#517=IFCQUANTITYLENGTH('Length',$,$,16.5,$);
#518=IFCQUANTITYLENGTH('Width',$,$,3.,$);
#519=IFCQUANTITYLENGTH('Height',$,$,0.10000000000000001,$);
#520=IFCELEMENTQUANTITY('2NxwwSkNTKCO_ahCUp1xpA',$,'Qto_SpatialZoneBaseQuantities',$,$,(#517,#518,#519));
#521=IFCRELDEFINESBYPROPERTIES('191V7Vw$fNlOnCd5nvk4jW',$,$,$,(#516),#520);
#522=IFCCARTESIANPOINT((0.,0.,0.));
#523=IFCAXIS2PLACEMENT3D(#522,$,$);
#524=IFCLOCALPLACEMENT(#17,#523);
#525=IFCCARTESIANPOINT((38.481000000000002,4.));
#526=IFCCARTESIANPOINT((38.457000000000001,3.02));
#527=IFCCARTESIANPOINT((38.384999999999998,2.0419999999999998));
#528=IFCCARTESIANPOINT((38.265000000000001,1.0680000000000001));
#529=IFCCARTESIANPOINT((38.097000000000001,0.10199999999999999));
#530=IFCCARTESIANPOINT((37.881999999999998,-0.85499999999999998));
#531=IFCCARTESIANPOINT((37.621000000000002,-1.8));
#532=IFCCARTESIANPOINT((37.313000000000002,-2.7309999999999999));
#533=IFCCARTESIANPOINT((36.960000000000001,-3.6459999999999999));
#534=IFCCARTESIANPOINT((36.563000000000002,-4.5430000000000001));
#535=IFCCARTESIANPOINT((36.122,-5.4189999999999996));
#536=IFCCARTESIANPOINT((35.637999999999998,-6.2720000000000002));
#537=IFCCARTESIANPOINT((35.113999999999997,-7.101));
#538=IFCCARTESIANPOINT((34.548999999999999,-7.9029999999999996));
#539=IFCCARTESIANPOINT((33.945999999999998,-8.6760000000000002));
#540=IFCCARTESIANPOINT((33.305,-9.4179999999999993));
#541=IFCCARTESIANPOINT((32.628999999999998,-10.129));
#542=IFCCARTESIANPOINT((31.917999999999999,-10.805));
#543=IFCCARTESIANPOINT((31.175999999999998,-11.446));
#544=IFCCARTESIANPOINT((30.402999999999999,-12.048999999999999));
#545=IFCCARTESIANPOINT((29.600999999999999,-12.614000000000001));
#546=IFCCARTESIANPOINT((28.771999999999998,-13.138));
#547=IFCCARTESIANPOINT((27.919,-13.622));
#548=IFCCARTESIANPOINT((27.042999999999999,-14.063000000000001));
#549=IFCCARTESIANPOINT((26.146000000000001,-14.460000000000001));
#550=IFCCARTESIANPOINT((25.231000000000002,-14.813000000000001));
#551=IFCCARTESIANPOINT((24.300000000000001,-15.121));
#552=IFCCARTESIANPOINT((23.355,-15.382));
#553=IFCCARTESIANPOINT((22.398,-15.597));
#554=IFCCARTESIANPOINT((21.431999999999999,-15.765000000000001));
#555=IFCCARTESIANPOINT((20.457999999999998,-15.885));
#556=IFCCARTESIANPOINT((19.48,-15.957000000000001));
#557=IFCCARTESIANPOINT((18.5,-15.981));
#558=IFCCARTESIANPOINT((17.52,-15.957000000000001));
#559=IFCCARTESIANPOINT((16.542000000000002,-15.885));
#560=IFCCARTESIANPOINT((15.568,-15.765000000000001));
#561=IFCCARTESIANPOINT((14.602,-15.597));
#562=IFCCARTESIANPOINT((13.645,-15.382));
#563=IFCCARTESIANPOINT((12.699999999999999,-15.121));
#564=IFCCARTESIANPOINT((11.769,-14.813000000000001));
#565=IFCCARTESIANPOINT((10.853999999999999,-14.460000000000001));
#566=IFCCARTESIANPOINT((9.9570000000000007,-14.063000000000001));
#567=IFCCARTESIANPOINT((9.0809999999999995,-13.622));
#568=IFCCARTESIANPOINT((8.2279999999999998,-13.138));
#569=IFCCARTESIANPOINT((7.399,-12.614000000000001));
#570=IFCCARTESIANPOINT((6.5970000000000004,-12.048999999999999));
#571=IFCCARTESIANPOINT((5.8239999999999998,-11.446));
#572=IFCCARTESIANPOINT((5.0819999999999999,-10.805));
#573=IFCCARTESIANPOINT((4.3710000000000004,-10.129));
#574=IFCCARTESIANPOINT((3.6949999999999998,-9.4179999999999993));
#575=IFCCARTESIANPOINT((3.0539999999999998,-8.6760000000000002));
#576=IFCCARTESIANPOINT((2.4510000000000001,-7.9029999999999996));
#577=IFCCARTESIANPOINT((1.8859999999999999,-7.101));
#578=IFCCARTESIANPOINT((1.3620000000000001,-6.2720000000000002));
#579=IFCCARTESIANPOINT((0.878,-5.4189999999999996));
#580=IFCCARTESIANPOINT((0.437,-4.5430000000000001));
#581=IFCCARTESIANPOINT((0.040000000000000001,-3.6459999999999999));
#582=IFCCARTESIANPOINT((-0.313,-2.7309999999999999));
#583=IFCCARTESIANPOINT((-0.621,-1.8));
#584=IFCCARTESIANPOINT((-0.88200000000000001,-0.85499999999999998));
#585=IFCCARTESIANPOINT((-1.097,0.10199999999999999));
#586=IFCCARTESIANPOINT((-1.2649999999999999,1.0680000000000001));
#587=IFCCARTESIANPOINT((-1.385,2.0419999999999998));
#588=IFCCARTESIANPOINT((-1.4570000000000001,3.02));
#589=IFCCARTESIANPOINT((-1.4810000000000001,4.));
#590=IFCCARTESIANPOINT((-1.4570000000000001,4.9800000000000004));
#591=IFCCARTESIANPOINT((-1.385,5.9580000000000002));
#592=IFCCARTESIANPOINT((-1.2649999999999999,6.9320000000000004));
#593=IFCCARTESIANPOINT((-1.097,7.8979999999999997));
#594=IFCCARTESIANPOINT((-0.88200000000000001,8.8550000000000004));
#595=IFCCARTESIANPOINT((-0.621,9.8000000000000007));
#596=IFCCARTESIANPOINT((-0.313,10.731));
#597=IFCCARTESIANPOINT((0.040000000000000001,11.646000000000001));
#598=IFCCARTESIANPOINT((0.437,12.542999999999999));
#599=IFCCARTESIANPOINT((0.878,13.419));
#600=IFCCARTESIANPOINT((1.3620000000000001,14.272));
#601=IFCCARTESIANPOINT((1.8859999999999999,15.101000000000001));
#602=IFCCARTESIANPOINT((2.4510000000000001,15.903));
#603=IFCCARTESIANPOINT((3.0539999999999998,16.675999999999998));
#604=IFCCARTESIANPOINT((3.6949999999999998,17.417999999999999));
#605=IFCCARTESIANPOINT((4.3710000000000004,18.129000000000001));
#606=IFCCARTESIANPOINT((5.0819999999999999,18.805));
#607=IFCCARTESIANPOINT((5.8239999999999998,19.446000000000002));
#608=IFCCARTESIANPOINT((6.5970000000000004,20.048999999999999));
#609=IFCCARTESIANPOINT((7.399,20.614000000000001));
#610=IFCCARTESIANPOINT((8.2279999999999998,21.138000000000002));
#611=IFCCARTESIANPOINT((9.0809999999999995,21.622));
#612=IFCCARTESIANPOINT((9.9570000000000007,22.062999999999999));
#613=IFCCARTESIANPOINT((10.853999999999999,22.460000000000001));
#614=IFCCARTESIANPOINT((11.769,22.812999999999999));
#615=IFCCARTESIANPOINT((12.699999999999999,23.120999999999999));
#616=IFCCARTESIANPOINT((13.645,23.382000000000001));
#617=IFCCARTESIANPOINT((14.602,23.597000000000001));
#618=IFCCARTESIANPOINT((15.568,23.765000000000001));
#619=IFCCARTESIANPOINT((16.542000000000002,23.885000000000002));
#620=IFCCARTESIANPOINT((17.52,23.957000000000001));
#621=IFCCARTESIANPOINT((18.5,23.981000000000002));
#622=IFCCARTESIANPOINT((19.48,23.957000000000001));
#623=IFCCARTESIANPOINT((20.457999999999998,23.885000000000002));
#624=IFCCARTESIANPOINT((21.431999999999999,23.765000000000001));
#625=IFCCARTESIANPOINT((22.398,23.597000000000001));
#626=IFCCARTESIANPOINT((23.355,23.382000000000001));
#627=IFCCARTESIANPOINT((24.300000000000001,23.120999999999999));
#628=IFCCARTESIANPOINT((25.231000000000002,22.812999999999999));
#629=IFCCARTESIANPOINT((26.146000000000001,22.460000000000001));
#630=IFCCARTESIANPOINT((27.042999999999999,22.062999999999999));
#631=IFCCARTESIANPOINT((27.919,21.622));
#632=IFCCARTESIANPOINT((28.771999999999998,21.138000000000002));
#633=IFCCARTESIANPOINT((29.600999999999999,20.614000000000001));
#634=IFCCARTESIANPOINT((30.402999999999999,20.048999999999999));
#635=IFCCARTESIANPOINT((31.175999999999998,19.446000000000002));
#636=IFCCARTESIANPOINT((31.917999999999999,18.805));
#637=IFCCARTESIANPOINT((32.628999999999998,18.129000000000001));
#638=IFCCARTESIANPOINT((33.305,17.417999999999999));
#639=IFCCARTESIANPOINT((33.945999999999998,16.675999999999998));
#640=IFCCARTESIANPOINT((34.548999999999999,15.903));
#641=IFCCARTESIANPOINT((35.113999999999997,15.101000000000001));
#642=IFCCARTESIANPOINT((35.637999999999998,14.272));
#643=IFCCARTESIANPOINT((36.122,13.419));
#644=IFCCARTESIANPOINT((36.563000000000002,12.542999999999999));
#645=IFCCARTESIANPOINT((36.960000000000001,11.646000000000001));
#646=IFCCARTESIANPOINT((37.313000000000002,10.731));
#647=IFCCARTESIANPOINT((37.621000000000002,9.8000000000000007));
#648=IFCCARTESIANPOINT((37.881999999999998,8.8550000000000004));
#649=IFCCARTESIANPOINT((38.097000000000001,7.8979999999999997));
#650=IFCCARTESIANPOINT((38.265000000000001,6.9320000000000004));
#651=IFCCARTESIANPOINT((38.384999999999998,5.9580000000000002));
#652=IFCCARTESIANPOINT((38.457000000000001,4.9800000000000004));
#653=IFCCARTESIANPOINT((38.481000000000002,4.));
#654=IFCPOLYLINE((#525,#526,#527,#528,#529,#530,#531,#532,#533,#534,#535,#536,#537,#538,#539,#540,#541,#542,#543,#544,#545,#546,#547,#548,#549,#550,#551,#552,#553,#554,#555,#556,#557,#558,#559,#560,#561,#562,#563,#564,#565,#566,#567,#568,#569,#570,#571,#572,#573,#574,#575,#576,#577,#578,#579,#580,#581,#582,#583,#584,#585,#586,#587,#588,#589,#590,#591,#592,#593,#594,#595,#596,#597,#598,#599,#600,#601,#602,#603,#604,#605,#606,#607,#608,#609,#610,#611,#612,#613,#614,#615,#616,#617,#618,#619,#620,#621,#622,#623,#624,#625,#626,#627,#628,#629,#630,#631,#632,#633,#634,#635,#636,#637,#638,#639,#640,#641,#642,#643,#644,#645,#646,#647,#648,#649,#650,#651,#652,#653));
#655=IFCARBITRARYCLOSEDPROFILEDEF(.AREA.,$,#654);
#656=IFCCARTESIANPOINT((0.,0.,0.));
#657=IFCAXIS2PLACEMENT3D(#656,$,$);
#658=IFCDIRECTION((0.,0.,1.));
#659=IFCEXTRUDEDAREASOLID(#655,#657,#658,0.10000000000000001);
#660=IFCSHAPEREPRESENTATION(#14,'Body','SweptSolid',(#659));
#661=IFCPRODUCTDEFINITIONSHAPE($,$,(#660));
#662=IFCSPATIALZONE('3qn7FGWiHMOQE$uIw9Jh3A',$,'Schwenkbereich Last (max. Arbeitsradius)',$,$,#524,#661,$,.RESERVATION.);
#663=IFCQUANTITYLENGTH('Length',$,$,39.962000000000003,$);
#664=IFCQUANTITYLENGTH('Width',$,$,39.962000000000003,$);
#665=IFCQUANTITYLENGTH('Height',$,$,0.10000000000000001,$);
#666=IFCELEMENTQUANTITY('2TcltwZrjTTw$lhMjrnOPs',$,'Qto_SpatialZoneBaseQuantities',$,$,(#663,#664,#665));
#667=IFCRELDEFINESBYPROPERTIES('2yqDHGeGrQ1hn3jb9dXmdN',$,$,$,(#662),#666);
#668=IFCRELREFERENCEDINSPATIALSTRUCTURE('3DvqZLGZ1Jz98IT$WhPM78',$,$,$,(#494,#516,#662),#18);
#669=IFCCARTESIANPOINT((18.5,4.,0.));
#670=IFCAXIS2PLACEMENT3D(#669,$,$);
#671=IFCLOCALPLACEMENT(#17,#670);
#672=IFCTRANSPORTELEMENT('23tZHzGfTNfh_QJofpwlMh',$,'Autokran 2-Achser, 35-t-Klasse (BEISPIEL)',$,$,#671,$,$,.LIFTINGGEAR.);
#673=IFCPROPERTYSINGLEVALUE('Reference',$,IFCLABEL('AK-35'),$);
#674=IFCPROPERTYSINGLEVALUE('CapacityWeight',$,IFCMASSMEASURE(30000.),$);
#675=IFCPROPERTYSET('3_lCPDuurGpOEKXH8tYzP9',$,'Pset_TransportElementCommon',$,(#673,#674));
#676=IFCRELDEFINESBYPROPERTIES('1p5rzPQNDTcekxz7cLkzsO',$,$,$,(#672),#675);
#677=IFCPROPERTYSINGLEVALUE('Stuetzkraft_max_kN',$,IFCREAL(250.),$);
#678=IFCPROPERTYSINGLEVALUE('Unterlegplatte_m',$,IFCREAL(1.),$);
#679=IFCPROPERTYSINGLEVALUE('Bodenpressung_kN_m2',$,IFCREAL(250.),$);
#680=IFCPROPERTYSINGLEVALUE('Bodenpressung_zul_kN_m2',$,IFCREAL(250.),$);
#681=IFCPROPERTYSINGLEVALUE('Orientierung_Grad',$,IFCINTEGER(0),$);
#682=IFCPROPERTYSINGLEVALUE('Beispieldaten',$,IFCBOOLEAN(.T.),$);
#683=IFCPROPERTYSET('1ehSnVB4vJHwTaHTyqZ_r1',$,'HRB_Kranaufstellung',$,(#677,#678,#679,#680,#681,#682));
#684=IFCRELDEFINESBYPROPERTIES('2IcFvUne9GXPi3gFReCp24',$,$,$,(#672),#683);
#685=IFCCARTESIANPOINT((12.,-3.2999999999999998,0.));
#686=IFCAXIS2PLACEMENT3D(#685,$,$);
#687=IFCLOCALPLACEMENT(#17,#686);
#688=IFCVEHICLE('1cpIPN9OnKEgx7MiOASl6c',$,'LKW 1 \X2\2013\X0\ Innenlader-Sattelzug (BEISPIEL)',$,$,#687,$,$,.VEHICLEWHEELED.);
#689=IFCQUANTITYLENGTH('Length',$,$,16.5,$);
#690=IFCQUANTITYLENGTH('Width',$,$,2.5499999999999998,$);
#691=IFCQUANTITYLENGTH('Height',$,$,4.,$);
#692=IFCELEMENTQUANTITY('2eiudrCcPGsOPecRZvjibj',$,'Qto_VehicleBaseQuantities',$,$,(#689,#690,#691));
#693=IFCRELDEFINESBYPROPERTIES('2hnqqXfGXIqu1_TBRNVHlT',$,$,$,(#688),#692);
#694=IFCCARTESIANPOINT((12.,-3.2999999999999998,0.));
#695=IFCAXIS2PLACEMENT3D(#694,$,$);
#696=IFCLOCALPLACEMENT(#17,#695);
#697=IFCVEHICLE('3R0EbunBDRG8WkxhrAAhM5',$,'LKW 2 \X2\2013\X0\ Innenlader-Sattelzug (BEISPIEL)',$,$,#696,$,$,.VEHICLEWHEELED.);
#698=IFCQUANTITYLENGTH('Length',$,$,16.5,$);
#699=IFCQUANTITYLENGTH('Width',$,$,2.5499999999999998,$);
#700=IFCQUANTITYLENGTH('Height',$,$,4.,$);
#701=IFCELEMENTQUANTITY('1r1s9zFGjMd8urzqSTaQSv',$,'Qto_VehicleBaseQuantities',$,$,(#698,#699,#700));
#702=IFCRELDEFINESBYPROPERTIES('3JKrABJ9DHIAmSM_iNXIbN',$,$,$,(#697),#701);
#703=IFCCARTESIANPOINT((12.,-3.2999999999999998,0.));
#704=IFCAXIS2PLACEMENT3D(#703,$,$);
#705=IFCLOCALPLACEMENT(#17,#704);
#706=IFCVEHICLE('1OXFfR8lbHjBFUQSIAd70h',$,'LKW 3 \X2\2013\X0\ Plateau-Sattelzug (BEISPIEL)',$,$,#705,$,$,.VEHICLEWHEELED.);
#707=IFCQUANTITYLENGTH('Length',$,$,16.5,$);
#708=IFCQUANTITYLENGTH('Width',$,$,2.5499999999999998,$);
#709=IFCQUANTITYLENGTH('Height',$,$,4.,$);
#710=IFCELEMENTQUANTITY('0SPjOzmkPUlRw5PeUgWed9',$,'Qto_VehicleBaseQuantities',$,$,(#707,#708,#709));
#711=IFCRELDEFINESBYPROPERTIES('0rTNbN5nHV9RceT_wbvUaN',$,$,$,(#706),#710);
#712=IFCCARTESIANPOINT((12.,-3.2999999999999998,0.));
#713=IFCAXIS2PLACEMENT3D(#712,$,$);
#714=IFCLOCALPLACEMENT(#17,#713);
#715=IFCVEHICLE('3nuLZZy0rPD94$IZt$T_YM',$,'LKW 4 \X2\2013\X0\ Plateau-Sattelzug (BEISPIEL)',$,$,#714,$,$,.VEHICLEWHEELED.);
#716=IFCQUANTITYLENGTH('Length',$,$,16.5,$);
#717=IFCQUANTITYLENGTH('Width',$,$,2.5499999999999998,$);
#718=IFCQUANTITYLENGTH('Height',$,$,4.,$);
#719=IFCELEMENTQUANTITY('1NulXqH5LRsvLVrkhQKNRW',$,'Qto_VehicleBaseQuantities',$,$,(#716,#717,#718));
#720=IFCRELDEFINESBYPROPERTIES('33WeMgeoHLggatUp4wxkFf',$,$,$,(#715),#719);
#721=IFCCARTESIANPOINT((12.,-3.2999999999999998,0.));
#722=IFCAXIS2PLACEMENT3D(#721,$,$);
#723=IFCLOCALPLACEMENT(#17,#722);
#724=IFCVEHICLE('3Q6Xei5tvSXgUy4ZP4tQ$P',$,'LKW 5 \X2\2013\X0\ Innenlader-Sattelzug (BEISPIEL)',$,$,#723,$,$,.VEHICLEWHEELED.);
#725=IFCQUANTITYLENGTH('Length',$,$,16.5,$);
#726=IFCQUANTITYLENGTH('Width',$,$,2.5499999999999998,$);
#727=IFCQUANTITYLENGTH('Height',$,$,4.,$);
#728=IFCELEMENTQUANTITY('02lcv5Wq9J0QgyUon0vpKM',$,'Qto_VehicleBaseQuantities',$,$,(#725,#726,#727));
#729=IFCRELDEFINESBYPROPERTIES('0Ss_R_QyHUx8C$6Z2zIdSP',$,$,$,(#724),#728);
#730=IFCCARTESIANPOINT((12.,-3.2999999999999998,0.));
#731=IFCAXIS2PLACEMENT3D(#730,$,$);
#732=IFCLOCALPLACEMENT(#17,#731);
#733=IFCVEHICLE('05lF9mAIvSxhEZjfyYcISJ',$,'LKW 6 \X2\2013\X0\ Innenlader-Sattelzug (BEISPIEL)',$,$,#732,$,$,.VEHICLEWHEELED.);
#734=IFCQUANTITYLENGTH('Length',$,$,16.5,$);
#735=IFCQUANTITYLENGTH('Width',$,$,2.5499999999999998,$);
#736=IFCQUANTITYLENGTH('Height',$,$,4.,$);
#737=IFCELEMENTQUANTITY('03cXs2sE1N9vtd0thx7rhj',$,'Qto_VehicleBaseQuantities',$,$,(#734,#735,#736));
#738=IFCRELDEFINESBYPROPERTIES('36Q4M8CHzRLQKxVBs1e58X',$,$,$,(#733),#737);
#739=IFCRELCONTAINEDINSPATIALSTRUCTURE('1mXpbkXcXNyvVCWR4BI4qD',$,$,$,(#672,#688,#697,#706,#715,#724,#733),#18);
#740=IFCCONSTRUCTIONEQUIPMENTRESOURCE('3aqJNKOsHI7wHMWN9d2zHt',$,'Kran AK-35',$,$,$,$,$,$,$,.ERECTING.);
#741=IFCRELASSIGNSTORESOURCE('2lVBrPFxrP1PlB7ARnTk_0',$,$,$,(#672),$,#740);
#742=IFCCONSTRUCTIONEQUIPMENTRESOURCE('26AMbXzGnNKAY4em_zoU5s',$,'LKW-Transporte',$,$,$,$,$,$,$,.TRANSPORTING.);
#743=IFCRELASSIGNSTORESOURCE('0O_$1re1DSpPo1msa5g_3v',$,$,$,(#688,#697,#706,#715,#724,#733),$,#742);
#744=IFCWORKSCHEDULE('2PFBao_ATMyezulYWn3vgJ',$,'Montageplan (Beispiel)',$,$,$,'2026-01-01T00:00:00',$,$,$,$,'2026-10-12T07:00:00',$,.PLANNED.);
#745=IFCTASKTIME($,$,$,.WORKTIME.,$,'2026-10-12T07:00:00','2026-10-13T08:22:00',$,$,$,$,$,$,$,$,$,$,$,$,$);
#746=IFCTASK('0CEIl7LRnHjhf1Eb5Y$Kpd',$,'Montage Holzfertighaus',$,$,$,$,$,$,.F.,$,#745,.CONSTRUCTION.);
#747=IFCRELASSIGNSTOCONTROL('2r9IV7WITPkR$pBd3nHcaa',$,$,$,(#746),$,#744);
#748=IFCRELASSIGNSTOPROCESS('0jUZG_ZM1Ts9YCWGmTVIu8',$,$,$,(#740),$,#746,$);
#749=IFCTASKTIME($,$,$,.WORKTIME.,'PT1H0M','2026-10-12T07:00:00','2026-10-12T08:00:00',$,$,$,$,$,$,$,$,$,$,$,$,$);
#750=IFCTASK('2VzPWSgJzSOBMOJFzTC6QV',$,'Kran aufr\X2\00FC\X0\sten',$,$,'RUESTEN',$,$,$,.F.,$,#749,.CONSTRUCTION.);
#751=IFCTASKTIME($,$,$,.WORKTIME.,'PT0H18M','2026-10-12T08:00:00','2026-10-12T08:18:00',$,$,$,$,$,$,$,$,$,$,$,$,$);
#752=IFCTASK('1zaEJm8W5OexKSUHnsLFVW',$,'Montage wand W-S1',$,$,'W-S1',$,$,$,.F.,$,#751,.INSTALLATION.);
#753=IFCRELASSIGNSTOPRODUCT('30Wm530b5MgfVY5b43NEKW',$,$,$,(#752),$,#37);
#754=IFCPROPERTYSINGLEVALUE('Hublast_kg',$,IFCREAL(1728.3),$);
#755=IFCPROPERTYSINGLEVALUE('Radius_Aufnahme_m',$,IFCREAL(9.7739999999999991),$);
#756=IFCPROPERTYSINGLEVALUE('Radius_Absetzen_m',$,IFCREAL(12.619),$);
#757=IFCPROPERTYSINGLEVALUE('Traglast_Beispiel_kg',$,IFCREAL(5128.3000000000002),$);
#758=IFCPROPERTYSINGLEVALUE('Auslastung',$,IFCREAL(0.33700000000000002),$);
#759=IFCPROPERTYSINGLEVALUE('Wind_zul_ms',$,IFCREAL(2.9100000000000001),$);
#760=IFCPROPERTYSINGLEVALUE('LastUeberNachbar',$,IFCBOOLEAN(.F.),$);
#761=IFCPROPERTYSET('2EzIr9xK5TvPl5_5vJrWWm',$,'HRB_Kranhub',$,(#754,#755,#756,#757,#758,#759,#760));
#762=IFCRELDEFINESBYPROPERTIES('3xikSZ5JHOQAbnfYypUa98',$,$,$,(#752),#761);
#763=IFCRELSEQUENCE('27lPuCK8vKVRSjbVOvGgSO',$,$,$,#750,#752,$,.FINISH_START.,$);
#764=IFCTASKTIME($,$,$,.WORKTIME.,'PT0H18M','2026-10-12T08:18:00','2026-10-12T08:36:00',$,$,$,$,$,$,$,$,$,$,$,$,$);
#765=IFCTASK('0tCvbj6rnR5QnaQcv$Y0N9',$,'Montage wand W-S2',$,$,'W-S2',$,$,$,.F.,$,#764,.INSTALLATION.);
#766=IFCRELASSIGNSTOPRODUCT('1E0pUfkWLPsONhcN7FfdU6',$,$,$,(#765),$,#54);
#767=IFCPROPERTYSINGLEVALUE('Hublast_kg',$,IFCREAL(1728.3),$);
#768=IFCPROPERTYSINGLEVALUE('Radius_Aufnahme_m',$,IFCREAL(9.7739999999999991),$);
#769=IFCPROPERTYSINGLEVALUE('Radius_Absetzen_m',$,IFCREAL(8.3219999999999992),$);
#770=IFCPROPERTYSINGLEVALUE('Traglast_Beispiel_kg',$,IFCREAL(7781.8999999999996),$);
#771=IFCPROPERTYSINGLEVALUE('Auslastung',$,IFCREAL(0.22209999999999999),$);
#772=IFCPROPERTYSINGLEVALUE('Wind_zul_ms',$,IFCREAL(2.9100000000000001),$);
#773=IFCPROPERTYSINGLEVALUE('LastUeberNachbar',$,IFCBOOLEAN(.F.),$);
#774=IFCPROPERTYSET('2jvfRbXgrTCxyHzPQ2nV9d',$,'HRB_Kranhub',$,(#767,#768,#769,#770,#771,#772,#773));
#775=IFCRELDEFINESBYPROPERTIES('1qv7d7YsDNUere10idHW6t',$,$,$,(#765),#774);
#776=IFCRELSEQUENCE('27oxOd2A5GYeIaVrwdHupR',$,$,$,#752,#765,$,.FINISH_START.,$);
#777=IFCTASKTIME($,$,$,.WORKTIME.,'PT0H18M','2026-10-12T08:36:00','2026-10-12T08:54:00',$,$,$,$,$,$,$,$,$,$,$,$,$);
#778=IFCTASK('3dVpOVz1TNjRtSIq15NxL6',$,'Montage wand W-O1',$,$,'W-O1',$,$,$,.F.,$,#777,.INSTALLATION.);
#779=IFCRELASSIGNSTOPRODUCT('0njrnTGE5T5x_6jiZnryK1',$,$,$,(#778),$,#71);
#780=IFCPROPERTYSINGLEVALUE('Hublast_kg',$,IFCREAL(1523.5999999999999),$);
#781=IFCPROPERTYSINGLEVALUE('Radius_Aufnahme_m',$,IFCREAL(9.7739999999999991),$);
#782=IFCPROPERTYSINGLEVALUE('Radius_Absetzen_m',$,IFCREAL(9.6180000000000003),$);
#783=IFCPROPERTYSINGLEVALUE('Traglast_Beispiel_kg',$,IFCREAL(7781.8999999999996),$);
#784=IFCPROPERTYSINGLEVALUE('Auslastung',$,IFCREAL(0.1958),$);
#785=IFCPROPERTYSINGLEVALUE('Wind_zul_ms',$,IFCREAL(3.),$);
#786=IFCPROPERTYSINGLEVALUE('LastUeberNachbar',$,IFCBOOLEAN(.F.),$);
#787=IFCPROPERTYSET('3_Jax58a1Uov129ZcoFWS$',$,'HRB_Kranhub',$,(#780,#781,#782,#783,#784,#785,#786));
#788=IFCRELDEFINESBYPROPERTIES('2ZAXLMUDjOMQJQEnaiPXOr',$,$,$,(#778),#787);
#789=IFCRELSEQUENCE('3v8DfNcrDQrfQetyd_aRBt',$,$,$,#765,#778,$,.FINISH_START.,$);
#790=IFCTASKTIME($,$,$,.WORKTIME.,'PT0H18M','2026-10-12T08:54:00','2026-10-12T09:12:00',$,$,$,$,$,$,$,$,$,$,$,$,$);
#791=IFCTASK('2EkS574D5NiA2CLH5fAkK5',$,'Montage wand W-O2',$,$,'W-O2',$,$,$,.F.,$,#790,.INSTALLATION.);
#792=IFCRELASSIGNSTOPRODUCT('1na$77C51Qbuab1NwWSC3K',$,$,$,(#791),$,#88);
#793=IFCPROPERTYSINGLEVALUE('Hublast_kg',$,IFCREAL(1523.5999999999999),$);
#794=IFCPROPERTYSINGLEVALUE('Radius_Aufnahme_m',$,IFCREAL(9.7739999999999991),$);
#795=IFCPROPERTYSINGLEVALUE('Radius_Absetzen_m',$,IFCREAL(14.577),$);
#796=IFCPROPERTYSINGLEVALUE('Traglast_Beispiel_kg',$,IFCREAL(4040.1999999999998),$);
#797=IFCPROPERTYSINGLEVALUE('Auslastung',$,IFCREAL(0.37709999999999999),$);
#798=IFCPROPERTYSINGLEVALUE('Wind_zul_ms',$,IFCREAL(3.),$);
#799=IFCPROPERTYSINGLEVALUE('LastUeberNachbar',$,IFCBOOLEAN(.F.),$);
#800=IFCPROPERTYSET('32nsSDvbjMvgWjvTMsy3mG',$,'HRB_Kranhub',$,(#793,#794,#795,#796,#797,#798,#799));
#801=IFCRELDEFINESBYPROPERTIES('0F78v70SzN9xSUySgBTpIS',$,$,$,(#791),#800);
#802=IFCRELSEQUENCE('00Rg_Diz1MSPh8gfZAwjSp',$,$,$,#778,#791,$,.FINISH_START.,$);
#803=IFCTASKTIME($,$,$,.WORKTIME.,'PT0H18M','2026-10-12T09:12:00','2026-10-12T09:30:00',$,$,$,$,$,$,$,$,$,$,$,$,$);
#804=IFCTASK('1t6XRlu2TRkA$QZtlIg0So',$,'Montage wand W-N1',$,$,'W-N1',$,$,$,.F.,$,#803,.INSTALLATION.);
#805=IFCRELASSIGNSTOPRODUCT('1wSbm06L1PJ8dKLgRYW$gI',$,$,$,(#804),$,#105);
#806=IFCPROPERTYSINGLEVALUE('Hublast_kg',$,IFCREAL(1728.3),$);
#807=IFCPROPERTYSINGLEVALUE('Radius_Aufnahme_m',$,IFCREAL(9.7739999999999991),$);
#808=IFCPROPERTYSINGLEVALUE('Radius_Absetzen_m',$,IFCREAL(17.585999999999999),$);
#809=IFCPROPERTYSINGLEVALUE('Traglast_Beispiel_kg',$,IFCREAL(2845.0999999999999),$);
#810=IFCPROPERTYSINGLEVALUE('Auslastung',$,IFCREAL(0.60750000000000004),$);
#811=IFCPROPERTYSINGLEVALUE('Wind_zul_ms',$,IFCREAL(2.9100000000000001),$);
#812=IFCPROPERTYSINGLEVALUE('LastUeberNachbar',$,IFCBOOLEAN(.F.),$);
#813=IFCPROPERTYSET('2F1tJipPvTlhVWNwz3d513',$,'HRB_Kranhub',$,(#806,#807,#808,#809,#810,#811,#812));
#814=IFCRELDEFINESBYPROPERTIES('0F6iBFDOjPrAyLSPs22WCT',$,$,$,(#804),#813);
#815=IFCRELSEQUENCE('00NVcVRpXIMBOJWSDYLyUI',$,$,$,#791,#804,$,.FINISH_START.,$);
#816=IFCTASKTIME($,$,$,.WORKTIME.,'PT0H18M','2026-10-12T09:30:00','2026-10-12T09:48:00',$,$,$,$,$,$,$,$,$,$,$,$,$);
#817=IFCTASK('2jwWKVxnLNVO2fjRlLlz5z',$,'Montage wand W-N2',$,$,'W-N2',$,$,$,.F.,$,#816,.INSTALLATION.);
#818=IFCRELASSIGNSTOPRODUCT('2xKs6RlQrSEwS7a3p8uJrF',$,$,$,(#817),$,#122);
#819=IFCPROPERTYSINGLEVALUE('Hublast_kg',$,IFCREAL(1728.3),$);
#820=IFCPROPERTYSINGLEVALUE('Radius_Aufnahme_m',$,IFCREAL(9.7739999999999991),$);
#821=IFCPROPERTYSINGLEVALUE('Radius_Absetzen_m',$,IFCREAL(19.981000000000002),$);
#822=IFCPROPERTYSINGLEVALUE('Traglast_Beispiel_kg',$,IFCREAL(2204.6999999999998),$);
#823=IFCPROPERTYSINGLEVALUE('Auslastung',$,IFCREAL(0.78390000000000004),$);
#824=IFCPROPERTYSINGLEVALUE('Wind_zul_ms',$,IFCREAL(2.9100000000000001),$);
#825=IFCPROPERTYSINGLEVALUE('LastUeberNachbar',$,IFCBOOLEAN(.F.),$);
#826=IFCPROPERTYSET('1KMAL76GbTAAogjRMNfLRi',$,'HRB_Kranhub',$,(#819,#820,#821,#822,#823,#824,#825));
#827=IFCRELDEFINESBYPROPERTIES('12VF$y3yjSqh8GioHZjWiJ',$,$,$,(#817),#826);
#828=IFCRELSEQUENCE('2J1yOWRo1T8PNuV$6mXdUv',$,$,$,#804,#817,$,.FINISH_START.,$);
#829=IFCTASKTIME($,$,$,.WORKTIME.,'PT0H18M','2026-10-12T09:48:00','2026-10-12T10:06:00',$,$,$,$,$,$,$,$,$,$,$,$,$);
#830=IFCTASK('2Ii8Gbm_PUCeV$prNgh4_o',$,'Montage wand W-W1',$,$,'W-W1',$,$,$,.F.,$,#829,.INSTALLATION.);
#831=IFCRELASSIGNSTOPRODUCT('0W3FPvrT1J9uzdMs_32ILb',$,$,$,(#830),$,#139);
#832=IFCPROPERTYSINGLEVALUE('Hublast_kg',$,IFCREAL(1523.5999999999999),$);
#833=IFCPROPERTYSINGLEVALUE('Radius_Aufnahme_m',$,IFCREAL(9.7739999999999991),$);
#834=IFCPROPERTYSINGLEVALUE('Radius_Absetzen_m',$,IFCREAL(19.812000000000001),$);
#835=IFCPROPERTYSINGLEVALUE('Traglast_Beispiel_kg',$,IFCREAL(2247.0999999999999),$);
#836=IFCPROPERTYSINGLEVALUE('Auslastung',$,IFCREAL(0.67800000000000005),$);
#837=IFCPROPERTYSINGLEVALUE('Wind_zul_ms',$,IFCREAL(3.),$);
#838=IFCPROPERTYSINGLEVALUE('LastUeberNachbar',$,IFCBOOLEAN(.F.),$);
#839=IFCPROPERTYSET('3iffVAJgLJ4R41kCP_RPLo',$,'HRB_Kranhub',$,(#832,#833,#834,#835,#836,#837,#838));
#840=IFCRELDEFINESBYPROPERTIES('1BUAkRYILSDuHXqUcrUPXZ',$,$,$,(#830),#839);
#841=IFCRELSEQUENCE('3wIrKA_mTTpxZq2D3Kxht3',$,$,$,#817,#830,$,.FINISH_START.,$);
#842=IFCTASKTIME($,$,$,.WORKTIME.,'PT0H18M','2026-10-12T10:06:00','2026-10-12T10:24:00',$,$,$,$,$,$,$,$,$,$,$,$,$);
#843=IFCTASK('2Et5ptSuPQEwzttVM0blog',$,'Montage wand W-W2',$,$,'W-W2',$,$,$,.F.,$,#842,.INSTALLATION.);
#844=IFCRELASSIGNSTOPRODUCT('1CazUHBUbJ9va17I2YSJpc',$,$,$,(#843),$,#156);
#845=IFCPROPERTYSINGLEVALUE('Hublast_kg',$,IFCREAL(1523.5999999999999),$);
#846=IFCPROPERTYSINGLEVALUE('Radius_Aufnahme_m',$,IFCREAL(9.7739999999999991),$);
#847=IFCPROPERTYSINGLEVALUE('Radius_Absetzen_m',$,IFCREAL(16.507999999999999),$);
#848=IFCPROPERTYSINGLEVALUE('Traglast_Beispiel_kg',$,IFCREAL(3222.3000000000002),$);
#849=IFCPROPERTYSINGLEVALUE('Auslastung',$,IFCREAL(0.4728),$);
#850=IFCPROPERTYSINGLEVALUE('Wind_zul_ms',$,IFCREAL(3.),$);
#851=IFCPROPERTYSINGLEVALUE('LastUeberNachbar',$,IFCBOOLEAN(.F.),$);
#852=IFCPROPERTYSET('3p76nlYSnI8OpYfkn2dwnR',$,'HRB_Kranhub',$,(#845,#846,#847,#848,#849,#850,#851));
#853=IFCRELDEFINESBYPROPERTIES('0HUGkxLnrTnfcbkhbQJrO7',$,$,$,(#843),#852);
#854=IFCRELSEQUENCE('04jYUVfOTSlfTlTmb6oTNQ',$,$,$,#830,#843,$,.FINISH_START.,$);
#855=IFCTASKTIME($,$,$,.WORKTIME.,'PT0H20M','2026-10-12T10:24:00','2026-10-12T10:44:00',$,$,$,$,$,$,$,$,$,$,$,$,$);
#856=IFCTASK('1f0KngQ6DMUefUBRyViNo1',$,'Montage decke D-1',$,$,'D-1',$,$,$,.F.,$,#855,.INSTALLATION.);
#857=IFCRELASSIGNSTOPRODUCT('3eHTrTKZfSDe0mPu8hsCFd',$,$,$,(#856),$,#173);
#858=IFCPROPERTYSINGLEVALUE('Hublast_kg',$,IFCREAL(1231.8),$);
#859=IFCPROPERTYSINGLEVALUE('Radius_Aufnahme_m',$,IFCREAL(9.7739999999999991),$);
#860=IFCPROPERTYSINGLEVALUE('Radius_Absetzen_m',$,IFCREAL(17.327999999999999),$);
#861=IFCPROPERTYSINGLEVALUE('Traglast_Beispiel_kg',$,IFCREAL(2935.3000000000002),$);
#862=IFCPROPERTYSINGLEVALUE('Auslastung',$,IFCREAL(0.41970000000000002),$);
#863=IFCPROPERTYSINGLEVALUE('Wind_zul_ms',$,IFCREAL(4.0700000000000003),$);
#864=IFCPROPERTYSINGLEVALUE('LastUeberNachbar',$,IFCBOOLEAN(.T.),$);
#865=IFCPROPERTYSET('11wDtsqCDVLRFew3WXbdps',$,'HRB_Kranhub',$,(#858,#859,#860,#861,#862,#863,#864));
#866=IFCRELDEFINESBYPROPERTIES('3XDeolyCXTcQ25$D8s5tsw',$,$,$,(#856),#865);
#867=IFCRELSEQUENCE('0uWtFz1tPUE9GhUVqITYYl',$,$,$,#843,#856,$,.FINISH_START.,$);
#868=IFCTASKTIME($,$,$,.WORKTIME.,'PT0H20M','2026-10-12T10:44:00','2026-10-12T11:04:00',$,$,$,$,$,$,$,$,$,$,$,$,$);
#869=IFCTASK('0qwxN2iKzQ28xeurcONT10',$,'Montage decke D-2',$,$,'D-2',$,$,$,.F.,$,#868,.INSTALLATION.);
#870=IFCRELASSIGNSTOPRODUCT('2$nyBHqo1TPvjkEIqLcuVD',$,$,$,(#869),$,#190);
#871=IFCPROPERTYSINGLEVALUE('Hublast_kg',$,IFCREAL(1231.8),$);
#872=IFCPROPERTYSINGLEVALUE('Radius_Aufnahme_m',$,IFCREAL(9.7739999999999991),$);
#873=IFCPROPERTYSINGLEVALUE('Radius_Absetzen_m',$,IFCREAL(15.945),$);
#874=IFCPROPERTYSINGLEVALUE('Traglast_Beispiel_kg',$,IFCREAL(3424.6999999999998),$);
#875=IFCPROPERTYSINGLEVALUE('Auslastung',$,IFCREAL(0.35970000000000002),$);
#876=IFCPROPERTYSINGLEVALUE('Wind_zul_ms',$,IFCREAL(4.0700000000000003),$);
#877=IFCPROPERTYSINGLEVALUE('LastUeberNachbar',$,IFCBOOLEAN(.F.),$);
#878=IFCPROPERTYSET('1ETMbWlDzSj8r8cKAzLQTG',$,'HRB_Kranhub',$,(#871,#872,#873,#874,#875,#876,#877));
#879=IFCRELDEFINESBYPROPERTIES('100MlfpETIN9S0Huc88L2W',$,$,$,(#869),#878);
#880=IFCRELSEQUENCE('38Ub$$zEfI1haRpl1yzhyC',$,$,$,#856,#869,$,.FINISH_START.,$);
#881=IFCTASKTIME($,$,$,.WORKTIME.,'PT0H20M','2026-10-12T11:04:00','2026-10-12T11:24:00',$,$,$,$,$,$,$,$,$,$,$,$,$);
#882=IFCTASK('18l6Tbfq9VbeyYlEIaFhrc',$,'Montage decke D-3',$,$,'D-3',$,$,$,.F.,$,#881,.INSTALLATION.);
#883=IFCRELASSIGNSTOPRODUCT('3oDh9gFXDLRhA_36C4Hdmy',$,$,$,(#882),$,#207);
#884=IFCPROPERTYSINGLEVALUE('Hublast_kg',$,IFCREAL(1231.8),$);
#885=IFCPROPERTYSINGLEVALUE('Radius_Aufnahme_m',$,IFCREAL(9.7739999999999991),$);
#886=IFCPROPERTYSINGLEVALUE('Radius_Absetzen_m',$,IFCREAL(14.705),$);
#887=IFCPROPERTYSINGLEVALUE('Traglast_Beispiel_kg',$,IFCREAL(3982.5999999999999),$);
#888=IFCPROPERTYSINGLEVALUE('Auslastung',$,IFCREAL(0.30930000000000002),$);
#889=IFCPROPERTYSINGLEVALUE('Wind_zul_ms',$,IFCREAL(4.0700000000000003),$);
#890=IFCPROPERTYSINGLEVALUE('LastUeberNachbar',$,IFCBOOLEAN(.F.),$);
#891=IFCPROPERTYSET('3FnA8ad6vLqg$U$Hhg8PT7',$,'HRB_Kranhub',$,(#884,#885,#886,#887,#888,#889,#890));
#892=IFCRELDEFINESBYPROPERTIES('2plSWOQlDSQxwuH8tLBQty',$,$,$,(#882),#891);
#893=IFCRELSEQUENCE('38btjrKprNCQSggxOUuq0c',$,$,$,#869,#882,$,.FINISH_START.,$);
#894=IFCTASKTIME($,$,$,.WORKTIME.,'PT0H20M','2026-10-12T11:24:00','2026-10-12T11:44:00',$,$,$,$,$,$,$,$,$,$,$,$,$);
#895=IFCTASK('1A9D7RksXR3Pj3XtNazYVr',$,'Montage decke D-4',$,$,'D-4',$,$,$,.F.,$,#894,.INSTALLATION.);
#896=IFCRELASSIGNSTOPRODUCT('3NmM_$f$9TuvKA_4CKctFv',$,$,$,(#895),$,#224);
#897=IFCPROPERTYSINGLEVALUE('Hublast_kg',$,IFCREAL(1231.8),$);
#898=IFCPROPERTYSINGLEVALUE('Radius_Aufnahme_m',$,IFCREAL(9.7739999999999991),$);
#899=IFCPROPERTYSINGLEVALUE('Radius_Absetzen_m',$,IFCREAL(13.647),$);
#900=IFCPROPERTYSINGLEVALUE('Traglast_Beispiel_kg',$,IFCREAL(4511.6000000000004),$);
#901=IFCPROPERTYSINGLEVALUE('Auslastung',$,IFCREAL(0.27300000000000002),$);
#902=IFCPROPERTYSINGLEVALUE('Wind_zul_ms',$,IFCREAL(4.0700000000000003),$);
#903=IFCPROPERTYSINGLEVALUE('LastUeberNachbar',$,IFCBOOLEAN(.F.),$);
#904=IFCPROPERTYSET('13$j$2ZUHJqPufGB5k89wj',$,'HRB_Kranhub',$,(#897,#898,#899,#900,#901,#902,#903));
#905=IFCRELDEFINESBYPROPERTIES('0qjxWRgfDMm8jokPj_Xzme',$,$,$,(#895),#904);
#906=IFCRELSEQUENCE('34ZBz22r9VS96fB1Qunk2V',$,$,$,#882,#895,$,.FINISH_START.,$);
#907=IFCTASKTIME($,$,$,.WORKTIME.,'PT0H20M','2026-10-12T11:44:00','2026-10-12T12:04:00',$,$,$,$,$,$,$,$,$,$,$,$,$);
#908=IFCTASK('2OIG_k07LLYPW$XPoPObrc',$,'Montage decke D-5',$,$,'D-5',$,$,$,.F.,$,#907,.INSTALLATION.);
#909=IFCRELASSIGNSTOPRODUCT('3YCP2d_MzR_QEW5q4UfM0C',$,$,$,(#908),$,#241);
#910=IFCPROPERTYSINGLEVALUE('Hublast_kg',$,IFCREAL(1231.8),$);
#911=IFCPROPERTYSINGLEVALUE('Radius_Aufnahme_m',$,IFCREAL(9.7739999999999991),$);
#912=IFCPROPERTYSINGLEVALUE('Radius_Absetzen_m',$,IFCREAL(12.816000000000001),$);
#913=IFCPROPERTYSINGLEVALUE('Traglast_Beispiel_kg',$,IFCREAL(5010.3999999999996),$);
#914=IFCPROPERTYSINGLEVALUE('Auslastung',$,IFCREAL(0.24590000000000001),$);
#915=IFCPROPERTYSINGLEVALUE('Wind_zul_ms',$,IFCREAL(4.0700000000000003),$);
#916=IFCPROPERTYSINGLEVALUE('LastUeberNachbar',$,IFCBOOLEAN(.F.),$);
#917=IFCPROPERTYSET('3tVgHlls9KdQspPK$KnPMv',$,'HRB_Kranhub',$,(#910,#911,#912,#913,#914,#915,#916));
#918=IFCRELDEFINESBYPROPERTIES('00AyiH4_nPEPXDWsbrRXNw',$,$,$,(#908),#917);
#919=IFCRELSEQUENCE('1aLYCTTkrJHP0Q4d_E1Vt3',$,$,$,#895,#908,$,.FINISH_START.,$);
#920=IFCTASKTIME($,$,$,.WORKTIME.,'PT0H20M','2026-10-12T12:04:00','2026-10-12T12:24:00',$,$,$,$,$,$,$,$,$,$,$,$,$);
#921=IFCTASK('1JhSVJaZXLgBQDKKveUuG3',$,'Montage decke D-6',$,$,'D-6',$,$,$,.F.,$,#920,.INSTALLATION.);
#922=IFCRELASSIGNSTOPRODUCT('1SRQzIgE9QwxnIaCOe3i42',$,$,$,(#921),$,#258);
#923=IFCPROPERTYSINGLEVALUE('Hublast_kg',$,IFCREAL(1231.8),$);
#924=IFCPROPERTYSINGLEVALUE('Radius_Aufnahme_m',$,IFCREAL(9.7739999999999991),$);
#925=IFCPROPERTYSINGLEVALUE('Radius_Absetzen_m',$,IFCREAL(12.257999999999999),$);
#926=IFCPROPERTYSINGLEVALUE('Traglast_Beispiel_kg',$,IFCREAL(5345.3999999999996),$);
#927=IFCPROPERTYSINGLEVALUE('Auslastung',$,IFCREAL(0.23039999999999999),$);
#928=IFCPROPERTYSINGLEVALUE('Wind_zul_ms',$,IFCREAL(4.0700000000000003),$);
#929=IFCPROPERTYSINGLEVALUE('LastUeberNachbar',$,IFCBOOLEAN(.F.),$);
#930=IFCPROPERTYSET('0Ji5vuYPvTMPoL5YcBpqxd',$,'HRB_Kranhub',$,(#923,#924,#925,#926,#927,#928,#929));
#931=IFCRELDEFINESBYPROPERTIES('2sLb4ahHfGNxxjXLxT4jJh',$,$,$,(#921),#930);
#932=IFCRELSEQUENCE('2l0B7gfx5HTeSqqQiKzHgP',$,$,$,#908,#921,$,.FINISH_START.,$);
#933=IFCTASKTIME($,$,$,.WORKTIME.,'PT0H15M','2026-10-12T12:24:00','2026-10-12T12:39:00',$,$,$,$,$,$,$,$,$,$,$,$,$);
#934=IFCTASK('0o5UhFSh1PHOl91wouVMYf',$,'Montage giebel G-WS',$,$,'G-WS',$,$,$,.F.,$,#933,.INSTALLATION.);
#935=IFCRELASSIGNSTOPRODUCT('1ppn0CzDzSMvXvH8A1OYCd',$,$,$,(#934),$,#275);
#936=IFCPROPERTYSINGLEVALUE('Hublast_kg',$,IFCREAL(1151.5999999999999),$);
#937=IFCPROPERTYSINGLEVALUE('Radius_Aufnahme_m',$,IFCREAL(9.7739999999999991),$);
#938=IFCPROPERTYSINGLEVALUE('Radius_Absetzen_m',$,IFCREAL(17.001000000000001),$);
#939=IFCPROPERTYSINGLEVALUE('Traglast_Beispiel_kg',$,IFCREAL(3049.6999999999998),$);
#940=IFCPROPERTYSINGLEVALUE('Auslastung',$,IFCREAL(0.37759999999999999),$);
#941=IFCPROPERTYSINGLEVALUE('Wind_zul_ms',$,IFCREAL(3.2599999999999998),$);
#942=IFCPROPERTYSINGLEVALUE('LastUeberNachbar',$,IFCBOOLEAN(.F.),$);
#943=IFCPROPERTYSET('1Sj1HxiOnJBR2zm8hFVn5m',$,'HRB_Kranhub',$,(#936,#937,#938,#939,#940,#941,#942));
#944=IFCRELDEFINESBYPROPERTIES('2TjbX522vNJ9ihmj88EXAu',$,$,$,(#934),#943);
#945=IFCRELSEQUENCE('3dJu_amoLL8R0LWCoqspS9',$,$,$,#921,#934,$,.FINISH_START.,$);
#946=IFCTASKTIME($,$,$,.WORKTIME.,'PT0H15M','2026-10-12T12:39:00','2026-10-12T12:54:00',$,$,$,$,$,$,$,$,$,$,$,$,$);
#947=IFCTASK('22hOoxSjPROfS2xmmL4Wgj',$,'Montage giebel G-WN',$,$,'G-WN',$,$,$,.F.,$,#946,.INSTALLATION.);
#948=IFCRELASSIGNSTOPRODUCT('0R6Ic7HgnVJx094aiIS2vY',$,$,$,(#947),$,#292);
#949=IFCPROPERTYSINGLEVALUE('Hublast_kg',$,IFCREAL(1151.5999999999999),$);
#950=IFCPROPERTYSINGLEVALUE('Radius_Aufnahme_m',$,IFCREAL(9.7739999999999991),$);
#951=IFCPROPERTYSINGLEVALUE('Radius_Absetzen_m',$,IFCREAL(19.210000000000001),$);
#952=IFCPROPERTYSINGLEVALUE('Traglast_Beispiel_kg',$,IFCREAL(2397.5),$);
#953=IFCPROPERTYSINGLEVALUE('Auslastung',$,IFCREAL(0.4803),$);
#954=IFCPROPERTYSINGLEVALUE('Wind_zul_ms',$,IFCREAL(3.2599999999999998),$);
#955=IFCPROPERTYSINGLEVALUE('LastUeberNachbar',$,IFCBOOLEAN(.F.),$);
#956=IFCPROPERTYSET('0VIuaWADfUPRq2XEFZFMVQ',$,'HRB_Kranhub',$,(#949,#950,#951,#952,#953,#954,#955));
#957=IFCRELDEFINESBYPROPERTIES('0QI87F5xPMuBehunY0FB53',$,$,$,(#947),#956);
#958=IFCRELSEQUENCE('1TJ4C5yQ5TD9tCxYhCzYAQ',$,$,$,#934,#947,$,.FINISH_START.,$);
#959=IFCTASKTIME($,$,$,.WORKTIME.,'PT0H15M','2026-10-12T12:54:00','2026-10-12T13:09:00',$,$,$,$,$,$,$,$,$,$,$,$,$);
#960=IFCTASK('38dsQrj7rGeQN8w99Ep3la',$,'Montage giebel G-OS',$,$,'G-OS',$,$,$,.F.,$,#959,.INSTALLATION.);
#961=IFCRELASSIGNSTOPRODUCT('31i8Qs09XGWQpe_p7UxNsQ',$,$,$,(#960),$,#309);
#962=IFCPROPERTYSINGLEVALUE('Hublast_kg',$,IFCREAL(1151.5999999999999),$);
#963=IFCPROPERTYSINGLEVALUE('Radius_Aufnahme_m',$,IFCREAL(9.7739999999999991),$);
#964=IFCPROPERTYSINGLEVALUE('Radius_Absetzen_m',$,IFCREAL(10.442),$);
#965=IFCPROPERTYSINGLEVALUE('Traglast_Beispiel_kg',$,IFCREAL(7058.3999999999996),$);
#966=IFCPROPERTYSINGLEVALUE('Auslastung',$,IFCREAL(0.16320000000000001),$);
#967=IFCPROPERTYSINGLEVALUE('Wind_zul_ms',$,IFCREAL(3.2599999999999998),$);
#968=IFCPROPERTYSINGLEVALUE('LastUeberNachbar',$,IFCBOOLEAN(.F.),$);
#969=IFCPROPERTYSET('0ba4tqsyjOJvxLxHS5SB8U',$,'HRB_Kranhub',$,(#962,#963,#964,#965,#966,#967,#968));
#970=IFCRELDEFINESBYPROPERTIES('2FpGox43bVkfBYX27MdfUp',$,$,$,(#960),#969);
#971=IFCRELSEQUENCE('0$go2sVlrQV8iC_v_4i7Pt',$,$,$,#947,#960,$,.FINISH_START.,$);
#972=IFCTASKTIME($,$,$,.WORKTIME.,'PT0H15M','2026-10-12T13:09:00','2026-10-12T13:24:00',$,$,$,$,$,$,$,$,$,$,$,$,$);
#973=IFCTASK('0OcMysBxjTUhdBtSd6hECC',$,'Montage giebel G-ON',$,$,'G-ON',$,$,$,.F.,$,#972,.INSTALLATION.);
#974=IFCRELASSIGNSTOPRODUCT('3uFJM0X21HNuz_Pv79TTWq',$,$,$,(#973),$,#326);
#975=IFCPROPERTYSINGLEVALUE('Hublast_kg',$,IFCREAL(1151.5999999999999),$);
#976=IFCPROPERTYSINGLEVALUE('Radius_Aufnahme_m',$,IFCREAL(9.7739999999999991),$);
#977=IFCPROPERTYSINGLEVALUE('Radius_Absetzen_m',$,IFCREAL(13.749000000000001),$);
#978=IFCPROPERTYSINGLEVALUE('Traglast_Beispiel_kg',$,IFCREAL(4450.8000000000002),$);
#979=IFCPROPERTYSINGLEVALUE('Auslastung',$,IFCREAL(0.25869999999999999),$);
#980=IFCPROPERTYSINGLEVALUE('Wind_zul_ms',$,IFCREAL(3.2599999999999998),$);
#981=IFCPROPERTYSINGLEVALUE('LastUeberNachbar',$,IFCBOOLEAN(.F.),$);
#982=IFCPROPERTYSET('1x3iK2AUbLLhNSPSAPaukX',$,'HRB_Kranhub',$,(#975,#976,#977,#978,#979,#980,#981));
#983=IFCRELDEFINESBYPROPERTIES('1IHb08Kh9HgPfc2QkfwCaG',$,$,$,(#973),#982);
#984=IFCRELSEQUENCE('1APRO8ULHGGRTeU1rDfZnF',$,$,$,#960,#973,$,.FINISH_START.,$);
#985=IFCTASKTIME($,$,$,.WORKTIME.,'PT0H22M','2026-10-12T13:24:00','2026-10-12T13:46:00',$,$,$,$,$,$,$,$,$,$,$,$,$);
#986=IFCTASK('3a98s8K_9MxuZo3xkLWoGH',$,'Montage dach R-S1',$,$,'R-S1',$,$,$,.F.,$,#985,.INSTALLATION.);
#987=IFCRELASSIGNSTOPRODUCT('04w$mwX$HSXQ82OmWb_UQK',$,$,$,(#986),$,#343);
#988=IFCPROPERTYSINGLEVALUE('Hublast_kg',$,IFCREAL(1373.0999999999999),$);
#989=IFCPROPERTYSINGLEVALUE('Radius_Aufnahme_m',$,IFCREAL(9.7739999999999991),$);
#990=IFCPROPERTYSINGLEVALUE('Radius_Absetzen_m',$,IFCREAL(15.151),$);
#991=IFCPROPERTYSINGLEVALUE('Traglast_Beispiel_kg',$,IFCREAL(3781.9000000000001),$);
#992=IFCPROPERTYSINGLEVALUE('Auslastung',$,IFCREAL(0.36309999999999998),$);
#993=IFCPROPERTYSINGLEVALUE('Wind_zul_ms',$,IFCREAL(2.8500000000000001),$);
#994=IFCPROPERTYSINGLEVALUE('LastUeberNachbar',$,IFCBOOLEAN(.F.),$);
#995=IFCPROPERTYSET('2bs0G4RhHQJ8miWnNVTKVS',$,'HRB_Kranhub',$,(#988,#989,#990,#991,#992,#993,#994));
#996=IFCRELDEFINESBYPROPERTIES('0qVEKbn7rPI8FyOd$_hH1X',$,$,$,(#986),#995);
#997=IFCRELSEQUENCE('10nvt3e9bGtfEQcKiJkcvY',$,$,$,#973,#986,$,.FINISH_START.,$);
#998=IFCTASKTIME($,$,$,.WORKTIME.,'PT0H22M','2026-10-12T13:46:00','2026-10-12T14:08:00',$,$,$,$,$,$,$,$,$,$,$,$,$);
#999=IFCTASK('1IZgHJGCTNFeHIYLPzF5pL',$,'Montage dach R-S2',$,$,'R-S2',$,$,$,.F.,$,#998,.INSTALLATION.);
#1000=IFCRELASSIGNSTOPRODUCT('06oh9Mb_1Puviys8UoHmjF',$,$,$,(#999),$,#360);
#1001=IFCPROPERTYSINGLEVALUE('Hublast_kg',$,IFCREAL(1373.0999999999999),$);
#1002=IFCPROPERTYSINGLEVALUE('Radius_Aufnahme_m',$,IFCREAL(9.7739999999999991),$);
#1003=IFCPROPERTYSINGLEVALUE('Radius_Absetzen_m',$,IFCREAL(12.906000000000001),$);
#1004=IFCPROPERTYSINGLEVALUE('Traglast_Beispiel_kg',$,IFCREAL(4956.5),$);
#1005=IFCPROPERTYSINGLEVALUE('Auslastung',$,IFCREAL(0.27700000000000002),$);
#1006=IFCPROPERTYSINGLEVALUE('Wind_zul_ms',$,IFCREAL(2.8500000000000001),$);
#1007=IFCPROPERTYSINGLEVALUE('LastUeberNachbar',$,IFCBOOLEAN(.F.),$);
#1008=IFCPROPERTYSET('0UFlUkUsTQeQqPexdi6My7',$,'HRB_Kranhub',$,(#1001,#1002,#1003,#1004,#1005,#1006,#1007));
#1009=IFCRELDEFINESBYPROPERTIES('2kde2apm5Kh9osiYnM2ow6',$,$,$,(#999),#1008);
#1010=IFCRELSEQUENCE('1UniKttzrLZeAzYCOIzzGY',$,$,$,#986,#999,$,.FINISH_START.,$);
#1011=IFCTASKTIME($,$,$,.WORKTIME.,'PT0H22M','2026-10-12T14:08:00','2026-10-12T14:30:00',$,$,$,$,$,$,$,$,$,$,$,$,$);
#1012=IFCTASK('1BFr0QsrnTQf6d7G9SsNuK',$,'Montage dach R-S3',$,$,'R-S3',$,$,$,.F.,$,#1011,.INSTALLATION.);
#1013=IFCRELASSIGNSTOPRODUCT('2kxCR2PX5TI9HfsyMZXsRy',$,$,$,(#1012),$,#377);
#1014=IFCPROPERTYSINGLEVALUE('Hublast_kg',$,IFCREAL(1373.0999999999999),$);
#1015=IFCPROPERTYSINGLEVALUE('Radius_Aufnahme_m',$,IFCREAL(9.7739999999999991),$);
#1016=IFCPROPERTYSINGLEVALUE('Radius_Absetzen_m',$,IFCREAL(11.026),$);
#1017=IFCPROPERTYSINGLEVALUE('Traglast_Beispiel_kg',$,IFCREAL(6474.5),$);
#1018=IFCPROPERTYSINGLEVALUE('Auslastung',$,IFCREAL(0.21210000000000001),$);
#1019=IFCPROPERTYSINGLEVALUE('Wind_zul_ms',$,IFCREAL(2.8500000000000001),$);
#1020=IFCPROPERTYSINGLEVALUE('LastUeberNachbar',$,IFCBOOLEAN(.F.),$);
#1021=IFCPROPERTYSET('0fK3vwya9QYQd$NHpO4YXY',$,'HRB_Kranhub',$,(#1014,#1015,#1016,#1017,#1018,#1019,#1020));
#1022=IFCRELDEFINESBYPROPERTIES('1XxE7tpPrNbupq8VL2EyBt',$,$,$,(#1012),#1021);
#1023=IFCRELSEQUENCE('2_0Ey_Rt1UeAq87ckVnO46',$,$,$,#999,#1012,$,.FINISH_START.,$);
#1024=IFCTASKTIME($,$,$,.WORKTIME.,'PT0H22M','2026-10-12T14:30:00','2026-10-12T14:52:00',$,$,$,$,$,$,$,$,$,$,$,$,$);
#1025=IFCTASK('00fEgfjKXL6OgVbkWv3PUX',$,'Montage dach R-S4',$,$,'R-S4',$,$,$,.F.,$,#1024,.INSTALLATION.);
#1026=IFCRELASSIGNSTOPRODUCT('2Vn8$gp0zS$gObBgr66VJg',$,$,$,(#1025),$,#394);
#1027=IFCPROPERTYSINGLEVALUE('Hublast_kg',$,IFCREAL(1373.0999999999999),$);
#1028=IFCPROPERTYSINGLEVALUE('Radius_Aufnahme_m',$,IFCREAL(9.7739999999999991),$);
#1029=IFCPROPERTYSINGLEVALUE('Radius_Absetzen_m',$,IFCREAL(9.7240000000000002),$);
#1030=IFCPROPERTYSINGLEVALUE('Traglast_Beispiel_kg',$,IFCREAL(7781.8999999999996),$);
#1031=IFCPROPERTYSINGLEVALUE('Auslastung',$,IFCREAL(0.1764),$);
#1032=IFCPROPERTYSINGLEVALUE('Wind_zul_ms',$,IFCREAL(2.8500000000000001),$);
#1033=IFCPROPERTYSINGLEVALUE('LastUeberNachbar',$,IFCBOOLEAN(.F.),$);
#1034=IFCPROPERTYSET('2Aq$zY2hrSrwT6cmvgerjy',$,'HRB_Kranhub',$,(#1027,#1028,#1029,#1030,#1031,#1032,#1033));
#1035=IFCRELDEFINESBYPROPERTIES('20N3ELysfGtwHDdiOiNetZ',$,$,$,(#1025),#1034);
#1036=IFCRELSEQUENCE('3s0ruJ6vzP8BZ9uwNSZgV$',$,$,$,#1012,#1025,$,.FINISH_START.,$);
#1037=IFCTASKTIME($,$,$,.WORKTIME.,'PT0H22M','2026-10-12T14:52:00','2026-10-12T15:14:00',$,$,$,$,$,$,$,$,$,$,$,$,$);
#1038=IFCTASK('13i4LnYkjKJe9M0Ex5dpWe',$,'Montage dach R-N1',$,$,'R-N1',$,$,$,.F.,$,#1037,.INSTALLATION.);
#1039=IFCRELASSIGNSTOPRODUCT('2Pg7aEaTrIHf8foXNXAEmo',$,$,$,(#1038),$,#411);
#1040=IFCPROPERTYSINGLEVALUE('Hublast_kg',$,IFCREAL(1373.0999999999999),$);
#1041=IFCPROPERTYSINGLEVALUE('Radius_Aufnahme_m',$,IFCREAL(9.7739999999999991),$);
#1042=IFCPROPERTYSINGLEVALUE('Radius_Absetzen_m',$,IFCREAL(19.015000000000001),$);
#1043=IFCPROPERTYSINGLEVALUE('Traglast_Beispiel_kg',$,IFCREAL(2446.3000000000002),$);
#1044=IFCPROPERTYSINGLEVALUE('Auslastung',$,IFCREAL(0.56130000000000002),$);
#1045=IFCPROPERTYSINGLEVALUE('Wind_zul_ms',$,IFCREAL(2.8500000000000001),$);
#1046=IFCPROPERTYSINGLEVALUE('LastUeberNachbar',$,IFCBOOLEAN(.T.),$);
#1047=IFCPROPERTYSET('2UvzMvRaTOq8aNiYAbpxW2',$,'HRB_Kranhub',$,(#1040,#1041,#1042,#1043,#1044,#1045,#1046));
#1048=IFCRELDEFINESBYPROPERTIES('2shMTNi6DV0fzTNdMV58hA',$,$,$,(#1038),#1047);
#1049=IFCRELSEQUENCE('3nSRQAyBjTZRaULH4Sbd68',$,$,$,#1025,#1038,$,.FINISH_START.,$);
#1050=IFCTASKTIME($,$,$,.WORKTIME.,'PT0H22M','2026-10-12T15:14:00','2026-10-12T15:36:00',$,$,$,$,$,$,$,$,$,$,$,$,$);
#1051=IFCTASK('1AUFtloZjPtPjl8JUOgLk7',$,'Montage dach R-N2',$,$,'R-N2',$,$,$,.F.,$,#1050,.INSTALLATION.);
#1052=IFCRELASSIGNSTOPRODUCT('1JxJN4BDTKghcy4E9_tQpM',$,$,$,(#1051),$,#428);
#1053=IFCPROPERTYSINGLEVALUE('Hublast_kg',$,IFCREAL(1373.0999999999999),$);
#1054=IFCPROPERTYSINGLEVALUE('Radius_Aufnahme_m',$,IFCREAL(9.7739999999999991),$);
#1055=IFCPROPERTYSINGLEVALUE('Radius_Absetzen_m',$,IFCREAL(17.279),$);
#1056=IFCPROPERTYSINGLEVALUE('Traglast_Beispiel_kg',$,IFCREAL(2952.4000000000001),$);
#1057=IFCPROPERTYSINGLEVALUE('Auslastung',$,IFCREAL(0.46510000000000001),$);
#1058=IFCPROPERTYSINGLEVALUE('Wind_zul_ms',$,IFCREAL(2.8500000000000001),$);
#1059=IFCPROPERTYSINGLEVALUE('LastUeberNachbar',$,IFCBOOLEAN(.F.),$);
#1060=IFCPROPERTYSET('3JIelOCsHI4gP2ls_w$OU1',$,'HRB_Kranhub',$,(#1053,#1054,#1055,#1056,#1057,#1058,#1059));
#1061=IFCRELDEFINESBYPROPERTIES('1i3epAahHLuw37gnDoZzxg',$,$,$,(#1051),#1060);
#1062=IFCRELSEQUENCE('3rTUyNquPRMxA99mKRQIi5',$,$,$,#1038,#1051,$,.FINISH_START.,$);
#1063=IFCTASKTIME($,$,$,.WORKTIME.,'PT0H22M','2026-10-12T15:36:00','2026-10-12T15:58:00',$,$,$,$,$,$,$,$,$,$,$,$,$);
#1064=IFCTASK('27Vm5QsxvRRwP$ypMmwFTe',$,'Montage dach R-N3',$,$,'R-N3',$,$,$,.F.,$,#1063,.INSTALLATION.);
#1065=IFCRELASSIGNSTOPRODUCT('2RjWHju2TRlwUtW58BOMjv',$,$,$,(#1064),$,#445);
#1066=IFCPROPERTYSINGLEVALUE('Hublast_kg',$,IFCREAL(1373.0999999999999),$);
#1067=IFCPROPERTYSINGLEVALUE('Radius_Aufnahme_m',$,IFCREAL(9.7739999999999991),$);
#1068=IFCPROPERTYSINGLEVALUE('Radius_Absetzen_m',$,IFCREAL(15.923999999999999),$);
#1069=IFCPROPERTYSINGLEVALUE('Traglast_Beispiel_kg',$,IFCREAL(3434.4000000000001),$);
#1070=IFCPROPERTYSINGLEVALUE('Auslastung',$,IFCREAL(0.39979999999999999),$);
#1071=IFCPROPERTYSINGLEVALUE('Wind_zul_ms',$,IFCREAL(2.8500000000000001),$);
#1072=IFCPROPERTYSINGLEVALUE('LastUeberNachbar',$,IFCBOOLEAN(.F.),$);
#1073=IFCPROPERTYSET('2ikNw7FKfIMQHbTtNJPDFb',$,'HRB_Kranhub',$,(#1066,#1067,#1068,#1069,#1070,#1071,#1072));
#1074=IFCRELDEFINESBYPROPERTIES('3QQns4HMzVuOlIvlgWeMJa',$,$,$,(#1064),#1073);
#1075=IFCRELSEQUENCE('2gPAHhKFHQJRZet77IxVbn',$,$,$,#1051,#1064,$,.FINISH_START.,$);
#1076=IFCTASKTIME($,$,$,.WORKTIME.,'PT0H22M','2026-10-13T07:00:00','2026-10-13T07:22:00',$,$,$,$,$,$,$,$,$,$,$,$,$);
#1077=IFCTASK('3JeunOqk1Gp9GEPGJWxGTU',$,'Montage dach R-N4',$,$,'R-N4',$,$,$,.F.,$,#1076,.INSTALLATION.);
#1078=IFCRELASSIGNSTOPRODUCT('1wg0rljL5KPhTC4nqyALBS',$,$,$,(#1077),$,#462);
#1079=IFCPROPERTYSINGLEVALUE('Hublast_kg',$,IFCREAL(1373.0999999999999),$);
#1080=IFCPROPERTYSINGLEVALUE('Radius_Aufnahme_m',$,IFCREAL(9.7739999999999991),$);
#1081=IFCPROPERTYSINGLEVALUE('Radius_Absetzen_m',$,IFCREAL(15.052),$);
#1082=IFCPROPERTYSINGLEVALUE('Traglast_Beispiel_kg',$,IFCREAL(3826.5999999999999),$);
#1083=IFCPROPERTYSINGLEVALUE('Auslastung',$,IFCREAL(0.35880000000000001),$);
#1084=IFCPROPERTYSINGLEVALUE('Wind_zul_ms',$,IFCREAL(2.8500000000000001),$);
#1085=IFCPROPERTYSINGLEVALUE('LastUeberNachbar',$,IFCBOOLEAN(.F.),$);
#1086=IFCPROPERTYSET('2jbFRIBMrGVfsWkJRA0O3_',$,'HRB_Kranhub',$,(#1079,#1080,#1081,#1082,#1083,#1084,#1085));
#1087=IFCRELDEFINESBYPROPERTIES('2BXmIpY_1IXg94Ylrm4Bgd',$,$,$,(#1077),#1086);
#1088=IFCRELSEQUENCE('0k1S0RKY1V_OI1ns0QEO8W',$,$,$,#1064,#1077,$,.FINISH_START.,$);
#1089=IFCTASKTIME($,$,$,.WORKTIME.,'PT1H0M','2026-10-13T07:22:00','2026-10-13T08:22:00',$,$,$,$,$,$,$,$,$,$,$,$,$);
#1090=IFCTASK('06XpVudzPRyxILYwB0kWU5',$,'Kran abr\X2\00FC\X0\sten',$,$,'ABRUESTEN',$,$,$,.F.,$,#1089,.CONSTRUCTION.);
#1091=IFCRELSEQUENCE('1hyvJjHPXNgRjBPPQ5lvH4',$,$,$,#1077,#1090,$,.FINISH_START.,$);
#1092=IFCTASKTIME($,$,$,.ELAPSEDTIME.,$,'2026-10-12T05:50:00','2026-10-12T09:12:00',$,$,$,$,$,$,$,$,$,$,$,$,$);
#1093=IFCTASK('0Vaw94RJ5Gse4wE0Nhbr43',$,'Anlieferung LKW 1',$,$,'LKW1',$,$,$,.F.,$,#1092,.MOVE.);
#1094=IFCPROPERTYSINGLEVALUE('SpecialInstructions',$,IFCTEXT('Innenlader-Sattelzug (BEISPIEL); Beladereihenfolge W-O2, W-O1, W-S2, W-S1'),$);
#1095=IFCPROPERTYSET('03kR13EWrHaRbplcw0qDfr',$,'Pset_PackingInstructions',$,(#1094));
#1096=IFCRELDEFINESBYPROPERTIES('1gny7ZNeHTKxLtCOHoM5sO',$,$,$,(#1093),#1095);
#1097=IFCRELASSIGNSTOPROCESS('0PWJIfXPvKk9pgiMvuOPLU',$,$,$,(#742),$,#1093,$);
#1098=IFCRELSEQUENCE('21UK2TxcvRJOT$yvVJwVq1',$,$,$,#1093,#752,$,.FINISH_START.,$);
#1099=IFCTASKTIME($,$,$,.ELAPSEDTIME.,$,'2026-10-12T07:02:00','2026-10-12T10:24:00',$,$,$,$,$,$,$,$,$,$,$,$,$);
#1100=IFCTASK('385OgYGVbK6Ar1oPdM3bVq',$,'Anlieferung LKW 2',$,$,'LKW2',$,$,$,.F.,$,#1099,.MOVE.);
#1101=IFCPROPERTYSINGLEVALUE('SpecialInstructions',$,IFCTEXT('Innenlader-Sattelzug (BEISPIEL); Beladereihenfolge W-W2, W-W1, W-N2, W-N1'),$);
#1102=IFCPROPERTYSET('1S77BFu$vGt8wbQt7BoVeG',$,'Pset_PackingInstructions',$,(#1101));
#1103=IFCRELDEFINESBYPROPERTIES('0d6r26lc1Nuen6V92OC8um',$,$,$,(#1100),#1102);
#1104=IFCRELASSIGNSTOPROCESS('2MA_uEU09T$R7pcJu$maDp',$,$,$,(#742),$,#1100,$);
#1105=IFCRELSEQUENCE('3KQ_N_87rHCg_mTwEYY7uX',$,$,$,#1100,#804,$,.FINISH_START.,$);
#1106=IFCTASKTIME($,$,$,.ELAPSEDTIME.,$,'2026-10-12T08:14:00','2026-10-12T12:54:00',$,$,$,$,$,$,$,$,$,$,$,$,$);
#1107=IFCTASK('3OHFj_kJTVVwY4FI0yiG3B',$,'Anlieferung LKW 3',$,$,'LKW3',$,$,$,.F.,$,#1106,.MOVE.);
#1108=IFCPROPERTYSINGLEVALUE('SpecialInstructions',$,IFCTEXT('Plateau-Sattelzug (BEISPIEL); Beladereihenfolge G-WN, G-WS, D-6, D-5, D-4, D-3, D-2, D-1'),$);
#1109=IFCPROPERTYSET('2Clllx6A1QPOXJ2hrA8sQe',$,'Pset_PackingInstructions',$,(#1108));
#1110=IFCRELDEFINESBYPROPERTIES('3emS6kqS9RQeEGu1HMqVEQ',$,$,$,(#1107),#1109);
#1111=IFCRELASSIGNSTOPROCESS('1hVwdcv4HIAuK1gzfiVCG7',$,$,$,(#742),$,#1107,$);
#1112=IFCRELSEQUENCE('2LL45e6ovMmQlTWwwbjnYm',$,$,$,#1107,#856,$,.FINISH_START.,$);
#1113=IFCTASKTIME($,$,$,.ELAPSEDTIME.,$,'2026-10-12T10:44:00','2026-10-12T13:24:00',$,$,$,$,$,$,$,$,$,$,$,$,$);
#1114=IFCTASK('0IZgTYRPnLpOzTsQkqYoou',$,'Anlieferung LKW 4',$,$,'LKW4',$,$,$,.F.,$,#1113,.MOVE.);
#1115=IFCPROPERTYSINGLEVALUE('SpecialInstructions',$,IFCTEXT('Plateau-Sattelzug (BEISPIEL); Beladereihenfolge G-ON, G-OS'),$);
#1116=IFCPROPERTYSET('0xWc0CiUjKBRQyfA$2X0Wo',$,'Pset_PackingInstructions',$,(#1115));
#1117=IFCRELDEFINESBYPROPERTIES('2vb$xkRYjTRAaGcD2EM$dl',$,$,$,(#1114),#1116);
#1118=IFCRELASSIGNSTOPROCESS('20_R1KHRjQfhDrE9RJ_FUh',$,$,$,(#742),$,#1114,$);
#1119=IFCRELSEQUENCE('1aJ_8LZSPTdRhaTs3kM_Y7',$,$,$,#1114,#960,$,.FINISH_START.,$);
#1120=IFCTASKTIME($,$,$,.ELAPSEDTIME.,$,'2026-10-12T11:14:00','2026-10-12T14:52:00',$,$,$,$,$,$,$,$,$,$,$,$,$);
#1121=IFCTASK('3BsLWyDGDMAP8TeD9qMVqY',$,'Anlieferung LKW 5',$,$,'LKW5',$,$,$,.F.,$,#1120,.MOVE.);
#1122=IFCPROPERTYSINGLEVALUE('SpecialInstructions',$,IFCTEXT('Innenlader-Sattelzug (BEISPIEL); Beladereihenfolge R-S4, R-S3, R-S2, R-S1'),$);
#1123=IFCPROPERTYSET('2AL$UDDOvSzfEfcjWUxsLH',$,'Pset_PackingInstructions',$,(#1122));
#1124=IFCRELDEFINESBYPROPERTIES('24_OTgVl5NxxLR3CYdCzcw',$,$,$,(#1121),#1123);
#1125=IFCRELASSIGNSTOPROCESS('2cCHRqKxzTqh$IIAZRmv3h',$,$,$,(#742),$,#1121,$);
#1126=IFCRELSEQUENCE('1pY$4VYUDR6hhxPm3Q7hWB',$,$,$,#1121,#986,$,.FINISH_START.,$);
#1127=IFCTASKTIME($,$,$,.ELAPSEDTIME.,$,'2026-10-12T12:42:00','2026-10-13T07:22:00',$,$,$,$,$,$,$,$,$,$,$,$,$);
#1128=IFCTASK('189I1xXl9OU8P7sGWklh1I',$,'Anlieferung LKW 6',$,$,'LKW6',$,$,$,.F.,$,#1127,.MOVE.);
#1129=IFCPROPERTYSINGLEVALUE('SpecialInstructions',$,IFCTEXT('Innenlader-Sattelzug (BEISPIEL); Beladereihenfolge R-N4, R-N3, R-N2, R-N1'),$);
#1130=IFCPROPERTYSET('3zgOnnbUzPEByZJJ13Ez6a',$,'Pset_PackingInstructions',$,(#1129));
#1131=IFCRELDEFINESBYPROPERTIES('2rGQC8_81LRu8o95v05eRO',$,$,$,(#1128),#1130);
#1132=IFCRELASSIGNSTOPROCESS('1fPNAVmmrIORoIcpDopmxn',$,$,$,(#742),$,#1128,$);
#1133=IFCRELSEQUENCE('1iurgVHy5OC9F4go7SVoEh',$,$,$,#1128,#1038,$,.FINISH_START.,$);
#1134=IFCRELNESTS('1HGZKOnDDRGgTJXZzM90n0',$,$,$,#746,(#750,#752,#765,#778,#791,#804,#817,#830,#843,#856,#869,#882,#895,#908,#921,#934,#947,#960,#973,#986,#999,#1012,#1025,#1038,#1051,#1064,#1077,#1090,#1093,#1100,#1107,#1114,#1121,#1128));
ENDSEC;
END-ISO-10303-21;
